<svg width="25" height="24" viewBox="0 0 25 24" fill="none" xmlns="http://www.w3.org/2000/svg">
<path d="M22.6667 16.7399V4.66994C22.6667 3.46994 21.6867 2.57994 20.4967 2.67994H20.4367C18.3367 2.85994 15.1467 3.92994 13.3667 5.04994L13.1967 5.15994C12.9067 5.33994 12.4267 5.33994 12.1367 5.15994L11.8867 5.00994C10.1067 3.89994 6.92675 2.83994 4.82675 2.66994C3.63675 2.56994 2.66675 3.46994 2.66675 4.65994V16.7399C2.66675 17.6999 3.44675 18.5999 4.40675 18.7199L4.69675 18.7599C6.86675 19.0499 10.2167 20.1499 12.1367 21.1999L12.1767 21.2199C12.4467 21.3699 12.8767 21.3699 13.1367 21.2199C15.0567 20.1599 18.4167 19.0499 20.5967 18.7599L20.9267 18.7199C21.8867 18.5999 22.6667 17.6999 22.6667 16.7399Z" stroke="#697386" stroke-width="1.5" stroke-linecap="round" stroke-linejoin="round"/>
<path d="M12.6667 5.48999V20.49" stroke="#697386" stroke-width="1.5" stroke-linecap="round" stroke-linejoin="round"/>
<path d="M8.41675 8.48999H6.16675" stroke="#697386" stroke-width="1.5" stroke-linecap="round" stroke-linejoin="round"/>
<path d="M9.16675 11.49H6.16675" stroke="#697386" stroke-width="1.5" stroke-linecap="round" stroke-linejoin="round"/>
</svg>
