<svg width="32" height="44" viewBox="0 0 32 44" fill="none" xmlns="http://www.w3.org/2000/svg">
<path d="M7.36287 20.1647C8.56553 22.5077 10.6519 24.319 13.1837 25.1532C12.652 23.7672 12.267 22.0402 12.0305 20.1647H7.36287ZM25.3039 10.998C24.1012 8.65505 22.0149 6.84371 19.483 6.00955C20.0147 7.39555 20.3997 9.12255 20.6362 10.998H25.3039ZM17.2739 5.54571C16.964 5.51638 16.6505 5.49805 16.3334 5.49805C16.0162 5.49805 15.7027 5.51638 15.3929 5.54571C14.8154 6.58705 14.2195 8.43871 13.8749 10.998H18.7919C18.4472 8.43871 17.8514 6.58705 17.2739 5.54571ZM7.36287 10.998H12.0305C12.267 9.12071 12.6539 7.39371 13.1837 6.00955C10.6519 6.84555 8.5637 8.65688 7.36287 10.998ZM11.75 15.5814C11.75 14.6592 11.7867 13.737 11.8527 12.8314H6.64053C6.3912 13.7077 6.25003 14.6262 6.25003 15.5814C6.25003 16.5365 6.3912 17.455 6.64053 18.3314H11.8527C11.7867 17.4257 11.75 16.5035 11.75 15.5814ZM26.0262 12.8314H20.814C20.88 13.737 20.9167 14.6592 20.9167 15.5814C20.9167 16.5035 20.88 17.4257 20.814 18.3314H26.0262C26.2755 17.455 26.4167 16.5365 26.4167 15.5814C26.4167 14.6262 26.2755 13.7077 26.0262 12.8314ZM15.3929 25.617C15.7027 25.6464 16.0162 25.6647 16.3334 25.6647C16.6505 25.6647 16.964 25.6464 17.2739 25.617C17.8514 24.5757 18.4472 22.724 18.7919 20.1647H13.8749C14.2195 22.724 14.8154 24.5757 15.3929 25.617ZM26.4442 27.4174C29.7864 24.5555 31.9167 20.315 31.9167 15.5814C31.9167 6.98855 24.9262 -0.00195312 16.3334 -0.00195312C7.74053 -0.00195312 0.750033 6.98855 0.750033 15.5814C0.750033 20.315 2.88037 24.5555 6.22253 27.4174L0.801367 42.777C0.6767 43.1272 0.779366 43.5214 1.05987 43.7689C1.2322 43.9192 1.44853 43.998 1.6667 43.998C1.80603 43.998 1.9472 43.965 2.07737 43.9009L8.88637 40.4964L13.0114 43.7982C13.2589 43.9962 13.5907 44.0494 13.8895 43.9467C14.1884 43.8404 14.412 43.591 14.4799 43.2812L15.7467 37.5795L18.2419 43.4407C18.3537 43.7065 18.5829 43.9009 18.8615 43.9705C19.1347 44.0457 19.4335 43.976 19.659 43.7982L23.784 40.4964L30.593 43.9009C30.7195 43.965 30.8607 43.998 31 43.998C31.2182 43.998 31.4345 43.9192 31.6069 43.7689C31.8874 43.5214 31.9882 43.1272 31.8654 42.777L26.4442 27.4174ZM20.7829 28.5779L17.943 29.2287C17.415 29.291 16.8797 29.3314 16.3334 29.3314C8.7507 29.3314 2.58337 23.164 2.58337 15.5814C2.58337 7.99871 8.7507 1.83138 16.3334 1.83138C23.916 1.83138 30.0834 7.99871 30.0834 15.5814C30.0834 21.6057 26.1857 26.7244 20.7829 28.5779ZM13.6934 12.8314C13.6274 13.6967 13.5834 14.6024 13.5834 15.5814C13.5834 16.5604 13.6274 17.466 13.6934 18.3314H18.9734C19.0394 17.466 19.0834 16.5604 19.0834 15.5814C19.0834 14.6024 19.0394 13.6967 18.9734 12.8314H13.6934ZM19.483 25.1532C22.0149 24.319 24.1012 22.5077 25.3039 20.1647H20.6362C20.3997 22.042 20.0129 23.769 19.483 25.1532Z" fill="#008554"/>
</svg>
