<svg width="33" height="32" viewBox="0 0 33 32" fill="none" xmlns="http://www.w3.org/2000/svg">
<g clip-path="url(#clip0_1308_21836)">
<path d="M32.4647 9.15502C32.2621 8.90779 31.9969 8.71936 31.6968 8.60933C31.3966 8.4993 31.0725 8.47169 30.7581 8.52936C30.4437 8.58704 30.1505 8.7279 29.9089 8.93729C29.6674 9.14668 29.4864 9.41696 29.3847 9.72002L27.7397 14.645C28.0702 14.8357 28.3619 15.0867 28.5997 15.385C29.0957 16.0031 29.3345 16.7885 29.2666 17.5781C29.1986 18.3677 28.829 19.1008 28.2347 19.625L25.1147 22.375C25.0242 22.4565 24.9065 22.5011 24.7847 22.5C24.7137 22.5002 24.6434 22.4851 24.5787 22.4558C24.514 22.4264 24.4564 22.3835 24.4097 22.33C24.3232 22.2301 24.2795 22.1002 24.2879 21.9683C24.2963 21.8364 24.3562 21.7131 24.4547 21.625L27.5747 18.875C27.9761 18.5195 28.2255 18.0233 28.2711 17.489C28.3167 16.9547 28.1551 16.4234 27.8197 16.005C27.6412 15.7828 27.4192 15.5994 27.1673 15.4662C26.9153 15.3329 26.6388 15.2525 26.3547 15.23C26.0708 15.208 25.7853 15.2446 25.5161 15.3375C25.2469 15.4304 24.9996 15.5776 24.7897 15.77L19.9997 20.13C19.9391 20.1867 19.8929 20.257 19.8647 20.335L17.4047 27.335C17.3772 27.4102 17.3683 27.491 17.3788 27.5704C17.3894 27.6498 17.419 27.7254 17.4653 27.7908C17.5115 27.8562 17.5729 27.9094 17.6442 27.9458C17.7155 27.9823 17.7946 28.0009 17.8747 28H25.1547C25.2593 27.9993 25.3611 27.9662 25.4461 27.9053C25.5311 27.8445 25.5953 27.7588 25.6297 27.66L26.0897 26.27L30.5347 21.855C30.6063 21.785 30.6536 21.6939 30.6697 21.595L32.8397 10.64C32.8923 10.3802 32.886 10.1119 32.8211 9.85487C32.7562 9.59785 32.6344 9.35868 32.4647 9.15502Z" fill="#008554"/>
<path d="M13.8848 20.335C13.8566 20.257 13.8104 20.1867 13.7498 20.13L8.95978 15.77C8.74983 15.5776 8.50257 15.4304 8.23336 15.3375C7.96415 15.2446 7.67872 15.208 7.39478 15.23C7.11066 15.2525 6.83414 15.3329 6.58221 15.4662C6.33028 15.5994 6.10826 15.7828 5.92978 16.005C5.5944 16.4234 5.43278 16.9547 5.47839 17.489C5.52399 18.0233 5.77334 18.5195 6.17478 18.875L9.29478 21.625C9.39324 21.7131 9.45313 21.8364 9.46155 21.9683C9.46997 22.1002 9.42624 22.2301 9.33978 22.33C9.29309 22.3835 9.23545 22.4264 9.17075 22.4558C9.10606 22.4851 9.03582 22.5002 8.96478 22.5C8.84301 22.5011 8.72525 22.4565 8.63478 22.375L5.51478 19.625C4.92043 19.1008 4.55088 18.3677 4.48291 17.5781C4.41494 16.7885 4.65377 16.0031 5.14978 15.385C5.38759 15.0867 5.67931 14.8357 6.00978 14.645L4.36478 9.72002C4.26309 9.41696 4.08207 9.14668 3.84054 8.93729C3.59901 8.7279 3.30579 8.58704 2.99137 8.52936C2.67696 8.47169 2.35284 8.4993 2.05271 8.60933C1.75258 8.71936 1.48741 8.90779 1.28478 9.15502C1.11509 9.35868 0.993306 9.59785 0.928402 9.85487C0.863497 10.1119 0.857134 10.3802 0.909781 10.64L3.07978 21.595C3.09582 21.6939 3.14314 21.785 3.21478 21.855L7.65978 26.27L8.11978 27.66C8.1542 27.7588 8.21833 27.8445 8.30337 27.9053C8.38841 27.9662 8.4902 27.9993 8.59478 28H15.8748C15.9549 28.0009 16.034 27.9823 16.1053 27.9458C16.1766 27.9094 16.238 27.8562 16.2842 27.7908C16.3304 27.7254 16.3601 27.6498 16.3706 27.5704C16.3812 27.491 16.3723 27.4102 16.3448 27.335L13.8848 20.335Z" fill="#008554"/>
<path d="M7.69385 8.46619L16.6938 11.9662C16.8104 12.0114 16.9396 12.0114 17.0562 11.9662L25.375 8.73108V10.9185L24.4111 13.3134C24.3805 13.3892 24.3691 13.4715 24.3777 13.5528C24.3863 13.6342 24.4147 13.7122 24.4605 13.78C24.5063 13.8478 24.5681 13.9034 24.6403 13.9417C24.7126 13.9801 24.7932 14.0002 24.875 14.0001H26.875C26.9568 14.0002 27.0374 13.9801 27.1097 13.9417C27.1819 13.9034 27.2437 13.8478 27.2895 13.78C27.3353 13.7122 27.3637 13.6342 27.3723 13.5528C27.3809 13.4715 27.3695 13.3892 27.3389 13.3134L26.375 10.9185V8.00012C26.3721 7.90005 26.3405 7.80293 26.284 7.72031C26.2274 7.63768 26.1484 7.57303 26.0562 7.53406L17.0562 4.03406C16.9397 3.98865 16.8103 3.98865 16.6938 4.03406L7.69385 7.53406C7.59993 7.57057 7.51924 7.63461 7.46234 7.71777C7.40544 7.80094 7.375 7.89936 7.375 8.00012C7.375 8.10089 7.40544 8.19931 7.46234 8.28247C7.51924 8.36564 7.59993 8.42967 7.69385 8.46619Z" fill="#008554"/>
<path d="M22.875 13.3599V10.7799L17.42 12.8999C17.2458 12.9657 17.0612 12.9996 16.875 12.9999C16.6883 13.0004 16.5032 12.9647 16.33 12.8949L10.875 10.7749V13.3599C10.8749 13.4607 10.9054 13.5592 10.9626 13.6422C11.0198 13.7253 11.1008 13.789 11.195 13.8249L16.695 15.9649C16.8105 16.0116 16.9395 16.0116 17.055 15.9649L22.555 13.8249C22.6492 13.789 22.7302 13.7253 22.7874 13.6422C22.8446 13.5592 22.8751 13.4607 22.875 13.3599Z" fill="#008554"/>
<path d="M26.8755 6.0001C26.974 6.00013 27.0704 5.97089 27.1523 5.9161L28.6523 4.9161C28.7076 4.87997 28.7552 4.83324 28.7923 4.77861C28.8294 4.72399 28.8554 4.66255 28.8686 4.59785C28.8819 4.53314 28.8822 4.46646 28.8695 4.40164C28.8568 4.33682 28.8314 4.27515 28.7948 4.2202C28.7582 4.16524 28.711 4.11809 28.656 4.08147C28.6011 4.04485 28.5394 4.01948 28.4746 4.00682C28.4097 3.99417 28.3431 3.99448 28.2784 4.00775C28.2137 4.02101 28.1522 4.04696 28.0976 4.0841L26.5976 5.0841C26.5083 5.14365 26.4405 5.23037 26.4043 5.33142C26.3681 5.43248 26.3654 5.54251 26.3965 5.64523C26.4277 5.74796 26.4911 5.83793 26.5773 5.90184C26.6636 5.96574 26.7681 6.0002 26.8755 6.0001Z" fill="#008554"/>
<path d="M26.875 7C26.875 7.06567 26.8879 7.13069 26.913 7.19136C26.9381 7.25203 26.975 7.30716 27.0214 7.35359C27.0678 7.40002 27.123 7.43685 27.1836 7.46197C27.2443 7.4871 27.3093 7.50002 27.375 7.5H30.375C30.5076 7.5 30.6348 7.44732 30.7286 7.35355C30.8223 7.25979 30.875 7.13261 30.875 7C30.875 6.86739 30.8223 6.74021 30.7286 6.64645C30.6348 6.55268 30.5076 6.5 30.375 6.5H27.375C27.3093 6.49998 27.2443 6.5129 27.1836 6.53803C27.123 6.56315 27.0678 6.59998 27.0214 6.64641C26.975 6.69284 26.9381 6.74797 26.913 6.80864C26.8879 6.86931 26.875 6.93433 26.875 7Z" fill="#008554"/>
<path d="M6.59732 5.91602C6.70766 5.98804 6.84196 6.01359 6.97104 5.98712C7.10012 5.96066 7.21353 5.88431 7.28663 5.77467C7.35972 5.66504 7.38658 5.53099 7.36137 5.40166C7.33616 5.27233 7.26092 5.15817 7.15201 5.08402L5.65201 4.08402C5.59739 4.04683 5.53595 4.02084 5.47123 4.00754C5.40651 3.99425 5.3398 3.99391 5.27495 4.00655C5.2101 4.01919 5.14839 4.04456 5.09341 4.08119C5.03842 4.11782 4.99124 4.16498 4.95459 4.21996C4.91793 4.27493 4.89254 4.33662 4.87988 4.40147C4.86721 4.46631 4.86752 4.53303 4.8808 4.59775C4.89407 4.66248 4.92004 4.72393 4.9572 4.77856C4.99436 4.83318 5.04199 4.8799 5.09732 4.91602L6.59732 5.91602Z" fill="#008554"/>
<path d="M3.375 7.5H6.375C6.50761 7.5 6.63479 7.44732 6.72855 7.35355C6.82232 7.25979 6.875 7.13261 6.875 7C6.875 6.86739 6.82232 6.74021 6.72855 6.64645C6.63479 6.55268 6.50761 6.5 6.375 6.5H3.375C3.24239 6.5 3.11521 6.55268 3.02145 6.64645C2.92768 6.74021 2.875 6.86739 2.875 7C2.875 7.13261 2.92768 7.25979 3.02145 7.35355C3.11521 7.44732 3.24239 7.5 3.375 7.5Z" fill="#008554"/>
</g>
<defs>
<clipPath id="clip0_1308_21836">
<rect width="32" height="32" fill="white" transform="translate(0.875)"/>
</clipPath>
</defs>
</svg>
