<svg width="50" height="82" viewBox="0 0 50 82" fill="none" xmlns="http://www.w3.org/2000/svg">
<path opacity="0.2" d="M31.85 80.4626C31.85 81.2404 28.6455 81.8697 24.6934 81.8697C20.7399 81.8697 17.5367 81.2391 17.5367 80.4626C17.5367 79.6848 20.7413 79.0554 24.6934 79.0554C28.6455 79.0554 31.85 79.6848 31.85 80.4626Z" fill="#212121"/>
<path d="M26.8704 49.2806C39.4862 48.177 49.3835 37.5938 49.3835 24.6917C49.3835 10.5269 37.4562 -0.851215 23.0983 0.050097C10.8689 0.817395 0.897921 10.7266 0.0596745 22.9521C-0.877112 36.6281 9.33163 48.1245 22.5071 49.2793C23.3926 49.3569 24.0693 50.1018 24.0693 50.9913V71.1697C24.0693 71.8358 23.6935 72.4599 23.0825 72.7253C21.4796 73.419 20.4141 75.1126 20.6939 77.0282C20.9515 78.7927 22.4243 80.2209 24.1954 80.4324C26.6497 80.7254 28.7348 78.815 28.7348 76.4199C28.7348 74.7565 27.7271 73.3375 26.291 72.7213C25.6827 72.4599 25.3148 71.8318 25.3148 71.1697V50.9926C25.3148 50.1058 25.9875 49.3582 26.8704 49.2806Z" fill="#8C93A1"/>
<g filter="url(#filter0_d_326_1348)">
<mask id="mask0_326_1348" style="mask-type:luminance" maskUnits="userSpaceOnUse" x="7" y="7" width="36" height="36">
<path d="M43 25C43 29.7739 41.1036 34.3523 37.7279 37.7279C34.3523 41.1036 29.7739 43 25 43C20.2261 43 15.6477 41.1036 12.2721 37.7279C8.89643 34.3523 7 29.7739 7 25C7 20.2261 8.89643 15.6477 12.2721 12.2721C15.6477 8.89642 20.2261 7 25 7C29.7739 7 34.3523 8.89642 37.7279 12.2721C41.1036 15.6477 43 20.2261 43 25Z" fill="white"/>
</mask>
<g mask="url(#mask0_326_1348)">
<path d="M7.00891 31.7476H43.0041V42.9961H7.00891V31.7476Z" fill="#27AE60"/>
<path d="M7.00891 7.00098H43.0041V18.2495H7.00891V7.00098Z" fill="#222222"/>
<path d="M7.00885 30.2478H43.0041V31.7476H7.00885V30.2478Z" fill="white"/>
<path d="M7.00885 18.2493H43.0041V19.7491H7.00885V18.2493Z" fill="white"/>
<path d="M7.00891 19.3743H43.0041V30.6228H7.00891V19.3743Z" fill="#E74C3C"/>
<path d="M7.15887 20.3491V29.6478H22.1806C22.6268 31.1976 24.1141 34.2972 25.0065 34.2972C25.8989 34.2972 27.3862 31.1976 27.8324 29.6478H42.8541V20.3491H27.8324C27.3862 18.7993 25.8989 15.6997 25.0065 15.6997C24.1141 15.6997 22.6268 18.7993 22.1806 20.3491H7.15887Z" fill="#E74C3C"/>
<path d="M20.8018 33.7501L21.0561 33.9288L27.915 19.4713C28.3162 19.3405 28.5364 18.8762 28.7567 18.412C28.9035 18.1025 29.4908 16.8645 29.7454 15.2558C28.7279 16.3284 28.1405 17.5664 27.9937 17.8759C27.7735 18.3402 27.5532 18.8044 27.6607 19.2926L20.8018 33.7501Z" fill="black" stroke="black" stroke-width="0.266263"/>
<path d="M20.8018 33.7501L21.0561 33.9288L27.915 19.4713C28.3162 19.3405 28.5364 18.8762 28.7567 18.412C28.9035 18.1025 29.4908 16.8645 29.7454 15.2558C28.7279 16.3284 28.1405 17.5664 27.9937 17.8759C27.7735 18.3402 27.5532 18.8044 27.6607 19.2926L20.8018 33.7501Z" fill="white"/>
<path d="M29.1943 33.7501L28.94 33.9288L22.0811 19.4713C21.6799 19.3405 21.4597 18.8762 21.2394 18.412C21.0926 18.1025 20.5053 16.8645 20.2507 15.2558C21.2682 16.3284 21.8555 17.5664 22.0024 17.8759C22.2226 18.3402 22.4429 18.8044 22.3354 19.2926L29.1943 33.7501Z" fill="black" stroke="black" stroke-width="0.266263"/>
<path d="M29.1943 33.7501L28.94 33.9288L22.0811 19.4713C21.6799 19.3405 21.4597 18.8762 21.2394 18.412C21.0926 18.1025 20.5053 16.8645 20.2507 15.2558C21.2682 16.3284 21.8555 17.5664 22.0024 17.8759C22.2226 18.3402 22.4429 18.8044 22.3354 19.2926L29.1943 33.7501Z" fill="white"/>
<path d="M27.7879 29.5512C28.2284 28.1216 28.522 26.6921 28.522 25.2625C28.522 23.833 28.2284 22.4034 27.7879 20.9739C27.3474 22.4034 27.0537 23.833 27.0537 25.2625C27.0537 26.6921 27.3474 28.1216 27.7879 29.5512Z" fill="black"/>
<path d="M22.2082 29.5512C21.7677 28.1216 21.4741 26.6921 21.4741 25.2625C21.4741 23.833 21.7677 22.4034 22.2082 20.9739C22.6487 22.4034 22.9424 23.833 22.9424 25.2625C22.9424 26.6921 22.6487 28.1216 22.2082 29.5512Z" fill="black"/>
<path d="M24.998 26.3348C25.3224 26.3348 25.5854 25.8547 25.5854 25.2626C25.5854 24.6705 25.3224 24.1904 24.998 24.1904C24.6737 24.1904 24.4107 24.6705 24.4107 25.2626C24.4107 25.8547 24.6737 26.3348 24.998 26.3348Z" fill="white"/>
<path d="M25.1448 26.3079C25.1448 26.3079 25.7322 27.7374 25.7322 30.0604C25.7322 32.3834 25.1448 33.813 25.1448 33.813V26.3079Z" fill="white"/>
<path d="M24.8512 24.2173C24.8512 24.2173 24.2639 22.7877 24.2639 20.4647C24.2639 18.1417 24.8512 16.7122 24.8512 16.7122V24.2173Z" fill="white"/>
<path d="M24.8512 26.3079C24.8512 26.3079 24.2639 27.7374 24.2639 30.0604C24.2639 32.3834 24.8512 33.813 24.8512 33.813V26.3079Z" fill="white"/>
<path d="M25.1448 24.2173C25.1448 24.2173 25.7322 22.7877 25.7322 20.4647C25.7322 18.1417 25.1448 16.7122 25.1448 16.7122V24.2173Z" fill="white"/>
</g>
</g>
<defs>
<filter id="filter0_d_326_1348" x="2.89" y="4.945" width="44.22" height="44.22" filterUnits="userSpaceOnUse" color-interpolation-filters="sRGB">
<feFlood flood-opacity="0" result="BackgroundImageFix"/>
<feColorMatrix in="SourceAlpha" type="matrix" values="0 0 0 0 0 0 0 0 0 0 0 0 0 0 0 0 0 0 127 0" result="hardAlpha"/>
<feOffset dy="2.055"/>
<feGaussianBlur stdDeviation="2.055"/>
<feComposite in2="hardAlpha" operator="out"/>
<feColorMatrix type="matrix" values="0 0 0 0 0.215686 0 0 0 0 0.254902 0 0 0 0 0.317647 0 0 0 0.1 0"/>
<feBlend mode="normal" in2="BackgroundImageFix" result="effect1_dropShadow_326_1348"/>
<feBlend mode="normal" in="SourceGraphic" in2="effect1_dropShadow_326_1348" result="shape"/>
</filter>
</defs>
</svg>
