<svg width="181" height="184" viewBox="0 0 181 184" fill="none" xmlns="http://www.w3.org/2000/svg">
<path d="M56.3373 2.80174C56.9468 2.43346 57.5954 2.15445 58.2647 1.96429L58.6616 0.0564665L61.8848 0L62.3485 1.89246C63.0241 2.05896 63.6821 2.31513 64.3041 2.66182L65.9329 1.59394L68.2518 3.83309L67.242 5.49803C67.6103 6.10753 67.8897 6.75649 68.0795 7.42578L69.9869 7.82271L70.0434 11.0459L68.1509 11.5097C67.9844 12.1848 67.7282 12.8428 67.3815 13.4652L68.449 15.094L66.2103 17.4133L64.5449 16.4036C63.9354 16.7718 63.2865 17.0509 62.6176 17.241L62.2207 19.1484L58.9979 19.2049L58.5341 17.3124C57.859 17.1459 57.2005 16.8898 56.5785 16.5431L54.9497 17.611L52.6309 15.3718L53.6406 13.7065C53.2723 13.0969 52.9929 12.448 52.8028 11.7791L50.8953 11.3822L50.8389 8.15943L52.7313 7.69524C52.8978 7.02014 53.1544 6.36205 53.5007 5.74009L52.4332 4.11127L54.672 1.7924L56.3373 2.80174ZM58.0554 7.09529C56.7288 8.46917 56.7675 10.6585 58.1413 11.9851C59.5152 13.3116 61.7046 13.273 63.0307 11.8991C64.3573 10.5252 64.3186 8.33589 62.9448 7.00934C61.5709 5.68279 59.3815 5.7214 58.0554 7.09529Z" fill="#86EFAC"/>
<path d="M57.1078 109.73C57.4591 109.518 57.8331 109.357 58.2193 109.247L58.448 108.147L60.3069 108.115L60.5743 109.206C60.9637 109.302 61.3432 109.45 61.7019 109.65L62.6411 109.034L63.9785 110.325L63.3964 111.286C63.6089 111.637 63.7696 112.011 63.8792 112.397L64.9791 112.626L65.0119 114.485L63.9208 114.752C63.8248 115.142 63.677 115.521 63.4769 115.88L64.0926 116.819L62.8014 118.157L61.841 117.575C61.4894 117.787 61.1153 117.948 60.7295 118.057L60.5008 119.158L58.6419 119.19L58.3746 118.099C57.9851 118.003 57.6056 117.855 57.2469 117.655L56.3073 118.27L54.9699 116.979L55.5521 116.019C55.3395 115.667 55.1784 115.293 55.0692 114.907L53.9693 114.679L53.9365 112.82L55.0277 112.552C55.1236 112.162 55.2714 111.783 55.4715 111.424L54.8558 110.485L56.147 109.147L57.1078 109.73ZM58.0985 112.207C57.3332 112.999 57.3557 114.261 58.1479 115.027C58.9405 115.792 60.2027 115.769 60.9679 114.977C61.7327 114.184 61.7107 112.922 60.9185 112.157C60.1259 111.392 58.8637 111.414 58.0985 112.207Z" fill="#86EFAC"/>
<path d="M16.615 13.0514C16.855 12.9065 17.1104 12.7965 17.3736 12.7218L17.5297 11.9707L18.7985 11.9482L18.9812 12.6931C19.247 12.7587 19.5065 12.8596 19.751 12.9958L20.3921 12.5756L21.3051 13.4571L20.9077 14.1127C21.0526 14.3526 21.1627 14.608 21.2374 14.8716L21.9885 15.0278L22.0109 16.2966L21.2661 16.4793C21.2005 16.745 21.0996 17.0041 20.9634 17.2491L21.3836 17.8901L20.5021 18.8031L19.8465 18.4058C19.6065 18.5507 19.3512 18.6607 19.0875 18.7355L18.9314 19.4865L17.6626 19.509L17.4799 18.7641C17.2142 18.6985 16.9551 18.5976 16.7101 18.4614L16.069 18.8816L15.156 18.0001L15.5534 17.3445C15.4085 17.1046 15.2984 16.8492 15.2237 16.586L14.4726 16.4299L14.4502 15.161L15.1951 14.9783C15.2607 14.7126 15.3616 14.4535 15.4977 14.2086L15.0776 13.5675L15.959 12.6545L16.615 13.0514ZM17.2914 14.7417C16.7691 15.2827 16.7844 16.1442 17.325 16.6665C17.866 17.1888 18.7275 17.1735 19.2499 16.6325C19.7718 16.0915 19.7568 15.23 19.2162 14.7076C18.6752 14.1857 17.8133 14.2007 17.2914 14.7417Z" fill="#86EFAC"/>
<path d="M78.5907 10.395C79.0648 10.1086 79.5697 9.89141 80.0904 9.74318L80.3993 8.25885L82.9071 8.21484L83.2679 9.68713C83.7935 9.81667 84.3054 10.016 84.7896 10.2858L86.0572 9.45503L87.8616 11.1972L87.0761 12.4926C87.3625 12.9668 87.5801 13.4721 87.7279 13.9923L89.2118 14.3012L89.2558 16.809L87.7836 17.1698C87.654 17.695 87.4547 18.2074 87.1848 18.6911L88.0156 19.9587L86.2735 21.7631L84.9776 20.9776C84.5035 21.264 83.9986 21.4812 83.478 21.629L83.1691 23.1133L80.6613 23.1573L80.3005 21.6851C79.7752 21.5555 79.2629 21.3562 78.7792 21.0863L77.5116 21.9171L75.7071 20.175L76.4927 18.8796C76.2062 18.4054 75.9886 17.9005 75.8408 17.3799L74.3565 17.071L74.3125 14.5632L75.7848 14.202C75.9143 13.6767 76.1136 13.1644 76.3835 12.6807L75.5527 11.4131L77.2949 9.60866L78.5907 10.395ZM79.9276 13.7357C78.8954 14.8048 78.9253 16.508 79.9945 17.5401C81.0636 18.5723 82.7667 18.5424 83.7989 17.4733C84.8311 16.4042 84.8012 14.701 83.7321 13.6689C82.6629 12.6367 80.9598 12.6666 79.9276 13.7357Z" fill="#86EFAC"/>
<path d="M144.878 72.2866C145.487 71.9188 146.135 71.6398 146.803 71.45L147.2 69.5443L150.42 69.4878L150.883 71.3782C151.558 71.5443 152.216 71.8004 152.837 72.1467L154.464 71.0801L156.781 73.3171L155.772 74.9804C156.14 75.5895 156.419 76.2376 156.609 76.9061L158.514 77.3026L158.571 80.5225L156.68 80.9858C156.514 81.6605 156.258 82.3178 155.912 82.9393L156.978 84.5669L154.742 86.8837L153.078 85.8748C152.469 86.2426 151.821 86.5216 151.152 86.7114L150.756 88.6171L147.536 88.6736L147.073 86.7832C146.398 86.6171 145.741 86.3609 145.119 86.0147L143.492 87.0813L141.175 84.8447L142.184 83.181C141.816 82.5719 141.537 81.9242 141.347 81.2553L139.441 80.8588L139.385 77.6389L141.275 77.1756C141.441 76.5009 141.697 75.8436 142.044 75.2221L140.977 73.5949L143.214 71.2781L144.878 72.2866ZM146.595 76.576C145.269 77.9487 145.308 80.1355 146.681 81.4608C148.053 82.7861 150.24 82.7475 151.565 81.3749C152.89 80.0022 152.852 77.8154 151.479 76.4901C150.106 75.1648 147.92 75.2034 146.595 76.576Z" fill="#86EFAC"/>
<path d="M167.631 9.64353C167.631 4.27421 162.779 0.0383791 157.22 1.08177C153.724 1.73778 150.937 4.5935 150.325 8.09775C149.942 10.2883 150.394 12.3485 151.393 14.0492H151.388L151.413 14.082C151.747 14.6454 152.166 15.0485 152.59 15.6406L157.653 22.3477C158.283 23.1822 159.537 23.1822 160.167 22.3477L165.146 15.7511C165.146 15.7511 166.075 14.6429 166.412 14.0733L166.43 14.0496H166.427C167.188 12.755 167.631 11.2528 167.631 9.64353ZM158.91 13.4401C156.791 13.4401 155.073 11.7216 155.073 9.60242C155.073 7.48284 156.791 5.76476 158.91 5.76476C161.03 5.76476 162.748 7.48284 162.748 9.60242C162.748 11.722 161.03 13.4401 158.91 13.4401Z" fill="#86EFAC"/>
<path d="M14.1171 135.129C15.8385 133.978 16.7951 131.785 16.3625 129.505C15.7937 126.519 13.0629 124.53 10.2624 125.062C7.46316 125.593 5.65374 128.445 6.22256 131.431C6.66059 133.732 8.38407 135.426 10.4322 135.846C2.86569 138.538 4.86901 146.942 4.86901 146.942L23.3191 143.437C23.3191 143.437 22.0714 134.791 14.1171 135.129Z" fill="#86EFAC"/>
<path d="M36.4659 170.95L32.6681 170.014C32.6681 170.014 31.8825 173.203 28.5543 172.444C26.8259 172.049 26.2114 170.702 26.0615 169.749C25.8875 168.643 26.2965 167.531 27.0899 166.74C27.9959 165.836 29.6455 165.219 32.0939 166.301L34.2039 157.737L30.4485 156.812L29.2124 161.828C29.2124 161.828 23.6098 161.892 22.1798 167.696C20.8113 173.25 25.474 175.767 27.606 176.292C29.2361 176.694 34.8869 177.668 36.4659 170.95Z" fill="#86EFAC"/>
<path d="M30.8302 155.032L34.6416 155.971L35.5186 152.411L31.7071 151.472L30.8302 155.032Z" fill="#86EFAC"/>
<path d="M180.552 183.892C180.552 183.952 140.14 184 90.3004 184C40.4436 184 0.0400391 183.952 0.0400391 183.892C0.0400391 183.832 40.4436 183.784 90.3004 183.784C140.14 183.784 180.552 183.832 180.552 183.892Z" fill="black"/>
<path d="M10.2772 79.3884H18.944L18.1776 83.2796H2.55371L3.17277 80.1843L12.5766 72.815C14.9054 70.9578 15.6129 69.8671 15.6129 68.5111C15.6129 67.155 14.5811 66.2412 12.5766 66.2412C10.9257 66.2412 9.33387 67.0076 8.18419 68.3931L4.97098 66.0643C6.62181 63.7944 9.7171 62.291 13.2836 62.291C17.6465 62.291 20.506 64.6198 20.506 67.8331C20.506 70.2798 19.3858 72.3433 15.7599 75.1438L10.2772 79.3884Z" fill="#263238"/>
<path d="M39.609 78.9465H36.2189L35.364 83.2799H30.7063L31.5907 78.9465H20.4775L21.0966 75.7333L33.2419 62.645H38.4597L27.1398 75.0552H32.5635L33.3299 71.1935H37.7813L37.0148 75.0552H40.4045L39.609 78.9465Z" fill="#263238"/>
<path d="M53.2291 58.4585H57.5331L42.3809 86.2272H38.1064L53.2291 58.4585Z" fill="#263238"/>
<path d="M72.8923 62.6445L72.2733 65.7393L61.2481 83.2793H55.9419L66.5249 66.5353H59.8331L59.1551 69.8959H54.9102L56.3546 62.644H72.8923V62.6445Z" fill="#263238"/>
<path d="M0.621094 99.5568L1.82849 97.2657C2.9271 97.9624 4.19635 98.3336 5.43488 98.3336C6.61113 98.3336 7.29206 97.962 7.29206 97.3737C7.29206 95.9188 2.02986 96.7239 2.02986 93.3184C2.02986 90.9813 4.02653 89.4492 7.23019 89.4492C8.76227 89.4492 10.1552 89.7743 11.1305 90.3776L10.0162 92.6529C9.16501 92.111 8.11248 91.8324 7.0446 91.8324C5.77534 91.8324 5.09442 92.2966 5.09442 92.8845C5.07906 94.3705 10.3566 93.519 10.3566 96.8625C10.3566 99.1839 8.31385 100.716 5.14051 100.716C3.28333 100.717 1.59598 100.222 0.621094 99.5568Z" fill="#263238"/>
<path d="M15.8168 92.0344L15.4609 93.8608H20.2743L19.8255 96.1515H14.9967L14.6098 98.1328H20.2901L19.7947 100.501H11.1113L13.2782 89.6665H21.7599L21.2799 92.0348L15.8168 92.0344Z" fill="#263238"/>
<path d="M29.6663 97.2505L31.5081 100.501H28.304L26.6947 97.6217H25.1469L24.5743 100.501H21.5098L23.6767 89.6665H28.3045C31.0751 89.6665 32.669 90.9511 32.669 93.118C32.6686 95.1147 31.5546 96.6007 29.6663 97.2505ZM27.871 92.0813H26.2613L25.6115 95.2542H27.4375C28.784 95.2542 29.5737 94.6044 29.5737 93.412C29.5733 92.499 28.9231 92.0813 27.871 92.0813Z" fill="#263238"/>
<path d="M46.1008 89.6665L39.3061 100.501H36.288L33.8271 89.6665H36.9689L38.5168 96.7086L42.9432 89.6665H46.1008Z" fill="#263238"/>
<path d="M46.7499 89.6665H49.8145L47.6476 100.501H44.583L46.7499 89.6665Z" fill="#263238"/>
<path d="M50.293 95.95C50.293 92.1892 53.0632 89.4497 57.0877 89.4497C59.0843 89.4497 60.7094 90.1771 61.4829 91.4925L59.2695 93.2571C58.7588 92.4362 57.9695 91.9874 56.8859 91.9874C54.7812 91.9874 53.3883 93.6129 53.3883 95.7486C53.3883 97.2035 54.3789 98.1788 56.0347 98.1788C57.01 98.1788 57.9077 97.8072 58.6812 96.9249L60.4919 98.7048C59.2691 100.175 57.6752 100.717 55.7403 100.717C52.4134 100.717 50.293 98.7825 50.293 95.95Z" fill="#263238"/>
<path d="M65.9568 92.0344L65.601 93.8608H70.4144L69.9655 96.1515H65.1368L64.7498 98.1328H70.4293L69.934 100.501H61.251L63.4179 89.6665H71.8995L71.4196 92.0348L65.9568 92.0344Z" fill="#263238"/>
<path d="M12.4035 56.5365H6.35449C6.35449 48.1151 9.76201 39.5044 15.7035 32.9127C21.9576 25.9744 30.0722 22.1533 38.5513 22.1533C55.8538 22.1533 67.9381 34.7836 67.9381 52.8675H61.8891C61.8891 38.1143 52.5102 28.2023 38.5513 28.2023C24.8664 28.2023 12.4035 41.7074 12.4035 56.5365Z" fill="#008554"/>
<path d="M15.7235 54.8538C16.6901 54.8696 17.4732 54.951 17.4728 55.0357C17.4719 55.1204 16.688 55.1897 15.721 55.1909C14.7549 55.1922 13.9718 55.1108 13.9727 55.0091C13.9731 54.9074 14.7574 54.838 15.7235 54.8538Z" fill="#263238"/>
<path d="M19.8938 41.5942C20.703 42.1235 21.2847 42.6695 21.1934 42.814C21.102 42.9585 20.3597 42.6658 19.5351 42.1609C18.7113 41.656 18.1292 41.11 18.2363 40.9415C18.3426 40.7725 19.0854 41.0648 19.8938 41.5942Z" fill="#263238"/>
<path d="M30.3656 32.4548C30.7571 33.3388 30.9514 34.1127 30.7995 34.1833C30.6475 34.2539 30.1812 33.6066 29.7577 32.7376C29.3347 31.869 29.1404 31.0951 29.3243 31.0095C29.5078 30.924 29.9745 31.5717 30.3656 32.4548Z" fill="#263238"/>
<path d="M44.1452 31.368C43.9044 32.3043 43.5772 33.0321 43.4148 32.9935C43.2521 32.9549 43.2874 32.1577 43.4929 31.2132C43.6984 30.269 44.0256 29.5412 44.2232 29.5881C44.4209 29.635 44.386 30.4326 44.1452 31.368Z" fill="#263238"/>
<path d="M55.4107 39.2784C54.6052 39.8132 53.8761 40.137 53.7819 40.0013C53.6876 39.8655 54.2465 39.2958 55.0299 38.7291C55.8126 38.1628 56.5421 37.8389 56.6583 38.0067C56.7746 38.1744 56.2157 38.744 55.4107 39.2784Z" fill="#263238"/>
<path d="M59.1107 52.3236C58.1437 52.3223 57.3598 52.2517 57.3594 52.1658C57.359 52.0799 58.142 51.9997 59.1086 51.9873C60.0748 51.9748 60.8586 52.0454 60.8595 52.145C60.8603 52.2447 60.0768 52.3248 59.1107 52.3236Z" fill="#263238"/>
<path d="M36.8992 54.1175C36.6094 54.1175 36.3184 54.0241 36.0751 53.8348L25.9094 45.9394C25.3231 45.4839 25.2169 44.6394 25.6723 44.0532C26.1274 43.4673 26.9715 43.3606 27.5586 43.8161L36.8212 51.0106L49.6325 39.2485C50.176 38.7428 51.0263 38.7739 51.5324 39.3178C52.0377 39.8618 52.007 40.7121 51.4631 41.2178L37.8147 53.758C37.5582 53.9963 37.2289 54.1175 36.8992 54.1175Z" fill="#008554"/>
<path d="M43.796 18.1394H32.1394C31.9575 18.1394 31.8105 17.992 31.8105 17.8105V13.5901C31.8105 13.4082 31.9579 13.2612 32.1394 13.2612H43.796C43.9779 13.2612 44.1249 13.4086 44.1249 13.5901V17.8105C44.1249 17.992 43.9779 18.1394 43.796 18.1394Z" fill="#008554"/>
<path d="M41.1486 15.7002H34.7832V21.4706H41.1486V15.7002Z" fill="#008554"/>
<path d="M15.7978 31.5041L11.0164 37.4256C10.8304 37.6561 10.4924 37.6922 10.262 37.5062L6.99442 34.8676C6.76398 34.6816 6.72786 34.3436 6.91387 34.1132L11.6953 28.1917C11.8813 27.9612 12.2192 27.9251 12.4497 28.1111L15.7177 30.7497C15.9481 30.9361 15.9838 31.2737 15.7978 31.5041Z" fill="#008554"/>
<path d="M43.7924 18.1394C43.7924 18.2074 41.182 18.2631 37.963 18.2631C34.7427 18.2631 32.1328 18.2079 32.1328 18.1394C32.1328 18.0713 34.7427 18.0156 37.963 18.0156C41.182 18.0156 43.7924 18.0713 43.7924 18.1394Z" fill="#263238"/>
<path d="M11.5885 36.4061C11.5233 36.4804 10.6431 35.8086 9.55525 34.9907C8.46868 34.1703 7.58058 33.5093 7.63414 33.4258C7.68479 33.3461 8.66756 33.8813 9.76617 34.7108C10.8656 35.5383 11.6512 36.3355 11.5885 36.4061Z" fill="#263238"/>
<path d="M12.6031 34.9159C12.5379 34.9902 11.6577 34.3184 10.5699 33.5004C9.48333 32.68 8.59523 32.019 8.64879 31.9356C8.69944 31.8559 9.68221 32.391 10.7808 33.2206C11.8803 34.0481 12.6658 34.8453 12.6031 34.9159Z" fill="#263238"/>
<path d="M13.8385 33.6668C13.7733 33.7412 12.8931 33.0694 11.8053 32.2514C10.7187 31.431 9.83058 30.77 9.88414 30.6866C9.93479 30.6068 10.9176 31.142 12.0162 31.9716C13.1156 32.7991 13.9016 33.5962 13.8385 33.6668Z" fill="#263238"/>
<path d="M15.0445 32.1766C14.9793 32.2509 14.0991 31.5791 13.0113 30.7612C11.9247 29.9408 11.0366 29.2798 11.0902 29.1963C11.1408 29.1166 12.1236 29.6518 13.2222 30.4813C14.3217 31.3088 15.1076 32.106 15.0445 32.1766Z" fill="#263238"/>
<path d="M63.3402 33.6331L58.1938 28.0259C57.9937 27.8075 58.0082 27.4683 58.2262 27.2681L61.3207 24.4282C61.5391 24.2281 61.8783 24.2426 62.0784 24.4606L67.2248 30.0678C67.4249 30.2862 67.4104 30.6254 67.1924 30.8255L64.0979 33.6655C63.8799 33.866 63.5403 33.8515 63.3402 33.6331Z" fill="#008554"/>
<path d="M59.1179 28.7414C59.0539 28.6658 59.849 27.8948 60.8193 26.9407C61.7921 25.9878 62.5773 25.2077 62.6516 25.2729C62.723 25.3347 62.0479 26.227 61.0643 27.1902C60.0832 28.1551 59.1785 28.8141 59.1179 28.7414Z" fill="#263238"/>
<path d="M60.4499 29.9631C60.386 29.8875 61.1811 29.1165 62.1514 28.1624C63.1242 27.2095 63.9097 26.4293 63.9841 26.4945C64.0555 26.5564 63.3799 27.4487 62.3968 28.4119C61.4152 29.3768 60.5101 30.0353 60.4499 29.9631Z" fill="#263238"/>
<path d="M61.5036 31.3791C61.4397 31.3035 62.2348 30.5325 63.2051 29.5784C64.1779 28.6255 64.9634 27.8454 65.0373 27.9105C65.1088 27.9724 64.4336 28.8647 63.45 29.8279C62.4694 30.7928 61.5642 31.4518 61.5036 31.3791Z" fill="#263238"/>
<path d="M62.7888 32.7902C62.7248 32.7147 63.5199 31.9436 64.4902 30.9895C65.463 30.0366 66.2482 29.2565 66.3225 29.3217C66.3939 29.3835 65.7188 30.2758 64.7352 31.2391C63.7545 32.2044 62.8494 32.8629 62.7888 32.7902Z" fill="#263238"/>
<path d="M33.4438 18.1337C33.347 18.1337 33.2686 17.0567 33.2686 15.7285C33.2686 14.3998 33.347 13.3232 33.4438 13.3232C33.5405 13.3232 33.619 14.3998 33.619 15.7285C33.6186 17.0567 33.5401 18.1337 33.4438 18.1337Z" fill="#263238"/>
<path d="M35.7319 18.1337C35.6351 18.1337 35.5566 17.0567 35.5566 15.7285C35.5566 14.3998 35.6351 13.3232 35.7319 13.3232C35.8286 13.3232 35.9071 14.3998 35.9071 15.7285C35.9071 17.0567 35.8286 18.1337 35.7319 18.1337Z" fill="#263238"/>
<path d="M38.0131 18.1337C37.9164 18.1337 37.8379 17.0567 37.8379 15.7285C37.8379 14.3998 37.9164 13.3232 38.0131 13.3232C38.1098 13.3232 38.1883 14.3998 38.1883 15.7285C38.1879 17.0567 38.1094 18.1337 38.0131 18.1337Z" fill="#263238"/>
<path d="M40.2924 18.1337C40.1957 18.1337 40.1172 17.0567 40.1172 15.7285C40.1172 14.3998 40.1957 13.3232 40.2924 13.3232C40.3891 13.3232 40.4672 14.3998 40.4672 15.7285C40.4672 17.0567 40.3891 18.1337 40.2924 18.1337Z" fill="#263238"/>
<path d="M42.5746 18.1337C42.4779 18.1337 42.3994 17.0567 42.3994 15.7285C42.3994 14.3998 42.4779 13.3232 42.5746 13.3232C42.6714 13.3232 42.7494 14.3998 42.7494 15.7285C42.7498 17.0567 42.6714 18.1337 42.5746 18.1337Z" fill="#263238"/>
<path d="M39.3662 54.4632C40.5562 53.2732 40.5562 51.3439 39.3662 50.154C38.1762 48.964 36.2469 48.964 35.057 50.154C33.867 51.3439 33.867 53.2733 35.057 54.4632C36.2469 55.6532 38.1762 55.6532 39.3662 54.4632Z" fill="#008554"/>
<path d="M40.2544 52.3095C40.2237 52.3108 40.2291 52.038 40.1004 51.5805C39.9729 51.1312 39.6623 50.4765 38.9843 49.9753C38.3291 49.4729 37.255 49.1943 36.2187 49.583C35.1907 49.9396 34.3051 51.0332 34.3167 52.3091C34.3051 53.5854 35.1907 54.6795 36.2187 55.0361C37.255 55.4248 38.3291 55.1462 38.9843 54.6438C39.6623 54.1426 39.9729 53.4879 40.1004 53.0386C40.2291 52.5807 40.2237 52.3079 40.2544 52.3095C40.2652 52.3095 40.2723 52.3764 40.276 52.5055C40.2822 52.6342 40.2694 52.8265 40.2179 53.0681C40.122 53.5439 39.8284 54.2564 39.118 54.819C38.4321 55.3824 37.2667 55.7179 36.1203 55.3064C34.9843 54.9315 33.9903 53.7245 34.004 52.3091C33.9908 50.8941 34.9843 49.6876 36.1203 49.3127C37.2667 48.9012 38.4317 49.2367 39.118 49.8001C39.8288 50.3627 40.1224 51.0752 40.2183 51.551C40.2694 51.7922 40.2822 51.9849 40.2764 52.1136C40.2727 52.2423 40.2652 52.3095 40.2544 52.3095Z" fill="#263238"/>
<path d="M144.522 62.7564L149.731 61.9331C152.169 63.8986 155.163 65.2351 158.497 65.657C168.084 66.8689 176.84 60.0684 178.054 50.4678C179.268 40.8668 172.48 32.1012 162.892 30.8889C153.305 29.6769 144.548 36.4774 143.334 46.0784C142.828 50.0875 143.72 53.9484 145.625 57.177L145.618 57.1699L144.522 62.7564Z" fill="white"/>
<path d="M144.526 62.7565C144.526 62.7565 144.544 62.6406 144.587 62.4031C144.633 62.1578 144.699 61.804 144.785 61.3398C144.966 60.3861 145.231 58.9844 145.576 57.1605C145.581 57.1351 145.605 57.1189 145.63 57.1235C145.639 57.1252 145.648 57.1301 145.654 57.1364L145.661 57.143L145.589 57.1995C144.44 55.2618 143.281 52.4521 143.141 48.9437C143.103 48.071 143.137 47.1609 143.245 46.2267C143.4 45.3004 143.523 44.3296 143.835 43.3726C144.386 41.4449 145.307 39.4839 146.655 37.6915C147.997 35.8995 149.763 34.2802 151.876 33.0508C153.984 31.8202 156.441 30.9861 159.047 30.7332C161.651 30.4658 164.396 30.8275 166.973 31.8156C169.54 32.8075 171.977 34.3977 173.856 36.5788L174.564 37.4083C174.784 37.6965 174.983 37.9992 175.193 38.2931C175.633 38.8677 175.949 39.5179 176.31 40.1341C176.493 40.4417 176.612 40.781 176.765 41.1019C176.901 41.4299 177.073 41.7434 177.179 42.0814C177.389 42.7565 177.665 43.4092 177.789 44.0996C178.447 46.82 178.434 49.6205 177.853 52.2055C177.261 54.7922 176.084 57.1438 174.564 59.0874C173.042 61.0355 171.175 62.5759 169.198 63.6682C167.218 64.7648 165.132 65.4116 163.133 65.689C162.133 65.853 161.151 65.8509 160.207 65.8609C159.265 65.7832 158.352 65.7471 157.493 65.5682C154.034 64.9205 151.428 63.3697 149.707 61.9672L149.742 61.9767C148.045 62.2329 146.739 62.4301 145.848 62.5642C145.416 62.6282 145.086 62.6772 144.856 62.7108C144.634 62.744 144.526 62.7565 144.526 62.7565C144.526 62.7565 144.645 62.7328 144.872 62.6946C145.103 62.6556 145.437 62.5995 145.873 62.526C146.755 62.3803 148.048 62.1665 149.727 61.8887C149.74 61.8866 149.753 61.8908 149.763 61.8983C151.487 63.2796 154.084 64.803 157.519 65.4303C158.371 65.6043 159.278 65.6359 160.211 65.7098C161.147 65.6961 162.12 65.6948 163.11 65.5287C165.09 65.2472 167.154 64.6008 169.11 63.5105C171.064 62.4247 172.908 60.8968 174.41 58.9678C175.91 57.043 177.069 54.7174 177.651 52.1602C178.222 49.6043 178.233 46.8374 177.582 44.1511C177.458 43.4689 177.185 42.8246 176.978 42.1578C176.874 41.8235 176.703 41.5146 176.568 41.1903C176.417 40.8736 176.3 40.5385 176.119 40.2346C175.761 39.6263 175.45 38.9836 175.015 38.4164C174.807 38.1262 174.61 37.8273 174.393 37.5424L173.694 36.7233C171.838 34.5684 169.431 32.9981 166.896 32.0166C164.352 31.0392 161.639 30.6788 159.066 30.9408C156.49 31.1879 154.061 32.0087 151.974 33.2219C149.883 34.4334 148.133 36.032 146.8 37.8019C145.462 39.5727 144.544 41.5113 143.992 43.4191C143.68 44.3666 143.555 45.3278 143.398 46.2458C143.287 47.1717 143.25 48.0739 143.284 48.9396C143.407 52.4197 144.542 55.2169 145.668 57.1538C145.682 57.1758 145.674 57.2045 145.652 57.2173C145.634 57.2281 145.61 57.2248 145.596 57.2103L145.589 57.2032L145.667 57.1791C145.3 58.9848 145.018 60.372 144.826 61.3162C144.73 61.7841 144.657 62.1407 144.606 62.3882C144.556 62.629 144.526 62.7565 144.526 62.7565Z" fill="#263238"/>
<path d="M166.051 48.779C166.051 47.7958 166.848 46.999 167.83 46.999C168.813 46.999 169.61 47.7958 169.61 48.779C169.61 49.7617 168.813 50.5585 167.83 50.5585C166.848 50.5585 166.051 49.7617 166.051 48.779Z" fill="#263238"/>
<path d="M158.923 48.779C158.923 47.7958 159.72 46.999 160.702 46.999C161.686 46.999 162.482 47.7958 162.482 48.779C162.482 49.7617 161.686 50.5585 160.702 50.5585C159.72 50.5585 158.923 49.7617 158.923 48.779Z" fill="#263238"/>
<path d="M151.802 49.6688C151.311 48.8176 151.603 47.729 152.454 47.2378C153.305 46.7462 154.393 47.0381 154.885 47.8892C155.376 48.7404 155.084 49.829 154.233 50.3206C153.382 50.8118 152.294 50.5199 151.802 49.6688Z" fill="#263238"/>
<path d="M27.4071 112.521C26.3118 112.001 24.4738 110.919 23.3382 110.494C22.2026 110.069 20.9296 109.869 19.7795 110.253C19.1073 110.478 18.4401 111.012 18.4355 111.72L22.9002 114.993L27.4071 113.807V112.521Z" fill="#FF9A6C"/>
<path d="M22.5226 112.475C22.5226 112.475 14.5023 110.737 13.1828 110.049C11.8629 109.361 4.85932 105.855 3.69802 105.855C2.53672 105.855 1.5336 106.172 1.32227 107.334L2.8477 108.519L3.04159 109.125L5.64903 110.483L6.1265 111.359L12.7605 114.904C12.7605 114.904 19.7292 118.441 20.8905 118.652C22.0518 118.864 27.8591 119.339 30.3403 121.45L40.3051 117.361C40.3051 117.361 37.4257 113.271 35.2114 112.266C33.2355 111.369 29.9181 111.367 27.5951 112.318L22.5226 112.475Z" fill="#FFBF9D"/>
<path d="M29.1934 119.178C29.1934 119.178 41.8776 146.838 43.9187 152.378C43.9187 152.378 58.0981 150.049 58.5839 142.176L40.3069 117.268L29.1934 119.178Z" fill="#FFBF9D"/>
<path d="M17.4107 113.101C17.4099 113.109 17.3634 113.107 17.275 113.098C17.1849 113.093 17.0574 113.064 16.8934 113.021C16.5679 112.93 16.1128 112.751 15.5731 112.488C15.0321 112.227 14.4068 111.883 13.7172 111.497C13.3717 111.305 13.0109 111.101 12.6318 110.904C12.2573 110.706 11.8446 110.542 11.4265 110.358C10.5907 109.998 9.78483 109.682 9.02668 109.486C8.27476 109.299 7.55191 109.157 7.008 109.339C6.46077 109.527 6.21581 109.995 6.07671 110.28C5.93513 110.579 5.88572 110.759 5.86496 110.752C5.85791 110.75 5.86496 110.704 5.88531 110.618C5.90316 110.531 5.93928 110.405 5.99949 110.247C6.06094 110.089 6.14688 109.897 6.29428 109.7C6.43794 109.504 6.65965 109.305 6.95693 109.195C7.25255 109.08 7.60132 109.068 7.95714 109.097C8.31462 109.129 8.68788 109.197 9.07609 109.293C9.85293 109.483 10.6734 109.798 11.5121 110.16C11.9289 110.343 12.3449 110.51 12.7302 110.716C13.1135 110.919 13.473 111.127 13.816 111.324C14.5006 111.719 15.1151 112.076 15.6428 112.352C16.1693 112.63 16.6082 112.828 16.92 112.941C17.2306 113.056 17.4137 113.08 17.4107 113.101Z" fill="#FF9A6C"/>
<path d="M9.76256 109.125C9.75384 109.15 9.31497 109.028 8.63986 108.736C7.97264 108.435 7.05755 108.011 6.00461 107.684C5.48562 107.526 4.95624 107.516 4.48831 107.554C4.02122 107.592 3.62969 107.779 3.41835 108.053C3.20577 108.326 3.14474 108.619 3.10363 108.814C3.07623 109.012 3.05962 109.126 3.04343 109.125C3.02973 109.125 3.01769 109.012 3.01977 108.804C3.0372 108.6 3.07333 108.283 3.29629 107.96C3.41171 107.804 3.57322 107.656 3.7775 107.552C3.98178 107.449 4.21761 107.387 4.46465 107.356C4.955 107.304 5.51011 107.31 6.06315 107.476C7.14308 107.81 8.05693 108.263 8.7038 108.598C9.35608 108.921 9.7746 109.094 9.76256 109.125Z" fill="#FF9A6C"/>
<path d="M29.761 111.695C29.7656 111.709 29.6497 111.76 29.4355 111.838C29.2221 111.918 28.9065 112.016 28.5121 112.12C27.7241 112.329 26.608 112.534 25.3612 112.589C24.1139 112.642 22.9842 112.536 22.1808 112.396C21.7789 112.326 21.4558 112.257 21.2362 112.195C21.0162 112.136 20.8962 112.096 20.8995 112.081C20.907 112.047 21.4002 112.145 22.2028 112.245C23.0049 112.345 24.1206 112.426 25.352 112.373C26.5827 112.318 27.6871 112.14 28.4772 111.971C29.2674 111.802 29.7502 111.662 29.761 111.695Z" fill="#FF9A6C"/>
<path d="M147.875 95.2706L129.402 91.4508L124.861 88.0254L100.486 92.7258C100.098 93.4383 96.1468 98.9392 96.1468 98.9392L86.5495 102.2C82.4449 103.303 78.7841 105.614 76.1343 108.85C74.1094 111.324 71.852 114.74 69.9201 119.273C65.6016 129.406 59.3687 141.115 59.3687 141.115L55.4613 134.823L38.9971 142.575C38.9971 142.575 48.6421 162.022 51.8354 164.798C55.3849 167.884 63.5451 168.24 69.1881 162.484C72.5898 159.015 82.4183 145.295 84.4652 141.861L87.4875 156.224L90.2834 172.614L85.7656 183.892H151.698L148.97 173.233C148.97 173.233 151.658 145.44 152.399 140.27C154.148 128.068 147.875 95.2706 147.875 95.2706Z" fill="#008554"/>
<path d="M147.874 95.2705C147.874 95.2705 161.078 98.9749 163.984 112.096C165.745 120.049 171.724 142.712 173.827 161.373C175.076 172.466 175.038 182.719 175.076 183.892H154.814L146.226 98.9741L147.874 95.2705Z" fill="#008554"/>
<path d="M114.013 106.54C114.017 106.542 113.998 106.589 113.957 106.676C113.907 106.779 113.845 106.905 113.77 107.059C113.606 107.393 113.369 107.884 113.085 108.513C112.502 109.764 111.812 111.609 110.7 113.671L110.644 113.776L110.552 113.698C109.183 112.531 107.694 111.128 106.159 109.611C103.442 106.913 101.058 104.401 99.295 102.619C98.4248 101.744 97.7144 101.03 97.202 100.515C96.9662 100.281 96.776 100.092 96.6295 99.9459C96.5003 99.8139 96.4347 99.7421 96.4397 99.7367C96.4447 99.7313 96.5203 99.7923 96.6589 99.9139C96.8126 100.052 97.0119 100.232 97.2597 100.454C97.7742 100.931 98.5111 101.629 99.4026 102.511C101.195 104.266 103.596 106.763 106.31 109.458C107.844 110.972 109.323 112.378 110.678 113.55L110.529 113.577C111.646 111.541 112.364 109.703 112.979 108.464C113.278 107.84 113.533 107.356 113.714 107.03C113.8 106.882 113.871 106.761 113.929 106.662C113.98 106.578 114.008 106.537 114.013 106.54Z" fill="black"/>
<path d="M129.68 91.9175C129.688 91.9187 129.674 92.0188 129.641 92.2081C129.601 92.4186 129.55 92.6931 129.486 93.0352C129.337 93.7502 129.087 94.7778 128.731 96.0346C128.015 98.5469 126.853 101.965 125.425 105.683C124.669 107.652 123.921 109.51 123.223 111.16L123.169 111.286L123.066 111.195C121.185 109.536 119.499 108.228 118.356 107.254C117.781 106.771 117.333 106.381 117.033 106.108C116.896 105.979 116.784 105.875 116.693 105.791C116.618 105.717 116.581 105.678 116.584 105.673C116.588 105.669 116.632 105.701 116.715 105.767C116.811 105.845 116.929 105.942 117.075 106.06C117.408 106.331 117.864 106.702 118.432 107.163C119.596 108.11 121.296 109.394 123.198 111.048L123.042 111.084C123.727 109.432 124.468 107.572 125.224 105.606C126.65 101.891 127.833 98.4876 128.585 95.9918C128.958 94.7433 129.23 93.7244 129.405 93.0169C129.485 92.679 129.549 92.4078 129.599 92.2002C129.645 92.0134 129.673 91.9162 129.68 91.9175Z" fill="black"/>
<path d="M86.9734 154.386C86.9697 154.387 86.9577 154.355 86.9369 154.292C86.9136 154.216 86.885 154.123 86.8505 154.009C86.7741 153.742 86.6695 153.378 86.5379 152.917C86.3971 152.444 86.2581 151.856 86.092 151.175C85.9184 150.496 85.7482 149.716 85.5688 148.852C84.8314 145.4 84.0928 140.572 83.634 135.207C83.1665 129.84 83.0631 124.96 83.0859 121.433C83.1005 119.669 83.1341 118.242 83.1831 117.257C83.2068 116.778 83.2255 116.399 83.2387 116.122C83.2466 116.004 83.2533 115.907 83.2587 115.828C83.2645 115.761 83.2691 115.728 83.2728 115.728C83.2765 115.728 83.279 115.762 83.2807 115.828C83.2811 115.908 83.2815 116.005 83.2823 116.124C83.2786 116.401 83.2736 116.78 83.267 117.259C83.2441 118.244 83.2333 119.671 83.2387 121.434C83.2549 124.958 83.3828 129.829 83.8495 135.189C84.3079 140.546 85.0212 145.368 85.7187 148.822C85.8881 149.686 86.0475 150.467 86.2099 151.148C86.3643 151.831 86.4914 152.42 86.6197 152.896C86.7351 153.361 86.826 153.728 86.8929 153.998C86.9195 154.114 86.9411 154.208 86.9589 154.286C86.9718 154.351 86.9772 154.385 86.9734 154.386Z" fill="black"/>
<path d="M148.968 109.829C148.972 109.827 148.991 109.866 149.025 109.942C149.063 110.03 149.111 110.143 149.172 110.283C149.302 110.599 149.484 111.041 149.717 111.604C149.832 111.893 149.969 112.21 150.101 112.563C150.223 112.922 150.355 113.31 150.496 113.727C150.637 114.145 150.788 114.593 150.948 115.066C151.08 115.549 151.219 116.059 151.365 116.594C152.601 120.868 153.23 127.048 152.873 133.813C152.508 140.581 151.719 146.664 151.23 151.07C150.976 153.261 150.77 155.04 150.625 156.287C150.552 156.892 150.494 157.366 150.453 157.705C150.432 157.857 150.416 157.978 150.403 158.073C150.39 158.156 150.382 158.198 150.378 158.198C150.375 158.197 150.375 158.155 150.381 158.071C150.388 157.975 150.398 157.853 150.409 157.7C150.441 157.36 150.485 156.884 150.541 156.278C150.658 155.043 150.841 153.258 151.078 151.053C151.528 146.642 152.293 140.557 152.657 133.802C153.012 127.051 152.411 120.903 151.217 116.633C151.076 116.098 150.943 115.588 150.816 115.105C150.662 114.632 150.517 114.184 150.381 113.765C150.246 113.347 150.12 112.958 150.004 112.598C149.877 112.243 149.747 111.924 149.638 111.634C149.422 111.066 149.252 110.619 149.131 110.3C149.079 110.155 149.037 110.04 149.004 109.951C148.977 109.871 148.965 109.83 148.968 109.829Z" fill="black"/>
<path d="M59.467 155.259C59.4072 155.259 59.3378 152.093 59.3117 148.188C59.2855 144.282 59.3129 141.116 59.3727 141.115C59.4325 141.115 59.5018 144.28 59.528 148.186C59.5541 152.092 59.5267 155.258 59.467 155.259Z" fill="black"/>
<path d="M119.375 174.419C119.371 174.418 119.376 174.359 119.387 174.245C119.401 174.121 119.42 173.952 119.444 173.738C119.501 173.282 119.581 172.628 119.685 171.792C119.739 171.368 119.799 170.899 119.864 170.386C119.919 169.871 119.978 169.311 120.042 168.711C120.163 167.507 120.33 166.141 120.438 164.622C120.501 163.864 120.566 163.069 120.634 162.241C120.7 161.414 120.738 160.55 120.794 159.657C120.918 157.872 120.97 155.96 121.042 153.949C121.134 149.927 121.119 145.501 120.911 140.862C120.683 136.222 120.282 131.813 119.813 127.817C119.552 125.822 119.322 123.923 119.031 122.157C118.891 121.273 118.772 120.417 118.628 119.599C118.483 118.781 118.343 117.996 118.21 117.247C117.958 115.745 117.665 114.4 117.431 113.213C117.311 112.621 117.2 112.07 117.097 111.562C116.984 111.057 116.88 110.596 116.786 110.18C116.605 109.357 116.463 108.714 116.364 108.265C116.32 108.054 116.285 107.888 116.259 107.766C116.237 107.653 116.228 107.595 116.231 107.594C116.235 107.593 116.252 107.649 116.281 107.76C116.312 107.881 116.353 108.045 116.406 108.255C116.515 108.702 116.67 109.342 116.868 110.161C116.967 110.576 117.077 111.037 117.197 111.54C117.305 112.047 117.423 112.598 117.549 113.189C117.794 114.373 118.099 115.718 118.36 117.219C118.497 117.968 118.641 118.753 118.792 119.571C118.94 120.389 119.063 121.245 119.207 122.129C119.506 123.896 119.743 125.796 120.01 127.793C120.491 131.793 120.898 136.206 121.127 140.852C121.335 145.497 121.344 149.928 121.241 153.955C121.163 155.967 121.105 157.881 120.973 159.668C120.913 160.561 120.871 161.425 120.8 162.254C120.727 163.082 120.657 163.877 120.59 164.636C120.472 166.155 120.294 167.522 120.162 168.724C120.091 169.325 120.026 169.884 119.966 170.399C119.893 170.912 119.827 171.38 119.767 171.803C119.647 172.637 119.552 173.289 119.487 173.744C119.454 173.958 119.427 174.125 119.408 174.249C119.39 174.361 119.379 174.419 119.375 174.419Z" fill="black"/>
<path d="M128.151 129.601C128.149 129.599 128.178 129.594 128.235 129.587C128.301 129.579 128.386 129.569 128.494 129.555C128.735 129.528 129.076 129.49 129.514 129.442C130.424 129.345 131.738 129.205 133.402 129.028C136.772 128.679 141.555 128.183 147.25 127.594L147.353 127.583L147.356 127.687C147.463 131.88 147.584 136.619 147.713 141.647L147.714 141.691L147.684 141.723C147.153 142.293 146.586 142.903 146.013 143.518C143.923 145.761 141.895 147.938 139.966 150.008L139.913 150.066L139.843 150.031C136.131 148.188 132.688 146.479 129.641 144.967L129.597 144.945L129.592 144.896C129.148 140.266 128.782 136.436 128.524 133.752C128.402 132.431 128.306 131.392 128.239 130.673C128.21 130.328 128.186 130.061 128.169 129.87C128.154 129.689 128.151 129.601 128.151 129.601C128.151 129.601 128.168 129.701 128.19 129.887C128.212 130.082 128.242 130.354 128.281 130.705C128.359 131.428 128.471 132.472 128.614 133.799C128.892 136.467 129.289 140.275 129.768 144.878L129.719 144.808C132.771 146.312 136.218 148.011 139.936 149.844L139.813 149.866C141.74 147.794 143.767 145.616 145.855 143.371C146.428 142.756 146.996 142.147 147.526 141.576L147.498 141.652C147.378 136.624 147.264 131.885 147.164 127.692L147.27 127.785C141.596 128.333 136.831 128.793 133.473 129.116C131.799 129.273 130.475 129.397 129.559 129.482C129.112 129.522 128.765 129.553 128.518 129.575C128.406 129.584 128.317 129.591 128.248 129.596C128.186 129.601 128.153 129.602 128.151 129.601Z" fill="black"/>
<path d="M147.381 132.525C147.383 132.54 147.127 132.588 146.662 132.662C146.198 132.738 145.523 132.832 144.689 132.939C143.019 133.154 140.707 133.399 138.153 133.642C135.615 133.89 133.319 134.115 131.612 134.282C130.803 134.367 130.135 134.437 129.632 134.49C129.164 134.538 128.904 134.558 128.902 134.543C128.9 134.528 129.156 134.481 129.621 134.406C130.086 134.331 130.76 134.236 131.595 134.13C133.264 133.915 135.576 133.67 138.132 133.427C140.669 133.178 142.964 132.954 144.671 132.787C145.48 132.702 146.148 132.632 146.651 132.579C147.119 132.53 147.379 132.51 147.381 132.525Z" fill="black"/>
<g opacity="0.3">
<path d="M151.386 148.855C151.618 151.682 151.851 154.511 152.083 157.339C153.623 150.072 156.043 142.263 155.667 134.845C155.294 127.474 154.593 120.336 150.416 113.624C150.416 113.624 153.249 120.718 152.867 129.397C152.485 138.077 151.386 148.855 151.386 148.855Z" fill="black"/>
</g>
<path d="M56.7143 133.065C56.4361 132.586 56.116 132.072 55.592 131.891C55.009 131.69 54.3808 131.971 53.8291 132.246C48.8068 134.746 43.7846 137.247 38.7624 139.747C37.7734 140.24 36.6985 140.825 36.324 141.864C35.8444 143.193 36.7188 144.594 37.5504 145.737C38.9393 147.645 40.5988 149.718 42.943 149.988L55.8976 141.103C57.4815 140.87 58.4664 139.107 58.4049 137.508C58.3439 135.907 57.5181 134.45 56.7143 133.065Z" fill="#008554"/>
<path d="M58.3469 138.494C58.3519 138.5 58.3062 138.55 58.2148 138.639C58.1032 138.745 57.969 138.872 57.8071 139.025C57.4513 139.358 56.924 139.827 56.2618 140.393C54.9381 141.526 53.0556 143.032 50.8829 144.568C48.7081 146.102 46.6587 147.373 45.1478 148.24C44.3925 148.675 43.7747 149.015 43.3417 149.239C43.1436 149.34 42.9784 149.424 42.8418 149.494C42.7264 149.55 42.6641 149.577 42.6603 149.57C42.6566 149.563 42.7122 149.524 42.8206 149.456C42.9518 149.376 43.11 149.281 43.3006 149.166C43.7482 148.898 44.3452 148.541 45.0697 148.108C46.5586 147.208 48.5889 145.921 50.7583 144.391C52.9252 142.859 54.8177 141.376 56.1642 140.275C56.8144 139.737 57.3504 139.294 57.7523 138.961C57.9242 138.82 58.0674 138.703 58.1866 138.606C58.2867 138.528 58.3419 138.489 58.3469 138.494Z" fill="black"/>
<g opacity="0.3">
<path d="M129.485 92.8687C127.712 98.759 125.228 105.416 123.133 111.122C121.345 109.605 118.846 107.6 117.059 106.083C118.596 109.135 120.449 112.03 122.576 114.705C122.822 115.015 123.156 115.355 123.545 115.28C123.913 115.21 124.102 114.809 124.234 114.458C125.324 111.576 126.415 108.694 127.505 105.812C129.03 101.777 130.508 97.0609 129.485 92.8687Z" fill="black"/>
</g>
<path d="M101.466 28.8177C106.849 27.2636 111.913 28.831 116.891 31.4002C121.87 33.9699 125.884 38.2448 128.484 43.2076C131.223 48.4345 132.435 54.5279 131.443 60.3448C130.452 66.1621 127.165 71.6406 122.237 74.8879C115.509 79.3218 106.235 79.0909 99.3015 74.9846C92.3677 70.8783 87.8126 63.3068 86.6006 55.34C85.7657 49.8516 86.4449 44.0629 89.0071 39.1378C91.5697 34.2128 96.0987 30.2369 101.466 28.8177Z" fill="#263238"/>
<path d="M119.181 45.7143C118.14 43.7052 118.187 41.3261 117.617 39.1368C116.363 34.3155 111.97 30.8337 107.187 29.4399C102.738 28.1436 97.5937 29.1185 92.6636 31.3519C89.2839 32.8827 86.2065 35.2339 84.1903 38.3483C81.5148 42.4816 81.0257 47.9481 82.9256 52.4907L107.584 46.0016C110.151 47.6778 112.778 49.3809 115.748 50.1411C116.619 50.3645 117.545 50.5019 118.412 50.262C119.279 50.022 120.069 49.3249 120.18 48.4322C120.301 47.4565 119.633 46.5871 119.181 45.7143Z" fill="#263238"/>
<path d="M125.066 89.4367L118.701 44.6681C118.42 42.5506 117.461 40.3949 115.327 40.4933L92.9131 38.3335C85.89 38.6578 82.5938 47.8693 83.2157 54.8724C83.9066 62.6528 85.0571 72.1242 86.8483 77.7348C90.4497 89.0161 99.5355 89.1348 99.5355 89.1348C99.5321 89.0954 100.088 91.376 100.779 95.5699L115.31 105.234L125.066 89.4367Z" fill="#FFBF9D"/>
<path d="M88.5905 63.3853C88.6822 64.1725 89.425 64.7442 90.2488 64.6633C91.0709 64.5823 91.665 63.8806 91.5733 63.093C91.4811 62.3058 90.7387 61.7337 89.9166 61.8142C89.0925 61.8948 88.4983 62.5981 88.5905 63.3853Z" fill="#263238"/>
<path d="M86.035 59.4643C86.248 59.6295 87.2449 58.6268 88.8409 58.3873C90.4319 58.1253 91.7282 58.7676 91.8714 58.5455C91.9437 58.4458 91.7024 58.1257 91.1365 57.8322C90.5781 57.5394 89.6667 57.3107 88.6736 57.4664C87.6804 57.6237 86.9003 58.1174 86.4768 58.565C86.0441 59.0167 85.9312 59.3916 86.035 59.4643Z" fill="#263238"/>
<path d="M103.345 60.9883C103.437 61.7755 104.18 62.3468 105.003 62.2659C105.825 62.1849 106.419 61.4832 106.328 60.6956C106.236 59.9084 105.493 59.3358 104.671 59.4168C103.847 59.4974 103.253 60.2011 103.345 60.9883Z" fill="#263238"/>
<path d="M101.161 57.3507C101.375 57.516 102.372 56.5133 103.967 56.2741C105.558 56.0117 106.855 56.654 106.998 56.4323C107.069 56.3327 106.831 56.0121 106.262 55.719C105.704 55.4255 104.793 55.1967 103.8 55.3528C102.807 55.5102 102.027 56.0038 101.603 56.4518C101.171 56.9027 101.057 57.2781 101.161 57.3507Z" fill="#263238"/>
<path d="M97.7671 70.084C97.7609 69.9922 96.7428 69.9723 95.1045 70.0121C94.6905 70.0321 94.2924 70.0101 94.1815 69.7427C94.0407 69.4624 94.1441 68.9978 94.2691 68.4933C94.5016 67.4487 94.7445 66.3538 95.0007 65.2066C95.9992 60.534 96.6561 56.7167 96.4676 56.6785C96.2791 56.6395 95.3162 60.3962 94.3177 65.0688C94.0814 66.2193 93.8547 67.3167 93.6401 68.3663C93.5562 68.8525 93.3714 69.4188 93.6729 69.9976C93.8294 70.2853 94.162 70.4605 94.4339 70.4909C94.7071 70.5307 94.9372 70.5 95.1406 70.4813C96.7707 70.3219 97.775 70.1757 97.7671 70.084Z" fill="#263238"/>
<path d="M99.5479 89.1346C99.5479 89.1346 107.403 88.4487 114.402 82.6401C114.402 82.6401 110.777 91.7101 100.274 92.6235L99.5479 89.1346Z" fill="#FF9A6C"/>
<path d="M99.0337 73.8276C99.4917 72.9814 100.433 72.4109 101.448 72.3661C102.152 72.335 102.903 72.5621 103.409 73.062C103.916 73.561 104.126 74.3487 103.826 74.9445C103.488 75.6158 102.609 75.8928 101.815 75.7927C101.02 75.6922 100.289 75.2911 99.5901 74.8872C99.397 74.7751 99.199 74.658 99.0624 74.4848C98.9258 74.3121 98.8652 74.0676 98.974 73.8907" fill="#FF9A6C"/>
<path d="M102.643 70.4716C102.382 70.4961 102.643 72.2283 101.348 73.6844C100.057 75.1438 98.1807 75.231 98.2043 75.4751C98.1964 75.5876 98.6669 75.7491 99.4491 75.6512C100.218 75.5606 101.296 75.145 102.088 74.254C102.878 73.3622 103.113 72.2968 103.064 71.5772C103.019 70.8432 102.76 70.4438 102.643 70.4716Z" fill="#263238"/>
<path d="M100.761 52.5846C100.984 52.9944 102.546 52.5456 104.452 52.4854C106.358 52.387 107.951 52.7042 108.14 52.2774C108.223 52.0743 107.897 51.7065 107.223 51.3797C106.553 51.0525 105.528 50.8013 104.384 50.8478C103.242 50.8964 102.24 51.2319 101.601 51.6135C100.956 51.9954 100.662 52.3891 100.761 52.5846Z" fill="#263238"/>
<path d="M85.3846 52.4174C85.7204 52.7367 86.7622 52.1928 88.0813 51.9731C89.3925 51.7074 90.5596 51.844 90.7593 51.4255C90.8444 51.2241 90.6123 50.8882 90.0713 50.6196C89.5369 50.3514 88.6883 50.1952 87.784 50.3613C86.8801 50.5291 86.1435 50.9775 85.7404 51.4188C85.3302 51.8627 85.2338 52.2592 85.3846 52.4174Z" fill="#263238"/>
<path d="M122.815 41.8793C119.792 35.4707 108.855 27.5102 101.914 28.9343L91.6201 37.1377C92.8059 40.8604 96.1927 43.7871 100.048 44.4211C102.106 44.7595 104.511 44.6071 105.914 46.1517C107.347 47.7286 106.983 50.3518 108.34 51.9943C110.221 54.2708 114.441 53.5878 115.961 56.1188C116.626 57.2249 116.548 58.6623 117.232 59.756C118.143 61.2133 122.333 62.6561 123.888 61.9245C125.443 61.193 125.079 58.4269 125.417 56.9069C125.994 54.3098 125.449 53.0759 124.965 51.7327C123.822 48.5519 124.257 44.9372 122.815 41.8793Z" fill="#263238"/>
<path d="M119.278 63.9333C119.149 63.0718 119.834 60.8903 120.664 60.6275C122.881 59.9267 127.001 59.4845 127.92 65.2453C129.176 73.1204 121.011 72.7566 120.96 72.5329C120.921 72.3581 119.725 66.9074 119.278 63.9333Z" fill="#FFBF9D"/>
<path d="M122.896 69.166C122.927 69.1353 123.049 69.2399 123.297 69.3097C123.54 69.377 123.94 69.3865 124.326 69.1673C125.109 68.7292 125.599 67.2968 125.411 65.8715C125.317 65.1515 125.058 64.493 124.714 63.9682C124.382 63.4305 123.945 63.0872 123.514 63.0801C123.082 63.0498 122.825 63.3479 122.764 63.5846C122.694 63.822 122.769 63.9711 122.729 63.991C122.711 64.0147 122.54 63.8864 122.551 63.5513C122.559 63.3898 122.622 63.1889 122.783 63.0083C122.947 62.8243 123.212 62.7023 123.51 62.6869C124.124 62.6325 124.759 63.1038 125.137 63.6796C125.549 64.253 125.857 64.9904 125.963 65.7988C126.165 67.3936 125.59 69.0078 124.504 69.5185C123.973 69.751 123.484 69.658 123.216 69.5102C122.941 69.3541 122.871 69.1843 122.896 69.166Z" fill="#FF9A6C"/>
<path d="M93.6519 34.4841C93.2882 37.7899 88.8572 42.4766 86.9913 45.2293C83.4306 50.4812 82.8019 52.1627 84.0534 62.8606C81.6979 59.3838 79.8046 55.9294 79.4812 51.7421C79.1578 47.5549 80.2211 43.2028 82.7808 39.8733C85.3405 36.5439 89.4542 34.3533 93.6519 34.4841Z" fill="#263238"/>
<path d="M112.459 23.2221C114.132 21.3886 116.52 20.1966 119.01 19.575C122.562 18.6886 126.457 18.9281 129.69 20.4718C132.924 22.0155 135.419 24.9045 136.085 28.2331C136.75 31.5617 135.467 35.2545 132.645 37.4658C134.44 39.2262 136.717 40.5599 139.211 41.3109C138.537 42.319 137.294 42.9103 136.042 43.1224C134.79 43.3342 133.509 43.2159 132.249 43.0967C133.061 44.346 134.373 45.3035 135.876 45.7432C133.852 46.2634 131.686 46.0998 129.693 45.5435C127.7 44.9871 125.861 44.0529 124.102 43.0315C118.028 39.5032 114.679 36.4162 110.575 30.9705C110.024 28.6537 110.785 25.0556 112.459 23.2221Z" fill="#263238"/>
<path d="M125.551 39.8597C121.095 33.349 115.42 29.8622 110.282 28.7798L125.551 39.8597Z" fill="#263238"/>
<path d="M110.282 28.7804C110.279 28.7962 110.539 28.8743 111.01 29.0009C111.479 29.1338 112.155 29.3381 112.969 29.6474C114.597 30.2569 116.766 31.3468 118.885 32.9515C121.004 34.5571 122.677 36.3096 123.791 37.6486C124.34 38.3258 124.785 38.8743 125.072 39.2695C125.368 39.6582 125.538 39.8691 125.552 39.86C125.565 39.8508 125.42 39.6225 125.146 39.2164C124.882 38.8037 124.455 38.2374 123.92 37.5432C122.833 36.1709 121.165 34.3839 119.027 32.7638C116.888 31.1442 114.682 30.0651 113.026 29.4913C112.198 29.1994 111.51 29.0184 111.032 28.9121C110.552 28.812 110.286 28.7643 110.282 28.7804Z" fill="#455A64"/>
<path d="M130.867 45.4125C130.866 45.4087 130.831 45.42 130.766 45.4449C130.688 45.4764 130.593 45.5142 130.477 45.5607C130.228 45.6699 129.851 45.8115 129.364 45.9825C128.386 46.3126 126.93 46.6996 125.089 46.8549C123.25 47.0143 121.033 46.9209 118.637 46.4492C116.237 45.9863 113.672 45.1467 111.055 44.0884C108.441 43.0201 105.976 41.9248 103.779 40.8482C101.585 39.765 99.6745 38.6564 98.1607 37.5948C96.6411 36.5402 95.5096 35.5532 94.764 34.837C94.3841 34.4853 94.1104 34.191 93.919 33.9962C93.831 33.9082 93.7588 33.836 93.6994 33.7766C93.6487 33.728 93.6213 33.7044 93.6184 33.7073C93.6155 33.7102 93.6367 33.7388 93.6815 33.7928C93.7363 33.8563 93.8028 33.934 93.8841 34.0282C94.0643 34.2333 94.3284 34.5389 94.7 34.9022C95.4287 35.6413 96.5497 36.6527 98.0652 37.7305C99.5748 38.8154 101.486 39.9448 103.682 41.0421C105.882 42.1341 108.345 43.2352 110.968 44.3068C113.593 45.3685 116.176 46.2072 118.596 46.6622C121.014 47.126 123.251 47.2028 125.104 47.0209C126.96 46.8428 128.421 46.4276 129.395 46.0689C129.881 45.8837 130.253 45.728 130.497 45.6043C130.61 45.5491 130.701 45.5038 130.776 45.4669C130.838 45.4345 130.869 45.4162 130.867 45.4125Z" fill="#455A64"/>
<path d="M107.336 84.5121L106.579 83.0336C106.632 83.007 111.845 80.329 113.85 78.6441C118.575 74.6748 122.921 68.3335 122.964 68.27L124.337 69.205C124.154 69.4724 119.821 75.7967 114.918 79.9154C112.77 81.7215 107.557 84.3987 107.336 84.5121Z" fill="#455A64"/>
<path d="M111.219 79.9253C111.219 79.9253 104.088 83.1028 104.088 83.809C104.088 84.5153 105.218 85.9274 106.065 85.8568C106.912 85.7862 109.361 84.4086 109.785 83.8439C110.209 83.2788 111.005 81.8277 111.853 81.1219L111.219 79.9253Z" fill="#263238"/>
<path d="M124.282 58.5574L122.623 58.4794C122.626 58.41 122.914 51.4331 120.188 44.4117C116.584 35.1308 109.659 30.1468 99.6017 29.5971C98.7754 29.5489 97.8587 29.6178 96.8672 29.7839L97.5942 29.0984C97.9467 28.7663 98.3561 28.5001 98.8024 28.3125C99.414 28.0559 100.08 27.9554 100.741 28.0127C113.44 29.1117 119.175 37.1827 121.755 43.8595C124.593 51.2035 124.295 58.2606 124.282 58.5574Z" fill="#455A64"/>
<path d="M123.458 73.6445C126.364 73.6445 128.72 70.2583 128.72 66.0813C128.72 61.9042 126.364 58.5181 123.458 58.5181C120.551 58.5181 118.195 61.9042 118.195 66.0813C118.195 70.2583 120.551 73.6445 123.458 73.6445Z" fill="#455A64"/>
<path d="M128.715 66.0811C128.711 66.0811 128.706 66.0454 128.7 65.9764C128.694 65.8947 128.687 65.7938 128.679 65.6696C128.671 65.3997 128.626 65.0036 128.555 64.4975C128.379 63.504 128.034 62.0034 126.932 60.5424C126.665 60.1745 126.321 59.8419 125.943 59.5255C125.547 59.2378 125.113 58.9488 124.603 58.8002C124.101 58.6474 123.55 58.5673 122.992 58.6466C122.437 58.7259 121.886 58.9322 121.384 59.2478C120.383 59.8951 119.591 60.9401 119.083 62.138C118.557 63.335 118.314 64.6943 118.299 66.0802C118.314 67.4662 118.557 68.8264 119.083 70.0238C119.591 71.222 120.383 72.2675 121.384 72.9148C121.887 73.2308 122.437 73.4371 122.993 73.516C123.551 73.5953 124.102 73.5152 124.604 73.362C125.113 73.2129 125.547 72.9243 125.944 72.6362C126.321 72.3198 126.665 71.9872 126.932 71.6194C128.034 70.1583 128.379 68.6582 128.555 67.6646C128.626 67.1581 128.671 66.7624 128.679 66.4925C128.688 66.3684 128.695 66.2675 128.701 66.1857C128.706 66.1168 128.711 66.0811 128.715 66.0811C128.719 66.0811 128.721 66.1164 128.722 66.1857C128.722 66.2679 128.722 66.3692 128.722 66.4938C128.729 66.7653 128.697 67.1643 128.638 67.6767C128.486 68.6823 128.164 70.2056 127.053 71.712C126.784 72.091 126.435 72.4369 126.047 72.7666C125.64 73.0684 125.191 73.3715 124.659 73.5322C124.135 73.6966 123.555 73.7842 122.968 73.7045C122.383 73.6252 121.803 73.4105 121.277 73.0829C120.229 72.4116 119.411 71.3341 118.888 70.1081C118.347 68.8816 118.097 67.494 118.082 66.0802C118.097 64.6669 118.347 63.2797 118.889 62.0541C119.412 60.8284 120.229 59.751 121.277 59.0796C121.803 58.752 122.383 58.5374 122.968 58.4581C123.555 58.3784 124.134 58.466 124.659 58.63C125.191 58.7906 125.639 59.0933 126.047 59.3952C126.434 59.7248 126.783 60.0707 127.053 60.4498C128.163 61.9561 128.486 63.4795 128.638 64.4851C128.697 64.9974 128.728 65.3964 128.722 65.668C128.722 65.7925 128.722 65.8938 128.722 65.976C128.721 66.0458 128.719 66.0811 128.715 66.0811Z" fill="#263238"/>
<path d="M124.265 70.471C126.115 70.471 127.615 68.3154 127.615 65.6564C127.615 62.9974 126.115 60.8418 124.265 60.8418C122.415 60.8418 120.915 62.9974 120.915 65.6564C120.915 68.3154 122.415 70.471 124.265 70.471Z" fill="#455A64"/>
<path d="M127.623 65.6562C127.598 65.657 127.607 65.2929 127.506 64.6502C127.39 64.0199 127.166 63.0687 126.466 62.1474C126.118 61.6956 125.631 61.2584 124.996 61.0525C124.68 60.9574 124.334 60.9076 123.985 60.9578C123.636 61.0081 123.292 61.138 122.976 61.3369C122.347 61.7446 121.848 62.4039 121.527 63.1617C121.196 63.9186 121.042 64.7789 121.032 65.6558C121.041 66.5331 121.195 67.3938 121.527 68.1507C121.847 68.9084 122.347 69.5682 122.975 69.9755C123.291 70.1743 123.636 70.3043 123.985 70.3545C124.334 70.4048 124.68 70.355 124.996 70.2599C125.631 70.0535 126.118 69.6163 126.466 69.1646C127.166 68.2428 127.39 67.292 127.506 66.6618C127.607 66.0195 127.599 65.6558 127.623 65.6562C127.63 65.6562 127.635 65.7467 127.635 65.9194C127.642 66.0926 127.624 66.3471 127.589 66.6742C127.496 67.3165 127.295 68.2902 126.587 69.2576C126.235 69.7313 125.732 70.2001 125.051 70.4301C124.713 70.5368 124.339 70.5941 123.96 70.543C123.582 70.4924 123.208 70.3545 122.869 70.1436C122.193 69.7118 121.668 69.0201 121.333 68.2345C120.985 67.4486 120.825 66.5601 120.815 65.6553C120.825 64.7506 120.986 63.8625 121.333 63.077C121.669 62.2914 122.193 61.6001 122.869 61.1683C123.208 60.9574 123.582 60.8196 123.96 60.7689C124.339 60.7178 124.713 60.7751 125.051 60.8818C125.732 61.1119 126.234 61.5806 126.587 62.0544C127.295 63.0213 127.496 63.9954 127.589 64.6377C127.624 64.9649 127.642 65.2194 127.635 65.3925C127.635 65.5661 127.63 65.6562 127.623 65.6562Z" fill="#263238"/>
<path d="M124.495 69.1195C125.826 69.1195 126.905 67.5688 126.905 65.6559C126.905 63.7431 125.826 62.1924 124.495 62.1924C123.164 62.1924 122.085 63.7431 122.085 65.6559C122.085 67.5688 123.164 69.1195 124.495 69.1195Z" fill="#455A64"/>
<path d="M126.904 65.656C126.882 65.6564 126.884 65.3948 126.808 64.9344C126.721 64.4826 126.556 63.8017 126.054 63.1453C125.805 62.8235 125.457 62.5134 125.006 62.3684C124.559 62.2177 124.021 62.2817 123.575 62.5727C122.674 63.1681 122.194 64.4133 122.192 65.656C122.194 66.8987 122.674 68.1442 123.575 68.74C124.021 69.0315 124.559 69.095 125.006 68.9443C125.457 68.7994 125.805 68.4893 126.054 68.1675C126.556 67.5106 126.721 66.8301 126.808 66.3784C126.884 65.9175 126.882 65.6556 126.904 65.656C126.911 65.656 126.916 65.7207 126.918 65.8457C126.925 65.9703 126.914 66.1542 126.891 66.39C126.828 66.8538 126.686 67.5576 126.175 68.2597C125.921 68.6034 125.557 68.9452 125.061 69.1141C124.815 69.1926 124.542 69.2345 124.265 69.198C123.989 69.1615 123.716 69.061 123.468 68.9078C122.975 68.5939 122.595 68.0919 122.351 67.5227C122.099 66.9535 121.983 66.3103 121.976 65.6556C121.983 65.0012 122.099 64.3581 122.351 63.7888C122.595 63.22 122.975 62.718 123.468 62.4042C123.716 62.2509 123.989 62.1505 124.265 62.1139C124.542 62.0774 124.815 62.1193 125.061 62.1978C125.557 62.3668 125.92 62.7085 126.175 63.0523C126.686 63.7544 126.827 64.4581 126.89 64.9219C126.914 65.1581 126.925 65.3417 126.918 65.4666C126.916 65.5912 126.911 65.656 126.904 65.656Z" fill="#263238"/>
</svg>
