<svg width="24" height="25" viewBox="0 0 24 25" fill="none" xmlns="http://www.w3.org/2000/svg">
<path d="M22 12.39V13.28C22 16.84 21.11 17.72 17.56 17.72H6.44C2.89 17.72 2 16.83 2 13.28V6.94C2 3.39 2.89 2.5 6.44 2.5H8" stroke="#697386" stroke-width="1.5" stroke-linecap="round" stroke-linejoin="round"/>
<path d="M12 17.7197V22.4997" stroke="#697386" stroke-width="1.5" stroke-linecap="round" stroke-linejoin="round"/>
<path d="M2 13.5H22" stroke="#697386" stroke-width="1.5" stroke-linecap="round" stroke-linejoin="round"/>
<path d="M7.5 22.5H16.5" stroke="#697386" stroke-width="1.5" stroke-linecap="round" stroke-linejoin="round"/>
<path d="M17.8598 9.86977H13.0998C11.7198 9.86977 11.2598 8.94977 11.2598 8.02977V4.50977C11.2598 3.40977 12.1598 2.50977 13.2598 2.50977H17.8598C18.8798 2.50977 19.6998 3.32977 19.6998 4.34977V8.02977C19.6998 9.04977 18.8798 9.86977 17.8598 9.86977Z" stroke="#697386" stroke-width="1.5" stroke-linecap="round" stroke-linejoin="round"/>
<path d="M20.9102 8.42046L19.7002 7.57046V4.81046L20.9102 3.96046C21.5102 3.55046 22.0002 3.80046 22.0002 4.53046V7.86046C22.0002 8.59046 21.5102 8.84046 20.9102 8.42046Z" stroke="#697386" stroke-width="1.5" stroke-linecap="round" stroke-linejoin="round"/>
</svg>
