<svg width="150" height="75" viewBox="0 0 150 75" fill="none" xmlns="http://www.w3.org/2000/svg">
<g clip-path="url(#clip0_274_38405)">
<path d="M75 0C33.5788 0 0 16.7907 0 37.5C0 58.2093 33.5788 75 75 75C116.421 75 150.003 58.2093 150.003 37.5C150.003 16.7907 116.419 0 75 0ZM75 69.0812C36.8491 69.0812 5.92147 54.9416 5.92147 37.5C5.92147 20.0584 36.8491 5.92147 75 5.92147C113.151 5.92147 144.081 20.0584 144.081 37.5C144.081 54.9416 113.154 69.0812 75 69.0812ZM65.5436 30.9224V25.0009H86.7107V30.9224H79.0905V50.0071H73.1611V30.9224H65.5436ZM112.243 25.0009V50.0071H106.322L95.5823 35.124V50.0071H89.6635V25.0009H95.5823L106.322 39.8839V25.0009H112.243ZM37.5847 50.0071V25.0009H43.5061L50.0838 35.1187L56.6614 25.0009H62.5829V50.0071H56.6614V35.8596L52.1634 42.7626H47.9962L43.4982 35.8596V50.0071H37.5847Z" fill="#1D1D1B"/>
</g>
<defs>
<clipPath id="clip0_274_38405">
<rect width="150.003" height="75" fill="white"/>
</clipPath>
</defs>
</svg>
