<svg width="50" height="82" viewBox="0 0 50 82" fill="none" xmlns="http://www.w3.org/2000/svg">
<path opacity="0.2" d="M31.85 80.4626C31.85 81.2404 28.6455 81.8697 24.6934 81.8697C20.7399 81.8697 17.5367 81.2391 17.5367 80.4626C17.5367 79.6848 20.7413 79.0554 24.6934 79.0554C28.6455 79.0554 31.85 79.6848 31.85 80.4626Z" fill="#212121"/>
<path d="M26.8704 49.2806C39.4862 48.177 49.3835 37.5938 49.3835 24.6917C49.3835 10.5269 37.4562 -0.851215 23.0983 0.050097C10.8689 0.817395 0.897921 10.7266 0.0596745 22.9521C-0.877112 36.6281 9.33163 48.1245 22.5071 49.2793C23.3926 49.3569 24.0693 50.1018 24.0693 50.9913V71.1697C24.0693 71.8358 23.6935 72.4599 23.0825 72.7253C21.4796 73.419 20.4141 75.1126 20.6939 77.0282C20.9515 78.7927 22.4243 80.2209 24.1954 80.4324C26.6497 80.7254 28.7348 78.815 28.7348 76.4199C28.7348 74.7565 27.7271 73.3375 26.291 72.7213C25.6827 72.4599 25.3148 71.8318 25.3148 71.1697V50.9926C25.3148 50.1058 25.9875 49.3582 26.8704 49.2806Z" fill="#8C93A1"/>
<g filter="url(#filter0_d_326_1361)">
<path fill-rule="evenodd" clip-rule="evenodd" d="M18.3936 41.749V8.25098C11.721 10.885 7 17.3912 7 25C7 32.6088 11.721 39.1149 18.3936 41.749Z" fill="#008751"/>
<path fill-rule="evenodd" clip-rule="evenodd" d="M18.3936 8.251V41.749C22.6399 43.417 27.3601 43.417 31.6065 41.749V8.251C27.3601 6.583 22.6399 6.583 18.3936 8.251Z" fill="#F5F5F5"/>
<path fill-rule="evenodd" clip-rule="evenodd" d="M31.6065 8.25098V41.749C38.279 39.1149 43 32.6088 43 25C43 17.3912 38.279 10.8851 31.6065 8.25098Z" fill="#008751"/>
</g>
<defs>
<filter id="filter0_d_326_1361" x="2.89" y="4.945" width="44.22" height="44.22" filterUnits="userSpaceOnUse" color-interpolation-filters="sRGB">
<feFlood flood-opacity="0" result="BackgroundImageFix"/>
<feColorMatrix in="SourceAlpha" type="matrix" values="0 0 0 0 0 0 0 0 0 0 0 0 0 0 0 0 0 0 127 0" result="hardAlpha"/>
<feOffset dy="2.055"/>
<feGaussianBlur stdDeviation="2.055"/>
<feComposite in2="hardAlpha" operator="out"/>
<feColorMatrix type="matrix" values="0 0 0 0 0.215686 0 0 0 0 0.254902 0 0 0 0 0.317647 0 0 0 0.1 0"/>
<feBlend mode="normal" in2="BackgroundImageFix" result="effect1_dropShadow_326_1361"/>
<feBlend mode="normal" in="SourceGraphic" in2="effect1_dropShadow_326_1361" result="shape"/>
</filter>
</defs>
</svg>
