<svg width="50" height="82" viewBox="0 0 50 82" fill="none" xmlns="http://www.w3.org/2000/svg">
<path opacity="0.2" d="M31.85 80.4626C31.85 81.2404 28.6454 81.8697 24.6933 81.8697C20.7399 81.8697 17.5367 81.2391 17.5367 80.4626C17.5367 79.6848 20.7412 79.0554 24.6933 79.0554C28.6454 79.0554 31.85 79.6848 31.85 80.4626Z" fill="#212121"/>
<path d="M26.8704 49.2806C39.4862 48.177 49.3835 37.5938 49.3835 24.6917C49.3835 10.5269 37.4562 -0.851215 23.0983 0.050097C10.8689 0.817395 0.897921 10.7266 0.0596745 22.9521C-0.877112 36.6281 9.33163 48.1245 22.5071 49.2793C23.3926 49.3569 24.0693 50.1018 24.0693 50.9913V71.1697C24.0693 71.8358 23.6935 72.4599 23.0825 72.7253C21.4796 73.419 20.4141 75.1126 20.6939 77.0282C20.9515 78.7927 22.4243 80.2209 24.1954 80.4324C26.6497 80.7254 28.7348 78.815 28.7348 76.4199C28.7348 74.7565 27.7271 73.3375 26.291 72.7213C25.6827 72.4599 25.3148 71.8318 25.3148 71.1697V50.9926C25.3148 50.1058 25.9875 49.3582 26.8704 49.2806Z" fill="#8C93A1"/>
<g filter="url(#filter0_d_307_101649)">
<path d="M34.6005 9.76891H15.3995C15.7422 9.55234 16.0923 9.34727 16.45 9.15367C18.9832 7.78276 21.8099 7.04393 24.6899 7H25.3101C25.6546 7.00492 25.9963 7.02109 26.3359 7.0457C29.2729 7.25932 32.1118 8.19473 34.6005 9.76891Z" fill="#DB1B1B"/>
<path d="M37.9909 12.5377H12.0091C12.0259 12.5194 12.0435 12.5018 12.0611 12.4836C12.3892 12.1461 12.7279 11.8219 13.0771 11.5111C13.4132 11.2144 13.7603 10.9297 14.1184 10.6568C14.5319 10.3433 14.9622 10.0458 15.3995 9.7688H34.6005C35.8391 10.5504 36.9776 11.4802 37.9909 12.5377Z" fill="white"/>
<path d="M40.1713 15.3056H9.82867C10.0853 14.9055 10.3574 14.5145 10.6443 14.137C11.0678 13.5777 11.5235 13.0436 12.0091 12.5374H37.9909C38.8059 13.3871 39.5361 14.3142 40.1713 15.3056Z" fill="#DB1B1B"/>
<path d="M41.6205 18.0748H8.37955C8.46673 17.8639 8.55814 17.6572 8.65447 17.4504C8.96041 16.7886 9.30628 16.1459 9.69017 15.526C9.73587 15.4557 9.78228 15.3797 9.8308 15.3059H40.1713C40.7339 16.185 41.2188 17.1115 41.6205 18.0748Z" fill="white"/>
<path d="M42.5176 20.8432H7.48233C7.58264 20.4143 7.69983 19.9924 7.83389 19.5776C7.99467 19.0657 8.17749 18.5651 8.38233 18.0757H41.6205C41.9945 18.9722 42.2946 19.8977 42.5176 20.8432Z" fill="#DB1B1B"/>
<path d="M42.9473 23.6119H7.05273C7.1232 22.6791 7.26685 21.7533 7.48234 20.843H42.5177C42.7332 21.7533 42.8768 22.6791 42.9473 23.6119Z" fill="white"/>
<path d="M43 24.996C43 25.4615 42.9824 25.923 42.9473 26.3805H7.05273C7.01758 25.9234 7 25.462 7 24.996V24.0995C7.00007 24.1229 7.00664 24.1458 7.01898 24.1656C7.01898 24.1171 7.0232 24.0686 7.02602 24.0208C7.03305 23.8837 7.04219 23.748 7.05273 23.6116H42.9473C42.9824 24.0686 43 24.5301 43 24.996Z" fill="#DB1B1B"/>
<path d="M42.9473 26.3809C42.8769 27.3137 42.7332 28.2395 42.5177 29.1498H7.48234C7.26679 28.2395 7.12314 27.3137 7.05273 26.3809H42.9473Z" fill="white"/>
<path d="M42.5176 29.1499C42.2951 30.0957 41.995 31.0216 41.6205 31.9181H8.37952C8.00499 31.0216 7.70491 30.0957 7.48233 29.1499H42.5176Z" fill="#DB1B1B"/>
<path d="M41.6205 31.918C41.2193 32.8815 40.7344 33.808 40.1713 34.6869H9.82869C9.26566 33.808 8.78076 32.8815 8.37955 31.918H41.6205Z" fill="white"/>
<path d="M40.1713 34.687C39.5365 35.6787 38.8065 36.606 37.9916 37.4559H12.0091C11.1942 36.606 10.4642 35.6787 9.82938 34.687H40.1713Z" fill="#DB1B1B"/>
<path d="M37.9909 37.4556C36.9771 38.5124 35.8386 39.4422 34.6005 40.2245H15.3995C14.1614 39.4422 13.0229 38.5124 12.0091 37.4556H37.9909Z" fill="white"/>
<path d="M34.6004 40.2246C31.8298 41.9787 28.6303 42.9375 25.3515 42.9963H24.6484C21.3691 42.9391 18.1686 41.9815 15.3967 40.2281L34.6004 40.2246Z" fill="#DB1B1B"/>
<path d="M26.3359 7.0457V26.3816H7.05273C7.01758 25.9241 7 25.4624 7 24.9965V24.1C7.00007 24.1234 7.00664 24.1463 7.01898 24.1661C7.01898 24.1176 7.0232 24.0691 7.02602 24.0212C7.03305 23.8841 7.04219 23.7484 7.05273 23.612C7.1232 22.6792 7.26685 21.7534 7.48234 20.8431C7.58266 20.4142 7.69984 19.9923 7.83391 19.5775C7.99469 19.0656 8.1775 18.565 8.38234 18.0756C8.46953 17.8647 8.56094 17.658 8.65727 17.4513C8.9632 16.7894 9.30907 16.1467 9.69297 15.5268C9.73867 15.4565 9.78508 15.3805 9.83359 15.3067C10.0902 14.9066 10.3623 14.5157 10.6492 14.1381C11.0711 13.5788 11.5251 13.0444 12.0091 12.5378C12.0259 12.5195 12.0435 12.502 12.0611 12.4837C12.3892 12.1462 12.7279 11.822 13.0771 11.5112C13.4132 11.2145 13.7603 10.9298 14.1184 10.657C14.5319 10.3434 14.9622 10.0459 15.3995 9.76891C15.7422 9.55234 16.0923 9.34727 16.45 9.15367C18.9832 7.78276 21.8099 7.04393 24.6899 7H25.3101C25.6546 7.00492 25.9963 7.02109 26.3359 7.0457Z" fill="#3E436D"/>
<path d="M24.2547 8.14947L24.5008 8.90674C24.5091 8.93246 24.5253 8.95489 24.5472 8.9708C24.569 8.98672 24.5954 8.99531 24.6224 8.99533H25.4219C25.4484 8.99637 25.474 9.00566 25.4951 9.02191C25.5161 9.03815 25.5316 9.06055 25.5393 9.08599C25.547 9.11143 25.5467 9.13864 25.5382 9.16385C25.5298 9.18906 25.5137 9.21101 25.4922 9.22666L24.8474 9.69494C24.8259 9.71054 24.8098 9.73252 24.8015 9.75776C24.7932 9.783 24.793 9.81022 24.801 9.83557L25.0471 10.5935C25.0547 10.6191 25.0541 10.6463 25.0454 10.6715C25.0368 10.6967 25.0205 10.7185 24.9988 10.734C24.9771 10.7495 24.9512 10.7578 24.9245 10.7579C24.8979 10.7579 24.8719 10.7496 24.8502 10.7342L24.2062 10.2659C24.1843 10.2501 24.1579 10.2416 24.1309 10.2416C24.1039 10.2416 24.0776 10.2501 24.0557 10.2659L23.4109 10.7342C23.3892 10.7496 23.3633 10.7579 23.3366 10.7579C23.31 10.7578 23.284 10.7495 23.2624 10.734C23.2407 10.7185 23.2244 10.6967 23.2157 10.6715C23.2071 10.6463 23.2065 10.6191 23.2141 10.5935L23.4609 9.83557C23.4685 9.8102 23.4682 9.78308 23.4599 9.75791C23.4516 9.73274 23.4357 9.71075 23.4144 9.69494L22.7697 9.22666C22.7479 9.21075 22.7317 9.18836 22.7234 9.16269C22.7151 9.13702 22.7151 9.10938 22.7234 9.08372C22.7318 9.05806 22.748 9.0357 22.7698 9.01982C22.7917 9.00395 22.8179 8.99538 22.8449 8.99533H23.6416C23.6686 8.9952 23.6948 8.98657 23.7167 8.97067C23.7385 8.95477 23.7548 8.9324 23.7632 8.90674L24.0093 8.14947C24.0171 8.12301 24.0333 8.0998 24.0554 8.08329C24.0775 8.06678 24.1044 8.05786 24.132 8.05786C24.1596 8.05786 24.1864 8.06678 24.2085 8.08329C24.2307 8.0998 24.2468 8.12301 24.2547 8.14947Z" fill="white"/>
<path d="M15.7061 9.76874C15.6997 9.79174 15.6997 9.81605 15.7061 9.83905L15.9529 10.5956C15.9604 10.6211 15.9598 10.6484 15.9512 10.6736C15.9425 10.6988 15.9262 10.7206 15.9045 10.7361C15.8829 10.7516 15.8569 10.7599 15.8303 10.7599C15.8037 10.76 15.7777 10.7517 15.756 10.7362L15.1112 10.2687C15.0894 10.2529 15.0632 10.2445 15.0363 10.2445C15.0095 10.2445 14.9833 10.2529 14.9615 10.2687L14.3167 10.7362C14.2992 10.7492 14.2787 10.7574 14.2572 10.7601C14.2356 10.7629 14.2137 10.7601 14.1936 10.752C14.1734 10.7439 14.1557 10.7307 14.142 10.7138C14.1284 10.6969 14.1193 10.6768 14.1156 10.6554C14.529 10.3418 14.9594 10.0444 15.3967 9.76733C15.7394 9.55077 16.0895 9.34569 16.4472 9.1521C16.4391 9.18058 16.4215 9.20541 16.3972 9.22241L15.7525 9.69069C15.7281 9.71029 15.7117 9.73799 15.7061 9.76874Z" fill="white"/>
<path d="M24.2547 14.0426L24.5008 14.8006C24.5091 14.8262 24.5254 14.8486 24.5473 14.8644C24.5691 14.8802 24.5954 14.8886 24.6224 14.8885H25.4219C25.4488 14.8885 25.4751 14.8971 25.4969 14.913C25.5188 14.9288 25.535 14.9512 25.5433 14.9769C25.5517 15.0025 25.5517 15.0302 25.5434 15.0558C25.5351 15.0815 25.5189 15.1039 25.4971 15.1198L24.8523 15.5881C24.8308 15.6037 24.8147 15.6257 24.8064 15.6509C24.7981 15.6761 24.7979 15.7034 24.8059 15.7287L25.0492 16.4881C25.0568 16.5136 25.0562 16.5409 25.0475 16.566C25.0389 16.5912 25.0226 16.6131 25.0009 16.6286C24.9792 16.644 24.9533 16.6524 24.9266 16.6524C24.9 16.6524 24.874 16.6441 24.8523 16.6287L24.2083 16.1604C24.1864 16.1446 24.16 16.1361 24.133 16.1361C24.106 16.1361 24.0797 16.1446 24.0578 16.1604L23.413 16.6287C23.3913 16.6441 23.3654 16.6524 23.3387 16.6524C23.3121 16.6524 23.2861 16.644 23.2645 16.6286C23.2428 16.6131 23.2265 16.5912 23.2178 16.566C23.2092 16.5409 23.2086 16.5136 23.2162 16.4881L23.463 15.7301C23.4706 15.7047 23.4703 15.6776 23.462 15.6524C23.4537 15.6273 23.4378 15.6053 23.4166 15.5895L22.7718 15.1212C22.75 15.1053 22.7338 15.0829 22.7255 15.0572C22.7172 15.0316 22.7172 15.0039 22.7255 14.9783C22.7339 14.9526 22.7501 14.9302 22.7719 14.9144C22.7938 14.8985 22.82 14.8899 22.847 14.8899H23.6437C23.6706 14.8899 23.6969 14.8814 23.7187 14.8656C23.7406 14.8498 23.7569 14.8276 23.7653 14.802L24.0114 14.044C24.0196 14.0183 24.0358 13.9959 24.0575 13.9799C24.0793 13.9639 24.1055 13.9552 24.1325 13.9551C24.1595 13.9549 24.1859 13.9633 24.2078 13.979C24.2297 13.9947 24.2461 14.017 24.2547 14.0426Z" fill="white"/>
<path d="M19.7076 14.0431L19.9537 14.801C19.962 14.8267 19.9783 14.849 20.0001 14.8648C20.022 14.8806 20.0483 14.889 20.0753 14.8889H20.8719C20.8989 14.889 20.9252 14.8975 20.947 14.9134C20.9688 14.9293 20.9851 14.9516 20.9934 14.9773C21.0018 15.003 21.0018 15.0306 20.9935 15.0563C20.9852 15.0819 20.969 15.1043 20.9472 15.1202L20.3024 15.5885C20.281 15.6042 20.265 15.6262 20.2566 15.6514C20.2483 15.6766 20.2481 15.7038 20.256 15.7291L20.5 16.4885C20.5078 16.514 20.5075 16.5413 20.499 16.5666C20.4904 16.5919 20.4742 16.6139 20.4525 16.6294C20.4308 16.645 20.4048 16.6533 20.3781 16.6533C20.3514 16.6532 20.3254 16.6448 20.3038 16.6291L19.659 16.1609C19.6371 16.1451 19.6108 16.1366 19.5838 16.1366C19.5568 16.1366 19.5305 16.1451 19.5086 16.1609L18.8659 16.6291C18.8443 16.6448 18.8183 16.6532 18.7916 16.6533C18.7649 16.6533 18.7389 16.645 18.7172 16.6294C18.6955 16.6139 18.6793 16.5919 18.6708 16.5666C18.6622 16.5413 18.6619 16.514 18.6697 16.4885L18.9158 15.7306C18.9237 15.7052 18.9235 15.678 18.9152 15.6528C18.9069 15.6276 18.8909 15.6056 18.8694 15.5899L18.2247 15.1216C18.2029 15.1057 18.1867 15.0833 18.1784 15.0577C18.1701 15.032 18.1701 15.0044 18.1784 14.9787C18.1868 14.953 18.203 14.9307 18.2248 14.9148C18.2466 14.8989 18.2729 14.8904 18.2999 14.8903H19.0937C19.1207 14.8904 19.147 14.882 19.1689 14.8662C19.1907 14.8504 19.207 14.8281 19.2154 14.8024L19.4615 14.0445C19.4689 14.0177 19.485 13.9941 19.5071 13.9772C19.5292 13.9603 19.5562 13.9511 19.584 13.9509C19.6118 13.9508 19.6389 13.9597 19.6612 13.9763C19.6835 13.9929 19.6998 14.0164 19.7076 14.0431Z" fill="white"/>
<path d="M11.8516 15.121L11.5963 15.3059L11.2068 15.5871C11.1854 15.6029 11.1695 15.6249 11.1612 15.6501C11.1529 15.6753 11.1526 15.7024 11.1604 15.7278L11.4086 16.4885C11.4157 16.514 11.4148 16.541 11.406 16.566C11.3972 16.5909 11.381 16.6125 11.3595 16.6279C11.3379 16.6432 11.3122 16.6516 11.2858 16.6518C11.2594 16.6521 11.2335 16.6442 11.2117 16.6292L10.5677 16.1602C10.5458 16.1444 10.5194 16.1359 10.4924 16.1359C10.4654 16.1359 10.4391 16.1444 10.4172 16.1602L9.77242 16.6292C9.75065 16.6442 9.72478 16.6521 9.69835 16.6518C9.67192 16.6516 9.64619 16.6432 9.62468 16.6279C9.60317 16.6125 9.58692 16.5909 9.57812 16.566C9.56933 16.541 9.56843 16.514 9.57555 16.4885L9.82235 15.7313C9.82983 15.7059 9.8294 15.6788 9.82111 15.6537C9.81282 15.6286 9.79706 15.6066 9.77594 15.5907L9.69016 15.5281C9.73586 15.4578 9.78227 15.3818 9.83078 15.308C10.0874 14.9079 10.3595 14.517 10.6464 14.1394L10.8602 14.801C10.8685 14.8268 10.8847 14.8492 10.9066 14.8651C10.9284 14.881 10.9548 14.8896 10.9818 14.8896H11.7813C11.8076 14.8911 11.8329 14.9006 11.8537 14.9169C11.8744 14.9332 11.8897 14.9554 11.8974 14.9807C11.905 15.006 11.9048 15.033 11.8966 15.058C11.8884 15.0831 11.8727 15.1051 11.8516 15.121Z" fill="white"/>
<path d="M24.2547 20.0466L24.5008 20.8045C24.5092 20.8301 24.5255 20.8524 24.5474 20.8682C24.5692 20.884 24.5955 20.8924 24.6224 20.8924H25.4219C25.4488 20.8925 25.4751 20.901 25.4969 20.9169C25.5188 20.9328 25.535 20.9551 25.5433 20.9808C25.5517 21.0065 25.5517 21.0341 25.5434 21.0598C25.5351 21.0854 25.5189 21.1078 25.4971 21.1237L24.8523 21.592C24.8308 21.6076 24.8147 21.6296 24.8064 21.6548C24.7981 21.6801 24.7979 21.7073 24.8059 21.7327L25.052 22.4906C25.0596 22.5162 25.059 22.5434 25.0503 22.5686C25.0417 22.5938 25.0254 22.6156 25.0037 22.6311C24.982 22.6466 24.9561 22.6549 24.9294 22.6549C24.9028 22.655 24.8768 22.6467 24.8551 22.6312L24.2111 22.163C24.1892 22.1472 24.1629 22.1387 24.1358 22.1387C24.1088 22.1387 24.0825 22.1472 24.0606 22.163L23.4158 22.6312C23.3941 22.6467 23.3682 22.655 23.3415 22.6549C23.3149 22.6549 23.289 22.6466 23.2673 22.6311C23.2456 22.6156 23.2293 22.5938 23.2207 22.5686C23.212 22.5434 23.2114 22.5162 23.219 22.4906L23.4658 21.7327C23.4735 21.7073 23.4731 21.6802 23.4648 21.655C23.4565 21.6298 23.4406 21.6078 23.4194 21.592L22.7746 21.1237C22.7528 21.1078 22.7366 21.0854 22.7283 21.0598C22.72 21.0341 22.72 21.0065 22.7284 20.9808C22.7367 20.9551 22.7529 20.9328 22.7748 20.9169C22.7966 20.901 22.8228 20.8925 22.8498 20.8924H23.6465C23.6734 20.8923 23.6996 20.8838 23.7214 20.868C23.7433 20.8523 23.7596 20.8301 23.7681 20.8045L24.0142 20.0466C24.0232 20.0219 24.0396 20.0006 24.0611 19.9855C24.0826 19.9705 24.1082 19.9624 24.1344 19.9624C24.1607 19.9624 24.1863 19.9705 24.2078 19.9855C24.2293 20.0006 24.2457 20.0219 24.2547 20.0466Z" fill="white"/>
<path d="M19.7076 20.0471L19.9537 20.8051C19.9621 20.8307 19.9784 20.8529 20.0002 20.8687C20.0221 20.8845 20.0483 20.893 20.0753 20.893H20.8719C20.8989 20.893 20.9252 20.9016 20.947 20.9175C20.9688 20.9333 20.9851 20.9557 20.9934 20.9814C21.0018 21.007 21.0018 21.0347 20.9935 21.0603C20.9852 21.086 20.969 21.1084 20.9472 21.1243L20.3024 21.5926C20.281 21.6082 20.265 21.6302 20.2566 21.6554C20.2483 21.6807 20.2481 21.7078 20.256 21.7332L20.5 22.4933C20.5078 22.5188 20.5075 22.5461 20.499 22.5714C20.4904 22.5967 20.4742 22.6186 20.4525 22.6342C20.4308 22.6497 20.4048 22.6581 20.3781 22.658C20.3514 22.658 20.3254 22.6495 20.3038 22.6339L19.659 22.1656C19.6371 22.1498 19.6108 22.1413 19.5838 22.1413C19.5568 22.1413 19.5305 22.1498 19.5086 22.1656L18.8638 22.6339C18.8422 22.6495 18.8162 22.658 18.7895 22.658C18.7628 22.6581 18.7368 22.6497 18.7151 22.6342C18.6934 22.6186 18.6772 22.5967 18.6687 22.5714C18.6601 22.5461 18.6598 22.5188 18.6676 22.4933L18.9137 21.7353C18.9216 21.71 18.9214 21.6828 18.9131 21.6576C18.9048 21.6323 18.8888 21.6104 18.8673 21.5947L18.2226 21.1264C18.2008 21.1105 18.1846 21.0881 18.1763 21.0624C18.168 21.0368 18.168 21.0091 18.1763 20.9835C18.1847 20.9578 18.2009 20.9354 18.2227 20.9196C18.2445 20.9037 18.2708 20.8951 18.2978 20.8951H19.0937C19.1207 20.8951 19.1469 20.8866 19.1688 20.8708C19.1906 20.855 19.2069 20.8328 19.2154 20.8072L19.4615 20.0492C19.4689 20.0224 19.4848 19.9987 19.5069 19.9818C19.5289 19.9649 19.5559 19.9556 19.5837 19.9553C19.6115 19.9551 19.6387 19.9639 19.661 19.9805C19.6834 19.997 19.6997 20.0204 19.7076 20.0471Z" fill="white"/>
<path d="M15.1605 20.0472L15.4066 20.8051C15.4151 20.8307 15.4314 20.8529 15.4533 20.8686C15.4751 20.8844 15.5013 20.8929 15.5282 20.893H16.3249C16.3518 20.8931 16.3781 20.9016 16.3999 20.9175C16.4217 20.9334 16.438 20.9558 16.4463 20.9814C16.4547 21.0071 16.4547 21.0347 16.4464 21.0604C16.4381 21.0861 16.4219 21.1084 16.4001 21.1244L15.7553 21.5926C15.734 21.6084 15.7182 21.6304 15.7099 21.6556C15.7016 21.6808 15.7012 21.7079 15.7089 21.7333L15.9557 22.4912C15.9633 22.5168 15.9627 22.544 15.954 22.5692C15.9454 22.5944 15.9291 22.6162 15.9074 22.6317C15.8857 22.6472 15.8598 22.6555 15.8331 22.6555C15.8065 22.6556 15.7805 22.6473 15.7588 22.6319L15.1141 22.1636C15.0923 22.1478 15.0661 22.1394 15.0392 22.1394C15.0123 22.1394 14.9861 22.1478 14.9643 22.1636L14.3195 22.6319C14.2978 22.6473 14.2719 22.6556 14.2452 22.6555C14.2186 22.6555 14.1927 22.6472 14.171 22.6317C14.1493 22.6162 14.133 22.5944 14.1244 22.5692C14.1157 22.544 14.1151 22.5168 14.1227 22.4912L14.3688 21.7333C14.3768 21.7079 14.3766 21.6807 14.3683 21.6555C14.3599 21.6302 14.3439 21.6082 14.3224 21.5926L13.6797 21.1244C13.6582 21.1087 13.6421 21.0868 13.6337 21.0615C13.6252 21.0363 13.6248 21.0091 13.6326 20.9837C13.6403 20.9582 13.6558 20.9358 13.6768 20.9196C13.6979 20.9034 13.7234 20.8941 13.75 20.893H14.5467C14.5736 20.893 14.5999 20.8846 14.6217 20.8688C14.6435 20.853 14.6599 20.8307 14.6683 20.8051L14.9144 20.0472C14.922 20.0204 14.9382 19.9969 14.9604 19.9802C14.9826 19.9634 15.0096 19.9543 15.0374 19.9543C15.0652 19.9543 15.0923 19.9634 15.1145 19.9802C15.1367 19.9969 15.1528 20.0204 15.1605 20.0472Z" fill="white"/>
<path d="M10.6141 20.047L10.8601 20.8049C10.8686 20.8305 10.8849 20.8528 10.9067 20.8686C10.9286 20.8844 10.9548 20.8928 10.9818 20.8928H11.7812C11.8078 20.8939 11.8334 20.9032 11.8544 20.9194C11.8755 20.9356 11.8909 20.958 11.8987 20.9835C11.9064 21.0089 11.906 21.0361 11.8976 21.0613C11.8891 21.0866 11.8731 21.1085 11.8516 21.1242L11.2068 21.5924C11.1853 21.608 11.1692 21.63 11.1609 21.6553C11.1525 21.6805 11.1524 21.7077 11.1604 21.7331L11.4065 22.491C11.414 22.5166 11.4135 22.5438 11.4048 22.569C11.3961 22.5942 11.3798 22.616 11.3582 22.6315C11.3365 22.647 11.3105 22.6553 11.2839 22.6553C11.2573 22.6554 11.2313 22.6471 11.2096 22.6317L10.5655 22.1634C10.5436 22.1476 10.5173 22.1391 10.4903 22.1391C10.4633 22.1391 10.437 22.1476 10.4151 22.1634L9.77031 22.6317C9.74861 22.6471 9.72263 22.6554 9.696 22.6553C9.66938 22.6553 9.64342 22.647 9.62175 22.6315C9.60008 22.616 9.58378 22.5942 9.57512 22.569C9.56646 22.5438 9.56587 22.5166 9.57343 22.491L9.82023 21.7331C9.82792 21.7077 9.82759 21.6806 9.81928 21.6554C9.81098 21.6302 9.7951 21.6082 9.77382 21.5924L9.12906 21.1242C9.10726 21.1082 9.09106 21.0859 9.08275 21.0602C9.07445 21.0345 9.07447 21.0069 9.08281 20.9812C9.09116 20.9556 9.1074 20.9332 9.12922 20.9173C9.15103 20.9014 9.17731 20.8929 9.20429 20.8928H10.003C10.03 20.8927 10.0562 20.8842 10.078 20.8684C10.0998 20.8527 10.1161 20.8305 10.1247 20.8049L10.3708 20.047C10.3792 20.0213 10.3954 19.999 10.4173 19.9831C10.4391 19.9673 10.4654 19.9587 10.4924 19.9587C10.5194 19.9587 10.5457 19.9673 10.5675 19.9831C10.5894 19.999 10.6057 20.0213 10.6141 20.047Z" fill="white"/>
<path d="M21.9808 10.9275L22.2269 11.6855C22.2353 11.7111 22.2516 11.7334 22.2735 11.7492C22.2953 11.7649 22.3216 11.7734 22.3485 11.7734H23.1452C23.1721 11.7734 23.1984 11.782 23.2202 11.7979C23.2421 11.8138 23.2583 11.8361 23.2666 11.8618C23.275 11.8874 23.275 11.9151 23.2667 11.9408C23.2584 11.9664 23.2422 11.9888 23.2204 12.0047L22.5756 12.473C22.5544 12.4888 22.5385 12.5108 22.5302 12.536C22.5219 12.5611 22.5215 12.5883 22.5292 12.6136L22.776 13.3716C22.7836 13.3971 22.783 13.4244 22.7743 13.4496C22.7657 13.4747 22.7494 13.4966 22.7277 13.5121C22.706 13.5276 22.6801 13.5359 22.6535 13.5359C22.6268 13.5359 22.6008 13.5277 22.5792 13.5122L21.9344 13.0439C21.9126 13.0282 21.8864 13.0197 21.8595 13.0197C21.8326 13.0197 21.8064 13.0282 21.7846 13.0439L21.1399 13.5122C21.1182 13.5277 21.0922 13.5359 21.0656 13.5359C21.0389 13.5359 21.013 13.5276 20.9913 13.5121C20.9696 13.4966 20.9533 13.4747 20.9447 13.4496C20.936 13.4244 20.9354 13.3971 20.943 13.3716L21.1891 12.6136C21.1971 12.5883 21.1969 12.5611 21.1886 12.5358C21.1803 12.5106 21.1642 12.4886 21.1427 12.473L20.5 12.0047C20.4785 11.9891 20.4624 11.9671 20.454 11.9419C20.4455 11.9167 20.4452 11.8895 20.4529 11.8641C20.4606 11.8386 20.4761 11.8162 20.4971 11.8C20.5182 11.7837 20.5438 11.7744 20.5703 11.7734H21.367C21.3939 11.7735 21.4203 11.7651 21.4421 11.7493C21.464 11.7335 21.4803 11.7112 21.4886 11.6855L21.7347 10.9275C21.7423 10.9008 21.7585 10.8773 21.7807 10.8605C21.8029 10.8438 21.8299 10.8347 21.8577 10.8347C21.8856 10.8347 21.9126 10.8438 21.9348 10.8605C21.957 10.8773 21.9732 10.9008 21.9808 10.9275Z" fill="white"/>
<path d="M13.4357 12.5372C13.4276 12.5628 13.4276 12.5903 13.4357 12.6159L13.6797 13.3732C13.6871 13.3986 13.6864 13.4257 13.6777 13.4508C13.6691 13.4758 13.6529 13.4975 13.6314 13.5129C13.6098 13.5284 13.5841 13.5367 13.5576 13.5369C13.5311 13.5371 13.5052 13.529 13.4835 13.5138L12.8387 13.0448C12.8168 13.0291 12.7905 13.0206 12.7635 13.0206C12.7365 13.0206 12.7102 13.0291 12.6883 13.0448L12.0435 13.5138C12.0218 13.529 11.9959 13.5371 11.9694 13.5369C11.943 13.5367 11.9172 13.5284 11.8957 13.5129C11.8741 13.4975 11.8579 13.4758 11.8493 13.4508C11.8406 13.4257 11.8399 13.3986 11.8473 13.3732L12.0934 12.6159C12.1015 12.5903 12.1015 12.5628 12.0934 12.5372C12.0887 12.5156 12.078 12.4959 12.0625 12.4802C12.3906 12.1427 12.7293 11.8186 13.0785 11.5078L13.1348 11.6815C13.1427 11.708 13.1589 11.7312 13.1811 11.7476C13.2033 11.7641 13.2302 11.773 13.2578 11.7729H14.0545C14.0814 11.7732 14.1076 11.7819 14.1293 11.7979C14.151 11.8139 14.1671 11.8362 14.1755 11.8619C14.1838 11.8875 14.1838 11.9151 14.1756 11.9408C14.1674 11.9664 14.1513 11.9889 14.1297 12.0049L13.4849 12.4725C13.4618 12.4881 13.4445 12.5108 13.4357 12.5372Z" fill="white"/>
<path d="M9.82726 18.0749C9.82547 18.0924 9.8199 18.1094 9.81091 18.1246C9.80193 18.1397 9.78975 18.1528 9.77523 18.1628L9.13046 18.6318C9.10918 18.6476 9.09331 18.6696 9.085 18.6947C9.07669 18.7199 9.07636 18.747 9.08405 18.7724L9.33015 19.5304C9.33801 19.5559 9.33765 19.5832 9.32913 19.6085C9.32061 19.6338 9.30436 19.6557 9.28267 19.6713C9.26099 19.6868 9.23496 19.6952 9.20828 19.6951C9.18159 19.695 9.1556 19.6866 9.13398 19.671L8.48921 19.2034C8.46757 19.187 8.44114 19.1781 8.41398 19.1781C8.38681 19.1781 8.36038 19.187 8.33874 19.2034L7.83109 19.5725C7.99187 19.0607 8.17468 18.56 8.37952 18.0707C8.46671 17.8597 8.55812 17.653 8.65444 17.4463L8.78171 17.8393C8.79 17.8651 8.80622 17.8877 8.82807 17.9037C8.84991 17.9197 8.87626 17.9285 8.90335 17.9286H9.69999C9.71839 17.9285 9.7366 17.9324 9.75336 17.94C9.77013 17.9476 9.78506 17.9587 9.79714 17.9726C9.80922 17.9865 9.81816 18.0028 9.82336 18.0205C9.82856 18.0381 9.82989 18.0567 9.82726 18.0749Z" fill="white"/>
<path d="M21.9808 17.0861L22.2269 17.8441C22.2354 17.8696 22.2517 17.8918 22.2736 17.9076C22.2954 17.9234 22.3216 17.9319 22.3485 17.932H23.1452C23.1721 17.932 23.1984 17.9406 23.2202 17.9565C23.242 17.9723 23.2583 17.9947 23.2666 18.0204C23.275 18.046 23.275 18.0737 23.2667 18.0993C23.2584 18.125 23.2422 18.1474 23.2204 18.1633L22.5756 18.6316C22.5543 18.6474 22.5385 18.6694 22.5302 18.6945C22.5219 18.7197 22.5215 18.7468 22.5292 18.7722L22.776 19.5302C22.7836 19.5557 22.783 19.583 22.7743 19.6081C22.7657 19.6333 22.7494 19.6552 22.7277 19.6707C22.706 19.6861 22.6801 19.6945 22.6534 19.6945C22.6268 19.6945 22.6008 19.6862 22.5791 19.6708L21.9344 19.2025C21.9126 19.1868 21.8864 19.1783 21.8595 19.1783C21.8326 19.1783 21.8064 19.1868 21.7846 19.2025L21.1398 19.6708C21.1181 19.6862 21.0922 19.6945 21.0655 19.6945C21.0389 19.6945 21.013 19.6861 20.9913 19.6707C20.9696 19.6552 20.9533 19.6333 20.9447 19.6081C20.936 19.583 20.9354 19.5557 20.943 19.5302L21.1891 18.7722C21.1971 18.7469 21.1969 18.7196 21.1886 18.6944C21.1802 18.6692 21.1642 18.6472 21.1427 18.6316L20.5 18.1633C20.4782 18.1474 20.462 18.125 20.4537 18.0993C20.4454 18.0737 20.4454 18.046 20.4538 18.0204C20.4621 17.9947 20.4783 17.9723 20.5002 17.9565C20.522 17.9406 20.5483 17.932 20.5752 17.932H21.3719C21.3988 17.932 21.4251 17.9235 21.4469 17.9077C21.4688 17.8919 21.4851 17.8697 21.4935 17.8441L21.7396 17.0861C21.7485 17.0612 21.7648 17.0396 21.7864 17.0244C21.808 17.0092 21.8338 17.001 21.8602 17.001C21.8866 17.001 21.9124 17.0092 21.934 17.0244C21.9556 17.0396 21.9719 17.0612 21.9808 17.0861Z" fill="white"/>
<path d="M17.4344 17.0859L17.6805 17.8438C17.6889 17.8694 17.7052 17.8917 17.727 17.9075C17.7489 17.9233 17.7751 17.9317 17.8021 17.9317H18.6015C18.6285 17.9318 18.6548 17.9403 18.6766 17.9562C18.6984 17.9721 18.7147 17.9945 18.723 18.0201C18.7314 18.0458 18.7314 18.0734 18.7231 18.0991C18.7148 18.1248 18.6986 18.1471 18.6768 18.1631L18.032 18.6313C18.0105 18.6469 17.9944 18.6689 17.9861 18.6941C17.9778 18.7194 17.9776 18.7466 17.9856 18.772L18.2317 19.5299C18.2393 19.5555 18.2387 19.5827 18.23 19.6079C18.2214 19.6331 18.2051 19.6549 18.1834 19.6704C18.1617 19.6859 18.1358 19.6942 18.1091 19.6942C18.0825 19.6943 18.0565 19.686 18.0348 19.6706L17.3908 19.2023C17.3689 19.1865 17.3425 19.178 17.3155 19.178C17.2885 19.178 17.2622 19.1865 17.2403 19.2023L16.5955 19.6706C16.5738 19.686 16.5479 19.6943 16.5212 19.6942C16.4946 19.6942 16.4686 19.6859 16.447 19.6704C16.4253 19.6549 16.409 19.6331 16.4003 19.6079C16.3917 19.5827 16.3911 19.5555 16.3987 19.5299L16.6455 18.772C16.6531 18.7466 16.6528 18.7195 16.6445 18.6943C16.6362 18.6691 16.6203 18.6471 16.599 18.6313L15.9543 18.1631C15.9325 18.1471 15.9163 18.1248 15.908 18.0991C15.8997 18.0734 15.8997 18.0458 15.908 18.0201C15.9164 17.9945 15.9326 17.9721 15.9544 17.9562C15.9763 17.9403 16.0025 17.9318 16.0295 17.9317H16.8262C16.8531 17.9316 16.8793 17.9231 16.9011 17.9073C16.9229 17.8916 16.9393 17.8694 16.9478 17.8438L17.1939 17.0859C17.2029 17.0612 17.2192 17.0399 17.2407 17.0248C17.2623 17.0098 17.2879 17.0017 17.3141 17.0017C17.3404 17.0017 17.366 17.0098 17.3875 17.0248C17.409 17.0399 17.4254 17.0612 17.4344 17.0859Z" fill="white"/>
<path d="M9.13047 24.6708C9.10903 24.6864 9.09303 24.7084 9.0847 24.7336C9.07638 24.7589 9.07616 24.786 9.08406 24.8114L9.33015 25.5701C9.33801 25.5956 9.33766 25.6229 9.32914 25.6482C9.32062 25.6735 9.30437 25.6954 9.28268 25.711C9.26099 25.7265 9.23497 25.7349 9.20828 25.7348C9.1816 25.7348 9.15561 25.7263 9.13398 25.7107L8.48922 25.2431C8.46744 25.227 8.44107 25.2183 8.41398 25.2183C8.3869 25.2183 8.36053 25.227 8.33875 25.2431L7.69469 25.7135C7.67307 25.7294 7.64698 25.7381 7.62014 25.7383C7.59331 25.7385 7.56709 25.7302 7.54525 25.7146C7.52341 25.699 7.50706 25.6769 7.49854 25.6514C7.49002 25.626 7.48977 25.5985 7.49781 25.5729L7.7439 24.8142C7.75203 24.7889 7.75191 24.7616 7.74357 24.7364C7.73523 24.7111 7.7191 24.6891 7.6975 24.6736L7.05273 24.2018C7.03922 24.1922 7.02775 24.18 7.01898 24.1659C7.01898 24.1174 7.0232 24.0689 7.02601 24.0211C7.03771 24.0051 7.05309 23.9923 7.07085 23.9836C7.08861 23.9749 7.1082 23.9706 7.12797 23.9712H7.92461C7.9517 23.971 7.97805 23.9623 7.99989 23.9462C8.02173 23.9302 8.03796 23.9077 8.04625 23.8819L8.13414 23.6119L8.29234 23.1246C8.30072 23.0989 8.317 23.0766 8.33885 23.0608C8.3607 23.0449 8.38699 23.0364 8.41398 23.0364C8.44097 23.0364 8.46727 23.0449 8.48912 23.0608C8.51096 23.0766 8.52724 23.0989 8.53562 23.1246L8.69383 23.6119L8.78172 23.8819C8.79001 23.9077 8.80623 23.9302 8.82807 23.9462C8.84992 23.9623 8.87626 23.971 8.90336 23.9712H9.7C9.72702 23.971 9.7534 23.9793 9.77533 23.9951C9.79726 24.0109 9.8136 24.0333 9.82198 24.059C9.83036 24.0846 9.83034 24.1123 9.82194 24.138C9.81353 24.1637 9.79718 24.186 9.77523 24.2018L9.13047 24.6708Z" fill="white"/>
<path d="M21.9808 23.1242L22.2269 23.8822C22.2353 23.9078 22.2516 23.93 22.2735 23.9458C22.2953 23.9616 22.3216 23.9701 22.3485 23.9701H23.1452C23.1721 23.9701 23.1984 23.9787 23.2202 23.9945C23.242 24.0104 23.2583 24.0328 23.2666 24.0584C23.275 24.0841 23.275 24.1117 23.2667 24.1374C23.2584 24.1631 23.2422 24.1855 23.2204 24.2014L22.5756 24.6697C22.5545 24.6856 22.5387 24.7076 22.5305 24.7327C22.5222 24.7579 22.5217 24.7849 22.5292 24.8103L22.776 25.5676C22.7836 25.5931 22.783 25.6203 22.7743 25.6455C22.7657 25.6707 22.7494 25.6926 22.7277 25.708C22.706 25.7235 22.6801 25.7318 22.6534 25.7319C22.6268 25.7319 22.6008 25.7236 22.5791 25.7082L21.9344 25.2399C21.9126 25.2242 21.8864 25.2157 21.8595 25.2157C21.8326 25.2157 21.8064 25.2242 21.7846 25.2399L21.1398 25.7082C21.1181 25.7236 21.0922 25.7319 21.0655 25.7319C21.0389 25.7318 21.013 25.7235 20.9913 25.708C20.9696 25.6926 20.9533 25.6707 20.9447 25.6455C20.936 25.6203 20.9354 25.5931 20.943 25.5676L21.1891 24.8103C21.1969 24.7849 21.1966 24.7578 21.1883 24.7326C21.1799 24.7074 21.164 24.6854 21.1427 24.6697L20.5 24.2014C20.4782 24.1855 20.462 24.1631 20.4537 24.1374C20.4454 24.1117 20.4454 24.0841 20.4538 24.0584C20.4621 24.0328 20.4783 24.0104 20.5002 23.9945C20.522 23.9787 20.5483 23.9701 20.5752 23.9701H21.3719C21.3988 23.9702 21.4252 23.9617 21.447 23.9459C21.4689 23.9301 21.4852 23.9078 21.4935 23.8822L21.7396 23.1242C21.7485 23.0993 21.7648 23.0777 21.7864 23.0625C21.808 23.0472 21.8338 23.0391 21.8602 23.0391C21.8866 23.0391 21.9124 23.0472 21.934 23.0625C21.9556 23.0777 21.9719 23.0993 21.9808 23.1242Z" fill="white"/>
<path d="M17.4344 23.1241L17.6805 23.8821C17.6888 23.9077 17.7051 23.93 17.727 23.9458C17.7488 23.9616 17.7751 23.9701 17.8021 23.9699H18.6016C18.6281 23.971 18.6537 23.9803 18.6748 23.9965C18.6958 24.0128 18.7113 24.0352 18.719 24.0606C18.7267 24.086 18.7263 24.1132 18.7179 24.1385C18.7095 24.1637 18.6934 24.1856 18.6719 24.2013L18.0271 24.6696C18.0057 24.6853 17.9898 24.7073 17.9815 24.7325C17.9732 24.7577 17.9729 24.7848 17.9807 24.8102L18.2268 25.5674C18.2344 25.593 18.2338 25.6202 18.2251 25.6454C18.2164 25.6706 18.2001 25.6924 18.1785 25.7079C18.1568 25.7234 18.1308 25.7317 18.1042 25.7318C18.0776 25.7318 18.0516 25.7235 18.0299 25.7081L17.3859 25.2398C17.3639 25.224 17.3376 25.2155 17.3106 25.2155C17.2836 25.2155 17.2573 25.224 17.2354 25.2398L16.5906 25.7081C16.5689 25.7235 16.5429 25.7318 16.5163 25.7318C16.4897 25.7317 16.4637 25.7234 16.4421 25.7079C16.4204 25.6924 16.4041 25.6706 16.3954 25.6454C16.3868 25.6202 16.3862 25.593 16.3937 25.5674L16.6405 24.8102C16.648 24.7848 16.6476 24.7577 16.6393 24.7326C16.631 24.7075 16.6153 24.6855 16.5941 24.6696L15.9494 24.2013C15.9276 24.1854 15.9114 24.163 15.9031 24.1373C15.8948 24.1116 15.8948 24.084 15.9031 24.0583C15.9115 24.0327 15.9277 24.0103 15.9495 23.9944C15.9713 23.9786 15.9976 23.97 16.0246 23.9699H16.8212C16.8482 23.97 16.8745 23.9615 16.8963 23.9457C16.9181 23.9299 16.9344 23.9076 16.9429 23.8821L17.189 23.1241C17.1968 23.0976 17.213 23.0744 17.2351 23.0579C17.2572 23.0414 17.2841 23.0325 17.3117 23.0325C17.3393 23.0325 17.3661 23.0414 17.3882 23.0579C17.4103 23.0744 17.4265 23.0976 17.4344 23.1241Z" fill="white"/>
<path d="M12.8872 23.1246L13.1333 23.8826C13.1418 23.9087 13.1585 23.9314 13.181 23.9472C13.2034 23.9631 13.2303 23.9712 13.2578 23.9705H14.0544C14.0814 23.9706 14.1077 23.9791 14.1295 23.995C14.1513 24.0109 14.1676 24.0332 14.1759 24.0589C14.1843 24.0846 14.1843 24.1122 14.176 24.1379C14.1677 24.1635 14.1515 24.1859 14.1297 24.2018L13.4849 24.6701C13.4636 24.6859 13.4478 24.7079 13.4394 24.7331C13.4311 24.7583 13.4308 24.7854 13.4385 24.8107L13.6797 25.5708C13.6875 25.5963 13.6872 25.6236 13.6787 25.6489C13.6701 25.6742 13.6539 25.6962 13.6322 25.7117C13.6105 25.7273 13.5845 25.7356 13.5578 25.7356C13.5311 25.7355 13.5051 25.7271 13.4835 25.7114L12.8387 25.2432C12.8168 25.2274 12.7905 25.2189 12.7635 25.2189C12.7365 25.2189 12.7102 25.2274 12.6883 25.2432L12.0435 25.7114C12.0219 25.7271 11.9959 25.7355 11.9692 25.7356C11.9425 25.7356 11.9165 25.7273 11.8948 25.7117C11.8731 25.6962 11.8569 25.6742 11.8483 25.6489C11.8398 25.6236 11.8395 25.5963 11.8473 25.5708L12.0934 24.8136C12.1011 24.7882 12.1008 24.7611 12.0925 24.7359C12.0842 24.7107 12.0683 24.6887 12.047 24.6729L11.4022 24.2046C11.3805 24.1887 11.3643 24.1663 11.3559 24.1407C11.3476 24.115 11.3477 24.0874 11.356 24.0617C11.3644 24.0361 11.3806 24.0137 11.4024 23.9978C11.4242 23.9819 11.4505 23.9734 11.4775 23.9733H12.2734C12.3004 23.9734 12.3267 23.965 12.3486 23.9492C12.3704 23.9334 12.3867 23.9111 12.3951 23.8854L12.6412 23.1275C12.6485 23.1006 12.6644 23.0769 12.6864 23.0599C12.7084 23.0429 12.7353 23.0335 12.7631 23.0332C12.791 23.0329 12.8181 23.0416 12.8405 23.0581C12.8629 23.0746 12.8793 23.098 12.8872 23.1246Z" fill="white"/>
<path d="M27.1797 7.12727C26.8984 7.16031 26.6172 7.2018 26.3359 7.2482C24.4663 7.56313 22.6589 8.17408 20.9816 9.05805C20.9212 9.08898 20.8614 9.12203 20.8016 9.15367C20.4435 9.34727 20.0934 9.55234 19.7512 9.76891H15.3995C15.7422 9.55234 16.0923 9.34727 16.45 9.15367C18.9832 7.78276 21.8099 7.04393 24.6899 7H25.3101C25.6546 7.00492 25.9963 7.02109 26.3359 7.0457C26.6172 7.06633 26.8984 7.09352 27.1797 7.12727Z" fill="#DB1B1B"/>
<path d="M19.7512 9.76844C19.394 9.9925 19.0459 10.2297 18.707 10.48C18.6276 10.5377 18.5488 10.5967 18.4701 10.6565C18.1656 10.8885 17.8696 11.1283 17.5813 11.3786C17.53 11.4215 17.4794 11.4658 17.4288 11.5108C17.1067 11.7955 16.7959 12.093 16.495 12.3995L16.5963 12.4698C16.6183 12.4859 16.6345 12.5085 16.6427 12.5345H12.0091C12.0259 12.5163 12.0435 12.4987 12.0611 12.4804C12.3892 12.1429 12.7279 11.8188 13.0771 11.508C13.4132 11.2113 13.7603 10.9265 14.1184 10.6537C14.5319 10.3401 14.9622 10.0427 15.3995 9.76562L19.7512 9.76844Z" fill="white"/>
<path d="M16.3607 12.5374C15.9209 12.9959 15.5055 13.4773 15.1162 13.9795L14.9959 14.137C14.9305 14.2234 14.8659 14.3099 14.8019 14.3978L14.6711 14.8007C14.6628 14.8264 14.6465 14.8489 14.6247 14.8648C14.6028 14.8807 14.5765 14.8893 14.5495 14.8893H14.4531C14.3589 15.0299 14.2675 15.1663 14.1775 15.3063H9.82867C10.0853 14.9062 10.3574 14.5152 10.6443 14.1377C11.0677 13.5782 11.5234 13.0438 12.0091 12.5374H16.3607Z" fill="#DB1B1B"/>
<path d="M14.1803 15.3056L14.103 15.4287L14.0418 15.5257C13.6579 16.1456 13.312 16.7883 13.0061 17.4502C12.9098 17.6562 12.8184 17.8629 12.7312 18.0738H8.37955C8.46673 17.8629 8.55814 17.6562 8.65447 17.4495C8.96041 16.7876 9.30628 16.1449 9.69017 15.525C9.73588 15.4547 9.78228 15.3788 9.8308 15.3049L14.1803 15.3056Z" fill="white"/>
<path d="M12.7312 18.0749C12.5263 18.5643 12.3435 19.0644 12.1827 19.5754C12.0515 19.9911 11.9343 20.413 11.8312 20.841H7.48233C7.58264 20.4121 7.69983 19.9902 7.83389 19.5754C7.99467 19.0635 8.17749 18.5629 8.38233 18.0735L12.7312 18.0749Z" fill="#DB1B1B"/>
<path d="M11.8516 21.1242L11.7524 21.1945C11.5802 21.9909 11.4628 22.7981 11.4009 23.6105H7.05273C7.1232 22.6777 7.26685 21.7518 7.48234 20.8416H11.834C11.8298 20.8605 11.8248 20.8802 11.8206 20.8985C11.8429 20.9063 11.8625 20.9201 11.8774 20.9383C11.8923 20.9566 11.9019 20.9786 11.9051 21.0019C11.9083 21.0252 11.905 21.049 11.8955 21.0706C11.8861 21.0922 11.8709 21.1107 11.8516 21.1242Z" fill="white"/>
<path d="M11.3516 24.996C11.3516 25.4615 11.3692 25.923 11.4044 26.3805H7.05273C7.01758 25.9234 7 25.462 7 24.996V24.0995C7.00007 24.1229 7.00664 24.1458 7.01898 24.1656C7.01898 24.1171 7.0232 24.0686 7.02602 24.0208C7.03305 23.8837 7.04219 23.748 7.05273 23.6116H11.4044C11.3938 23.748 11.3847 23.8837 11.3777 24.0208C11.3777 24.0686 11.3727 24.1171 11.3706 24.1656C11.3642 24.1559 11.3595 24.1452 11.3566 24.134C11.3566 24.1277 11.3566 24.122 11.353 24.1164C11.3527 24.1108 11.3527 24.1052 11.353 24.0995L11.3516 24.996Z" fill="#DB1B1B"/>
<path d="M11.834 29.1498H7.48234C7.26679 28.2395 7.12314 27.3137 7.05273 26.3809H11.4044C11.4748 27.3137 11.6184 28.2395 11.834 29.1498Z" fill="#DBDBDB"/>
<path d="M12.7312 31.9181H8.37952C8.00499 31.0216 7.70491 30.0957 7.48233 29.1499H11.834C12.0566 30.0957 12.3566 31.0216 12.7312 31.9181Z" fill="#C11A1A"/>
<path d="M14.1803 34.6869H9.82869C9.26566 33.808 8.78076 32.8815 8.37955 31.918H12.7312C13.1324 32.8815 13.6173 33.808 14.1803 34.6869Z" fill="#DBDBDB"/>
<path d="M16.3607 37.4559H12.0091C11.1942 36.606 10.4642 35.6787 9.82938 34.687H14.181C14.8158 35.6787 15.5458 36.606 16.3607 37.4559Z" fill="#C11A1A"/>
<path d="M19.7512 40.2245H15.3995C14.1614 39.4422 13.0229 38.5124 12.0091 37.4556H16.3607C17.3746 38.5124 18.5131 39.4422 19.7512 40.2245Z" fill="#DBDBDB"/>
<path d="M27.1797 42.8655C26.5729 42.9404 25.9628 42.9841 25.3515 42.9962H24.6484C21.3691 42.939 18.1686 41.9814 15.3967 40.228H19.7483C21.9981 41.6496 24.5371 42.5507 27.1797 42.8655Z" fill="#C11A1A"/>
<path d="M26.3359 7.0457V7.2482C24.4663 7.56313 22.6589 8.17408 20.9816 9.05805C20.9212 9.08898 20.8614 9.12203 20.8016 9.15367C20.4435 9.34727 20.0934 9.55234 19.7512 9.76891C19.394 9.99297 19.0459 10.2302 18.707 10.4805C18.6276 10.5381 18.5488 10.5972 18.4701 10.657C18.1656 10.889 17.8696 11.1288 17.5813 11.3791C17.53 11.422 17.4794 11.4662 17.4288 11.5112C17.1067 11.796 16.7959 12.0934 16.495 12.4L16.5962 12.4703C16.6183 12.4863 16.6345 12.509 16.6427 12.535H16.3614C15.9216 12.9936 15.5062 13.4749 15.1169 13.9771L14.9966 14.1346C14.9313 14.2211 14.8666 14.3076 14.8026 14.3955L14.6711 14.8012C14.6628 14.8269 14.6465 14.8493 14.6247 14.8652C14.6028 14.8812 14.5765 14.8897 14.5495 14.8898H14.4531C14.3589 15.0304 14.2675 15.1668 14.1775 15.3067L14.1002 15.4298L14.039 15.5268C13.6551 16.1467 13.3092 16.7894 13.0033 17.4513C12.907 17.6573 12.8155 17.864 12.7284 18.0749C12.5254 18.5643 12.3435 19.0645 12.1827 19.5754C12.0515 19.9912 11.9343 20.413 11.8312 20.841C11.827 20.86 11.822 20.8797 11.8178 20.898C11.8399 20.9057 11.8594 20.9193 11.8743 20.9373C11.8891 20.9553 11.8988 20.977 11.9022 21.0001C11.9056 21.0232 11.9026 21.0468 11.8936 21.0684C11.8845 21.0899 11.8697 21.1085 11.8509 21.1223L11.7517 21.1926C11.5795 21.9889 11.4621 22.7961 11.4002 23.6085C11.3896 23.7449 11.3805 23.8806 11.3734 24.0177C11.3734 24.0655 11.3685 24.1141 11.3664 24.1626C11.36 24.1529 11.3553 24.1422 11.3523 24.1309C11.3523 24.1246 11.3523 24.119 11.3488 24.1134C11.3485 24.1077 11.3485 24.1021 11.3488 24.0965V24.9965C11.3488 25.462 11.3664 25.9234 11.4016 26.3809H7.05273C7.01758 25.9239 7 25.4624 7 24.9965V24.1C7.00007 24.1234 7.00664 24.1463 7.01898 24.1661C7.01898 24.1176 7.0232 24.0691 7.02602 24.0212C7.03305 23.8841 7.04219 23.7484 7.05273 23.612C7.1232 22.6792 7.26685 21.7534 7.48234 20.8431C7.58266 20.4142 7.69984 19.9923 7.83391 19.5775C7.99469 19.0656 8.1775 18.565 8.38234 18.0756C8.46953 17.8647 8.56094 17.658 8.65727 17.4513C8.9632 16.7894 9.30907 16.1467 9.69297 15.5268C9.73867 15.4565 9.78508 15.3805 9.83359 15.3067C10.0902 14.9066 10.3623 14.5157 10.6492 14.1381C11.0711 13.5788 11.5251 13.0444 12.0091 12.5378C12.0259 12.5195 12.0435 12.502 12.0611 12.4837C12.3892 12.1462 12.7279 11.822 13.0771 11.5112C13.4132 11.2145 13.7603 10.9298 14.1184 10.657C14.5319 10.3434 14.9622 10.0459 15.3995 9.76891C15.7422 9.55234 16.0923 9.34727 16.45 9.15367C18.9832 7.78276 21.8099 7.04393 24.6899 7H25.3101C25.6546 7.00492 25.9963 7.02109 26.3359 7.0457Z" fill="#32314B"/>
<path d="M15.7061 9.76874C15.6997 9.79174 15.6997 9.81605 15.7061 9.83905L15.9529 10.5956C15.9604 10.6211 15.9598 10.6484 15.9512 10.6736C15.9425 10.6988 15.9262 10.7206 15.9045 10.7361C15.8829 10.7516 15.8569 10.7599 15.8303 10.7599C15.8037 10.76 15.7777 10.7517 15.756 10.7362L15.1112 10.2687C15.0894 10.2529 15.0632 10.2445 15.0363 10.2445C15.0095 10.2445 14.9833 10.2529 14.9615 10.2687L14.3167 10.7362C14.2992 10.7492 14.2787 10.7574 14.2572 10.7601C14.2356 10.7629 14.2137 10.7601 14.1936 10.752C14.1734 10.7439 14.1557 10.7307 14.142 10.7138C14.1284 10.6969 14.1193 10.6768 14.1156 10.6554C14.529 10.3418 14.9594 10.0444 15.3967 9.76733C15.7394 9.55077 16.0895 9.34569 16.4472 9.1521C16.4391 9.18058 16.4215 9.20541 16.3972 9.22241L15.7525 9.69069C15.7281 9.71029 15.7117 9.73799 15.7061 9.76874Z" fill="#DBDBDB"/>
<path d="M15.1162 13.98L14.9959 14.1375C14.9306 14.224 14.8659 14.3105 14.8019 14.3983L14.9172 14.0468C14.923 14.027 14.9335 14.0089 14.9478 13.9941C14.9621 13.9792 14.9797 13.968 14.9993 13.9615C15.0188 13.9549 15.0396 13.9532 15.06 13.9564C15.0803 13.9596 15.0996 13.9677 15.1162 13.98Z" fill="#DBDBDB"/>
<path d="M11.8516 15.1207L11.5963 15.3056L11.2068 15.5869C11.1854 15.6026 11.1695 15.6246 11.1612 15.6498C11.1529 15.675 11.1526 15.7022 11.1604 15.7275L11.4086 16.4883C11.4157 16.5138 11.4148 16.5408 11.406 16.5657C11.3972 16.5907 11.381 16.6123 11.3595 16.6276C11.3379 16.643 11.3122 16.6514 11.2858 16.6516C11.2594 16.6518 11.2335 16.6439 11.2117 16.6289L10.5677 16.1599C10.5458 16.1442 10.5194 16.1357 10.4924 16.1357C10.4654 16.1357 10.4391 16.1442 10.4172 16.1599L9.77242 16.6289C9.75065 16.6439 9.72478 16.6518 9.69835 16.6516C9.67192 16.6514 9.64619 16.643 9.62468 16.6276C9.60317 16.6123 9.58692 16.5907 9.57812 16.5657C9.56933 16.5408 9.56843 16.5138 9.57555 16.4883L9.82235 15.731C9.82983 15.7057 9.8294 15.6786 9.82111 15.6535C9.81282 15.6283 9.79706 15.6063 9.77594 15.5904L9.69016 15.5278C9.73586 15.4575 9.78227 15.3816 9.83078 15.3078C10.0874 14.9077 10.3595 14.5167 10.6464 14.1392L10.8602 14.8008C10.8685 14.8265 10.8847 14.849 10.9066 14.8649C10.9284 14.8808 10.9548 14.8894 10.9818 14.8894H11.7813C11.8076 14.8908 11.8329 14.9003 11.8537 14.9166C11.8744 14.9329 11.8897 14.9552 11.8974 14.9805C11.905 15.0057 11.9048 15.0327 11.8966 15.0578C11.8884 15.0829 11.8727 15.1049 11.8516 15.1207Z" fill="#DBDBDB"/>
<path d="M11.8516 21.1238L11.7524 21.1942L11.2068 21.5914C11.1851 21.6069 11.1689 21.6288 11.1606 21.6541C11.1522 21.6794 11.1522 21.7067 11.1604 21.7321L11.4065 22.4893C11.414 22.5149 11.4135 22.5421 11.4048 22.5673C11.3961 22.5925 11.3798 22.6143 11.3582 22.6298C11.3365 22.6453 11.3105 22.6536 11.2839 22.6536C11.2573 22.6537 11.2313 22.6454 11.2096 22.6299L10.5655 22.1617C10.5436 22.1459 10.5173 22.1374 10.4903 22.1374C10.4633 22.1374 10.437 22.1459 10.4151 22.1617L9.77031 22.6299C9.74861 22.6454 9.72263 22.6537 9.696 22.6536C9.66938 22.6536 9.64342 22.6453 9.62175 22.6298C9.60008 22.6143 9.58378 22.5925 9.57512 22.5673C9.56646 22.5421 9.56587 22.5149 9.57343 22.4893L9.82023 21.7321C9.82813 21.7067 9.82791 21.6795 9.81958 21.6543C9.81126 21.6291 9.79526 21.6071 9.77382 21.5914L9.12906 21.1224C9.10726 21.1065 9.09106 21.0841 9.08275 21.0585C9.07445 21.0328 9.07447 21.0052 9.08281 20.9795C9.09116 20.9538 9.1074 20.9315 9.12922 20.9156C9.15103 20.8997 9.17731 20.8912 9.20429 20.8911H10.003C10.0226 20.8911 10.0419 20.8866 10.0595 20.8779C10.077 20.8693 10.0924 20.8567 10.1043 20.8412C10.113 20.8294 10.1199 20.8164 10.1247 20.8025L10.3708 20.0453C10.3792 20.0196 10.3954 19.9973 10.4173 19.9814C10.4391 19.9656 10.4654 19.957 10.4924 19.957C10.5194 19.957 10.5457 19.9656 10.5675 19.9814C10.5894 19.9973 10.6057 20.0196 10.6141 20.0453L10.8601 20.8025C10.865 20.8164 10.8718 20.8294 10.8805 20.8412C10.8925 20.8567 10.9078 20.8693 10.9254 20.8779C10.9429 20.8866 10.9622 20.8911 10.9818 20.8911H11.7812C11.7956 20.8912 11.8098 20.8935 11.8234 20.8981C11.8455 20.9063 11.8649 20.9203 11.8795 20.9387C11.8941 20.9571 11.9034 20.9791 11.9063 21.0024C11.9092 21.0257 11.9056 21.0494 11.8959 21.0708C11.8863 21.0922 11.8709 21.1106 11.8516 21.1238Z" fill="#DBDBDB"/>
<path d="M13.4357 12.5374C13.4276 12.5631 13.4276 12.5906 13.4357 12.6162L13.6797 13.3734C13.6871 13.3989 13.6864 13.426 13.6777 13.451C13.6691 13.476 13.6529 13.4977 13.6314 13.5132C13.6098 13.5286 13.5841 13.537 13.5576 13.5371C13.5311 13.5373 13.5052 13.5292 13.4835 13.5141L12.8387 13.0451C12.8168 13.0293 12.7905 13.0208 12.7635 13.0208C12.7365 13.0208 12.7102 13.0293 12.6883 13.0451L12.0435 13.5141C12.0218 13.5292 11.9959 13.5373 11.9694 13.5371C11.943 13.537 11.9172 13.5286 11.8957 13.5132C11.8741 13.4977 11.8579 13.476 11.8493 13.451C11.8406 13.426 11.8399 13.3989 11.8473 13.3734L12.0934 12.6162C12.1015 12.5906 12.1015 12.5631 12.0934 12.5374C12.0887 12.5159 12.078 12.4961 12.0625 12.4805C12.3906 12.143 12.7293 11.8188 13.0785 11.5081L13.1348 11.6817C13.1427 11.7082 13.1589 11.7314 13.1811 11.7479C13.2033 11.7644 13.2302 11.7732 13.2578 11.7731H14.0545C14.0814 11.7734 14.1076 11.7822 14.1293 11.7981C14.151 11.8141 14.1671 11.8365 14.1755 11.8621C14.1838 11.8877 14.1838 11.9153 14.1756 11.941C14.1674 11.9667 14.1513 11.9891 14.1297 12.0052L13.4849 12.4727C13.4618 12.4883 13.4445 12.511 13.4357 12.5374Z" fill="#DBDBDB"/>
<path d="M9.82726 18.0749C9.82547 18.0924 9.8199 18.1094 9.81091 18.1246C9.80193 18.1397 9.78975 18.1528 9.77523 18.1628L9.13046 18.6318C9.10918 18.6476 9.09331 18.6696 9.085 18.6947C9.07669 18.7199 9.07636 18.747 9.08405 18.7724L9.33015 19.5304C9.33801 19.5559 9.33765 19.5832 9.32913 19.6085C9.32061 19.6338 9.30436 19.6557 9.28267 19.6713C9.26099 19.6868 9.23496 19.6952 9.20828 19.6951C9.18159 19.695 9.1556 19.6866 9.13398 19.671L8.48921 19.2034C8.46757 19.187 8.44114 19.1781 8.41398 19.1781C8.38681 19.1781 8.36038 19.187 8.33874 19.2034L7.83109 19.5725C7.99187 19.0607 8.17468 18.56 8.37952 18.0707C8.46671 17.8597 8.55812 17.653 8.65444 17.4463L8.78171 17.8393C8.79 17.8651 8.80622 17.8877 8.82807 17.9037C8.84991 17.9197 8.87626 17.9285 8.90335 17.9286H9.69999C9.71839 17.9285 9.7366 17.9324 9.75336 17.94C9.77013 17.9476 9.78506 17.9587 9.79714 17.9726C9.80922 17.9865 9.81816 18.0028 9.82336 18.0205C9.82856 18.0381 9.82989 18.0567 9.82726 18.0749Z" fill="#DBDBDB"/>
<path d="M9.13047 24.671C9.10903 24.6867 9.09303 24.7087 9.0847 24.7339C9.07638 24.7591 9.07616 24.7863 9.08406 24.8116L9.33015 25.5703C9.33801 25.5958 9.33766 25.6231 9.32914 25.6484C9.32062 25.6737 9.30437 25.6957 9.28268 25.7112C9.26099 25.7268 9.23497 25.7351 9.20828 25.7351C9.1816 25.735 9.15561 25.7266 9.13398 25.7109L8.48922 25.2434C8.46744 25.2273 8.44107 25.2186 8.41398 25.2186C8.3869 25.2186 8.36053 25.2273 8.33875 25.2434L7.69469 25.7138C7.67307 25.7297 7.64698 25.7383 7.62014 25.7385C7.59331 25.7387 7.56709 25.7304 7.54525 25.7148C7.52341 25.6992 7.50706 25.6771 7.49854 25.6517C7.49002 25.6262 7.48977 25.5987 7.49781 25.5731L7.7439 24.8145C7.75203 24.7891 7.75191 24.7619 7.74357 24.7366C7.73523 24.7113 7.7191 24.6894 7.6975 24.6738L7.05273 24.202C7.03922 24.1924 7.02775 24.1802 7.01898 24.1662C7.01898 24.1177 7.0232 24.0691 7.02601 24.0213C7.03771 24.0054 7.05309 23.9925 7.07085 23.9838C7.08861 23.9751 7.1082 23.9709 7.12797 23.9714H7.92461C7.9517 23.9712 7.97805 23.9625 7.99989 23.9465C8.02173 23.9304 8.03796 23.9079 8.04625 23.8821L8.13414 23.6121L8.29234 23.1248C8.30072 23.0992 8.317 23.0768 8.33885 23.061C8.3607 23.0452 8.38699 23.0366 8.41398 23.0366C8.44097 23.0366 8.46727 23.0452 8.48912 23.061C8.51096 23.0768 8.52724 23.0992 8.53562 23.1248L8.69383 23.6121L8.78172 23.8821C8.79001 23.9079 8.80623 23.9304 8.82807 23.9465C8.84992 23.9625 8.87626 23.9712 8.90336 23.9714H9.7C9.72702 23.9712 9.7534 23.9796 9.77533 23.9954C9.79726 24.0112 9.8136 24.0335 9.82198 24.0592C9.83036 24.0849 9.83034 24.1126 9.82194 24.1383C9.81353 24.1639 9.79718 24.1863 9.77523 24.202L9.13047 24.671Z" fill="#DBDBDB"/>
<path d="M11.3517 24.0997C11.3518 24.0714 11.3609 24.0438 11.3777 24.021C11.3777 24.0688 11.3727 24.1173 11.3706 24.1658C11.3643 24.1561 11.3595 24.1454 11.3566 24.1342C11.3566 24.1279 11.3566 24.1222 11.3531 24.1166C11.3522 24.111 11.3517 24.1054 11.3517 24.0997Z" fill="white"/>
<path d="M12.8872 17.0859L13.1333 17.8439C13.1419 17.8699 13.1587 17.8926 13.1811 17.9084C13.2035 17.9242 13.2304 17.9324 13.2578 17.9318H14.0544C14.0814 17.9318 14.1077 17.9404 14.1295 17.9563C14.1513 17.9721 14.1676 17.9945 14.1759 18.0202C14.1843 18.0458 14.1843 18.0735 14.176 18.0991C14.1677 18.1248 14.1515 18.1472 14.1297 18.1631L13.4849 18.6314C13.4635 18.6471 13.4475 18.669 13.4391 18.6943C13.4308 18.7195 13.4306 18.7467 13.4385 18.772L13.6797 19.5321C13.6875 19.5576 13.6872 19.5849 13.6787 19.6102C13.6701 19.6355 13.6539 19.6575 13.6322 19.673C13.6105 19.6886 13.5845 19.6969 13.5578 19.6968C13.5311 19.6968 13.5051 19.6884 13.4835 19.6727L12.8387 19.2044C12.8168 19.1886 12.7905 19.1802 12.7635 19.1802C12.7365 19.1802 12.7102 19.1886 12.6883 19.2044L12.0435 19.6727C12.0219 19.6884 11.9959 19.6968 11.9692 19.6968C11.9425 19.6969 11.9165 19.6886 11.8948 19.673C11.8731 19.6575 11.8569 19.6355 11.8483 19.6102C11.8398 19.5849 11.8395 19.5576 11.8473 19.5321L12.0934 18.7741C12.1013 18.7488 12.1011 18.7216 12.0928 18.6964C12.0845 18.6712 12.0685 18.6492 12.047 18.6335L11.4022 18.1652C11.3805 18.1493 11.3643 18.1269 11.3559 18.1013C11.3476 18.0756 11.3477 18.0479 11.356 18.0223C11.3644 17.9966 11.3806 17.9743 11.4024 17.9584C11.4242 17.9425 11.4505 17.9339 11.4775 17.9339H12.2734C12.3004 17.9339 12.3266 17.9254 12.3485 17.9096C12.3703 17.8939 12.3866 17.8716 12.3951 17.846L12.6412 17.088C12.6486 17.0612 12.6645 17.0376 12.6866 17.0206C12.7086 17.0037 12.7356 16.9944 12.7634 16.9941C12.7912 16.9939 12.8184 17.0027 12.8407 17.0193C12.863 17.0359 12.8794 17.0592 12.8872 17.0859Z" fill="white"/>
<path d="M13.0061 17.4501C12.9098 17.6562 12.8184 17.8629 12.7312 18.0738C12.5263 18.5637 12.3435 19.0641 12.1827 19.575L12.0456 19.6734C12.024 19.6891 11.998 19.6975 11.9713 19.6976C11.9446 19.6976 11.9186 19.6893 11.8969 19.6737C11.8752 19.6582 11.859 19.6362 11.8505 19.6109C11.8419 19.5856 11.8416 19.5583 11.8495 19.5328L12.0955 18.7748C12.1034 18.7495 12.1032 18.7223 12.0949 18.6971C12.0866 18.6719 12.0706 18.6499 12.0491 18.6342L11.4044 18.1652C11.3898 18.1552 11.3777 18.1422 11.3687 18.127C11.3597 18.1118 11.3541 18.0949 11.3523 18.0773C11.3506 18.0596 11.3526 18.0416 11.3581 18.0246C11.3637 18.0077 11.3728 17.9921 11.3848 17.9788C11.3968 17.9656 11.4114 17.955 11.4277 17.9477C11.4441 17.9405 11.4617 17.9367 11.4796 17.9367H12.2734C12.3005 17.9365 12.3269 17.9278 12.3487 17.9118C12.3706 17.8957 12.3868 17.8732 12.3951 17.8474L12.6412 17.0894C12.6496 17.0638 12.6658 17.0414 12.6877 17.0256C12.7095 17.0098 12.7358 17.0012 12.7628 17.0012C12.7898 17.0012 12.8161 17.0098 12.8379 17.0256C12.8598 17.0414 12.8761 17.0638 12.8845 17.0894L13.0061 17.4501Z" fill="#DBDBDB"/>
<path d="M15.1605 14.0428L15.4066 14.8008C15.415 14.8264 15.4313 14.8486 15.4532 14.8644C15.475 14.8802 15.5013 14.8887 15.5282 14.8887H16.3249C16.3518 14.8887 16.3781 14.8973 16.3999 14.9132C16.4217 14.929 16.438 14.9514 16.4463 14.9771C16.4547 15.0027 16.4547 15.0304 16.4464 15.056C16.4381 15.0817 16.4219 15.1041 16.4001 15.12L15.7553 15.5883C15.734 15.6041 15.7182 15.6261 15.7099 15.6513C15.7016 15.6764 15.7012 15.7035 15.7089 15.7289L15.9557 16.4883C15.9633 16.5138 15.9627 16.5411 15.954 16.5663C15.9454 16.5914 15.9291 16.6133 15.9074 16.6288C15.8857 16.6442 15.8598 16.6526 15.8331 16.6526C15.8065 16.6526 15.7805 16.6443 15.7588 16.6289L15.1141 16.1606C15.0923 16.1449 15.0661 16.1364 15.0392 16.1364C15.0123 16.1364 14.9861 16.1449 14.9643 16.1606L14.3195 16.6289C14.2978 16.6443 14.2719 16.6526 14.2452 16.6526C14.2186 16.6526 14.1927 16.6442 14.171 16.6288C14.1493 16.6133 14.133 16.5914 14.1244 16.5663C14.1157 16.5411 14.1151 16.5138 14.1227 16.4883L14.3688 15.7303C14.3768 15.705 14.3766 15.6777 14.3683 15.6525C14.3599 15.6273 14.3439 15.6053 14.3224 15.5897L13.6797 15.12C13.6582 15.1044 13.6421 15.0824 13.6337 15.0572C13.6252 15.032 13.6248 15.0048 13.6326 14.9793C13.6403 14.9539 13.6558 14.9315 13.6768 14.9152C13.6979 14.899 13.7234 14.8897 13.75 14.8887H14.5467C14.5741 14.8894 14.6011 14.8813 14.6235 14.8654C14.6459 14.8496 14.6626 14.8269 14.6711 14.8008L14.9172 14.0428C14.9256 14.0172 14.9419 13.9948 14.9637 13.979C14.9856 13.9631 15.0118 13.9546 15.0388 13.9546C15.0658 13.9546 15.0921 13.9631 15.114 13.979C15.1358 13.9948 15.1521 14.0172 15.1605 14.0428Z" fill="white"/>
<path d="M13.75 14.8892H14.4531C14.3589 15.0298 14.2675 15.1662 14.1775 15.3061L14.1001 15.4292L13.93 15.3061L13.6797 15.1212C13.6583 15.1054 13.6423 15.0834 13.634 15.0582C13.6256 15.033 13.6253 15.0058 13.633 14.9804C13.6407 14.9549 13.6561 14.9325 13.677 14.9162C13.698 14.8999 13.7235 14.8904 13.75 14.8892Z" fill="#DBDBDB"/>
<path d="M17.4344 10.9273L17.6805 11.6853C17.6888 11.7109 17.7051 11.7333 17.727 11.7491C17.7488 11.7649 17.7751 11.7733 17.8021 11.7732H18.6016C18.6281 11.7742 18.6537 11.7835 18.6748 11.7997C18.6958 11.816 18.7113 11.8384 18.719 11.8638C18.7267 11.8893 18.7263 11.9165 18.7179 11.9417C18.7095 11.9669 18.6934 11.9888 18.6719 12.0045L18.0271 12.4728C18.0056 12.4884 17.9895 12.5103 17.9812 12.5356C17.9729 12.5608 17.9727 12.5881 17.9807 12.6134L18.2268 13.3714C18.2344 13.3969 18.2338 13.4242 18.2251 13.4493C18.2164 13.4745 18.2001 13.4964 18.1785 13.5118C18.1568 13.5273 18.1308 13.5357 18.1042 13.5357C18.0776 13.5357 18.0516 13.5274 18.0299 13.512L17.3859 13.0437C17.3639 13.0279 17.3376 13.0194 17.3106 13.0194C17.2836 13.0194 17.2573 13.0279 17.2354 13.0437L16.5906 13.512C16.5689 13.5274 16.5429 13.5357 16.5163 13.5357C16.4897 13.5357 16.4637 13.5273 16.4421 13.5118C16.4204 13.4964 16.4041 13.4745 16.3954 13.4493C16.3868 13.4242 16.3862 13.3969 16.3937 13.3714L16.6405 12.6134C16.6482 12.588 16.6479 12.5609 16.6396 12.5357C16.6313 12.5106 16.6154 12.4886 16.5941 12.4728L15.9494 12.0045C15.9276 11.9886 15.9114 11.9662 15.9031 11.9405C15.8948 11.9149 15.8948 11.8872 15.9031 11.8616C15.9115 11.8359 15.9277 11.8135 15.9495 11.7977C15.9713 11.7818 15.9976 11.7732 16.0246 11.7732H16.8212C16.8482 11.7732 16.8745 11.7647 16.8963 11.7489C16.9181 11.7331 16.9344 11.7109 16.9429 11.6853L17.189 10.9273C17.1968 10.9008 17.213 10.8776 17.2351 10.8611C17.2572 10.8446 17.2841 10.8357 17.3117 10.8357C17.3393 10.8357 17.3661 10.8446 17.3882 10.8611C17.4103 10.8776 17.4265 10.9008 17.4344 10.9273Z" fill="white"/>
<path d="M17.5813 11.379C17.53 11.4219 17.4794 11.4662 17.4287 11.5112C17.1067 11.796 16.7959 12.0934 16.495 12.4L15.9515 12.0055C15.9294 11.9897 15.9129 11.9673 15.9044 11.9415C15.8959 11.9156 15.8958 11.8878 15.9042 11.862C15.9126 11.8361 15.929 11.8136 15.951 11.7977C15.973 11.7818 15.9995 11.7733 16.0267 11.7735H16.8233C16.8504 11.7733 16.8766 11.7647 16.8985 11.7488C16.9203 11.7329 16.9366 11.7105 16.945 11.6849L17.1911 10.9283C17.1995 10.9027 17.2157 10.8803 17.2376 10.8645C17.2594 10.8486 17.2857 10.8401 17.3127 10.8401C17.3397 10.8401 17.366 10.8486 17.3879 10.8645C17.4097 10.8803 17.426 10.9027 17.4344 10.9283L17.5813 11.379Z" fill="#DBDBDB"/>
<path d="M19.7076 8.14964L19.9537 8.90691C19.9621 8.93309 19.9788 8.95585 20.0012 8.97181C20.0236 8.98777 20.0506 8.99608 20.0781 8.9955H20.8747C20.9017 8.99555 20.928 9.00412 20.9498 9.02C20.9716 9.03587 20.9879 9.05823 20.9962 9.08389C21.0046 9.10955 21.0046 9.13719 20.9963 9.16286C20.988 9.18853 20.9718 9.21092 20.95 9.22683L20.3052 9.69511C20.2838 9.71078 20.2678 9.73276 20.2595 9.75798C20.2511 9.7832 20.2509 9.81039 20.2588 9.83574L20.5 10.5958C20.5078 10.6213 20.5075 10.6486 20.499 10.6739C20.4904 10.6992 20.4742 10.7212 20.4525 10.7367C20.4308 10.7523 20.4048 10.7606 20.3781 10.7606C20.3514 10.7605 20.3254 10.7521 20.3038 10.7364L19.659 10.2682C19.6371 10.2524 19.6108 10.2439 19.5838 10.2439C19.5568 10.2439 19.5305 10.2524 19.5086 10.2682L18.8638 10.7364C18.8422 10.7521 18.8162 10.7605 18.7895 10.7606C18.7628 10.7606 18.7368 10.7523 18.7151 10.7367C18.6934 10.7212 18.6772 10.6992 18.6687 10.6739C18.6601 10.6486 18.6598 10.6213 18.6676 10.5958L18.9137 9.83785C18.9216 9.81249 18.9214 9.78531 18.9131 9.76009C18.9048 9.73487 18.8888 9.71289 18.8673 9.69722L18.2226 9.22894C18.2008 9.21303 18.1846 9.19064 18.1763 9.16497C18.168 9.1393 18.168 9.11166 18.1763 9.086C18.1847 9.06034 18.2009 9.03798 18.2227 9.0221C18.2445 9.00623 18.2708 8.99766 18.2978 8.99761H19.0937C19.1208 8.99759 19.1471 8.989 19.169 8.97308C19.1908 8.95717 19.2071 8.93474 19.2154 8.90902L19.4615 8.15175C19.4689 8.12494 19.4848 8.10128 19.5069 8.08434C19.5289 8.0674 19.5559 8.0581 19.5837 8.05787C19.6115 8.05763 19.6387 8.06646 19.661 8.08302C19.6834 8.09958 19.6997 8.12297 19.7076 8.14964Z" fill="white"/>
<path d="M20.9816 9.05813C20.9212 9.08907 20.8614 9.12211 20.8016 9.15375C20.4435 9.34735 20.0934 9.55242 19.7512 9.76899C19.394 9.99305 19.0459 10.2302 18.707 10.4805L18.918 9.8386C18.9244 9.8156 18.9244 9.79128 18.918 9.76828C18.911 9.73834 18.8936 9.71188 18.8687 9.69375L18.224 9.22547C18.202 9.20971 18.1857 9.18737 18.1773 9.16169C18.1689 9.13601 18.1689 9.10833 18.1772 9.08264C18.1856 9.05695 18.202 9.0346 18.2239 9.01881C18.2458 9.00303 18.2722 8.99464 18.2992 8.99485H19.0937C19.1207 8.99498 19.147 8.98654 19.1689 8.97074C19.1908 8.95494 19.207 8.93261 19.2154 8.90696L19.4615 8.14828C19.4699 8.12263 19.4861 8.10028 19.508 8.08444C19.5298 8.06859 19.5561 8.06006 19.5831 8.06006C19.6101 8.06006 19.6364 8.06859 19.6583 8.08444C19.6801 8.10028 19.6964 8.12263 19.7048 8.14828L19.9509 8.90696C19.9593 8.93368 19.9764 8.95685 19.9994 8.97287C20.0224 8.98889 20.0501 8.99687 20.0781 8.99555H20.8748C20.8965 8.99574 20.9178 9.00162 20.9365 9.0126C20.9553 9.02358 20.9708 9.03927 20.9816 9.05813Z" fill="#DBDBDB"/>
<path d="M40.8421 26.1346C41.4743 26.1346 41.9868 25.6221 41.9868 24.9899C41.9868 24.3577 41.4743 23.8452 40.8421 23.8452C40.2099 23.8452 39.6974 24.3577 39.6974 24.9899C39.6974 25.6221 40.2099 26.1346 40.8421 26.1346Z" fill="#E54141"/>
<path d="M38.4578 25.8006C38.9056 25.8006 39.2685 25.4376 39.2685 24.9899C39.2685 24.5422 38.9056 24.1792 38.4578 24.1792C38.0101 24.1792 37.6471 24.5422 37.6471 24.9899C37.6471 25.4376 38.0101 25.8006 38.4578 25.8006Z" fill="#E54141"/>
</g>
<defs>
<filter id="filter0_d_307_101649" x="2.89" y="4.945" width="44.22" height="44.2163" filterUnits="userSpaceOnUse" color-interpolation-filters="sRGB">
<feFlood flood-opacity="0" result="BackgroundImageFix"/>
<feColorMatrix in="SourceAlpha" type="matrix" values="0 0 0 0 0 0 0 0 0 0 0 0 0 0 0 0 0 0 127 0" result="hardAlpha"/>
<feOffset dy="2.055"/>
<feGaussianBlur stdDeviation="2.055"/>
<feComposite in2="hardAlpha" operator="out"/>
<feColorMatrix type="matrix" values="0 0 0 0 0.215686 0 0 0 0 0.254902 0 0 0 0 0.317647 0 0 0 0.1 0"/>
<feBlend mode="normal" in2="BackgroundImageFix" result="effect1_dropShadow_307_101649"/>
<feBlend mode="normal" in="SourceGraphic" in2="effect1_dropShadow_307_101649" result="shape"/>
</filter>
</defs>
</svg>
