<svg width="41" height="41" viewBox="0 0 41 41" fill="none" xmlns="http://www.w3.org/2000/svg">
<circle cx="20.0967" cy="20.0967" r="20.0967" fill="#008554"/>
<path d="M17.501 11.667C15.3177 11.667 13.5427 13.442 13.5427 15.6253C13.5427 17.767 15.2177 19.5003 17.401 19.5753C17.4677 19.5669 17.5344 19.5669 17.5844 19.5753C17.601 19.5753 17.6094 19.5753 17.626 19.5753C17.6344 19.5753 17.6344 19.5753 17.6427 19.5753C19.776 19.5003 21.451 17.767 21.4593 15.6253C21.4593 13.442 19.6844 11.667 17.501 11.667Z" fill="white"/>
<path d="M21.7345 21.7919C19.4095 20.2419 15.6178 20.2419 13.2762 21.7919C12.2179 22.5002 11.6345 23.4585 11.6345 24.4835C11.6345 25.5085 12.2179 26.4585 13.2678 27.1585C14.4345 27.9419 15.9678 28.3335 17.5012 28.3335C19.0345 28.3335 20.5678 27.9419 21.7345 27.1585C22.7845 26.4502 23.3678 25.5002 23.3678 24.4669C23.3595 23.4419 22.7845 22.4919 21.7345 21.7919Z" fill="white"/>
<path d="M26.6595 16.1166C26.7928 17.7332 25.6428 19.1499 24.0512 19.3416C24.0428 19.3416 24.0428 19.3416 24.0345 19.3416H24.0095C23.9595 19.3416 23.9095 19.3416 23.8678 19.3582C23.0595 19.3999 22.3179 19.1416 21.7595 18.6666C22.6178 17.8999 23.1095 16.7499 23.0095 15.4999C22.9512 14.8249 22.7178 14.2082 22.3679 13.6833C22.6845 13.5249 23.0512 13.4249 23.4262 13.3916C25.0595 13.2499 26.5178 14.4666 26.6595 16.1166Z" fill="white"/>
<path d="M28.3258 23.8247C28.2591 24.633 27.7425 25.333 26.8758 25.808C26.0425 26.2663 24.9925 26.483 23.9508 26.458C24.5508 25.9163 24.9008 25.2413 24.9675 24.5247C25.0508 23.4913 24.5592 22.4997 23.5758 21.708C23.0175 21.2663 22.3675 20.9163 21.6592 20.658C23.5008 20.1247 25.8175 20.483 27.2425 21.633C28.0091 22.2497 28.4008 23.0247 28.3258 23.8247Z" fill="white"/>
</svg>
