<svg width="606" height="281" viewBox="0 0 606 281" fill="none" xmlns="http://www.w3.org/2000/svg">
<path d="M550.81 51.5082C547.014 49.1576 544.265 49.6178 544.265 49.6178C544.265 49.6178 547.568 53.5031 542.677 49.2969C537.846 45.1402 528.486 41.8894 528.486 41.8894C528.486 41.8894 523.28 42.1149 522.265 41.2164C521.25 40.3198 516.085 40.0961 518.26 41.9792C520.446 43.8733 520.374 44.7332 518.288 44.5517C516.202 44.3702 515.821 42.5641 515.821 42.5641C515.821 42.5641 518.177 41.0367 515.757 40.5875C513.339 40.1401 513.965 41.9334 513.965 41.9334C509.431 40.4537 506.793 41.7537 506.793 41.7537C506.793 41.7537 503.375 43.7816 502.553 40.5435C501.738 37.3348 497.71 37.8225 497.71 37.8225C497.71 37.8225 489.871 38.7558 489.752 37.3788C489.632 36.0073 485.165 35.4774 485.165 35.4774C486.627 33.367 484.515 33.367 484.515 33.367C484.515 33.367 482.154 33.367 480.167 32.7546C478.183 32.1422 473.541 31.7498 471.691 31.9459C469.841 32.1421 469.544 32.5675 470.015 34.2122C470.488 35.8643 469.748 36.0623 467.859 35.9963C465.969 35.9303 464.966 34.3442 464.043 35.5654C463.118 36.792 462.531 36.3612 462.531 36.3612C462.531 36.3612 458.888 33.0938 459.252 35.8313C459.619 38.5908 458.869 38.4239 458.604 38.6568C458.338 38.8896 453.225 36.3942 453.929 34.9713C454.631 33.554 454.759 33.1598 454.221 31.2932C453.685 29.4358 452.694 30.6075 448.507 28.7556C444.343 26.9128 444.321 28.3027 444.321 28.3027C444.636 30.1197 445.185 31.3922 441.009 31.0328C436.837 30.6735 437.338 28.6914 437.338 28.6914C434.044 28.8527 430.152 28.4328 430.152 28.4328C430.152 28.4328 426.754 27.3015 425.563 28.5942C424.367 29.8924 420.073 29.7622 420.073 29.7622C420.073 29.7622 420.896 27.9781 424.916 25.4661C428.907 22.9725 428.824 22.2097 428.941 20.1195C429.056 18.0421 424.091 16.6027 424.091 16.6027L419.235 16.4157C419.235 16.4157 419.449 18.042 417.703 17.5415C415.96 17.0409 418.481 15.2312 418.481 15.2312C415.882 14.5161 414.24 15.5429 414.24 15.5429C414.007 14.4244 415.874 13.6195 415.874 13.6195C415.874 13.6195 415.889 11.7676 412.435 12.292C408.975 12.8164 409.351 15.1395 409.698 16.4157C410.046 17.6973 408.873 17.2903 408.873 17.2903C406.333 17.3215 405.274 18.671 405.274 18.671C405.274 18.671 406.164 19.9618 403.898 20.0571C401.632 20.1525 402.359 18.671 402.359 18.671C398.536 18.9533 398.956 20.246 398.956 20.246C395.666 20.499 387.483 24.0891 389.472 25.82C391.472 27.5601 389.996 27.3015 389.12 28.1413C388.241 28.9829 384.348 28.0771 382.425 28.7886C380.497 29.5018 382.218 30.7395 382.218 30.7395L382.656 33.2606C382.656 33.2606 384.705 32.9654 385.048 34.5441C385.394 36.1301 383.129 35.1052 381.437 33.8199C379.751 32.5382 375.884 32.8334 376.989 33.0644C378.094 33.2936 378.892 34.5789 378.208 35.008C377.524 35.437 377.515 35.371 378.472 36.7957C379.436 38.2259 376.52 36.8947 376.52 36.8947C376.52 36.8947 374.779 38.1599 374.816 34.8081C374.853 31.4912 372.672 31.1814 372.672 31.1814C374.281 32.375 373.499 33.4256 373.551 33.7868C373.602 34.1499 370.738 35.0392 372.145 36.4308C373.559 37.8262 373.283 41.2421 373.283 41.2421C373.283 41.2421 373.622 43.7871 375.577 43.3342C377.529 42.8831 379.482 44.1483 379.482 44.1483C379.482 44.1483 382.628 48.2463 381.09 48.1546C379.551 48.0629 377.879 44.4197 377.879 44.4197C377.879 44.4197 373.406 44.0584 375.038 45.7802C376.678 47.5129 375.93 47.6046 374.127 50.1734C372.312 52.7624 369.145 52.0216 369.097 51.6512C369.048 51.2809 372.255 49.5298 372.882 47.6027C373.505 45.6885 371.902 44.1465 371.902 44.1465L371.012 36.7169C371.012 36.7169 368.628 36.6289 369.846 35.4792C371.06 34.3351 370.375 32.056 370.375 32.056C366.921 30.3141 364.997 31.7076 364.997 31.7076C364.836 36.2732 361.759 34.5991 361.238 36.451C360.714 38.3139 362.855 38.4038 362.855 38.4038C362.559 41.0844 361.564 39.117 364.511 42.6118C367.49 46.145 363.074 44.2381 359.976 42.6118C356.892 40.9946 355.222 41.8014 354.031 41.2623C352.84 40.7232 350.929 39.293 350.732 39.7954C350.533 40.2978 352.057 41.6217 353.278 42.4303C354.501 43.2425 353.76 45.6885 352.894 45.87C352.027 46.0515 351.027 43.7834 351.027 43.7834C351.027 43.7834 351.258 44.779 348.487 44.8707C345.715 44.9606 346.727 46.2349 345.342 46.3248C343.957 46.4164 344.255 44.2363 344.255 44.2363C341.021 44.779 335.288 47.3277 334.729 48.2426C334.166 49.1594 333.586 51.4642 332.054 49.803C330.53 48.151 332.9 47.6009 332.9 47.6009C332.9 47.6009 332.441 46.5961 331.364 45.7765C330.29 44.9587 328.053 45.5033 328.053 45.5033C328.592 45.958 329.446 47.2342 330.137 49.7095C330.833 52.2031 329.367 53.1309 328.673 52.3883C327.981 51.6476 329.225 51.1855 325.233 52.5735C321.226 53.967 326.614 55.9308 324.215 56.5872C321.812 57.2454 319.021 53.5031 318.594 54.9956C318.165 56.4937 320.636 56.9631 320.636 56.9631C319.05 60.7439 314.716 54.4346 314.716 54.4346C314.716 54.4346 317.065 52.8522 315.392 52.667C313.721 52.4818 311.656 49.3428 311.656 49.3428C317.516 51.7411 321.426 53.0392 324.6 50.7234C327.752 48.4242 316.404 43.0592 316.404 43.0592C316.404 43.0592 312.905 43.6917 307.488 40.9011C302.117 38.1342 295.184 41.4401 295.184 41.4401C295.184 41.4401 283.77 46.7795 282.217 51.1745C281.432 53.3986 277.699 58.3529 275.518 59.2037C273.332 60.0563 270.843 61.3031 270.243 66.2629C269.633 71.2942 271.547 71.8827 273.125 71.8461C274.703 71.8094 275.693 71.2575 276.781 70.194C277.866 69.1342 279.142 69.3891 279.142 69.3891C278.893 71.4409 281.663 74.9118 281.663 74.9118C281.663 74.9118 280.528 77.4806 282.664 77.5191C284.802 77.5558 284.051 76.8847 285.089 76.1769C286.125 75.4692 288.106 75.4325 288.106 75.4325L288.291 70.3407C289.325 70.4141 291.133 69.6091 291.054 67.7866C290.976 65.9732 288.873 65.9365 288.873 65.9365C288.929 62.7681 289.83 61.1234 289.83 61.1234L295.192 57.7515C295.127 52.7715 298.153 52.9109 298.153 52.9109C298.153 52.9109 301.212 52.5625 300.769 55.2872C300.322 58.0338 294.905 60.0911 294.905 60.0911C294.905 60.0911 294.85 64.2056 295.072 65.4671C295.296 66.7341 297.808 67.3502 300.497 67.1687C303.184 66.9871 304.449 65.3956 306.609 66.9138C308.778 68.4411 301.427 68.1863 301.623 68.1863C301.819 68.1863 297.234 67.8471 297.34 69.4991C297.448 71.1603 298.825 71.0613 298.825 71.0613C298.825 71.0613 300.202 71.0118 300.117 72.6308C300.033 74.2572 298.58 74.2077 298.58 74.2077C298.58 74.2077 298.67 72.6308 296.629 72.6308C294.589 72.6308 294.493 74.3067 294.493 74.3067L294.692 77.5319C292.584 78.181 292.938 79.4315 292.61 79.6314C292.282 79.8312 289.785 77.3321 288.612 78.8301C287.433 80.3336 284.242 80.6362 284.242 80.6362C284.242 80.6362 283.173 79.7322 279.982 79.9339C276.79 80.1338 277.261 78.2819 277.665 76.6867C278.066 75.0988 277.939 72.6327 277.939 72.6327C276.356 73.3221 272.65 75.1483 274.421 76.6867C276.2 78.2324 275.392 80.4363 275.392 80.4363C275.392 80.4363 274.762 80.0091 271.822 81.3678C268.87 82.7301 268.13 85.1412 268.13 85.1412C268.13 85.1412 266.737 84.3785 264.34 87.0298C261.923 89.7013 259.037 89.2887 259.037 89.2887C259.272 90.5264 256.643 90.4237 256.643 90.4237C256.643 90.4237 253.346 90.1652 253.233 91.4065C253.12 92.6515 254.951 92.5488 254.951 92.5488C259.08 92.4975 259.528 95.8382 259.468 98.0477C259.406 100.27 257.703 100.059 257.703 100.059C257.703 100.059 255.166 100.272 250.594 100.006C246.026 99.7401 246.952 101.975 246.952 101.975L246.824 106.376C245.29 106.753 245.472 108.759 245.472 108.759L246.928 108.704L246.834 110.844C250.932 110.422 251.588 112.973 251.592 112.988C251.357 112.881 251.2 112.802 251.2 112.802C251.035 114.37 248.572 115.78 248.572 115.78C248.572 115.78 245.642 115.698 244.403 119.788C243.15 123.925 245.078 121.134 239.5 124.86C233.866 128.622 230.645 134.772 230.645 134.772C230.645 134.772 234.629 137.401 231.779 141.644C228.898 145.935 230.217 147.466 230.217 147.466C230.217 147.466 243.004 161.428 247.392 160.123C251.766 158.819 255.735 159.47 256.622 159.47C257.509 159.47 257.777 157.8 263.541 157.336C269.298 156.874 270.031 160.123 270.031 160.123C273.571 161.711 278.139 156.874 276.124 162.835C274.077 168.885 276.092 170.031 276.092 170.031C283.77 177.166 282.763 180.584 282.763 180.584C284.951 184.625 282.556 186.512 282.556 186.512C278.881 191.721 280.974 201.099 284.02 203.166C287.081 205.243 286.193 211.75 286.193 211.75C289.291 213.872 293.203 221.379 293.203 221.379C293.055 227.261 296.406 226.166 296.406 226.166C296.406 226.166 300.471 225.183 307.193 225.073C313.913 224.963 320.066 213.021 320.066 213.021C320.066 213.021 319.751 208.905 323.546 207.123C327.325 205.348 323.134 199.247 323.134 199.247C323.134 199.247 323.515 195.467 331.009 192.933C338.457 190.413 330.819 182.551 330.148 179.117C329.484 175.71 328.753 171.181 341.272 162.837C353.533 154.663 348.912 148.553 348.912 148.553C348.912 148.553 343.966 150.913 337.172 151.005C337.172 151.005 333.826 145.489 327.929 143.518C327.929 143.518 328.146 140.051 323.846 138.635C323.846 138.635 325.047 135.21 321.221 132.077C321.221 132.077 314.549 119.902 310.657 119.959C305.495 120.034 298.177 117.949 298.177 117.949C298.177 117.949 293.838 116.365 294.327 119.876C294.82 123.419 286.423 119.372 286.423 119.372C286.423 119.372 285.355 117.282 281.576 117.282C277.797 117.282 277.38 116.282 277.38 116.282C277.38 116.282 277.696 115.369 278.563 112.724C279.424 110.098 274.898 110.998 274.898 110.998C258.44 111.409 262.356 113.219 258.369 113.879C255.181 114.407 252.54 113.417 251.596 112.993C251.61 112.986 255.09 110.998 257.363 111.435C259.642 111.873 261.387 108.763 261.069 107.624C260.753 106.489 262.24 104.872 263.551 104.711C264.861 104.549 266.676 103.103 266.676 103.103L266.718 100.756C268.849 100.118 271.437 100.969 271.917 100.969C274.464 100.969 277.265 98.1082 277.536 99.1111C277.807 100.118 280.064 102.888 283.849 104.603C287.651 106.326 287.46 107.786 286.569 108.492C285.675 109.198 281.177 109.524 281.177 109.524L286.254 111.928C286.254 111.928 285.957 109.742 286.996 109.742C288.035 109.742 289.936 106.973 289.936 106.973C289.936 106.973 287.581 106.11 288.746 105.571C289.91 105.032 291.376 106.379 291.376 106.379C291.341 104.172 287.278 103.53 287.278 103.53L287.612 102.567C287.612 102.567 287 103.048 285.967 102.782C284.936 102.514 282.454 99.4302 281.767 98.0018C281.082 96.5808 285.304 96.9475 285.304 96.9475C285.807 100.065 292.483 102.567 292.483 102.567C292.376 104.335 293.229 105.84 293.229 105.84C296.734 108.437 296.575 110.56 296.575 110.56C300.391 113.079 299.748 109.905 299.748 109.905C301.007 110.287 303.008 110.013 303.008 110.013C302.042 110.177 296.876 105.624 299.374 106.271C301.875 106.92 300.71 104.764 300.71 104.764C303.813 104.979 304.406 106.218 304.406 106.218C305.919 111.983 309.219 112.806 310.463 112.641C311.707 112.476 312.608 110.848 312.608 110.848C312.608 110.848 313.257 112.916 316.09 112.531C318.922 112.146 319.781 111.325 319.781 111.325C319.781 111.325 322.565 113.849 320.611 115.063C318.651 116.281 319.687 118.673 317.919 119.735C316.145 120.8 312.059 120.368 312.059 120.368C314.51 121.451 317.417 126.013 317.417 126.013C318.299 124.722 319.492 125.601 319.492 125.601C319.492 125.601 324.404 129.715 323.617 130.865C323.617 130.865 326.823 132.02 326.91 135.737C326.91 135.737 330.611 137.491 332.62 141.617C334.648 145.788 334.977 148.227 335.133 148.394C335.29 148.56 339.602 147.831 345.1 145.669C350.569 143.518 349.747 142.449 356.343 141.855C356.343 141.855 362.484 137.139 362.132 133.874C361.782 130.636 355.777 130.405 355.777 130.405L355.229 127.766C355.229 127.766 355.3 130.865 347.947 130.98C347.947 130.98 345.69 127.423 342.634 124.805C339.6 122.205 345.245 122.319 345.245 122.319C345.245 122.319 348.394 127.537 351.81 127.652C355.228 127.766 355.373 126.398 355.373 126.398C355.373 126.398 357.437 128.569 359.592 128.798C361.748 129.028 373.008 129.257 373.008 129.257C373.008 129.257 377.172 131.791 377.147 132.715C377.122 133.643 380.244 132.368 380.244 132.368C380.244 132.368 380.886 133.991 378.04 134.108C378.04 134.108 382.147 138.082 383.796 134.341C383.796 134.341 384.738 140.201 385.913 142.451C387.094 144.714 394.915 154.514 394.915 154.514C394.915 154.514 397.229 155.249 399.494 149.886C401.729 144.594 394.801 144.835 403.508 140.319C412.115 135.856 409.375 134.922 409.375 134.922C409.375 134.922 413.815 136.556 415.922 133.875C415.922 133.875 417.695 137.376 421.382 138.668C425.082 139.965 422.89 142.926 422.89 142.926C422.89 142.926 424.844 144.743 427.653 142.093C428.464 141.329 429.542 143.074 430.394 145.222C431.249 147.381 431.471 152.466 432.124 153.564C432.779 154.666 435.862 157.433 435.862 157.433C436.968 159.661 437.968 160.779 437.968 160.779C442.973 166.232 445.821 164.344 444.681 163.684C443.542 163.025 442.876 160.873 441.75 158.638C440.63 156.415 436.434 155.862 436.434 155.862C436.085 154.114 433.648 152.923 433.648 152.923C433.111 150.187 434.451 147.561 434.451 147.561C441.232 149.189 436.489 150.642 440.621 151.006C444.757 151.371 443.774 154.547 443.774 154.547C450.273 151.5 450.157 149.461 450.157 149.461C450.735 145.132 447.85 143.878 447.85 143.878C447.85 143.878 444.059 143.43 442.547 139.875C441.049 136.351 445.413 135.126 445.413 135.126C461.108 134.69 463.339 128.367 464.93 124.864C466.507 121.391 464.428 118.954 464.428 118.954C464.428 118.954 462.915 118.787 462.296 117.117C461.68 115.454 459.664 114.045 459.664 114.045C459.3 111.246 464.059 113.22 463.61 111.409C463.163 109.608 460.358 109.608 460.358 109.608C458.913 110.509 458.249 110.344 458.249 110.344C454.166 108.466 455.546 109.036 458.826 105.87C462.076 102.729 461.431 108.059 461.431 108.059C461.602 107.491 467.758 104.417 467.093 107.491C466.423 110.589 470.042 110.098 470.042 110.098C470.563 116.616 470.455 115.784 473.943 114.293C477.417 112.808 475.08 110.672 472.507 108.385C469.95 106.112 472.024 107.329 474.23 103.532C476.412 99.7749 478.74 101.927 478.74 101.927C486.517 96.37 487.548 90.7409 487.548 90.7409L486.32 85.4273C486.32 85.4273 487.132 82.6861 484.906 80.8709C482.692 79.0648 483.521 80.5683 481.147 80.6453C478.773 80.7205 475.794 78.6156 475.794 78.6156L485.348 68.7804C485.348 68.7804 492.248 70.1684 493.629 69.2186C495.007 68.2706 498.669 69.0004 498.669 69.0004C498.669 69.0004 496.069 69.8035 501.523 69.9502C506.978 70.0969 503.392 68.4173 503.392 68.4173C503.623 63.3549 510.329 62.1355 510.298 63.2118C510.266 64.29 509.299 66.0942 511.036 66.0227C512.772 65.9494 516.139 61.2077 516.263 62.9973C516.388 64.7942 514.288 65.8063 511.557 69.3671C508.797 72.9645 506.335 72.376 506.794 75.3353C507.256 78.3204 511.575 85.2036 511.871 86.4284C512.168 87.6569 515.368 87.8879 514.891 84.8992C514.417 81.9343 516.259 82.0608 516.259 82.0608C515.142 79.4957 518.444 78.6449 518.444 78.6449C518.444 78.6449 515.921 77.8455 517.307 76.0541C518.687 74.2719 518.513 72.3998 517.544 72.4493C516.574 72.4988 515.094 69.0756 517.495 67.6674C519.886 66.2647 521.336 67.8122 521.336 67.8122C521.336 67.8122 522.17 66.2647 523.619 66.1199C525.068 65.975 527.28 67.6179 527.28 67.6179C527.322 66.2647 532.694 60.8044 535.763 61.2316C538.836 61.6606 539.735 65.1059 539.244 61.7083C538.756 58.3419 535.009 56.413 535.009 56.413C536.826 55.9436 538.533 56.0371 538.692 54.5886C538.851 53.1456 536.019 51.5687 537.767 51.7998C539.516 52.0308 539.926 54.1211 540.502 54.1211C541.079 54.1211 540.405 52.3553 545.732 55.7089C551.111 59.0973 548.007 55.9436 549.674 53.9817C551.331 52.018 554.632 53.8754 550.81 51.5082Z" fill="#CED1D9"/>
<path d="M254.279 76.3624C253.72 78.0805 254.584 78.9808 254.584 78.9808C257.884 78.5316 257.132 80.2991 257.132 80.2991C257.132 80.2991 258.099 81.3167 256.998 81.3919C255.895 81.4671 255.278 81.997 255.537 83.2108C255.797 84.4283 253.931 83.2878 253.998 84.1991C254.066 85.114 255.751 85.8016 255.449 85.8016C255.146 85.8016 252.128 88.4896 252.128 88.4896C255.211 86.8742 262.767 86.7973 262.767 86.7973C264.858 86.7147 263.989 86.183 263.989 86.183L263.403 85.4184C264.036 84.0451 264.568 82.602 264.568 82.602H262.265C262.298 81.2397 261.633 79.8829 260.355 79.243C259.077 78.6049 258.741 76.511 258.741 76.511C258.741 76.511 256.638 77.1087 257.375 75.7665C258.109 74.4299 259.541 72.8035 258.656 72.7301C257.769 72.6568 254.261 74.1347 255.798 72.5816C257.327 71.0378 256.468 70.231 256.468 70.231C253.009 70.6711 253.346 72.1398 252.679 74.1347C252.006 76.1387 254.836 74.6517 254.279 76.3624Z" fill="#CED1D9"/>
<path d="M247.438 82.8286C246.136 84.9592 245.047 84.6548 246.521 85.6468C247.999 86.6424 247.044 84.8822 249.57 84.5008C252.094 84.1194 251.422 80.8593 251.422 80.8593C253.173 79.4292 252.891 78.9781 251.65 78.153C250.413 77.3297 248.568 77.6286 248.722 78.8278C248.875 80.0306 249.853 80.1809 247.852 80.2965C245.851 80.4101 245.333 80.7842 245.956 81.9191C246.581 83.056 248.732 80.709 247.438 82.8286Z" fill="#CED1D9"/>
<path d="M238.07 57.2217C239.701 55.7438 239.414 57.3628 240.183 55.7438C240.947 54.1321 241.189 51.556 237.534 51.8328C233.875 52.1115 235.873 52.0418 233.603 52.4581C231.33 52.8761 230.953 54.1321 229.84 53.5729C228.729 53.0155 230.416 52.2491 228.396 51.0701C228.396 51.0701 226.009 51.0004 227.968 52.9458C227.968 52.9458 225.917 52.1812 225.14 53.5032C224.361 54.8325 228.421 53.2942 228.422 54.552C228.425 55.8135 226.214 55.7438 226.214 55.7438C226.214 55.7438 229.9 56.7284 227.902 57.6452C225.898 58.5638 227.747 58.4226 229.004 58.4226C230.262 58.4226 231.067 59.3449 232.801 59.4861C234.533 59.6273 236.432 58.705 238.07 57.2217Z" fill="#CED1D9"/>
<path d="M400.557 152.273C400.557 152.273 399.226 152.913 399.563 155.115C399.9 157.33 401.462 157.424 402.319 157.239C403.174 157.053 403.467 156.1 403.039 154.78C402.611 153.462 400.557 152.273 400.557 152.273Z" fill="#CED1D9"/>
<path d="M448.856 170.791C448.856 170.791 443.572 168.772 442.879 166.592C442.19 164.423 430.064 158.35 427.151 158.165C427.151 158.165 435.068 163.191 436.374 165.655C438.16 169.025 444.816 175.219 447.17 175.124C449.524 175.027 450.489 176.384 448.856 170.791Z" fill="#CED1D9"/>
<path d="M465.417 179.746C467.851 179.452 468.579 179.159 468.351 179.159C468.124 179.159 465.444 178.622 462.872 177.549C460.308 176.48 459.467 176.772 457.675 176.869C455.883 176.966 454.294 176.432 453.411 175.752C452.53 175.074 449.312 175.462 450.188 176.48C450.188 176.48 452.439 178.622 456.767 178.671C461.092 178.719 462.981 180.039 465.417 179.746Z" fill="#CED1D9"/>
<path d="M454.083 167.169C456.197 168.119 456.392 170.791 456.392 170.791C458.468 170.264 458.048 170.648 461.013 171.079C463.981 171.509 463.042 172.325 465.611 172.47C468.18 172.615 467.383 168.975 467.383 168.975C469.504 168.451 468.906 165.228 468.906 165.228C471.545 165.983 471.905 164.238 470.561 164.331C469.216 164.425 466.643 162.265 466.801 161.282C466.959 160.301 469.799 160.116 469.3 160.116C468.801 160.116 468.445 159.556 468.445 159.556C469.497 158.86 469.12 158.442 469.12 158.442C467.637 158.256 466.73 157.237 465.946 156.96C465.161 156.683 464.235 156.498 464.067 156.96C463.899 157.422 462.924 159.417 461.637 159.371C460.351 159.325 460.959 159.558 460.337 159.743C459.714 159.93 461.267 161.142 459.677 161.236C458.086 161.329 458.438 161.658 457.262 163.11C456.081 164.568 455.779 163.203 454.037 163.438C452.293 163.675 451.974 166.221 454.083 167.169Z" fill="#CED1D9"/>
<path d="M472.508 171.509C473.601 171.604 473.473 171.773 473.986 173.553C474.503 175.341 475.141 175.292 475.141 175.292C476.182 175.268 475.83 174.518 475.83 174.518C475.323 172.782 474.654 170.959 475.737 171.245C476.82 171.533 477.355 173.022 479.202 174.445C481.056 175.873 480.696 174.203 480.579 173.625C480.464 173.047 479.892 172.903 479.892 172.903C478.448 172.879 479.555 171.318 478.557 171.271C477.56 171.223 477.039 169.787 477.039 169.787C477.039 169.787 476.41 168.834 477.714 168.548C479.017 168.262 479.618 167.525 479.618 167.525C477.85 166.837 476.562 167.739 475.626 167.692C474.691 167.644 473.921 169.668 473.821 167.525C473.721 165.394 476.2 166.269 478.234 166.245C480.269 166.221 480.706 165.843 481.682 165.064C482.655 164.287 481.26 163.181 480.967 164.004C480.673 164.829 479.816 164.971 478.188 165.159C476.559 165.348 477.326 164.947 475.007 164.712C472.69 164.476 472.666 166.106 472.843 166.958C473.022 167.813 472.419 167.054 472.677 168.003C472.934 168.955 473.111 169.455 472.414 170.292C471.713 171.126 471.417 171.414 472.508 171.509Z" fill="#CED1D9"/>
<path d="M473.215 179.183C471.364 179.403 470.616 178.402 469.033 179.892C469.033 179.892 469.387 180.554 470.764 180.481C472.141 180.408 473.134 179.918 474.407 179.892C475.683 179.869 475.066 178.963 473.215 179.183Z" fill="#CED1D9"/>
<path d="M476.019 181.731C477.16 181.731 477.065 182.987 477.639 182.765C478.213 182.544 479.158 182.444 477.807 181.585C476.459 180.725 476.938 180.701 475.805 180.847C474.672 180.994 474.692 180.479 474.588 181.117C474.588 181.117 474.88 181.731 476.019 181.731Z" fill="#CED1D9"/>
<path d="M483.773 182.643C484.338 182.62 485.704 182.15 485.989 181.144C486.274 180.139 488.058 180.997 488.9 180.064C488.9 180.064 489.292 179.378 487.4 179.427C485.508 179.477 485.626 179.941 484.941 180.946C484.256 181.952 483.692 180.504 482.626 183.654C482.626 183.654 483.208 182.669 483.773 182.643Z" fill="#CED1D9"/>
<path d="M511.424 170.505C510.865 169.867 508.56 170.186 506.406 169.461C504.257 168.737 502.984 169.804 502.218 170.824C501.45 171.847 500.029 171.59 499.369 169.461C498.714 167.344 498.899 167.202 495.781 167.265C492.662 167.329 489.825 167.897 492.901 168.787C495.983 169.676 494.501 170.569 496.045 171.016C497.591 171.464 497.819 173.128 498.043 173.128C498.269 173.128 498.816 172.102 498.816 172.102C500.043 172.743 501.923 173.834 504.517 173.957C507.112 174.08 509.849 176.286 510.273 177.776C510.7 179.273 506.611 177.127 507.958 178.686C509.31 180.252 510.835 178.686 512.236 178.816C513.636 178.946 515.075 180.774 515.075 180.774C515.075 180.774 518.323 181.495 518.565 180.252C518.806 179.012 519.269 176.997 522.857 178.882C526.462 180.774 527.381 182.546 530.232 182.414C533.082 182.282 535.437 183.728 526.602 178.492C517.879 173.319 524.565 172.549 511.424 170.505Z" fill="#CED1D9"/>
<path d="M479.304 180.252C480.878 180.022 482.118 179.676 484.558 179.425C484.558 179.425 482.92 178.785 479.409 179.599C479.409 179.599 478.523 179.197 476.541 179.186C475.327 179.179 476.413 179.599 476.413 179.599C476.413 179.599 477.729 180.481 479.304 180.252Z" fill="#CED1D9"/>
<path d="M486.053 171.317C485.047 171.126 485.953 171.365 484.944 171.605C484.944 171.605 485.618 172.478 486.35 172.474C487.082 172.47 487.059 171.51 486.053 171.317Z" fill="#CED1D9"/>
<path d="M489.225 172.474C489.88 172.18 490.725 171.75 492.403 172.133C494.083 172.518 494.654 172.122 493.989 171.742C493.325 171.365 491.531 171.172 488.442 170.981C488.442 170.981 488.568 172.767 489.225 172.474Z" fill="#CED1D9"/>
<path d="M485.03 164.756C484.814 165.416 486.635 165.134 486.777 166.315C486.92 167.499 487.471 168.975 487.81 167.69C488.147 166.41 489.086 166.573 487.89 165.427C486.698 164.285 486.286 163.768 487.174 162.686C487.174 162.686 485.245 164.098 485.03 164.756Z" fill="#CED1D9"/>
<path d="M500.004 176.868C498.91 177.013 502.099 177.894 501.873 176.457C501.649 175.025 502.591 175.364 500.994 174.493C500.994 174.493 501.097 176.723 500.004 176.868Z" fill="#CED1D9"/>
<path d="M496.371 177.269C496.653 178.109 495.932 178.281 495.932 178.281C495.932 178.281 494.896 179.405 496.497 179.057C498.093 178.709 496.091 176.431 496.371 177.269Z" fill="#CED1D9"/>
<path d="M540.438 205.135C539.299 202.231 537.29 202.919 537.29 202.919C537.29 202.919 535.087 198.423 532.402 198.014C529.721 197.605 527.323 194.649 525.545 191.415C523.781 188.204 522.249 190.408 521.774 188.804C521.303 187.205 518.101 182.546 517.16 183.237C516.219 183.928 517.955 190.307 517.993 193.232C518.033 196.177 511.722 192.726 508.789 190.911C505.87 189.105 508.954 188.204 508.796 186.409C508.638 184.622 504.885 185.118 501.99 185.118C499.096 185.118 496.059 185.516 495.735 188.292C495.408 191.089 493.286 189.908 493.286 189.908C493.286 189.908 494.207 188.505 491.104 188.305C488.001 188.105 488.227 190.309 486.688 191.516C485.144 192.726 486.601 194.855 485.501 193.232C484.405 191.617 483.18 192.726 483.382 193.942C483.586 195.159 483.596 197.708 481.321 197.913C479.045 198.118 474.399 199.143 471.493 201.82C468.567 204.514 470.079 204.202 471.121 207.226C472.171 210.271 470.917 209.43 471.204 210.693C471.493 211.96 476.83 218.143 478.016 220.512C479.209 222.893 477.63 223.654 477.63 223.654C478.192 226.601 479.79 227.259 483.302 227.149C486.812 227.039 484.663 223.981 487.647 224.415C490.634 224.852 493.898 223.979 493.898 223.979C495.684 220.618 500.138 222.133 501.651 221.051C503.161 219.971 506.355 219.863 508.298 219.863C510.241 219.863 515.547 223.326 515.637 224.523C515.728 225.724 518.35 227.806 517.694 226.491C517.039 225.18 520.216 222.459 520.216 222.459C521.776 222.893 521.321 226.381 521.321 226.381C522.393 225.07 523.021 228.136 523.021 228.136C524.2 228.466 524.908 227.147 526.246 230.561C527.594 234.001 532.919 234.782 534.066 235.378C535.214 235.974 536.199 233.557 536.199 233.557C539.05 235.789 541.104 235.342 541.104 235.342C542.154 232.001 547.652 233.334 547.652 233.334C546.705 231.447 546.066 225.506 546.949 222.567C547.826 219.648 548.797 219.325 547.005 212.913C545.241 206.595 540.438 205.135 540.438 205.135Z" fill="#CED1D9"/>
<path d="M542.736 240.737C540.657 240.737 538.432 239.833 538.432 239.833C538.759 241.757 540.9 242.78 540.9 242.78C541.63 245.193 542.539 246.203 544.119 246.663C545.701 247.122 545.688 245.633 546.465 244.148C547.238 242.668 545.287 240.288 545.287 240.288C545.287 240.288 544.814 240.737 542.736 240.737Z" fill="#CED1D9"/>
<path d="M477.036 117.481C477.036 117.481 477.69 117.772 478.506 117.481C479.321 117.189 477.414 118.317 478.325 119.573C479.238 120.834 479.781 121.085 480.456 120.455C481.13 119.824 482.737 119.144 481.33 117.435C479.926 115.733 478.207 115.568 477.036 117.481Z" fill="#CED1D9"/>
<path d="M489.597 111.029C488.237 111.193 487.711 111.358 487.083 112.467C486.454 113.58 483.069 113.62 481.536 113.745C480.003 113.87 478.79 115.483 478.79 115.483C480.344 115.897 480.712 115.732 480.712 115.732C482.909 113.992 485.848 114.986 485.848 114.986C485.905 115.567 485.763 115.815 486.103 116.101C488.387 118.01 488.389 114.159 488.389 114.159C489.62 114.449 489.452 114.781 490.766 114.986C492.081 115.193 492.712 113.373 492.712 113.373C492.712 113.373 493.102 114.737 494.625 114.033C496.145 113.33 493.671 109.106 493.671 109.106C493.671 109.106 495.502 108.088 494.754 106.587C494.007 105.09 493.08 104.205 491.944 104.205C490.811 104.205 490.938 105.01 490.938 105.01C491.6 106.952 490.955 110.866 489.597 111.029Z" fill="#CED1D9"/>
<path d="M490.666 100.8C489.343 100.88 489.138 102.318 492.181 102.879C492.181 102.879 489.824 101.838 491.88 101.838C493.936 101.838 494.246 103.601 495.785 102.879C497.321 102.158 494.856 101.119 498.679 101.198C498.679 101.198 499.378 99.7638 497.138 99.1275C494.902 98.4931 492.88 98.0182 491.85 96.5165C491.85 96.5165 490.593 96.6871 491.793 99.7693C491.793 99.7693 491.989 100.719 490.666 100.8Z" fill="#CED1D9"/>
<path d="M491.574 95.5724C491.574 95.5724 491.093 94.498 492.303 94.3164C493.512 94.1349 494.652 95.5724 494.652 95.5724C494.915 94.3953 491.247 92.9871 491.276 90.8088C491.303 88.6434 494.849 90.4219 494.849 90.4219C493.957 89.8022 491.646 87.7963 490.409 84.9598C489.18 82.1471 488.35 78.9787 488.029 79.7304C487.707 80.484 487.54 79.956 487.643 81.9949C487.747 84.0448 487.966 83.8156 488.703 85.7244C489.444 87.6423 488.722 87.7963 489.351 89.9562C489.982 92.1308 491.574 95.5724 491.574 95.5724Z" fill="#CED1D9"/>
<path d="M504.015 96.5185C504.604 96.4396 505.966 95.5742 505.966 95.5742C504.195 94.7876 503.428 96.5973 504.015 96.5185Z" fill="#CED1D9"/>
<path d="M500.381 98.3362C500.381 98.3362 502.583 98.1786 503.014 96.9134C503.442 95.6519 500.123 97.1499 500.381 98.3362Z" fill="#CED1D9"/>
<path d="M483.189 116.94C483.176 116.316 484.781 116.815 485.2 116.815C485.62 116.815 485.675 115.704 483.679 115.276C483.29 115.194 481.635 115.656 481.741 116.63C481.741 116.63 482.787 117.972 482.913 118.438C483.039 118.901 483.201 117.565 483.189 116.94Z" fill="#CED1D9"/>
<path d="M467.466 129.475C466.683 128.529 465.186 129.82 464.603 131.375C464.603 131.375 465.406 134.242 466.587 134.242C467.768 134.242 466.245 133.285 466.826 132.156C467.405 131.028 468.251 130.423 467.466 129.475Z" fill="#CED1D9"/>
<path d="M450.933 137.218C450.982 135.99 450.56 137.482 448.885 137.218C448.885 137.218 446.941 137.746 446.853 138.804C446.765 139.864 448.266 140.308 449.507 140.042C450.746 139.776 450.883 138.45 450.933 137.218Z" fill="#CED1D9"/>
<path d="M532.524 174.685C534.998 172.512 534.026 173 533.216 171.861C532.407 170.726 528.626 170.504 528.626 170.504C534.026 173 531.333 172.325 530.715 173.957C530.095 175.594 525.972 173.957 525.972 173.957C529.3 177.05 530.037 176.867 532.524 174.685Z" fill="#CED1D9"/>
<path d="M347.966 187.005C347.557 189.003 346.125 191.211 342.458 191.513C338.787 191.816 339.192 192.623 339.83 194.953C340.473 197.296 341.202 197.911 339.854 200.168C338.498 202.438 338.871 201.096 339.545 203.993C340.224 206.91 342.215 208.377 342.215 208.377C347.455 209.112 347.778 202.957 348.804 198.424C349.819 193.941 350.864 191.313 350.48 188.204C350.098 185.116 348.373 185.015 347.966 187.005Z" fill="#CED1D9"/>
<path d="M340.948 35.7398C342.304 35.5638 343.711 37.2433 343.496 37.599C343.279 37.9547 344.617 38.844 345.987 38.7541C347.356 38.6661 348.744 38.7541 348.744 38.7541C348.744 38.7541 344.661 36.7116 345.278 32.8391C345.887 29.0106 352.981 21.8231 354.999 21.317C357.013 20.8109 362.408 19.1277 362.965 17.7874C363.521 16.4525 363.05 15.622 360.257 15.5376C357.465 15.4551 357.979 17.7031 357.979 17.7031C357.979 17.7031 354.547 19.1259 353.555 18.6235C352.566 18.1211 351.425 18.7903 350.9 19.5458C350.374 20.303 348.587 19.5458 348.311 20.3874C348.034 21.2308 346.884 21.9074 346.342 22.5858C345.799 23.2642 344.322 23.1799 345.333 24.7128C345.333 24.7128 344.109 25.9944 343.956 26.9387C343.802 27.8866 340.558 27.4557 341.5 28.3175C342.446 29.1811 342.677 29.5277 341.555 30.4829C340.429 31.4401 340.146 32.4009 341.014 32.4009C341.883 32.4009 340.406 33.8897 339.403 33.8017C338.399 33.7155 339.592 35.9176 340.948 35.7398Z" fill="#CED1D9"/>
<path d="M480.18 152.974C479.007 152.974 478.944 154.257 477.278 154.011C475.613 153.767 473.742 153.645 474.265 156.344C474.792 159.061 474.149 155.865 475.307 155.489C476.463 155.113 477.953 154.926 477.911 155.605C477.911 155.605 477.297 157.266 479.74 157.884C482.186 158.502 479.28 156.895 479.855 155.85C480.43 154.807 480.751 155.781 481.57 156.677C482.39 157.578 481.353 152.974 480.18 152.974Z" fill="#CED1D9"/>
<path d="M468.318 144.674C470.443 145.796 467.861 145.481 469.791 146.471C471.727 147.463 471.378 145.393 470.488 145.303C469.597 145.213 469.946 143.11 470.52 142.798C471.095 142.487 471.573 142.664 471.276 141.685C470.979 140.708 470.422 140.798 470.422 140.798C469.903 139.073 467.333 139.293 467.333 139.293C466.792 139.956 468.502 142.309 468.289 142.993C468.077 143.677 466.199 143.556 468.318 144.674Z" fill="#CED1D9"/>
<path d="M475.805 150.222C474.684 151.223 475.287 149.905 473.565 149.585C471.844 149.268 471.912 149.404 472.78 150.995C473.652 152.593 473.733 151.892 473.269 152.974C472.804 154.059 474.177 153.097 475.277 152.684C476.375 152.273 476.027 151.542 477.989 151.269C479.949 150.995 478.994 148.861 477.973 148.454C476.953 148.047 475.444 147.911 475.328 147.235C475.212 146.558 472.983 146.109 472.457 146.424C472.457 146.424 474.28 147.191 474.835 148.318C475.392 149.452 475.431 149.043 476.178 148.815C476.927 148.59 476.923 149.224 475.805 150.222Z" fill="#CED1D9"/>
<path d="M470.389 147.189C469.277 146.603 468.395 147.01 468.395 147.01C468.395 147.01 470.735 148.047 470.792 148.862C470.85 149.678 471.502 147.776 470.389 147.189Z" fill="#CED1D9"/>
<path d="M465.336 154.226C465.336 154.226 467.32 153.157 467.717 152.363C468.112 151.571 468.466 150.612 467.96 149.879C467.455 149.147 467.55 151.577 466.7 152.046C465.848 152.515 463.946 153.643 464.712 154.226C465.069 154.499 465.336 154.226 465.336 154.226Z" fill="#CED1D9"/>
<path d="M110.132 137.71V137.711H110.133L110.132 137.71Z" fill="#CED1D9"/>
<path d="M192.696 174.349C190.295 173.577 190.551 171.271 185.814 170.409C181.085 169.549 180.429 170.314 177.238 168.025C174.065 165.75 170.077 167.93 171.167 164.052C172.245 160.211 163.513 157.702 159.945 157.888C159.945 157.888 154.234 153.463 151.311 151.819C148.403 150.179 147.831 152.275 145.491 151.819C143.155 151.362 140.341 149.906 138.413 148.456C136.492 147.011 132.306 151.27 129.391 150.451C126.482 149.633 128.486 152.304 124.913 154.259C124.913 154.259 122.32 150.361 118.58 152.915C114.816 155.486 114.446 150.968 114.531 149.877C114.615 148.79 117.151 144.347 115.656 143.87C114.163 143.393 107.117 144.466 107.553 143.155C107.988 141.849 110.203 139.706 110.134 137.715C109.946 137.887 109.751 138.058 109.556 138.228C110.536 137.376 111.486 136.451 111.733 135.964C112.236 134.972 109.344 134.449 105.481 135.381C105.481 135.381 103.658 139.602 101.955 139.484C100.253 139.367 95.4183 140.606 94.3882 135.905C93.3713 131.262 96.0989 127.645 96.0989 127.645C96.0989 127.645 96.9831 124.572 99.2719 124.458C101.559 124.344 99.5898 122.537 101.704 122.537C103.818 122.537 106.481 123.213 108.687 123.441C110.894 123.666 109.687 120.89 111.176 121.15C112.665 121.411 116.338 122.65 119.607 121.862C122.869 121.075 120.818 125.481 120.818 125.481C120.818 125.481 120.195 128.448 122.799 129.594C125.411 130.744 123.509 127.531 123.765 124.913C124.02 122.313 124.481 119.394 127.096 118.277C129.701 117.164 134.159 115.833 135.444 112.087C136.717 108.378 137.781 108.594 138.287 107.402C138.79 106.214 139.965 104.384 142.599 104.276C145.232 104.168 146.115 103.097 146.445 101.282C146.773 99.4759 151.468 98.4179 152.033 98.3134C152.37 98.2492 152.681 97.7303 152.524 97.1894C152.532 97.2169 152.548 97.2426 152.553 97.2701L152.628 97.2591C156.83 95.7867 155.193 95.7867 154.269 97.9962C153.34 100.218 153.687 99.7949 157.4 98.8415C161.104 97.8917 164.507 96.2066 163.875 95.0533C163.244 93.9037 163.059 94.2172 161.447 95.7867C159.828 97.3636 158.188 94.9488 156.576 94.8443C154.965 94.7398 156.813 92.6532 156.813 92.6532C156.813 92.6532 152.204 91.9253 155.384 91.5109C158.563 91.0965 158.974 89.4444 156.162 89.3399C153.351 89.2372 147.148 93.6928 147.148 93.6928C147.148 93.6928 152.273 89.2354 155.253 87.5925C158.218 85.9552 164.281 89.1346 166.221 87.081C168.151 85.0384 170.138 86.0579 170.138 86.0579L165.308 92.8604C165.308 92.8604 167.777 92.6532 171.536 92.8604C175.297 93.0694 176.224 89.4426 174.503 89.2372C172.781 89.0319 168.725 90.8893 171.305 88.1059C173.864 85.3446 173.308 80.9899 171.741 80.7882C170.175 80.5865 170.998 78.6814 170.998 78.6814C166.517 78.4816 164.579 74.9006 164.579 74.9006C165.595 73.5181 161.855 67.5572 161.855 67.5572C161.855 67.5572 159.573 66.3966 159.581 68.6243C159.59 70.8668 155.513 71.6497 155.231 70.28C154.95 68.9159 153.613 69.7923 153.613 69.7923L153.816 65.0452C153.182 64.9499 151.377 64.8527 149.86 63.2227C148.349 61.6 147.999 62.0767 146.685 62.172C145.37 62.2674 145.259 61.5046 142.675 61.4679C140.092 61.4313 141.565 63.7984 141.009 66.5891C140.451 69.4036 138.479 70.0857 138.479 70.0857C141.892 73.4191 140.611 76.5875 140.611 76.5875C134.36 78.6814 135.393 80.7882 135.393 80.7882C136.667 82.4017 137.052 83.8191 135.139 85.3446C133.218 86.8756 130.416 82.3009 130.416 82.3009L131.584 77.9828C131.584 77.9828 126.612 78.2817 126.408 77.3851C126.205 76.4885 124.749 76.4885 122.72 74.9025C120.7 73.3219 116.744 73.9142 116.744 73.9142C116.98 71.7506 119.597 69.5026 115.507 70.1847C111.409 70.8686 114.067 64.6639 115.758 64.6639C117.449 64.6639 118.944 61.0316 120.239 61.0316C121.533 61.0316 121.857 60.1771 122.526 58.945C123.192 57.7183 127.444 57.7183 128.459 56.0278C129.471 54.3446 127.209 54.7186 126.439 54.7186C125.669 54.7186 124.999 52.5789 127.436 53.6937C129.881 54.8121 130.743 52.1846 133.737 51.6291C136.726 51.0735 138.721 49.7607 139.397 48.7962C140.073 47.8336 137.879 45.5765 137.879 45.5765C137.879 45.5765 139.207 45.5765 139.76 44.2838C140.31 42.9967 137.854 41.6453 136.372 41.5115C134.891 41.3776 133.976 42.1184 134.462 43.8089C134.951 45.5086 132.699 44.0803 132.276 46.4639C131.849 48.8641 127.172 50.5895 128.881 47.6282C130.576 44.6909 127.934 42.1184 128.4 43.4019C128.869 44.6909 126.109 45.5765 126.109 45.5765C126.109 45.5765 127.814 43.0627 125.48 42.5218C123.149 41.9809 124.53 40.9046 124.291 39.4946C124.053 38.0919 123.626 35.105 123.017 34.907C122.41 34.709 120.773 35.7009 119.638 38.6255C118.494 41.5757 119.252 40.5012 120.818 41.847C122.391 43.1984 122.106 44.4195 119.858 45.9175C117.599 47.4211 118.598 44.8266 118.449 43.6054C118.301 42.3879 116.328 40.9046 114.546 42.7931C112.753 44.6909 114.204 44.9641 114.204 44.9641C114.204 44.9641 116.779 46.8746 111.06 47.6979C105.326 48.5212 103.346 44.4213 102.777 44.4213C102.208 44.4213 103.299 46.0551 99.0551 47.0122C94.7995 47.9711 88.7058 47.2854 88.7058 47.2854C88.7058 47.2854 92.7709 44.2838 88.4141 44.2838C84.056 44.2838 80.7674 41.3098 78.4235 41.5775C76.0769 41.847 73.641 45.5086 73.2508 43.0627C72.8632 40.635 70.581 40.0978 69.367 40.3673C66.0048 41.1118 66.0613 40.0996 63.2115 41.935C60.346 43.7814 56.7683 46.5996 54.7791 44.0125C52.8044 41.4436 51.4892 41.9827 51.4892 41.9827C49.3607 41.1961 47.0444 40.2775 44.3142 40.547C41.5813 40.8147 41.743 39.2947 38.9825 39.6522C36.2181 40.0098 35.5809 38.3156 33.7034 38.3156C31.8259 38.3156 32.0808 36.2748 29.8932 36.4527C27.7043 36.6287 24.2712 39.7421 21.1008 39.8319C17.9291 39.9218 18.0973 43.6971 14.9979 43.8768C11.8959 44.0583 7.97528 46.0551 10.8513 46.0551C13.7274 46.0551 14.2726 49.6232 16.2027 49.9C18.1341 50.1769 17.5744 52.302 14.7824 52.5807C11.9878 52.8594 13.7497 50.6371 12.5856 51.0075C11.4202 51.3779 6.43806 52.0251 6.2239 54.1631C6.00843 56.3138 9.64389 57.535 12.8221 56.3138C15.9899 55.0963 17.5704 59.044 14.3804 58.9505C11.1903 58.8551 10.7856 60.5604 9.03032 60.751C7.27368 60.9417 4.1112 63.0393 5.04142 64.299C5.97558 65.5623 4.59077 65.4394 6.24755 67.5297C7.2566 68.8022 8.42331 67.9386 9.09339 67.1483C8.75309 67.9606 8.58492 69.1121 9.59134 69.7025C11.0905 70.5808 9.8528 70.3864 13.3004 70.2874C16.748 70.1902 15.2567 71.3637 12.3912 73.7216C9.50725 76.0961 0.277344 79.3874 0.277344 79.3874C14.8928 76.1951 14.1623 73.9178 18.008 72.4418C21.8379 70.9713 20.8591 70.7751 21.1599 69.6035C21.357 68.8371 24.4183 67.2877 26.5034 66.3085C24.618 67.5902 24.5261 69.4549 24.9491 69.9922C25.4878 70.6761 29.3598 67.5609 31.4764 67.1208C33.5904 66.6808 30.5041 62.5571 33.6101 65.1461C36.7397 67.7534 42.999 67.0273 42.999 67.0273C51.6193 71.8496 52.0121 76.142 55.3283 78.8336C58.6695 81.5455 53.8909 86.5712 58.6274 86.8774C63.3692 87.1837 63.8566 90.2695 63.8566 90.2695C63.8566 90.2695 65.721 91.7181 62.4455 91.8226C59.1688 91.9271 60.2514 91.9271 60.6731 94.1127C61.0975 96.3111 59.8007 99.265 58.3712 101.282C56.9339 103.31 56.2244 107.402 57.3517 108.051C58.4816 108.702 57.9771 111.319 60.3197 113.735C62.6781 116.167 64.6673 116.055 65.0601 117.61C65.2073 118.195 65.4963 118.356 65.9049 118.325H65.7683C65.7683 118.325 65.721 121.695 67.0217 122.821C68.3264 123.95 68.9912 125.368 66.2229 125.652C66.2229 125.652 68.1701 126.79 69.8071 127.531C71.4481 128.274 69.5995 129.823 70.4943 130.456C71.389 131.09 72.7751 133.345 73.7724 132.823C74.7696 132.302 74.1087 131.84 72.9709 130.513C71.837 129.191 73.6738 128.971 71.2773 125.54C68.9032 122.141 68.5524 121.128 69.3052 119.951C69.3052 119.951 70.7781 119.951 71.0264 121.466C71.276 122.988 74.4871 126.73 75.5356 127.586C76.5867 128.444 74.3623 128.787 75.8286 129.418C77.2962 130.05 81.4138 134.213 80.1328 136.662C80.1328 136.662 79.1093 137.834 81.2128 138.599C83.3215 139.363 91.6081 143.808 94.0992 143.391C96.5877 142.975 98.6005 143.034 99.4269 144.464C99.737 145.001 100.01 145.128 100.248 145.053L100.156 145.073C100.156 145.073 101.516 146.74 104.216 146.378C106.913 146.019 104.446 147.941 107.811 147.22C107.811 147.22 108.899 150.238 110.453 150.48C110.453 150.48 109.671 152.061 111.283 152.061C112.894 152.061 112.323 154.749 114.871 154.503C117.42 154.257 116.887 156.837 118.415 155.852C119.939 154.87 122.837 152.139 122.786 156.076C122.786 156.076 124.308 158.441 121.721 161.423C119.114 164.426 113.996 168.119 114.691 169.643C115.389 171.174 115.937 170.886 113.87 172.901C111.793 174.927 114.643 176.478 115.292 177.741C115.944 179.01 119.986 188 119.847 189.3C119.708 190.606 128.6 193.024 128.353 196.273C128.103 199.548 126.236 207.848 122.965 215.995C119.629 224.303 122.568 223.975 116.804 230.999C116.804 230.999 115.099 239.378 113.857 241.414C112.61 243.458 111.203 246.315 112.622 245.972C114.04 245.629 114.885 240.508 116.469 241.188C116.469 241.188 113.213 251.968 111.409 254.296C109.595 256.638 107.004 263.614 108.018 266.843C109.04 270.096 106.549 273.86 109.588 275.938C112.64 278.024 111.894 279.997 116.939 280.37C121.989 280.742 122.778 279.874 125.034 279.381C127.287 278.888 118.948 279.134 118.575 271.915C118.209 264.808 118.46 264.808 120.786 264.451C123.111 264.093 121.312 262.901 122.713 261.357C124.108 259.819 127.228 259.109 127.527 256.64C127.824 254.183 123.748 255.468 124.57 252.202C125.386 248.962 129.341 249.654 129.341 249.654L129.58 246.087C129.58 246.087 133.025 246.087 133.453 244.258C133.88 242.437 131.198 243.801 130.958 242.323C130.721 240.849 131.19 238.816 133.552 240.735C135.925 242.664 137.109 237.692 137.109 237.692C137.109 237.692 137.252 235.337 141.835 235.561C146.42 235.785 148.805 232.886 149.498 229.895C150.188 226.925 147.309 230.779 147.713 227.365C148.114 223.977 149.523 228.133 152.779 226.488C156.023 224.849 159.754 221.373 160.159 220.185C160.564 219 165.051 215.801 166.518 213.716C167.978 211.64 166.385 209.425 168.785 207.328C171.172 205.239 177.02 203.474 178.997 203.576C180.976 203.681 184.902 198.013 185.518 195.664C186.13 193.33 187.254 188.501 189.22 186.308C191.177 184.126 196.202 181.955 196.212 177.452C196.225 172.998 195.099 175.121 192.696 174.349ZM152.367 96.8649C152.411 96.929 152.451 96.9932 152.478 97.0592C152.449 96.9951 152.41 96.929 152.367 96.8649ZM151.941 96.4542C151.803 96.3625 151.643 96.2763 151.448 96.2029C151.644 96.2763 151.803 96.3625 151.941 96.4542ZM68.0137 117.731C68.2778 117.67 68.5511 117.623 68.8414 117.606C68.5524 117.621 68.2778 117.67 68.0137 117.731ZM66.4463 118.202C66.5395 118.175 66.6394 118.142 66.7406 118.109C66.642 118.142 66.5369 118.175 66.4463 118.202ZM67.2306 117.949C67.3949 117.896 67.5657 117.848 67.7444 117.8C67.5683 117.846 67.3936 117.896 67.2306 117.949ZM100.507 144.882C100.533 144.857 100.558 144.825 100.584 144.798C100.558 144.827 100.533 144.857 100.507 144.882ZM100.813 144.493C100.788 144.534 100.763 144.569 100.737 144.607C100.763 144.569 100.789 144.532 100.813 144.493ZM107.155 140.071C107.227 140.038 107.346 139.963 107.481 139.871C107.344 139.963 107.227 140.038 107.155 140.071ZM107.557 139.82C107.696 139.723 107.858 139.603 108.038 139.468C107.858 139.605 107.698 139.723 107.557 139.82ZM108.14 139.387C108.326 139.244 108.524 139.088 108.733 138.918C108.524 139.088 108.327 139.244 108.14 139.387ZM109.423 138.338C109.201 138.529 108.979 138.718 108.763 138.894C108.977 138.718 109.201 138.531 109.423 138.338Z" fill="#CED1D9"/>
<path d="M229.17 41.1687C228.827 40.7195 231.127 40.1841 230.326 37.4209C229.532 34.6816 231.028 33.189 230.915 32.9268C230.802 32.6646 229.564 29.7914 231.167 29.6172C232.769 29.4449 232.688 28.838 232.78 27.5435C232.872 26.2545 234.846 26.5974 234.76 25.8254C234.675 25.0554 233.276 24.0322 233.959 23.0109C234.641 21.9933 236.162 21.148 234.647 20.1359C233.136 19.1275 234.097 19.2943 231.879 18.0383C229.669 16.786 234.913 15.7885 235.656 15.7885C236.4 15.7885 237.209 16.3698 237.317 14.7104C237.425 13.0584 235.747 14.7086 235.197 12.1947C234.65 9.69927 232.558 12.0719 232.822 10.1081C233.085 8.15541 233.293 6.93977 234.4 6.45571C235.507 5.97165 236.01 4.28476 236.363 2.36685C236.363 2.36685 238.645 1.64994 239.078 0.459961H172.459C172.48 1.72879 171.831 2.76474 171.13 3.40282C170.427 4.04273 169.967 5.32625 169.967 5.32625C165.949 5.16489 159.815 6.77659 159.281 9.61677C158.743 12.4826 166.789 13.966 163.879 14.0485C160.968 14.131 160.59 14.2135 160.181 15.1248C159.77 16.0379 163.237 16.9528 163.237 16.9528C162.771 18.8762 167.065 20.0534 167.065 20.0534C167.656 18.0402 172.357 19.716 175.86 19.8847C179.364 20.0534 183.487 30.226 181.85 32.6665C180.201 35.1253 180.256 35.3013 181.279 36.5371C182.307 37.7784 183.38 32.6665 184.056 34.8796C184.736 37.1074 188.227 39.9164 186.005 39.6487C183.786 39.381 180.315 37.4227 181.132 38.6677C181.952 39.9164 184.688 40.9908 186.171 41.1705C187.656 41.3502 186.402 44.9605 184.215 45.2319C182.024 45.5051 181.867 46.596 181.161 50.0798C180.448 53.5984 185.727 63.0321 186.3 64.5668C186.875 66.1069 191.032 64.1836 190.6 65.5294C190.166 66.8807 193.35 67.5243 193.35 67.5243C193.35 67.5243 195.794 67.8507 196.55 63.705C197.299 59.6088 197.318 60.5384 199.119 59.5043C200.915 58.4738 198.272 56.8402 200.769 55.2633C203.255 53.6938 206.358 53.415 208.582 51.7447C210.793 50.0835 214.018 48.3379 213.662 46.7831C213.306 45.2355 218.304 47.3313 221.505 45.5087C224.69 43.6898 229.513 41.6179 229.17 41.1687Z" fill="#CED1D9"/>
<path d="M593.893 237.883C590.904 235.428 596.72 243.358 590.679 246.651C590.679 246.651 586.749 247.179 586.962 250.234C587.176 253.309 589.172 254.519 590.914 254.385C592.656 254.251 593.226 256.272 595.754 253.311C598.265 250.368 594.605 247.709 596.637 246.651C598.665 245.595 600.804 241.396 599.431 239.962C598.063 238.53 596.899 240.351 593.893 237.883Z" fill="#CED1D9"/>
<path d="M603.028 229.67C602.435 230.688 600.068 230.688 599.035 229.035C598.008 227.389 597.031 226.252 597.034 227.009C597.037 227.769 594.4 226.978 594.242 225.497C594.086 224.019 589.709 221.362 589.842 222.486C589.975 223.612 590.253 223.236 593.752 226.379C597.276 229.543 597.422 231.071 596.712 232.22C596.001 233.374 594.731 234.015 597.796 235.171C600.869 236.331 600.026 239.104 600.459 239.311C606.457 242.18 601.297 233.244 603.166 233.757C605.037 234.27 605.849 232.347 605.497 230.678C605.144 229.014 603.619 228.652 603.028 229.67Z" fill="#CED1D9"/>
</svg>
