<svg xmlns="http://www.w3.org/2000/svg" width="121.277" height="118.299" viewBox="0 0 121.277 118.299">
  <g id="growth-icon" transform="translate(0 -0.002)">
    <path id="Path_35" data-name="Path 35" d="M25.11,85.67V96.91H39.32V85.67ZM101.29,53.3V96.91H115.5V53.3ZM75.9,65.7V96.91H90.1V65.7ZM50.51,73.84V96.91h14.2V73.84Z" transform="translate(-17.728)" fill="#fff"/>
    <path id="Path_36" data-name="Path 36" d="M108.91,19.38v86.39H1.867V118.3H115.088a6.233,6.233,0,0,0,6.188-6.27V19.38Zm-27.762-1.6,1.026,8.14a4.523,4.523,0,1,0,8.971-1.15L88.53,4.15A4.6,4.6,0,0,0,86.23.58,4.463,4.463,0,0,0,82.4.31L62.8,7.96a4.6,4.6,0,0,0-2.586,5.92,4.5,4.5,0,0,0,5.843,2.62l6.691-2.61a107.122,107.122,0,0,1-25.6,25.06c-13.659,9.45-28.72,15-42.942,16.04a4.587,4.587,0,0,0,.642,9.15c15.781-1.13,32.421-7.23,47.4-17.6a116.432,116.432,0,0,0,28.9-28.76Z" transform="translate(0)" fill="#fff"/>
  </g>
</svg>
