<svg width="45" height="45" viewBox="0 0 45 45" fill="none" xmlns="http://www.w3.org/2000/svg">
<circle cx="22.1063" cy="22.1063" r="22.1063" fill="#008554"/>
<path d="M30.2453 18.6044C29.2409 14.1853 25.3861 12.1957 22 12.1957C22 12.1957 22 12.1957 21.9905 12.1957C18.6139 12.1957 14.7496 14.1757 13.7452 18.5949C12.6261 23.5305 15.6487 27.7105 18.3844 30.341C19.3983 31.3166 20.6991 31.8045 22 31.8045C23.3009 31.8045 24.6018 31.3166 25.6061 30.341C28.3418 27.7105 31.3644 23.5401 30.2453 18.6044ZM22 23.3966C20.3357 23.3966 18.987 22.0479 18.987 20.3836C18.987 18.7192 20.3357 17.3705 22 17.3705C23.6644 17.3705 25.0131 18.7192 25.0131 20.3836C25.0131 22.0479 23.6644 23.3966 22 23.3966Z" fill="white"/>
</svg>
