<svg width="45" height="45" viewBox="0 0 45 45" fill="none" xmlns="http://www.w3.org/2000/svg">
<circle cx="22.1063" cy="22.1063" r="22.1063" fill="#008554"/>
<path d="M32.0001 14.8501V26.7401C32.0001 27.7101 31.2101 28.6001 30.2401 28.7201L29.9301 28.7601C28.2901 28.9801 25.9801 29.6601 24.1201 30.4401C23.4701 30.7101 22.7501 30.2201 22.7501 29.5101V15.6001C22.7501 15.2301 22.9601 14.8901 23.2901 14.7101C25.1201 13.7201 27.8901 12.8401 29.7701 12.6801H29.8301C31.0301 12.6801 32.0001 13.6501 32.0001 14.8501Z" fill="white"/>
<path d="M20.7101 14.7101C18.8801 13.7201 16.1101 12.8401 14.2301 12.6801H14.1601C12.9601 12.6801 11.9901 13.6501 11.9901 14.8501V26.7401C11.9901 27.7101 12.7801 28.6001 13.7501 28.7201L14.0601 28.7601C15.7001 28.9801 18.0101 29.6601 19.8701 30.4401C20.5201 30.7101 21.2401 30.2201 21.2401 29.5101V15.6001C21.2401 15.2201 21.0401 14.8901 20.7101 14.7101ZM15.0001 17.7401H17.2501C17.6601 17.7401 18.0001 18.0801 18.0001 18.4901C18.0001 18.9101 17.6601 19.2401 17.2501 19.2401H15.0001C14.5901 19.2401 14.2501 18.9101 14.2501 18.4901C14.2501 18.0801 14.5901 17.7401 15.0001 17.7401ZM18.0001 22.2401H15.0001C14.5901 22.2401 14.2501 21.9101 14.2501 21.4901C14.2501 21.0801 14.5901 20.7401 15.0001 20.7401H18.0001C18.4101 20.7401 18.7501 21.0801 18.7501 21.4901C18.7501 21.9101 18.4101 22.2401 18.0001 22.2401Z" fill="white"/>
</svg>
