<svg width="45" height="45" viewBox="0 0 45 45" fill="none" xmlns="http://www.w3.org/2000/svg">
<circle cx="22.1063" cy="22.1063" r="22.1063" fill="#008554"/>
<path d="M19.0001 12.0001C16.3801 12.0001 14.2501 14.1301 14.2501 16.7501C14.2501 19.3201 16.2601 21.4001 18.8801 21.4901C18.9601 21.4801 19.0401 21.4801 19.1001 21.4901C19.1201 21.4901 19.1301 21.4901 19.1501 21.4901C19.1601 21.4901 19.1601 21.4901 19.1701 21.4901C21.7301 21.4001 23.7401 19.3201 23.7501 16.7501C23.7501 14.1301 21.6201 12.0001 19.0001 12.0001Z" fill="white"/>
<path d="M24.0801 24.1501C21.2901 22.2901 16.7401 22.2901 13.9301 24.1501C12.6601 25.0001 11.9601 26.1501 11.9601 27.3801C11.9601 28.6101 12.6601 29.7501 13.9201 30.5901C15.3201 31.5301 17.1601 32.0001 19.0001 32.0001C20.8401 32.0001 22.6801 31.5301 24.0801 30.5901C25.3401 29.7401 26.0401 28.6001 26.0401 27.3601C26.0301 26.1301 25.3401 24.9901 24.0801 24.1501Z" fill="white"/>
<path d="M29.9901 17.3401C30.1501 19.2801 28.7701 20.9801 26.8601 21.2101C26.8501 21.2101 26.8501 21.2101 26.8401 21.2101H26.8101C26.7501 21.2101 26.6901 21.2101 26.6401 21.2301C25.6701 21.2801 24.7801 20.9701 24.1101 20.4001C25.1401 19.4801 25.7301 18.1001 25.6101 16.6001C25.5401 15.7901 25.2601 15.0501 24.8401 14.4201C25.2201 14.2301 25.6601 14.1101 26.1101 14.0701C28.0701 13.9001 29.8201 15.3601 29.9901 17.3401Z" fill="white"/>
<path d="M31.9901 26.5901C31.9101 27.5601 31.2901 28.4001 30.2501 28.9701C29.2501 29.5201 27.9901 29.7801 26.7401 29.7501C27.4601 29.1001 27.8801 28.2901 27.9601 27.4301C28.0601 26.1901 27.4701 25.0001 26.2901 24.0501C25.6201 23.5201 24.8401 23.1001 23.9901 22.7901C26.2001 22.1501 28.9801 22.5801 30.6901 23.9601C31.6101 24.7001 32.0801 25.6301 31.9901 26.5901Z" fill="white"/>
</svg>
