<svg width="15" height="23" viewBox="0 0 15 23" fill="none" xmlns="http://www.w3.org/2000/svg">
<path d="M14.523 20.7744C14.523 21.9166 11.28 22.8418 7.27901 22.8418C3.27801 22.8418 0.0350037 21.9156 0.0350037 20.7744C0.0350037 19.6322 3.27801 18.707 7.27901 18.707C11.28 18.707 14.523 19.6332 14.523 20.7744Z" fill="#919191"/>
<path d="M14.523 8.44477C14.523 13.1093 7.26099 21.0373 7.26099 21.0373C6.21599 21.0373 0 13.1083 0 8.44477C0 3.78023 3.25099 0 7.26099 0C11.272 0 14.523 3.78122 14.523 8.44477Z" fill="#ED1C24"/>
<path d="M7.262 11.779C9.80582 11.779 11.868 9.72535 11.868 7.1921C11.868 4.65884 9.80582 2.60522 7.262 2.60522C4.71818 2.60522 2.65601 4.65884 2.65601 7.1921C2.65601 9.72535 4.71818 11.779 7.262 11.779Z" fill="white"/>
</svg>
