<svg width="50" height="82" viewBox="0 0 50 82" fill="none" xmlns="http://www.w3.org/2000/svg">
<path opacity="0.2" d="M31.85 80.4626C31.85 81.2404 28.6454 81.8697 24.6933 81.8697C20.7399 81.8697 17.5367 81.2391 17.5367 80.4626C17.5367 79.6848 20.7412 79.0554 24.6933 79.0554C28.6454 79.0554 31.85 79.6848 31.85 80.4626Z" fill="#212121"/>
<path d="M26.8704 49.2806C39.4862 48.177 49.3835 37.5938 49.3835 24.6917C49.3835 10.5269 37.4562 -0.851215 23.0983 0.050097C10.8689 0.817395 0.897921 10.7266 0.0596745 22.9521C-0.877112 36.6281 9.33163 48.1245 22.5071 49.2793C23.3926 49.3569 24.0693 50.1018 24.0693 50.9913V71.1697C24.0693 71.8358 23.6935 72.4599 23.0825 72.7253C21.4796 73.419 20.4141 75.1126 20.6939 77.0282C20.9515 78.7927 22.4243 80.2209 24.1954 80.4324C26.6497 80.7254 28.7348 78.815 28.7348 76.4199C28.7348 74.7565 27.7271 73.3375 26.291 72.7213C25.6827 72.4599 25.3148 71.8318 25.3148 71.1697V50.9926C25.3148 50.1058 25.9875 49.3582 26.8704 49.2806Z" fill="#8C93A1"/>
<g filter="url(#filter0_d_326_1160)">
<path d="M7.00003 25C7.00003 29.7739 8.89645 34.3523 12.2721 37.7279C15.6478 41.1036 20.2261 43 25 43C29.7739 43 34.3523 41.1036 37.7279 37.7279C41.1036 34.3523 43 29.7739 43 25H7.00003Z" fill="#0000AA"/>
<path d="M25.0002 7C20.2263 7 15.6479 8.89642 12.2723 12.2721C8.89661 15.6477 7.00018 20.2261 7.00018 25H43.0001C43.0001 20.2261 41.1037 15.6477 37.7281 12.2721C34.3524 8.89642 29.7741 7 25.0002 7Z" fill="#FF5555"/>
<path d="M13.4255 11.2268C11.4148 12.915 9.79781 15.0227 8.68783 17.4019C7.57785 19.7812 7.00178 22.3745 7.00003 24.9999C7.00178 27.6254 7.57785 30.2186 8.68783 32.5979C9.79781 34.9772 11.4148 37.0848 13.4255 38.7731L25.6031 30.752H42.0562C42.6812 28.8987 43 26.9558 43 24.9999C43 23.044 42.6812 21.1012 42.0562 19.2478H25.6031L13.4255 11.2268Z" fill="#F9F9F9"/>
<path d="M11.6001 12.9927C8.64073 16.2922 7.00278 20.5676 7.00003 24.9999C7.00345 29.4312 8.64135 33.7055 11.6001 37.0044L24.7106 28.3749H42.6782C42.8914 27.2625 42.9992 26.1325 43 24.9999C42.9992 23.8673 42.8914 22.7372 42.6782 21.6249H24.7106L11.6001 12.9927Z" fill="#2CA05A"/>
<path d="M7.8262 19.6167C7.27936 21.3588 7.00078 23.174 7.00003 25C7.00078 26.8259 7.27936 28.6411 7.8262 30.3833L16 25L7.8262 19.6167Z" fill="#FFC240"/>
<path d="M7.22853 22.1875C7.07888 23.1176 7.00246 24.058 7 25C7.00246 25.942 7.07888 26.8824 7.22853 27.8125L11.5 25L7.22853 22.1875Z" fill="#333333"/>
<path d="M25.605 30.7534L15.2448 37.5764C18.0348 39.7436 21.4664 40.9214 24.9992 40.9244C31.5703 40.9206 37.4641 36.8807 39.8379 30.7534H25.605Z" fill="#000080"/>
<path d="M15.2455 12.4248C13.3267 13.912 11.7734 15.8182 10.7043 17.9977C9.63514 20.1772 9.07851 22.5723 9.07693 24.9999C9.07851 27.4275 9.63514 29.8226 10.7043 32.0021C11.7734 34.1817 13.3267 36.0879 15.2455 37.575L25.6058 30.752H39.844C40.556 28.9178 40.9218 26.9675 40.923 24.9999C40.9227 23.0325 40.5578 21.0822 39.8467 19.2478H25.6058L15.2455 12.4248Z" fill="#F2F2F2"/>
<path d="M13.3525 14.1448C10.6053 17.0919 9.07745 20.9709 9.07693 24.9999C9.0774 29.0276 10.6042 32.9055 13.3498 35.8524L24.7106 28.3749H40.5553C40.7978 27.2663 40.9211 26.1348 40.923 24.9999C40.9228 23.8652 40.8014 22.7338 40.5606 21.6249H24.7133L13.3525 14.1448Z" fill="#217844"/>
<path d="M9.64755 20.8164C9.27247 22.1794 9.08058 23.5863 9.07693 25C9.08058 26.4137 9.27247 27.8206 9.64755 29.1836L16 25L9.64755 20.8164Z" fill="#FFB500"/>
<path d="M9.16077 23.4585C9.10792 23.9707 9.07994 24.4851 9.07693 25C9.07994 25.5148 9.10792 26.0293 9.16077 26.5414L11.5 25L9.16077 23.4585Z" fill="black"/>
</g>
<defs>
<filter id="filter0_d_326_1160" x="2.89" y="4.945" width="44.2201" height="44.22" filterUnits="userSpaceOnUse" color-interpolation-filters="sRGB">
<feFlood flood-opacity="0" result="BackgroundImageFix"/>
<feColorMatrix in="SourceAlpha" type="matrix" values="0 0 0 0 0 0 0 0 0 0 0 0 0 0 0 0 0 0 127 0" result="hardAlpha"/>
<feOffset dy="2.055"/>
<feGaussianBlur stdDeviation="2.055"/>
<feComposite in2="hardAlpha" operator="out"/>
<feColorMatrix type="matrix" values="0 0 0 0 0.215686 0 0 0 0 0.254902 0 0 0 0 0.317647 0 0 0 0.1 0"/>
<feBlend mode="normal" in2="BackgroundImageFix" result="effect1_dropShadow_326_1160"/>
<feBlend mode="normal" in="SourceGraphic" in2="effect1_dropShadow_326_1160" result="shape"/>
</filter>
</defs>
</svg>
