<svg width="52" height="52" viewBox="0 0 52 52" fill="none" xmlns="http://www.w3.org/2000/svg">
<path d="M38.5888 11.8952V13.4985L30.9188 9.05683C28.0154 7.3885 23.9638 7.3885 21.0821 9.05683L13.4121 13.5202V11.8952C13.4121 7.02016 16.0771 4.3335 20.9521 4.3335H31.0488C35.9238 4.3335 38.5888 7.02016 38.5888 11.8952Z" fill="#008554"/>
<path d="M38.653 17.2684L38.3497 17.1167L35.403 15.4267L29.293 11.895C27.4297 10.8117 24.5697 10.8117 22.7063 11.895L16.5963 15.405L13.6497 17.1384L13.2597 17.3334C9.46801 19.89 9.20801 20.3667 9.20801 24.4617V34.255C9.20801 38.35 9.46801 38.8267 13.3463 41.4484L22.7063 46.8434C23.638 47.4067 24.808 47.645 25.9997 47.645C27.1697 47.645 28.3613 47.385 29.293 46.8434L38.7397 41.3834C42.553 38.8267 42.7913 38.3717 42.7913 34.255V24.4617C42.7913 20.3667 42.5313 19.89 38.653 17.2684ZM32.0447 29.25L30.723 30.875C30.5063 31.1134 30.3547 31.5684 30.3763 31.8934L30.5063 33.9734C30.593 35.2517 29.683 35.9017 28.4913 35.4467L26.563 34.6667C26.2597 34.5584 25.7613 34.5584 25.458 34.6667L23.5297 35.425C22.338 35.9017 21.428 35.23 21.5147 33.9517L21.6447 31.8717C21.6663 31.5467 21.5147 31.0917 21.298 30.8534L19.9547 29.25C19.1313 28.275 19.4997 27.1917 20.7347 26.8667L22.7497 26.3467C23.0747 26.26 23.443 25.9567 23.6163 25.6967L24.743 23.9634C25.4363 22.88 26.5413 22.88 27.2563 23.9634L28.383 25.6967C28.5563 25.9784 28.9463 26.26 29.2497 26.3467L31.2647 26.8667C32.4997 27.1917 32.868 28.275 32.0447 29.25Z" fill="#008554"/>
</svg>
