<svg width="65" height="64" viewBox="0 0 65 64" fill="none" xmlns="http://www.w3.org/2000/svg">
<path opacity="0.4" d="M58.9335 30.4268L57.2801 48.5068C56.7201 53.8401 54.5335 59.2801 42.8001 59.2801H22.4801C10.7468 59.2801 8.56015 53.8401 8.02681 48.5334L6.40015 31.1734C6.42681 31.2001 6.45348 31.2268 6.50681 31.2534C7.41348 31.8401 8.29348 32.4268 9.25348 32.9601C9.62681 33.2001 10.0268 33.4134 10.4268 33.6268C13.4401 35.2801 16.6668 36.5868 20.0001 37.4934C21.3335 37.8934 22.6935 38.1868 24.0801 38.4268C24.6135 42.6934 28.2668 46.0001 32.6668 46.0001C37.1201 46.0001 40.8001 42.6134 41.2801 38.2668V38.2401C42.6401 37.9734 44.0001 37.6268 45.3335 37.2268C48.6668 36.1868 51.8935 34.8001 54.9068 33.0401C55.0668 32.9601 55.2001 32.8801 55.3068 32.8001C56.5335 32.1334 57.7068 31.3601 58.8268 30.5601C58.8801 30.5334 58.9068 30.4801 58.9335 30.4268Z" fill="#008554"/>
<path d="M56.9068 18.6133C54.6401 16.1066 50.8801 14.8533 45.3601 14.8533H44.7201V14.7466C44.7201 10.2666 44.7201 4.71997 34.6934 4.71997H30.6401C20.6134 4.71997 20.6134 10.2666 20.6134 14.7466V14.8533H19.9734C14.4534 14.8533 10.6668 16.1066 8.42677 18.6133C5.78677 21.5733 5.86677 25.4933 6.13343 28.1866L6.1601 28.3733L6.4001 31.1733C6.42677 31.2 6.4801 31.2266 6.53343 31.2533C7.4401 31.84 8.3201 32.4266 9.2801 32.96C9.65343 33.2 10.0534 33.4133 10.4534 33.6266C13.4668 35.28 16.6934 36.5866 20.0001 37.4933C20.0801 44.4 25.7334 50 32.6668 50C39.6534 50 45.3334 44.32 45.3334 37.3333V37.2266C48.6934 36.2133 51.9201 34.8 54.9334 33.04C55.0934 32.96 55.2001 32.88 55.3334 32.8C56.5601 32.1333 57.7334 31.36 58.8534 30.56C58.8801 30.5333 58.9334 30.48 58.9601 30.4266L59.0668 29.4666L59.2001 28.2133C59.2268 28.0533 59.2268 27.92 59.2534 27.7333C59.4668 25.0666 59.4134 21.3866 56.9068 18.6133ZM24.4268 14.7466C24.4268 10.2133 24.4268 8.50664 30.6401 8.50664H34.6934C40.9068 8.50664 40.9068 10.2133 40.9068 14.7466V14.8533H24.4268V14.7466ZM32.6668 46C28.2668 46 24.6134 42.6933 24.0801 38.4266C24.0268 38.08 24.0001 37.7066 24.0001 37.3333C24.0001 32.56 27.8934 28.6666 32.6668 28.6666C37.4401 28.6666 41.3334 32.56 41.3334 37.3333C41.3334 37.6533 41.3068 37.9466 41.2801 38.24V38.2666C40.8001 42.6133 37.1201 46 32.6668 46Z" fill="#008554"/>
<path d="M31.1468 42.7467C30.6401 42.7467 30.1334 42.56 29.7334 42.16L27.0934 39.5467C26.3201 38.7734 26.3201 37.4934 27.0934 36.72C27.8668 35.9467 29.1468 35.9467 29.9201 36.72L31.2001 38L35.4934 34.0534C36.2934 33.3067 37.5734 33.36 38.3201 34.16C39.0668 34.96 39.0134 36.24 38.2134 36.9867L32.5334 42.24C32.1068 42.56 31.6268 42.7467 31.1468 42.7467Z" fill="#008554"/>
</svg>
