<svg width="24" height="24" viewBox="0 0 24 24" fill="none" xmlns="http://www.w3.org/2000/svg">
<path fill-rule="evenodd" clip-rule="evenodd" d="M7.52032 4.14594C8.292 4.08436 9.02459 3.78091 9.61379 3.2788C10.9887 2.10706 13.011 2.10706 14.386 3.2788C14.9752 3.78091 15.7078 4.08436 16.4795 4.14594C18.2803 4.28965 19.7102 5.71962 19.8539 7.52041C19.9155 8.29209 20.219 9.02468 20.7211 9.61388C21.8928 10.9888 21.8928 13.0111 20.7211 14.3861C20.219 14.9753 19.9155 15.7079 19.8539 16.4796C19.7102 18.2804 18.2803 19.7103 16.4795 19.854C15.7078 19.9156 14.9752 20.2191 14.386 20.7212C13.011 21.8929 10.9887 21.8929 9.61379 20.7212C9.02459 20.2191 8.292 19.9156 7.52032 19.854C5.71953 19.7103 4.28956 18.2804 4.14585 16.4796C4.08427 15.7079 3.78082 14.9753 3.27871 14.3861C2.10697 13.0111 2.10697 10.9888 3.27871 9.61388C3.78082 9.02468 4.08427 8.29209 4.14585 7.52041C4.28956 5.71962 5.71953 4.28965 7.52032 4.14594ZM16.4484 10.4485C16.9171 9.97989 16.9171 9.22009 16.4484 8.75147C15.9798 8.28284 15.22 8.28284 14.7514 8.75147L10.7999 12.7029L9.24843 11.1515C8.7798 10.6828 8.02 10.6828 7.55138 11.1515C7.08275 11.6201 7.08275 12.3799 7.55138 12.8485L9.95138 15.2485C10.42 15.7172 11.1798 15.7172 11.6484 15.2485L16.4484 10.4485Z" fill="white"/>
</svg>
