<svg width="21" height="20" viewBox="0 0 21 20" fill="none" xmlns="http://www.w3.org/2000/svg">
<path opacity="0.4" d="M10.67 18.3335C15.2724 18.3335 19.0033 14.6026 19.0033 10.0002C19.0033 5.39783 15.2724 1.66687 10.67 1.66687C6.06763 1.66687 2.33667 5.39783 2.33667 10.0002C2.33667 14.6026 6.06763 18.3335 10.67 18.3335Z" fill="#008554"/>
<path d="M13.7615 13.2752C13.6532 13.2752 13.5449 13.2502 13.4449 13.1835L10.8615 11.6419C10.2199 11.2585 9.74487 10.4169 9.74487 9.67521V6.25854C9.74487 5.91688 10.0282 5.63354 10.3699 5.63354C10.7115 5.63354 10.9949 5.91688 10.9949 6.25854V9.67521C10.9949 9.97521 11.2449 10.4169 11.5032 10.5669L14.0865 12.1085C14.3865 12.2835 14.4782 12.6669 14.3032 12.9669C14.1782 13.1669 13.9699 13.2752 13.7615 13.2752Z" fill="#008554"/>
</svg>
