<svg width="52" height="52" viewBox="0 0 52 52" fill="none" xmlns="http://www.w3.org/2000/svg">
<path d="M7.0127 13.1575C7.0127 9.76961 9.77027 7.09082 13.0794 7.09082C16.4672 7.09082 19.146 9.8484 19.146 13.1575C19.146 16.5454 16.3885 19.2242 13.0794 19.2242C9.69148 19.3029 7.0127 16.5454 7.0127 13.1575Z" fill="#008554"/>
<path d="M25.3699 33.5634C25.3699 34.0361 25.0548 34.3512 24.582 34.3512H1.57596C1.10324 34.3512 0.788086 34.0361 0.788086 33.5634C0.788086 26.7876 6.30324 21.2725 13.079 21.2725C20.0123 21.2725 25.3699 26.9452 25.3699 33.5634Z" fill="#008554"/>
<path d="M23.8729 47.5089C23.8729 47.9816 23.5577 48.2968 23.085 48.2968H5.35772C4.88499 48.2968 4.56984 47.9816 4.56984 47.5089V39.1574L2.99409 40.4968C2.67893 40.8119 2.20621 40.7331 1.89106 40.418C1.5759 40.1028 1.65469 39.6301 1.96984 39.3149C2.04863 39.2362 5.04257 36.6362 4.80621 36.7937C5.12136 36.5574 5.59408 36.5574 5.83045 36.7937C6.46075 37.3452 8.82439 39.4725 8.66681 39.3149C8.98196 39.6301 8.98196 40.1028 8.7456 40.418C8.43045 40.7331 7.95772 40.7331 7.64257 40.4968L6.06681 39.1574V46.721H23.085C23.5577 46.721 23.8729 47.0362 23.8729 47.5089Z" fill="#008554"/>
<path d="M44.9878 28.5213C44.9878 31.9091 42.2303 34.5879 38.9212 34.5879C35.5333 34.5879 32.8545 31.8303 32.8545 28.5213C32.8545 25.1334 35.6121 22.4546 38.9212 22.4546C42.2303 22.4546 44.9878 25.2122 44.9878 28.5213Z" fill="#008554"/>
<path d="M51.2127 48.9271C51.2127 49.3999 50.8975 49.715 50.4248 49.715H27.4187C26.946 49.715 26.6309 49.3999 26.6309 48.9271C26.6309 42.1514 32.146 36.6362 38.9218 36.6362C45.6187 36.6362 51.1339 42.0726 51.2127 48.7696V48.9271Z" fill="#008554"/>
<path d="M35.8488 2.28467C30.0973 2.28467 25.4488 6.46042 25.4488 11.5816C25.4488 13.2362 25.9216 14.8119 26.867 16.2301L22.6125 20.4059C22.1397 20.8786 22.4549 21.7453 23.164 21.7453H23.3216L31.7519 20.0907C33.0913 20.5635 34.5094 20.8786 35.9276 20.8786C41.6791 20.8786 46.3276 16.7028 46.3276 11.5816C46.2488 6.46042 41.6004 2.28467 35.8488 2.28467ZM29.467 8.98164C29.467 8.50891 29.7822 8.19376 30.2549 8.19376H37.8973C38.3701 8.19376 38.6852 8.50891 38.6852 8.98164C38.6852 9.45437 38.3701 9.76952 37.8973 9.76952H30.2549C29.861 9.76952 29.467 9.37558 29.467 8.98164ZM39.867 13.1574H32.2246C31.7519 13.1574 31.4367 12.8422 31.4367 12.3695C31.4367 11.8968 31.7519 11.5816 32.2246 11.5816H39.867C40.261 11.5816 40.6549 11.8968 40.6549 12.3695C40.6549 12.7635 40.261 13.1574 39.867 13.1574Z" fill="#008554"/>
</svg>
