<svg width="68" height="52" viewBox="0 0 68 52" fill="none" xmlns="http://www.w3.org/2000/svg">
<g clip-path="url(#clip0_524_14111)">
<path d="M43.2538 16.7646L45.6828 19.1323L45.1086 22.4754C45.0103 23.047 45.2452 23.6247 45.7143 23.9657C46.1832 24.3067 46.8052 24.3521 47.3189 24.0821L50.3229 22.5036L53.3268 24.0821C53.346 24.0922 54.1412 24.5403 54.9314 23.9657C55.4005 23.6248 55.6354 23.047 55.5372 22.4754L54.963 19.1323L57.3919 16.7646C58.2936 15.8968 57.7864 14.3377 56.5474 14.1657L53.1877 13.678L51.6898 10.6367C51.1435 9.50954 49.5023 9.51005 48.9563 10.6366L47.4583 13.678L44.0985 14.1657C42.8589 14.3378 42.3526 15.8972 43.2538 16.7646Z" fill="#008554"/>
<path d="M28.5065 11.4235L27.7284 15.9475C27.6301 16.5191 27.8649 17.097 28.3341 17.4381C29.1231 18.0117 29.9162 17.5661 29.9389 17.5544L34.0034 15.418L38.068 17.5544C38.5817 17.8242 39.2035 17.7792 39.6728 17.4381C40.142 17.097 40.3768 16.519 40.2785 15.9474L39.5003 11.4235L42.7863 8.21879C43.2015 7.81402 43.3509 7.20855 43.1716 6.657C42.9922 6.10557 42.5154 5.70364 41.9416 5.62035L37.3985 4.96033L35.3701 0.844795C34.8236 -0.281751 33.1829 -0.281446 32.6367 0.844795L30.6084 4.96043L26.0654 5.62035C25.4915 5.70364 25.0147 6.10557 24.8354 6.657C24.6562 7.20855 24.8055 7.81402 25.2206 8.21879L28.5065 11.4235Z" fill="#008554"/>
<path d="M13.0442 19.1323L12.47 22.4754C12.3717 23.047 12.6066 23.6247 13.0758 23.9657C13.5446 24.3067 14.1666 24.3521 14.6803 24.0821L17.6843 22.5036L20.6882 24.0821C20.7074 24.0922 21.5027 24.5403 22.2928 23.9657C22.762 23.6248 22.9968 23.047 22.8986 22.4754L22.3244 19.1323L24.7533 16.7646C25.655 15.8968 25.1478 14.3377 23.9088 14.1657L20.5491 13.678L19.0512 10.6367C18.5049 9.50954 16.8637 9.51005 16.3177 10.6366L14.8195 13.678L11.4597 14.1657C10.2202 14.3378 9.71389 15.8972 10.6152 16.7646L13.0442 19.1323Z" fill="#008554"/>
<path d="M23.3417 33.3954C23.3417 30.2758 20.8037 27.7378 17.6841 27.7378C10.1785 28.0486 10.1806 38.7434 17.6841 39.053C20.8038 39.053 23.3417 36.515 23.3417 33.3954Z" fill="#008554"/>
<path d="M55.9804 33.3954C55.9804 30.2758 53.4424 27.7378 50.3228 27.7378C42.8171 28.0486 42.8193 38.7434 50.3228 39.053C53.4424 39.053 55.9804 36.515 55.9804 33.3954Z" fill="#008554"/>
<path d="M39.661 33.3954C39.661 30.2758 37.123 27.7378 34.0034 27.7378C26.4978 28.0486 26.4999 38.7434 34.0034 39.053C37.123 39.053 39.661 36.515 39.661 33.3954Z" fill="#008554"/>
<path d="M23.7529 41.1964C17.5479 36.1131 7.9632 40.6456 8.00109 48.7361V50.4763C8.00109 51.3178 8.68325 51.9999 9.52468 51.9999H21.5354C21.3663 51.5231 21.2733 51.0105 21.2733 50.4763V48.7361C21.2733 45.9164 22.1954 43.3084 23.7529 41.1964Z" fill="#008554"/>
<path d="M50.3235 39.053C48.0277 39.053 45.9164 39.8566 44.2549 41.1966C45.8125 43.3086 46.7345 45.9167 46.7345 48.7362V50.4765C46.7345 51.0107 46.6415 51.5232 46.4724 52.0001H58.4831C59.3246 52.0001 60.0067 51.3179 60.0067 50.4765V48.7362C60.0067 43.3968 55.6629 39.053 50.3235 39.053Z" fill="#008554"/>
<path d="M34.0036 39.053C28.6642 39.053 24.3203 43.397 24.3203 48.7362V50.4765C24.3203 51.3179 25.0025 52.0001 25.8439 52.0001H42.1633C43.0048 52.0001 43.6869 51.3179 43.6869 50.4765V48.7362C43.6868 43.3969 39.343 39.053 34.0036 39.053Z" fill="#008554"/>
</g>
<defs>
<clipPath id="clip0_524_14111">
<rect width="68.0071" height="51.9999" fill="white"/>
</clipPath>
</defs>
</svg>
