<svg width="114" height="198" viewBox="0 0 114 198" fill="none" xmlns="http://www.w3.org/2000/svg">
<g opacity="0.35">
<path fill-rule="evenodd" clip-rule="evenodd" d="M78.973 38.4492C78.6311 38.3473 78.2892 38.2115 77.9473 38.0417C76.614 37.3795 75.3831 36.2081 74.2549 35.0876C73.7421 34.6292 73.2292 34.1708 72.7677 33.7633C71.6394 32.7956 70.4599 31.8788 69.2803 31.0129C67.6905 29.8414 66.0494 28.619 64.5622 27.1929C63.2288 25.9196 61.8442 24.5953 60.5108 23.3729C57.3824 20.4697 54.1515 17.4647 51.3309 14.154C49.9975 12.626 49.1257 11.6073 49.3821 10.6396C49.536 9.92655 50.254 9.31535 51.8438 8.60229C53.5361 7.83829 55.3311 7.32896 57.0235 6.76869C57.6731 6.59891 58.3227 6.41215 58.9723 6.20842C62.2031 5.18976 65.8443 4.0183 69.4855 3.2543C71.9984 2.74497 74.7164 2.13377 77.3832 1.26791C77.7422 1.16604 78.1012 1.01324 78.5115 0.860435C79.8448 0.402037 81.3321 -0.158216 82.3578 0.0455166C82.392 0.0455166 82.409 0.0455166 82.409 0.0455166C83.6399 0.249249 84.563 1.36977 85.4861 2.43937C85.9989 3.05057 86.4605 3.61083 86.9733 3.96736C88.2554 4.93509 89.4862 6.0047 90.6658 7.07429C91.3496 7.65154 92.0505 8.24576 92.7684 8.85695C96.5634 12.0148 99.8969 15.1727 103.589 18.738C104.034 19.1794 104.495 19.6378 104.974 20.1132C107.743 22.8127 110.923 25.8686 113.897 27.9569L113.846 28.0078L114 28.5681L112.872 28.8228C108.102 29.8924 103.179 30.962 98.4609 32.3881C95.8455 33.1521 93.23 34.1198 90.7171 35.0876C88.6657 35.8516 86.5118 36.6665 84.3578 37.3796C84.0501 37.4814 83.7424 37.5833 83.4347 37.6852C81.9988 38.1945 80.4603 38.7038 78.973 38.4492ZM82.2552 0.656706C81.3834 0.503906 79.9474 1.01324 78.7679 1.47164C78.3063 1.62444 77.9473 1.77723 77.5884 1.8791C74.8703 2.74496 72.1522 3.35617 69.588 3.86551C65.9982 4.62951 62.357 5.80096 59.1774 6.81963C58.5278 7.02336 57.8782 7.21012 57.2286 7.3799C55.4849 7.88923 53.7413 8.44949 52.1002 9.16256C50.7668 9.77376 50.1001 10.2831 49.9975 10.7924C49.8437 11.4545 50.6642 12.4223 51.7925 13.7465C54.6131 17.0063 57.844 20.0113 60.9723 22.9145C62.3057 24.1369 63.6904 25.4102 65.0238 26.7345C66.4597 28.1606 68.1008 29.3321 69.6906 30.5036C70.8701 31.3694 72.0497 32.2862 73.1779 33.254C73.6908 33.6614 74.1523 34.1708 74.6652 34.6292C75.7934 35.7497 76.9729 36.8702 78.2038 37.4814C79.7936 38.2964 81.4859 37.6851 83.2296 37.0739C83.5373 36.9721 83.8621 36.8702 84.204 36.7683C86.3066 36.0553 88.4093 35.2913 90.4606 34.4764C93.0248 33.5596 95.6403 32.5409 98.2558 31.7769C103.025 30.3508 107.948 29.2812 112.718 28.2116L113.026 28.1606C110.154 26.0214 107.179 23.1183 104.512 20.5716C104.068 20.0962 103.606 19.6378 103.128 19.1964C99.4866 15.682 96.1019 12.4732 92.3581 9.36629C91.6402 8.75509 90.9393 8.14389 90.2555 7.53269C89.076 6.51402 87.8964 5.44443 86.5631 4.4767C86.0502 4.06923 85.5374 3.45804 85.0245 2.84684C84.1527 1.87911 83.2809 0.860439 82.2552 0.656706Z" fill="#008554"/>
<path d="M73.6922 43.6445C69.6408 42.8296 65.7945 41.5053 62.461 39.7226C62.2217 39.5868 61.914 39.434 61.5379 39.2642C60.1532 38.6021 58.4608 37.7362 57.7429 36.7685C56.871 35.5461 57.1787 34.3237 57.4864 32.9485C57.589 32.6429 57.6745 32.3203 57.7429 31.9808C58.1018 30.1981 58.2557 28.4664 58.4608 26.7347C58.6147 25.1048 58.8198 23.3731 59.1788 21.6414L59.7942 21.7942C59.4352 23.4749 59.2814 25.1557 59.0762 26.8365C58.9224 28.5173 58.7173 30.3 58.3583 32.0827C58.2899 32.4562 58.2044 32.7957 58.1019 33.1013C57.7942 34.4256 57.5377 35.4443 58.2557 36.412C58.8711 37.2779 60.5635 38.0928 61.8456 38.704C62.1875 38.8738 62.4952 39.0266 62.7687 39.1624C68.5638 42.2184 76.0513 43.9501 83.231 43.8992C85.6927 43.8992 88.3081 43.5936 90.7185 43.0842C90.9749 42.1165 91.1288 41.0469 91.2826 39.8754C91.5903 37.6344 91.898 35.3424 92.9237 33.7125L93.4365 34.0181C92.5134 35.5461 92.2057 37.7872 91.898 39.9773C91.7442 41.1997 91.5903 42.4221 91.2826 43.4408L91.2313 43.5936L91.0775 43.6445C88.5133 44.2048 85.8465 44.5104 83.231 44.5613C80.0514 44.5613 76.8205 44.2557 73.6922 43.6445Z" fill="#008554"/>
<path fill-rule="evenodd" clip-rule="evenodd" d="M79.4353 18.8907C78.6147 18.7379 77.8455 18.2795 77.5378 17.6683C77.3326 17.2609 77.2301 16.4459 78.5634 15.5801L78.9224 16.0894C78.854 16.1573 78.7857 16.2082 78.7173 16.2422C78.7515 16.2422 78.7686 16.2422 78.7686 16.2422C79.025 16.0385 79.4866 15.7329 80.2558 16.0894L80.461 16.1403V16.395C80.461 16.429 80.461 16.4629 80.461 16.4969C80.9738 16.7515 81.4353 17.1081 81.4866 17.5665C81.5892 18.1777 81.3328 18.687 80.7174 18.8398C80.3584 18.9926 79.8968 18.9926 79.4353 18.8907ZM79.9481 17.7193L80.102 18.3305C80.2729 18.3305 80.4097 18.2965 80.5122 18.2286C80.8199 18.1777 80.9225 17.9739 80.8712 17.6683C80.8199 17.5155 80.6148 17.3118 80.3071 17.159C80.102 17.5155 79.8455 17.7193 79.6404 17.7702C79.743 17.7702 79.8455 17.7532 79.9481 17.7193ZM78.2045 17.5155C78.307 17.6514 78.4267 17.7702 78.5634 17.8721C78.5292 17.8042 78.5122 17.7532 78.5122 17.7193C78.3754 17.6514 78.2728 17.5834 78.2045 17.5155ZM79.1276 16.8534C79.0592 16.9553 79.025 17.0741 79.025 17.2099C79.0934 17.2439 79.1788 17.2439 79.2814 17.2099C79.4865 17.2099 79.5891 17.1081 79.6917 16.9043C79.6404 16.9043 79.5891 16.9043 79.5378 16.9043C79.3669 16.8704 79.2301 16.8534 79.1276 16.8534Z" fill="#008554"/>
<path d="M97.7943 49.298V49.0433C98.2558 45.8345 98.7174 42.5239 99.3841 39.2132C99.4867 38.7039 99.6405 38.1945 99.7431 37.6343C100.051 36.6156 100.307 35.4951 100.358 34.4764C100.41 32.8975 100.102 32.6937 98.7687 31.7769L98.3584 31.4713C97.1789 30.6564 95.9993 29.6887 94.8711 28.8228C93.589 27.8042 92.2556 26.7855 90.9222 25.8687C89.9991 25.2066 88.8709 24.5954 87.7426 23.9332C85.5887 22.6599 83.3835 21.4375 81.8962 19.7567L82.3578 19.3492C83.7937 20.9282 85.9477 22.1506 88.0503 23.373C89.2299 24.0351 90.3581 24.6972 91.3325 25.3594C92.6659 26.2762 93.948 27.2948 95.2301 28.3135C96.4096 29.1794 97.5891 30.1471 98.7174 30.962L99.179 31.2676C100.512 32.2353 101.025 32.5919 100.974 34.5273C100.974 35.5969 100.666 36.7175 100.358 37.838C100.256 38.3473 100.102 38.8567 99.9995 39.366C99.3328 42.6257 98.8712 45.9364 98.461 49.1452L98.4097 49.3998L97.7943 49.298Z" fill="#008554"/>
<path d="M70.1019 40.7921C68.7685 40.0281 67.0761 39.2132 65.2812 38.551C64.6145 38.3982 63.9478 38.1945 63.3324 37.9398C62.8879 37.804 62.4435 37.6682 61.999 37.5324C61.3494 37.3626 60.7169 37.2268 60.1015 37.1249L60.2041 36.4628C60.5118 36.5307 60.8366 36.5986 61.1785 36.6665C60.9733 36.4967 60.8024 36.293 60.6656 36.0553L60.3066 35.3422L61.0759 35.5969C61.4178 35.6988 61.7768 35.8176 62.1529 35.9534C63.3837 36.31 64.6658 36.7174 65.9992 36.9721C64.3581 36.0044 61.5375 35.4441 59.8964 35.1385L57.7424 34.731L59.7425 34.4764C60.2554 34.3745 60.8195 34.4254 61.4349 34.4764C60.9562 34.2047 60.5118 33.9331 60.1015 33.6615L58.922 32.8975L60.3066 33.1012C60.8708 33.1521 61.4862 33.254 62.0503 33.4068C62.717 33.5087 63.435 33.6614 64.1529 33.7124C63.7939 33.6614 63.435 33.5596 63.0247 33.5086C62.3067 33.4068 61.4862 33.254 60.6143 32.7956L57.8963 31.4204L60.8195 32.2353C61.3323 32.3372 61.7939 32.439 62.2041 32.49C61.1272 32.1844 60.1015 31.726 59.2297 31.0639L58.1527 30.198L59.5374 30.5036C60.9733 30.8092 62.5119 31.1148 63.9991 31.1148C63.3837 30.7583 62.5631 30.5545 61.7939 30.2999C61.1272 30.1471 60.4605 29.9433 59.8964 29.6887L60.1528 29.0775C60.9733 29.3321 62.6657 29.4849 64.0504 29.434C63.5375 29.1793 62.9734 29.0265 62.4093 28.8228C61.4349 28.5172 60.4092 28.1607 59.6912 27.4985L59.0245 26.9892L59.8451 26.9383C60.2554 26.9383 60.6656 26.9383 61.0759 26.9892C61.5374 27.0401 62.0503 27.0401 62.5118 26.9892C62.1016 26.8364 61.6913 26.7345 61.3323 26.6327C60.7682 26.5308 60.1528 26.378 59.4348 25.9705L58.7168 25.614L59.6399 25.3084C59.9989 25.2575 60.2553 25.1556 60.5631 25.1047C60.4263 25.0707 60.2724 25.0368 60.1015 25.0028L60.2554 24.3916C61.1272 24.5444 61.8452 24.9009 62.5118 25.2575L65.0248 26.6327L62.2554 25.8687C61.4862 25.614 61.0759 25.614 60.5118 25.7668C60.8708 25.8687 61.1785 25.9705 61.4862 26.0215C62.1016 26.1743 62.717 26.3271 63.5375 26.8364L64.1017 27.142L63.5375 27.3967C62.7683 27.7532 61.8964 27.7023 61.0246 27.6004C61.5375 27.8551 62.1016 28.0588 62.6144 28.2116C63.5375 28.5172 64.5119 28.8737 65.2299 29.4849L65.7427 29.9433L65.0248 29.9943C64.5119 30.0961 63.8452 30.0961 63.1273 30.0961C63.8965 30.3508 64.6145 30.6564 65.1273 31.2166L65.6402 31.675L64.9735 31.726C63.7427 31.8278 62.4606 31.726 61.281 31.4713C62.5119 32.0316 63.8965 32.2862 65.076 32.439L68.1018 32.9484L64.6658 33.1012C64.5632 33.1351 64.4606 33.1521 64.3581 33.1521C64.8196 33.254 65.2812 33.4577 65.794 33.7633L66.5633 34.2726L65.6915 34.3745C64.4094 34.5273 63.1273 34.2726 61.8964 34.018C62.5631 34.3745 63.3324 34.731 64.1017 35.0366C64.17 35.0366 64.2555 35.0536 64.3581 35.0876C64.9393 35.2234 65.4863 35.3592 65.9992 35.495L65.8966 36.1062C65.794 36.0723 65.6915 36.0553 65.5889 36.0553C66.3581 36.4118 66.9736 36.8193 67.3838 37.2777L67.948 37.8889L67.1274 37.838C65.3838 37.5833 63.7427 37.074 62.1529 36.6156C62.7683 36.9721 63.6401 37.2268 64.4606 37.4814C65.2299 37.6852 65.9992 37.8889 66.6659 38.2454L68.3582 39.1113H68.2044C69.0249 39.4678 69.7429 39.8753 70.4096 40.2828L70.1019 40.7921Z" fill="#008554"/>
<path d="M69.0243 25.2066C67.5884 23.7295 65.9986 22.4053 64.4088 21.081C63.178 20.0624 61.8959 18.9928 60.7163 17.8722C60.5796 17.7364 60.4086 17.5666 60.2035 17.3629C58.7162 16.0896 56.2546 13.8485 57.229 11.913C57.9983 10.2832 62.1523 9.1117 64.3575 8.5005C64.631 8.43259 64.8532 8.38167 65.0242 8.34771C65.6396 8.14398 66.3576 7.88932 67.1268 7.63465C69.5372 6.76878 72.5629 5.69918 74.6143 6.25945L74.4604 6.87065C72.6142 6.41225 69.691 7.43091 67.332 8.24584C66.5627 8.5005 65.8447 8.75518 65.2293 8.95892C65.0242 8.99287 64.802 9.0438 64.5626 9.11171C62.7164 9.62104 58.4598 10.7925 57.7931 12.1677C57.0239 13.6957 59.2804 15.733 60.6138 16.9045C60.8189 17.1082 61.0069 17.278 61.1779 17.4138C62.3574 18.5343 63.5882 19.553 64.819 20.6226C66.4088 21.8959 68.0499 23.2711 69.4859 24.7482L69.0243 25.2066Z" fill="#008554"/>
<path fill-rule="evenodd" clip-rule="evenodd" d="M95.6934 54.4932L95.7959 53.933C96.0524 52.0994 96.3088 50.2148 97.078 48.585L96.9755 48.6359L96.9242 48.3303C96.8729 47.7191 97.1806 47.4644 97.437 47.3116C97.5054 47.2437 97.5567 47.1758 97.5909 47.1079L97.8473 47.3626L97.9499 47.2098L98.155 47.3626C98.3089 47.3626 98.6166 47.4644 98.6678 47.4644H98.8217L98.9755 47.4135C99.0097 47.4475 99.0268 47.4814 99.0268 47.5154L99.2832 47.5663L99.1294 47.7191C100.104 50.2148 100.514 52.1503 100.36 53.4236L100.258 54.646L99.7448 53.5255C99.7106 53.7292 99.6593 53.9499 99.5909 54.1876L99.2832 55.0026L98.9755 54.1876C98.9413 54.1197 98.9243 54.0688 98.9243 54.0348L98.7704 54.4932L98.4114 53.933C98.155 53.5764 98.0524 53.118 98.0011 52.6596C97.967 52.7275 97.9328 52.8124 97.8986 52.9143C97.8644 53.2199 97.8131 53.5085 97.7447 53.7802L97.1293 53.6274C96.8729 54.0348 96.5652 54.3404 96.1549 54.4423L95.6934 54.4932ZM97.8473 48.534C97.0268 49.9602 96.719 51.6919 96.4626 53.4236C96.9755 52.7615 97.2832 51.2844 97.4883 50.4186C97.5909 49.9602 97.6422 49.6036 97.7447 49.349L98.155 49.5018C98.155 49.4339 98.1721 49.3829 98.2063 49.349L98.3601 49.3999C98.4285 49.1622 98.4969 48.9585 98.5653 48.7887L98.7191 48.4322C98.6849 48.3643 98.6336 48.2794 98.5653 48.1775C98.3088 48.3812 98.1037 48.4831 97.8473 48.534Z" fill="#008554"/>
<path fill-rule="evenodd" clip-rule="evenodd" d="M79.6926 20.8263C78.7182 20.6735 77.6925 20.0623 77.1797 18.8908C76.8036 17.9401 76.7694 17.227 77.0771 16.7516C77.2822 15.9367 77.7438 15.5801 78.0515 15.4273C78.8207 15.1217 79.7951 15.3764 80.6157 16.1404L80.308 16.446C81.0259 16.6497 81.6926 17.0572 82.0516 17.3628C83.0773 18.4324 83.0773 19.1964 82.8722 19.7057C82.5645 20.4697 81.5901 20.9281 80.4618 20.9281C80.1883 20.9281 79.9319 20.8942 79.6926 20.8263ZM82.1542 19.3492C82.0003 19.6548 81.6414 20.0113 80.8721 20.266C80.8037 20.266 80.7353 20.266 80.667 20.266C81.4362 20.2151 82.0516 19.9095 82.2568 19.4511C82.291 19.3832 82.308 19.2983 82.308 19.1964C82.2739 19.2643 82.2226 19.3152 82.1542 19.3492ZM77.6925 17.0063C77.6583 17.1761 77.6412 17.3458 77.6412 17.5156C77.6412 18.0249 78.0515 18.738 78.7182 19.1964C79.2823 19.6039 79.949 19.8076 80.5131 19.6548C79.5387 19.502 78.3592 18.7889 78.2053 17.8212C78.1028 17.3628 78.2053 17.0063 78.3079 16.8025C78.0515 16.8025 77.8463 16.8535 77.6925 17.0063ZM79.231 16.9553C79.1626 16.9553 79.0943 16.9723 79.0259 17.0063C78.9746 17.0572 78.7182 17.1591 78.8207 17.7193C78.9233 18.3815 79.8464 18.8908 80.667 19.0436C80.8208 19.0945 81.2824 19.1455 81.6414 18.9417C81.6414 18.9078 81.6414 18.8908 81.6414 18.8908C81.6755 18.8569 81.6755 18.8229 81.6414 18.7889C81.573 18.721 81.4875 18.6701 81.3849 18.6361L81.4875 18.3815C81.2311 17.974 80.667 17.5156 79.949 17.21C79.7097 17.1081 79.4703 17.0232 79.231 16.9553ZM79.0259 15.9876C78.7524 15.9197 78.513 15.9367 78.3079 16.0385C78.2395 16.0725 78.1711 16.1234 78.1028 16.1913C78.4618 16.1404 78.872 16.1913 79.3336 16.2932C79.4703 16.2932 79.6242 16.3102 79.7951 16.3441C79.5216 16.1404 79.2652 16.0216 79.0259 15.9876Z" fill="#008554"/>
<path d="M89.3848 42.2691C89.4873 40.1809 89.795 36.9211 90.513 34.6292L91.1284 34.7819C90.4104 37.023 90.1027 40.2318 90.0515 42.2691H89.3848Z" fill="#008554"/>
</g>
<g opacity="0.35">
<path fill-rule="evenodd" clip-rule="evenodd" d="M32.8693 109.193C38.1672 117.2 35.9559 127.999 27.8938 133.26C19.8316 138.522 8.95917 136.28 3.66118 128.273C-1.63681 120.266 0.620608 109.514 8.68277 104.252C16.7449 98.9902 27.5713 101.186 32.8693 109.193ZM4.26009 127.907C9.32774 135.548 19.7855 137.698 27.4791 132.665C35.2188 127.633 37.3841 117.246 32.2704 109.605C27.2027 101.918 16.791 99.768 9.05132 104.847C1.31165 109.88 -0.807549 120.22 4.26009 127.907Z" fill="#008554"/>
<path fill-rule="evenodd" clip-rule="evenodd" d="M30.7969 110.566C33.0082 113.906 33.7453 117.841 32.9621 121.73C32.1329 125.665 29.8294 129.005 26.5124 131.155C23.1493 133.352 19.1413 134.129 15.2254 133.306C11.3095 132.528 7.9464 130.24 5.73506 126.9C3.5698 123.606 2.78663 119.625 3.61588 115.736C5.27438 107.683 13.1983 102.513 21.3065 104.16C25.2224 104.984 28.5855 107.226 30.7969 110.566ZM6.33397 126.534C8.45317 129.691 11.678 131.842 15.4097 132.62C19.1413 133.397 22.919 132.665 26.0978 130.561C29.2766 128.502 31.4879 125.299 32.225 121.593C33.0082 117.887 32.2711 114.135 30.198 110.978C28.0788 107.775 24.9 105.624 21.1683 104.847C13.4747 103.291 5.91935 108.232 4.30692 115.873C3.52374 119.58 4.26085 123.377 6.33397 126.534Z" fill="#008554"/>
<path d="M40.4257 105.944C40.564 106.081 39.1358 107.408 37.2009 108.872C35.312 110.245 33.6075 111.251 33.5153 111.114C33.3771 110.931 34.8514 109.696 36.7863 108.277C38.6751 106.859 40.2875 105.806 40.4257 105.944Z" fill="#008554"/>
<path d="M38.9991 102.97C39.0912 103.153 37.5249 104.342 35.4518 105.715C33.4247 107.042 31.6741 108.003 31.5358 107.82C31.4437 107.682 33.0101 106.447 35.0832 105.12C37.1103 103.747 38.907 102.832 38.9991 102.97Z" fill="#008554"/>
<path fill-rule="evenodd" clip-rule="evenodd" d="M49.6873 94.5515C49.718 94.5515 49.8716 94.4752 50.148 94.3227C50.2862 94.2312 50.4705 94.1855 50.7008 94.1397C50.9312 94.0482 51.2076 94.0482 51.5301 94.0024C52.129 94.0024 52.8661 94.1397 53.6032 94.643C53.7414 94.7803 53.9257 94.8718 54.11 95.0548C54.2482 95.2378 54.3864 95.3751 54.5246 95.6038C54.6167 95.8326 54.755 96.0156 54.8471 96.2444C54.8932 96.5189 55.0314 96.7477 55.0314 97.0222C55.1696 98.0288 54.801 99.31 53.8796 100.088C53.6339 100.301 53.3882 100.484 53.1425 100.637C52.8968 100.789 52.6511 100.957 52.4054 101.14C51.8833 101.476 51.3612 101.826 50.839 102.192C49.7948 102.894 48.7198 103.611 47.6142 104.343C46.5085 105.075 45.3875 105.822 44.2511 106.585C43.6983 106.905 42.869 107.18 42.178 107.134C41.3948 107.088 40.7038 106.814 40.1049 106.402C39.506 105.99 39.0913 105.35 38.861 104.755C38.5846 104.023 38.6306 103.336 38.7688 102.65C38.9531 102.009 39.3217 101.415 39.7824 100.957C40.2891 100.545 40.7959 100.271 41.3027 99.9505C42.2855 99.31 43.2069 98.7304 44.0668 98.2118C45.7253 97.1137 47.1535 96.1987 48.167 95.5581C49.1345 94.9175 49.6873 94.5515 49.6873 94.5515ZM48.3052 95.7869C47.2917 96.4274 45.9096 97.3883 44.2511 98.4864C43.3911 99.0659 42.4851 99.676 41.533 100.317C41.0723 100.637 40.5195 100.957 40.1509 101.323C39.7824 101.735 39.4599 102.238 39.3217 102.787C39.2295 103.336 39.2295 103.977 39.4599 104.48C39.4599 104.617 39.552 104.755 39.6442 104.892L39.7363 105.121C39.7363 105.121 39.8284 105.212 39.8745 105.258L40.1509 105.624L40.5195 105.899C40.9802 106.219 41.5791 106.448 42.178 106.448C42.823 106.448 43.2836 106.31 43.9286 105.944C45.0343 105.212 46.14 104.495 47.2456 103.794C48.382 103.062 49.4723 102.36 50.5166 101.689C51.0694 101.354 51.6069 101.033 52.129 100.728C52.3747 100.545 52.6204 100.378 52.8661 100.225C53.1425 100.073 53.3728 99.92 53.5571 99.7675C54.4324 99.0812 54.801 97.9831 54.7089 97.068C54.6628 96.5647 54.4785 96.1529 54.2482 95.7411C54.156 95.6038 54.0178 95.4208 53.8796 95.2378C53.7414 95.1005 53.5571 95.009 53.4189 94.8718C52.774 94.4142 52.0829 94.277 51.5301 94.277C51.2537 94.277 50.9772 94.277 50.793 94.3685C50.5626 94.4142 50.3784 94.46 50.2401 94.5515C49.9944 94.6735 49.8562 94.7498 49.8255 94.7803C49.7794 94.826 49.2266 95.1921 48.3052 95.7869Z" fill="#008554"/>
<path d="M53.0962 95.6499C53.1269 95.6499 53.1423 95.7109 53.1423 95.8329C53.1423 95.9244 53.1883 96.1074 53.0962 96.3362C53.004 96.7938 52.5894 97.3428 51.9905 97.8461C51.3763 98.3037 50.6698 98.8375 49.8713 99.4475C49.0421 100.088 48.1668 100.774 47.1532 101.369C46.1858 101.964 45.2644 102.559 44.3891 103.108C43.5598 103.657 42.7766 104.114 42.0395 104.435C41.3485 104.755 40.6574 104.892 40.2428 104.847C39.7821 104.801 39.5518 104.664 39.5518 104.664C39.5978 104.572 39.8282 104.618 40.1967 104.572C40.6113 104.526 41.1642 104.343 41.8552 103.977C42.5002 103.657 43.1913 103.154 44.0205 102.559C44.8958 101.964 45.8172 101.415 46.7847 100.774C47.7982 100.18 48.6735 99.4933 49.4567 98.9442C50.2859 98.3952 51.0691 97.8461 51.668 97.4343C52.313 97.0225 52.6815 96.6107 52.8658 96.2447C53.004 95.8787 53.0501 95.6499 53.0962 95.6499Z" fill="#008554"/>
<path d="M53.558 97.2514C53.5887 97.2514 53.5887 97.4497 53.558 97.8462C53.5119 98.0292 53.5119 98.258 53.3737 98.6698C53.3276 98.7156 53.1894 98.6698 53.0973 98.7155C53.0051 98.7155 52.913 98.7155 52.8209 98.7155C52.7594 98.7155 52.6827 98.7308 52.5905 98.7613C52.5291 98.7613 52.4984 98.7613 52.4984 98.7613H52.4523C52.4062 98.7613 52.4523 98.8071 52.3141 98.6698L52.3602 98.624C52.4216 98.624 52.4677 98.624 52.4984 98.624V98.6698C52.5291 98.7003 52.5445 98.7308 52.5445 98.7613C52.6059 98.8223 52.6673 98.8986 52.7287 98.9901C52.913 99.2188 53.0051 99.4476 53.0512 99.7222C52.8976 99.7832 52.7441 99.8137 52.5905 99.8137H52.268L51.9916 99.7679C51.7613 99.7221 51.5309 99.6306 51.3006 99.6764C51.3313 99.6154 51.362 99.5544 51.3927 99.4934C51.3927 99.4934 51.3927 99.4934 51.4388 99.4934C51.4388 99.4934 51.4849 99.4476 51.5309 99.4476C51.5309 99.4934 51.5309 99.4934 51.6231 99.5391C51.7613 99.6764 51.8995 99.8594 51.9916 99.9967C52.053 100.149 52.0684 100.302 52.0377 100.454C52.0377 100.454 52.0377 100.5 51.9916 100.546H51.8995H51.6231C51.3466 100.546 51.0395 100.546 50.7017 100.546H50.6095H50.5634C50.5634 100.591 50.5174 100.546 50.5174 100.591L50.6095 100.683V100.729L50.7938 101.003C50.8859 101.247 50.9934 101.491 51.1163 101.735L51.2084 101.918C51.1624 101.918 51.0702 101.918 51.0241 101.918L50.6095 101.827C50.4713 101.827 50.3792 101.781 50.1949 101.781C50.1488 101.781 50.0106 101.735 50.0106 101.735H49.9185H49.4578C49.1814 101.735 48.8128 101.735 48.4903 101.69C48.6132 101.537 48.736 101.4 48.8589 101.278L48.9971 101.461L49.2735 101.964C49.3964 102.269 49.5346 102.574 49.6881 102.879C49.596 102.879 49.4117 102.788 49.2735 102.788C49.0892 102.742 48.9971 102.742 48.7668 102.65L48.1679 102.467L47.8454 102.376C47.7072 102.33 47.7532 102.33 47.7532 102.33L47.8914 102.605C48.0757 103.001 48.26 103.413 48.4443 103.84C48.2907 103.779 48.1218 103.703 47.9375 103.611C47.6611 103.52 47.4307 103.428 47.2004 103.337L46.7858 103.199L46.7397 103.154C46.924 103.398 47.0929 103.657 47.2465 103.932L47.3847 104.115L47.4307 104.206C47.4768 104.252 47.4768 104.298 47.4307 104.252H47.0161H46.5554H46.1408H45.7261L45.2655 104.298L44.7587 104.252C44.8508 104.038 44.9276 103.825 44.989 103.611C45.2194 103.794 46.0026 104.343 46.5093 104.801C47.0622 105.121 46.3711 105.03 46.0947 105.075C45.7262 105.075 45.3576 105.091 44.989 105.121C44.2519 105.213 43.5148 105.213 42.7777 105.075C42.8391 104.892 42.9006 104.709 42.962 104.526L43.2845 104.755C43.4687 104.847 43.653 104.953 43.8373 105.075C44.2059 105.289 44.5591 105.487 44.8969 105.67L45.1273 105.807H44.8508C44.6359 105.838 44.4362 105.853 44.2519 105.853C43.8834 105.853 43.5148 105.868 43.1463 105.899C43.0234 105.899 42.9006 105.899 42.7777 105.899C42.6856 105.899 42.5934 105.899 42.5013 105.899C42.2863 105.899 42.0867 105.884 41.9024 105.853C41.5338 105.807 41.2114 105.67 40.9349 105.624C40.9657 105.502 41.0117 105.396 41.0731 105.304C41.5799 105.716 42.0867 105.899 42.4552 106.036C42.7931 106.158 42.962 106.235 42.962 106.265C42.9313 106.296 42.747 106.28 42.4092 106.219C42.0406 106.128 41.4878 105.991 40.8889 105.579L40.2439 105.167L41.0271 105.258C41.3035 105.304 41.626 105.441 41.9485 105.441C42.1328 105.441 42.317 105.441 42.5013 105.441C42.5934 105.441 42.6856 105.441 42.7777 105.441H43.0081C43.0695 105.411 43.1309 105.396 43.1923 105.396H43.2845L43.2384 105.35C43.2077 105.319 43.1616 105.289 43.1002 105.258L43.0081 105.213L42.6856 105.03L41.4878 104.343L42.8699 104.526C43.5148 104.587 44.2059 104.572 44.943 104.481C44.9891 104.481 45.0812 104.481 45.0351 104.481C44.989 104.435 45.0812 104.526 44.6666 104.206L43.653 103.52L44.8969 103.611H45.2655L45.6801 103.566C45.8337 103.566 45.9872 103.55 46.1408 103.52C46.1408 103.52 46.1869 103.611 46.1408 103.566C45.8029 103.047 45.4651 102.528 45.1273 102.01C45.6494 102.162 46.1561 102.3 46.6475 102.422L47.0622 102.559L47.1082 102.605C46.9854 102.33 46.8472 102.04 46.6936 101.735L46.4633 101.186V101.141L46.5554 101.186L46.6936 101.232L46.97 101.324L47.5689 101.552C47.7532 101.598 47.9836 101.69 48.0757 101.69L48.3521 101.781L48.2139 101.415L48.0296 100.958L48.6285 101.003C48.905 101.049 49.1814 101.095 49.4578 101.095H49.9185H50.0567H50.1028C50.1488 101.141 50.1028 101.095 50.1028 101.049C50.1028 101.003 50.1028 101.049 50.0567 101.003L49.8724 100.683C49.7496 100.469 49.6267 100.271 49.5039 100.088L49.4578 99.9967C49.4117 99.9509 49.5039 99.9967 49.5039 99.9967H49.6881H50.0567C50.3024 99.9967 50.5327 99.9967 50.7477 99.9967C50.7938 99.9967 50.886 99.9967 50.932 99.9967H50.9781L51.1624 100.042C51.2084 99.9967 51.3006 100.042 51.3006 100.042C51.3006 100.012 51.2852 99.9814 51.2545 99.9509L51.2084 99.8594C51.2084 99.8594 51.1163 99.8137 51.0702 99.7222C51.0242 99.6764 50.932 99.4934 51.0702 99.3104L51.1163 99.1731H51.2545C51.577 99.1273 51.8995 99.2646 52.1298 99.3104C52.268 99.3561 52.3141 99.3561 52.4523 99.3561C52.4062 99.2646 52.4062 99.2189 52.3602 99.1273C52.2987 99.0663 52.2527 99.0053 52.222 98.9443C52.1759 98.8528 52.1298 98.8071 52.1298 98.5783V98.4868L52.222 98.441C52.4984 98.3495 52.6366 98.3953 52.8209 98.3953C53.0051 98.3953 53.0973 98.3953 53.1894 98.3953C53.2355 98.258 53.3276 97.9835 53.3737 97.8005C53.4198 97.4344 53.5119 97.2057 53.558 97.2514Z" fill="#008554"/>
<path d="M29.8288 117.521C29.8749 117.521 30.0131 117.887 30.1053 118.619C30.2435 119.351 30.2435 120.449 29.967 121.776C29.6906 123.103 28.9996 124.613 27.94 126.031C26.8804 127.449 25.3601 128.776 23.5634 129.783C21.7206 130.744 19.7857 131.293 17.989 131.339C17.0676 131.384 16.2383 131.293 15.4552 131.156C14.672 130.927 13.9348 130.698 13.3359 130.378C12.1381 129.783 11.3089 129.005 10.8021 128.456C10.3414 127.907 10.1111 127.541 10.1572 127.541C10.2493 127.404 11.2167 128.868 13.5663 129.92C14.1652 130.195 14.8102 130.424 15.5473 130.561C16.2844 130.698 17.1136 130.744 17.9429 130.698C19.6475 130.607 21.4903 130.103 23.1948 129.142C24.9455 128.182 26.3736 126.946 27.4332 125.619C28.4468 124.292 29.1378 122.92 29.4603 121.684C30.1513 119.168 29.6445 117.521 29.8288 117.521Z" fill="#008554"/>
<path d="M20.0162 109.148C20.0162 109.148 20.093 109.254 20.2466 109.468C20.3387 109.559 20.4462 109.682 20.5691 109.834C20.6919 110.017 20.8455 110.246 21.0298 110.52C21.0912 110.581 21.1373 110.642 21.168 110.703C21.168 110.749 21.0759 110.703 20.9837 110.703C20.8302 110.673 20.6612 110.658 20.4769 110.658C20.2927 110.627 20.093 110.597 19.878 110.566C19.7245 110.566 19.5556 110.551 19.3713 110.52C19.0949 110.49 18.8031 110.459 18.496 110.429C18.3117 110.429 18.1735 110.383 18.0813 110.383C18.2656 110.52 18.4038 110.612 18.8185 110.886L19.0027 111.069L19.0949 111.161L19.3252 111.298C19.5709 111.481 19.832 111.664 20.1084 111.847L20.523 112.122L20.7073 112.305L20.7994 112.351C20.8455 112.396 20.8916 112.396 20.8455 112.396C20.5384 112.396 20.2159 112.381 19.878 112.351C19.5709 112.32 19.2484 112.305 18.9106 112.305C18.7724 112.305 18.542 112.259 18.4499 112.259H18.1274C17.7281 112.259 17.3135 112.259 16.8835 112.259C16.4535 112.259 16.0236 112.259 15.5936 112.259C15.1329 112.198 14.6722 112.137 14.2115 112.076C14.3036 111.893 14.3804 111.695 14.4418 111.481C15.4554 112.03 16.4228 112.717 17.5285 113.083L19.1409 113.677L17.3903 113.769C15.9161 113.86 14.3497 113.998 12.6912 113.677C12.7526 113.464 12.814 113.235 12.8755 112.991L13.1519 113.083C14.104 113.418 15.0407 113.754 15.9621 114.089C16.8528 114.425 17.7281 114.745 18.5881 115.05L18.9106 115.187H18.5881L17.8971 115.233C17.4364 115.264 16.9757 115.294 16.515 115.325C15.4554 115.416 15.225 115.462 14.7643 115.508C14.3036 115.569 13.8583 115.63 13.4283 115.691C12.5991 115.828 11.7237 115.919 10.8945 116.011C10.9252 115.797 10.9406 115.584 10.9406 115.37C12.5069 115.736 13.7508 116.514 14.9947 116.743L16.0543 117.017L14.9947 117.292C12.5991 117.933 10.572 118.161 9.18992 118.344C7.80783 118.482 7.02466 118.527 7.02466 118.482C7.02466 118.436 7.80784 118.299 9.14386 118.07C10.5259 117.795 12.5069 117.475 14.8565 116.789C14.8565 116.941 14.8565 117.109 14.8565 117.292C13.5204 117.017 12.2305 116.285 10.8484 116.011L8.95957 115.599L10.8945 115.37C11.6777 115.279 12.5069 115.187 13.3362 115.05C14.0733 114.928 14.8104 114.821 15.5475 114.73C15.5936 114.73 15.5475 114.684 15.5475 114.684C14.6875 114.379 13.8122 114.074 12.9215 113.769L12.6451 113.677L12.8294 112.991C14.3497 113.311 15.87 113.128 17.3903 113.083C17.3596 113.296 17.3289 113.525 17.2982 113.769C16.0543 113.311 15.0868 112.625 14.1194 112.03L12.7373 111.207L14.3497 111.435C14.7797 111.496 15.2097 111.557 15.6396 111.618C16.0696 111.618 16.4843 111.634 16.8835 111.664C17.3135 111.664 17.7281 111.664 18.1274 111.664H18.4499C18.542 111.664 18.542 111.664 18.5881 111.664L18.7724 111.71H18.9567L18.9106 111.664C18.8799 111.634 18.8492 111.603 18.8185 111.573C18.6956 111.481 18.5728 111.39 18.4499 111.298C18.3578 111.207 18.0813 111.024 17.851 110.841C17.636 110.658 17.421 110.49 17.206 110.337C16.7453 110.002 16.3153 109.682 15.9161 109.376C16.6993 109.605 17.4364 109.834 18.1274 109.926C18.281 109.987 18.4345 110.032 18.5881 110.063L18.9106 110.109C19.0949 110.139 19.2638 110.154 19.4173 110.154C19.6016 110.185 19.7705 110.215 19.9241 110.246C20.0162 110.246 20.1084 110.261 20.2005 110.292C20.3234 110.322 20.4309 110.337 20.523 110.337C20.5691 110.337 20.6152 110.383 20.6612 110.383L20.6151 110.292C20.4002 109.956 20.2466 109.697 20.1544 109.514C20.0316 109.3 19.9855 109.178 20.0162 109.148Z" fill="#008554"/>
<path d="M38.6742 118.802C38.7203 118.802 38.8585 119.168 38.9967 119.854C39.0274 120.037 39.0735 120.236 39.1349 120.449C39.1349 120.663 39.1503 120.891 39.181 121.135C39.2117 121.379 39.2424 121.639 39.2731 121.913C39.3192 122.188 39.2731 122.508 39.2731 122.828C39.2731 123.103 39.2731 123.469 39.2731 123.789C39.2117 124.125 39.1503 124.491 39.0888 124.887C39.0581 125.07 39.0274 125.253 38.9967 125.436C38.9353 125.619 38.8738 125.802 38.8124 125.985C38.7203 126.397 38.5821 126.763 38.4438 127.129C37.7989 128.685 36.8314 130.286 35.5875 131.751C33.0076 134.679 29.8749 136.417 27.4793 137.241C26.8804 137.424 26.3276 137.607 25.8669 137.699C25.3601 137.79 24.9455 137.882 24.5769 137.927C23.8859 138.019 23.5173 138.019 23.5173 137.973C23.4713 137.836 25.0376 137.699 27.295 136.784C29.5985 135.868 32.547 134.084 35.0347 131.293C36.2325 129.875 37.2 128.365 37.8449 126.901C37.9832 126.535 38.1214 126.168 38.2135 125.802C38.2749 125.619 38.3364 125.452 38.3978 125.299C38.4285 125.116 38.4592 124.933 38.4899 124.75C38.5821 124.415 38.6589 124.079 38.7203 123.743C38.7663 123.423 38.7663 123.103 38.7663 122.783C38.9045 120.358 38.536 118.848 38.6742 118.802Z" fill="#008554"/>
<path d="M8.63804 100.408C8.6841 100.5 8.03913 100.866 7.07168 101.415C6.10422 102.01 4.7682 102.833 3.61646 104.068C1.26692 106.585 0.253382 109.284 0.0230343 109.193C-0.0691047 109.147 0.115179 108.461 0.575874 107.363C1.08264 106.356 1.81975 104.892 3.06362 103.611C4.35357 102.284 5.78173 101.46 6.84133 100.957C7.90093 100.545 8.59197 100.317 8.63804 100.408Z" fill="#008554"/>
<path d="M41.3948 122.873C41.5791 122.873 41.7633 124.749 41.2566 126.945C40.9802 128.044 40.6116 129.004 40.243 129.691C39.9206 130.331 39.598 130.697 39.5059 130.652C39.4138 130.56 39.552 130.148 39.7823 129.462C40.0127 128.776 40.2891 127.861 40.5655 126.808C41.0262 124.658 41.1644 122.873 41.3948 122.873Z" fill="#008554"/>
<path d="M57.427 95.7871C57.5192 95.7414 57.7495 96.1532 57.8417 96.8852C57.9338 97.6173 57.7956 98.6239 57.4731 99.6305C57.1046 100.683 56.6439 101.552 56.1371 102.101C55.6764 102.605 55.2618 102.833 55.2157 102.788C55.1236 102.696 55.4 102.376 55.7225 101.781C56.091 101.232 56.4596 100.363 56.8282 99.4475C57.1046 98.4409 57.2888 97.5716 57.3349 96.8852C57.381 96.2447 57.3349 95.8329 57.427 95.7871Z" fill="#008554"/>
<path d="M41.9907 107.088C42.0829 107.271 40.4704 108.507 38.3512 109.879C36.186 111.298 34.3893 112.304 34.2971 112.121C34.1589 111.938 35.8174 110.703 37.9366 109.284C40.0558 107.912 41.8986 106.905 41.9907 107.088Z" fill="#008554"/>
<path d="M33.607 110.429C33.653 110.246 34.298 110.292 34.9891 110.521C35.7262 110.658 36.279 110.978 36.2329 111.161C36.1869 111.344 35.5419 111.39 34.8048 111.207C34.0677 110.978 33.5148 110.612 33.607 110.429Z" fill="#008554"/>
<path d="M34.1614 109.331C34.2074 109.148 35.0367 109.148 36.0502 109.377C37.0177 109.606 37.8469 109.834 37.8009 110.017C37.8469 110.2 36.9255 110.338 35.912 110.109C34.8985 109.834 34.1153 109.514 34.1614 109.331Z" fill="#008554"/>
<path d="M36.0961 107.866C36.0961 107.683 37.0636 107.683 38.2153 107.866C39.3671 107.958 40.2885 108.232 40.2885 108.415C40.2885 108.598 39.321 108.69 38.1232 108.553C36.9714 108.37 36.0501 108.049 36.0961 107.866Z" fill="#008554"/>
<path d="M36.8772 106.998C36.8772 106.815 37.9829 106.677 39.3189 106.952C40.5628 107.272 41.5302 107.638 41.5302 107.821C41.4841 108.004 40.3785 107.958 39.1346 107.638C37.8907 107.364 36.9233 107.226 36.8772 106.998Z" fill="#008554"/>
<path d="M34.7119 108.552C34.758 108.369 35.5872 108.369 36.6007 108.598C37.6143 108.735 38.3974 109.056 38.3514 109.239C38.3514 109.422 37.4761 109.468 36.4625 109.285C35.449 109.056 34.6658 108.735 34.7119 108.552Z" fill="#008554"/>
</g>
<g opacity="0.35">
<path d="M94.1289 188.792L93.6908 188.973L79.9255 156.336L80.3637 156.155L94.1289 188.792Z" fill="#008554"/>
<path d="M98.2539 189.517L97.8522 189.662C96.9394 187.486 89.5274 168.775 88.3225 165.511C87.8478 164.206 87.3001 162.864 86.7889 161.595C86.4725 160.748 86.156 159.902 85.8396 159.056C85.3649 157.86 84.8538 156.917 84.8538 156.917L85.2554 156.663C85.2919 156.699 85.7666 157.678 86.2412 158.911C86.582 159.757 86.9106 160.603 87.2271 161.45C87.7383 162.719 88.2494 164.06 88.7606 165.366C89.8925 168.485 97.3776 187.414 98.2539 189.517Z" fill="#008554"/>
<path d="M100.738 187.74L100.264 187.667C100.154 186.688 99.4969 185.31 98.8761 184.005C98.511 183.28 98.1824 182.591 97.9633 181.974C97.7443 181.394 97.5252 180.826 97.3061 180.27C96.6489 178.457 95.9186 176.607 95.1884 174.758C92.8881 169.246 90.5148 163.625 88.1779 158.186L86.6079 154.414L87.0095 154.269L88.6161 158.004C90.9164 163.444 93.3262 169.101 95.59 174.613C96.3568 176.462 97.0505 178.312 97.7443 180.125C97.9633 180.681 98.1702 181.249 98.365 181.829C98.5841 182.409 98.9127 183.098 99.2778 183.787C99.935 185.165 100.629 186.58 100.738 187.74Z" fill="#008554"/>
<path d="M99.0565 191.366L98.0707 190.242C97.3404 189.372 95.2227 187.486 94.4924 187.813C94.2734 187.934 94.2125 188.32 94.3099 188.973H93.8352C93.6892 188.03 93.8231 187.462 94.2369 187.269C95.0402 186.834 96.7197 188.212 97.7056 189.154C97.4865 188.139 97.596 187.232 98.0342 186.761C98.5454 186.253 99.3486 186.398 100.188 187.124L99.9693 187.595C99.3121 187.015 98.7644 186.906 98.3993 187.269C97.9612 187.74 97.9612 188.864 98.4358 189.952L99.0565 191.366Z" fill="#008554"/>
<path d="M87.2646 155.176C86.6074 155.357 85.8406 155.357 85.0373 155.357C83.2847 155.357 81.4956 155.393 80.6193 157.025L80.1812 156.626C81.2035 154.777 83.1752 154.777 84.9278 154.741C85.6946 154.741 86.4613 154.741 87.082 154.596L87.2646 155.176Z" fill="#008554"/>
<path d="M87.9969 157.569C85.9156 156.59 82.7025 156.953 81.4611 159.056L81.0229 158.621C82.3739 156.373 85.8426 155.974 88.1064 157.026L87.9969 157.569Z" fill="#008554"/>
<path d="M87.2281 154.668L86.8264 154.85C85.4024 151.55 84.1245 149.591 82.8466 148.866C82.2258 148.504 81.6051 148.504 81.0209 148.794C80.0716 149.265 79.0127 150.571 79.0127 151.84C79.0127 152.855 79.9621 155.393 80.4732 156.409L80.0716 156.663C79.5239 155.575 78.5015 152.891 78.5381 151.695C78.5381 150.208 79.67 148.757 80.7288 148.25C81.4591 147.887 82.2258 147.923 82.9561 148.358C84.3801 149.12 85.7676 151.223 87.2281 154.668Z" fill="#008554"/>
<path d="M80.8759 154.596C80.4134 153.75 80.243 152.94 80.3647 152.166C80.5473 151.115 81.2775 150.244 82.2999 149.809L82.5555 150.353C81.8252 150.679 81.0219 151.368 80.8394 152.384C80.742 152.988 80.888 153.641 81.2775 154.342L80.8759 154.596Z" fill="#008554"/>
<path d="M101.357 198.002L101.102 197.93C100.152 197.64 98.9475 195.972 97.9982 194.594C97.7426 194.231 97.5236 193.905 97.341 193.651C96.9394 193.143 96.5012 192.636 96.063 192.128C95.1502 191.149 94.2374 190.097 93.6167 188.792L94.0549 188.61C94.6025 189.807 95.4423 190.75 96.3186 191.729C96.7568 192.237 97.2314 192.744 97.6331 193.288C97.8522 193.542 98.0712 193.905 98.3268 194.267C99.0936 195.355 100.116 196.806 100.883 197.241C100.883 196.902 100.883 196.564 100.883 196.226C100.883 193.397 100.883 190.206 100.189 187.595L100.664 187.522C101.357 190.242 101.357 193.506 101.357 196.371C101.357 196.806 101.357 197.253 101.357 197.712V198.002Z" fill="#008554"/>
<path fill-rule="evenodd" clip-rule="evenodd" d="M88.0324 172.546C87.9837 172.57 87.9228 172.582 87.8498 172.582L87.5212 172.619L87.5577 172.22C87.5577 171.494 87.7037 170.842 87.8498 170.189C87.8985 170.02 87.9471 169.838 87.9958 169.645C87.9471 169.718 87.9106 169.79 87.8863 169.863C87.7037 170.262 87.4846 170.66 87.1925 170.951L86.9735 171.132L86.8274 170.805C86.5718 170.262 86.6449 169.718 86.7909 169.174C86.7422 169.246 86.6814 169.307 86.6084 169.355L86.3893 169.609L86.2432 169.21C86.0241 168.666 86.0972 167.977 86.2432 167.324C86.1459 167.445 86.0241 167.53 85.8781 167.578L85.513 167.723V167.252C85.513 166.744 85.6225 166.273 85.8051 165.874C85.6225 166.019 85.44 166.128 85.2209 166.164L84.8923 166.2V165.801C84.9288 165.257 85.0748 164.822 85.1844 164.351C85.2574 164.157 85.3182 163.964 85.3669 163.77C85.2574 163.915 85.1844 164.061 85.1113 164.242C84.8923 164.568 84.7097 164.931 84.3446 165.112L84.089 165.221L83.9794 164.858C83.8699 164.387 83.9064 163.879 84.016 163.408C83.9429 163.456 83.8577 163.492 83.7604 163.517L83.4683 163.589L83.4317 163.226C83.3831 162.961 83.3709 162.707 83.3952 162.465C83.2735 162.61 83.1397 162.719 82.9936 162.791L82.5554 163.045L82.6285 162.392C82.6772 161.981 82.7624 161.595 82.8841 161.232C82.7867 161.305 82.6893 161.377 82.592 161.45L81.9712 161.776L82.2268 161.014C82.2512 160.918 82.2755 160.833 82.2999 160.761L81.8252 160.543C81.9712 159.636 82.665 158.549 83.2127 158.041L83.7239 157.569L83.6143 158.404C83.5413 158.875 83.4317 159.274 83.2492 159.709C83.2979 159.636 83.3344 159.576 83.3587 159.528C83.5413 159.238 83.6873 158.984 83.8334 158.73L85.1478 156.917L84.2715 159.129C84.1742 159.346 84.0768 159.576 83.9794 159.818C83.7238 160.398 83.4683 161.014 83.2857 161.667C83.5778 161.232 83.8334 160.652 84.016 160.18L84.0525 160.072L84.5271 160.398C84.4541 160.664 84.3689 160.918 84.2715 161.16C84.089 161.667 83.9064 162.211 83.8699 162.719C84.089 162.465 84.235 162.102 84.3811 161.74C84.5271 161.45 84.6367 161.123 84.8192 160.869L85.513 159.89L85.2574 161.196C85.1844 161.595 85.0383 161.994 84.8558 162.429C84.6367 163.045 84.4176 163.698 84.3811 164.278C84.4906 164.133 84.6002 163.988 84.6732 163.807C84.8923 163.444 85.1478 162.973 85.6225 162.9L85.9876 162.828L85.9511 163.263C85.9146 163.77 85.8051 164.242 85.659 164.677C85.586 164.895 85.5252 165.112 85.4765 165.33C85.6955 165.112 85.9146 164.786 86.0972 164.496C86.1945 164.326 86.2919 164.169 86.3893 164.024L86.9004 163.299L86.8274 164.351C86.7909 164.858 86.5718 165.33 86.3893 165.801C86.3163 166.055 86.2067 166.273 86.1337 166.526C86.1824 166.454 86.231 166.381 86.2797 166.309C86.4258 166.091 86.5353 165.874 86.7179 165.692L87.3386 165.076L87.1195 166.091C87.083 166.273 87.01 166.526 86.937 166.78C86.7909 167.288 86.6084 167.941 86.5718 168.448C86.7179 168.267 86.8274 168.013 86.937 167.796C87.0587 167.602 87.1804 167.409 87.3021 167.215L87.7037 166.526L87.7402 167.469C87.7767 167.904 87.5942 168.376 87.4481 168.847C87.3021 169.282 87.1561 169.718 87.1195 170.08C87.2656 169.899 87.3386 169.681 87.4481 169.5C87.6672 169.065 87.8863 168.593 88.2514 168.34L88.6531 167.977V168.666C88.6165 169.282 88.4705 169.863 88.3245 170.443C88.2514 170.805 88.1784 171.132 88.1054 171.494L88.58 171.676C88.507 172.111 88.3245 172.437 88.0324 172.546ZM82.6285 159.818C82.5189 160.072 82.4094 160.325 82.3364 160.579C82.4094 160.386 82.4946 160.192 82.592 159.999C82.592 159.951 82.6041 159.89 82.6285 159.818Z" fill="#008554"/>
<path d="M88.1763 174.504L88.1033 173.888C88.0303 173.162 88.2128 172.473 88.3589 171.821C88.4684 171.313 88.578 170.878 88.578 170.406L89.0526 170.552C89.0526 171.059 88.9431 171.603 88.797 172.111C88.7605 172.401 88.6875 172.727 88.6145 173.017C88.6632 172.969 88.6997 172.909 88.724 172.836L89.1622 173.199C88.9431 173.67 88.7605 173.96 88.5049 174.178L88.1763 174.504Z" fill="#008554"/>
<path d="M95.4416 186.978C95.186 186.616 95.1495 186.144 95.113 185.673C94.967 185.927 94.7844 186.144 94.5288 186.253L94.2732 186.362L94.1637 185.999C94.0542 185.564 94.0542 185.093 94.0907 184.658C94.0176 184.839 93.8716 184.948 93.7255 185.02L93.4699 185.129L93.3604 184.803C93.2874 184.537 93.2509 184.283 93.2509 184.041C93.1413 184.186 93.0318 184.295 92.8492 184.368L92.5571 184.476L92.4841 184.077C92.3746 183.497 92.4476 182.953 92.5206 182.409C92.4476 182.506 92.3502 182.591 92.2285 182.663L92.0094 182.772L91.8999 182.446C91.6078 181.757 91.6808 180.995 91.7538 180.234C91.6443 180.524 91.4983 180.85 91.2062 180.995L91.0236 181.104L90.8776 180.85C90.5124 180.27 90.5124 179.581 90.6585 178.928C90.5611 179.001 90.4759 179.061 90.4029 179.109L89.9647 179.363L90.0012 178.747C90.0743 178.13 90.1473 177.514 90.2568 176.897C90.2568 176.849 90.269 176.801 90.2933 176.752C90.1473 176.934 90.0012 177.079 89.8187 177.151L89.5631 177.26L89.4901 176.897C89.271 176.1 89.4171 175.302 89.5996 174.54C89.624 174.371 89.6483 174.202 89.6726 174.033C89.6483 174.105 89.624 174.166 89.5996 174.214C89.4536 174.54 89.3075 174.903 89.0519 175.12L88.6138 175.519V174.794C88.6503 173.815 88.9059 172.546 89.271 171.821L89.6726 172.219C89.4901 172.582 89.344 173.126 89.2345 173.706C89.4171 173.344 89.5631 173.017 89.8917 172.836L90.2568 172.618V173.162C90.2934 173.706 90.1838 174.25 90.0743 174.794C89.9647 175.302 89.8552 175.846 89.8552 176.353C90.1108 176.027 90.3299 175.447 90.4394 175.048L91.1331 173.199L90.9871 175.157C90.9506 175.809 90.841 176.498 90.7315 177.151C90.6828 177.393 90.6463 177.635 90.622 177.876C90.7315 177.659 90.841 177.405 90.9141 177.151C91.0236 176.934 91.0966 176.68 91.2062 176.498L91.6808 175.519L91.6443 176.752C91.6443 177.187 91.4983 177.659 91.3522 178.167C91.1697 178.856 90.9506 179.653 91.0966 180.27C91.2427 180.125 91.3157 179.907 91.3887 179.69C91.5348 179.327 91.6443 178.964 91.9364 178.747L92.3381 178.457V179.073C92.3381 179.436 92.3015 179.835 92.265 180.234C92.192 180.814 92.119 181.394 92.192 181.865C92.4111 181.612 92.5206 181.14 92.6302 180.778C92.7032 180.608 92.764 180.451 92.8127 180.306L93.2144 179.218L93.2874 180.524C93.2874 181.068 93.1778 181.612 93.1048 182.155C92.9953 182.627 92.9223 183.062 92.9223 183.497C93.0318 183.28 93.1413 182.99 93.2144 182.699C93.3239 182.337 93.4334 181.974 93.616 181.72L94.1272 180.959L94.0542 182.01C94.0542 182.337 93.9811 182.627 93.9081 182.953C93.8351 183.352 93.7255 183.787 93.762 184.15C93.8107 184.053 93.8594 183.932 93.9081 183.787C94.0176 183.57 94.0907 183.352 94.2367 183.135L94.6018 182.699L94.6749 183.425C94.7114 183.751 94.6749 184.114 94.6384 184.513C94.6018 184.839 94.5653 185.165 94.5653 185.492C94.7114 185.274 94.8574 185.057 94.967 184.803L95.2956 184.186L95.4781 184.803C95.5877 185.129 95.5877 185.455 95.5877 185.746C95.6242 186.108 95.6242 186.471 95.7702 186.616L95.4416 186.978Z" fill="#008554"/>
<path d="M100.849 195.246C100.703 195.21 100.557 195.138 100.374 195.101C100.155 194.993 99.936 194.92 99.7535 194.92C99.6074 194.956 99.2058 195.21 99.1327 195.246L98.9502 195.029L99.0232 195.319L98.7676 195.21L98.6946 194.92C98.7676 194.666 99.4613 194.34 99.6074 194.34C99.8995 194.304 100.192 194.412 100.447 194.521C100.593 194.594 100.703 194.63 100.812 194.666L100.849 195.246Z" fill="#008554"/>
</g>
</svg>
