<svg width="24" height="24" viewBox="0 0 24 24" fill="none" xmlns="http://www.w3.org/2000/svg">
<g clip-path="url(#clip0_535_14310)">
<mask id="mask0_535_14310" style="mask-type:luminance" maskUnits="userSpaceOnUse" x="0" y="0" width="24" height="23">
<path d="M23.3687 0.236816H0.631836V22.9737H23.3687V0.236816Z" fill="white"/>
</mask>
<g mask="url(#mask0_535_14310)">
<path d="M11.3227 18.9403C11.7361 18.6777 12.264 18.6777 12.6774 18.9403L16.4565 21.3413C17.4057 21.9443 18.6104 21.0996 18.3671 20.0017L17.3196 15.2748C17.2217 14.8332 17.3674 14.3729 17.7017 14.0681L21.2455 10.8365C22.0578 10.0958 21.6017 8.74284 20.5066 8.64504L15.9651 8.23946C15.4922 8.19723 15.0829 7.89345 14.9057 7.45309L13.1718 3.14683C12.7469 2.09168 11.2531 2.09168 10.8283 3.14683L9.09442 7.45309C8.91712 7.89345 8.50787 8.19723 8.03504 8.23946L3.49336 8.64504C2.39838 8.74284 1.94229 10.0958 2.7546 10.8366L6.29843 14.0681C6.63267 14.3729 6.77842 14.8332 6.68055 15.2748L5.63296 20.0017C5.38964 21.0996 6.59437 21.9443 7.54356 21.3413L11.3227 18.9403Z" fill="#F2BA00"/>
<g filter="url(#filter0_i_535_14310)">
<path d="M11.3227 18.9403C11.7361 18.6777 12.264 18.6777 12.6774 18.9403L16.4565 21.3413C17.4057 21.9443 18.6104 21.0996 18.3671 20.0017L17.3196 15.2748C17.2217 14.8332 17.3674 14.3729 17.7017 14.0681L21.2455 10.8365C22.0578 10.0958 21.6017 8.74284 20.5066 8.64504L15.9651 8.23946C15.4922 8.19723 15.0829 7.89345 14.9057 7.45309L13.1718 3.14683C12.7469 2.09168 11.2531 2.09168 10.8283 3.14683L9.09442 7.45309C8.91712 7.89345 8.50787 8.19723 8.03504 8.23946L3.49336 8.64504C2.39838 8.74284 1.94229 10.0958 2.7546 10.8366L6.29843 14.0681C6.63267 14.3729 6.77842 14.8332 6.68055 15.2748L5.63296 20.0017C5.38964 21.0996 6.59437 21.9443 7.54356 21.3413L11.3227 18.9403Z" fill="#F2BA00"/>
</g>
</g>
</g>
<defs>
<filter id="filter0_i_535_14310" x="2.34082" y="2.35547" width="20.5184" height="20.3865" filterUnits="userSpaceOnUse" color-interpolation-filters="sRGB">
<feFlood flood-opacity="0" result="BackgroundImageFix"/>
<feBlend mode="normal" in="SourceGraphic" in2="BackgroundImageFix" result="shape"/>
<feColorMatrix in="SourceAlpha" type="matrix" values="0 0 0 0 0 0 0 0 0 0 0 0 0 0 0 0 0 0 127 0" result="hardAlpha"/>
<feOffset dx="1.2" dy="1.2"/>
<feGaussianBlur stdDeviation="1.2"/>
<feComposite in2="hardAlpha" operator="arithmetic" k2="-1" k3="1"/>
<feColorMatrix type="matrix" values="0 0 0 0 0 0 0 0 0 0 0 0 0 0 0 0 0 0 0.15 0"/>
<feBlend mode="normal" in2="shape" result="effect1_innerShadow_535_14310"/>
</filter>
<clipPath id="clip0_535_14310">
<rect width="22.7368" height="24" fill="white" transform="translate(0.631836)"/>
</clipPath>
</defs>
</svg>
