<svg width="45" height="40" viewBox="0 0 45 40" fill="none" xmlns="http://www.w3.org/2000/svg">
<path d="M1.56746 37.6592C2.21421 37.6592 2.7385 38.1831 2.7385 38.8295C2.7385 39.4758 2.21421 39.9998 1.56746 39.9998C0.920716 39.9998 0.396423 39.4758 0.396423 38.8295C0.396423 38.1831 0.920716 37.6592 1.56746 37.6592Z" fill="#CED1D9"/>
<path d="M7.53231 37.6594C8.17906 37.6594 8.70335 38.1834 8.70335 38.8297C8.70335 39.476 8.17906 40 7.53231 40C6.88556 40 6.36127 39.476 6.36127 38.8297C6.36127 38.1834 6.88556 37.6594 7.53231 37.6594Z" fill="#CED1D9"/>
<path d="M13.5011 37.6594C14.1478 37.6594 14.6721 38.1834 14.6721 38.8297C14.6721 39.476 14.1478 40 13.5011 40C12.8543 40 12.33 39.476 12.33 38.8297C12.33 38.1834 12.8543 37.6594 13.5011 37.6594Z" fill="#CED1D9"/>
<path d="M19.4659 37.6594C20.1126 37.6594 20.6369 38.1834 20.6369 38.8297C20.6369 39.476 20.1126 40 19.4659 40C18.8192 40 18.2949 39.476 18.2949 38.8297C18.2949 38.1834 18.8192 37.6594 19.4659 37.6594Z" fill="#CED1D9"/>
<path d="M25.4307 37.6594C26.0775 37.6594 26.6018 38.1834 26.6018 38.8297C26.6018 39.476 26.0775 40 25.4307 40C24.784 40 24.2597 39.476 24.2597 38.8297C24.2597 38.1834 24.784 37.6594 25.4307 37.6594Z" fill="#CED1D9"/>
<path d="M31.3995 37.6594C32.0462 37.6594 32.5705 38.1834 32.5705 38.8297C32.5705 39.476 32.0462 40 31.3995 40C30.7527 40 30.2285 39.476 30.2285 38.8297C30.2285 38.1834 30.7527 37.6594 31.3995 37.6594Z" fill="#CED1D9"/>
<path d="M37.3643 37.6594C38.0111 37.6594 38.5354 38.1834 38.5354 38.8297C38.5354 39.476 38.0111 40 37.3643 40C36.7176 40 36.1933 39.476 36.1933 38.8297C36.1933 38.1834 36.7176 37.6594 37.3643 37.6594Z" fill="#CED1D9"/>
<path d="M43.3292 37.6594C43.9759 37.6594 44.5002 38.1834 44.5002 38.8297C44.5002 39.476 43.9759 40 43.3292 40C42.6824 40 42.1581 39.476 42.1581 38.8297C42.1581 38.1834 42.6824 37.6594 43.3292 37.6594Z" fill="#CED1D9"/>
<path d="M1.56746 32.2796C2.21421 32.2796 2.7385 32.8035 2.7385 33.4498C2.7385 34.0962 2.21421 34.6201 1.56746 34.6201C0.920716 34.6201 0.396423 34.0962 0.396423 33.4498C0.396423 32.8035 0.920716 32.2796 1.56746 32.2796Z" fill="#CED1D9"/>
<path d="M7.53231 32.2798C8.17906 32.2798 8.70335 32.8037 8.70335 33.4501C8.70335 34.0964 8.17906 34.6204 7.53231 34.6204C6.88556 34.6204 6.36127 34.0964 6.36127 33.4501C6.36127 32.8037 6.88556 32.2798 7.53231 32.2798Z" fill="#CED1D9"/>
<path d="M13.5011 32.2796C14.1478 32.2796 14.6721 32.8035 14.6721 33.4498C14.6721 34.0962 14.1478 34.6201 13.5011 34.6201C12.8543 34.6201 12.33 34.0962 12.33 33.4498C12.33 32.8035 12.8543 32.2796 13.5011 32.2796Z" fill="#CED1D9"/>
<path d="M19.4659 32.2796C20.1126 32.2796 20.6369 32.8035 20.6369 33.4498C20.6369 34.0962 20.1126 34.6201 19.4659 34.6201C18.8192 34.6201 18.2949 34.0962 18.2949 33.4498C18.2949 32.8035 18.8192 32.2796 19.4659 32.2796Z" fill="#CED1D9"/>
<path d="M25.4307 32.2796C26.0775 32.2796 26.6018 32.8035 26.6018 33.4498C26.6018 34.0962 26.0775 34.6201 25.4307 34.6201C24.784 34.6201 24.2597 34.0962 24.2597 33.4498C24.2597 32.8035 24.784 32.2796 25.4307 32.2796Z" fill="#CED1D9"/>
<path d="M31.3995 32.2798C32.0462 32.2798 32.5705 32.8037 32.5705 33.4501C32.5705 34.0964 32.0462 34.6204 31.3995 34.6204C30.7527 34.6204 30.2285 34.0964 30.2285 33.4501C30.2285 32.8037 30.7527 32.2798 31.3995 32.2798Z" fill="#CED1D9"/>
<path d="M37.3643 32.2796C38.0111 32.2796 38.5354 32.8035 38.5354 33.4498C38.5354 34.0962 38.0111 34.6201 37.3643 34.6201C36.7176 34.6201 36.1933 34.0962 36.1933 33.4498C36.1933 32.8035 36.7176 32.2796 37.3643 32.2796Z" fill="#CED1D9"/>
<path d="M43.3292 32.2796C43.9759 32.2796 44.5002 32.8035 44.5002 33.4498C44.5002 34.0962 43.9759 34.6201 43.3292 34.6201C42.6824 34.6201 42.1581 34.0962 42.1581 33.4498C42.1581 32.8035 42.6824 32.2796 43.3292 32.2796Z" fill="#CED1D9"/>
<path d="M1.56746 26.8994C2.21421 26.8994 2.7385 27.4234 2.7385 28.0697C2.7385 28.716 2.21421 29.24 1.56746 29.24C0.920716 29.24 0.396423 28.716 0.396423 28.0697C0.396423 27.4234 0.920716 26.8994 1.56746 26.8994Z" fill="#CED1D9"/>
<path d="M7.53231 26.8997C8.17906 26.8997 8.70335 27.4236 8.70335 28.07C8.70335 28.7163 8.17906 29.2402 7.53231 29.2402C6.88556 29.2402 6.36127 28.7163 6.36127 28.07C6.36127 27.4236 6.88556 26.8997 7.53231 26.8997Z" fill="#CED1D9"/>
<path d="M13.5011 26.8997C14.1478 26.8997 14.6721 27.4236 14.6721 28.07C14.6721 28.7163 14.1478 29.2402 13.5011 29.2402C12.8543 29.2402 12.33 28.7163 12.33 28.07C12.33 27.4236 12.8543 26.8997 13.5011 26.8997Z" fill="#CED1D9"/>
<path d="M19.4659 26.8997C20.1126 26.8997 20.6369 27.4236 20.6369 28.07C20.6369 28.7163 20.1126 29.2402 19.4659 29.2402C18.8192 29.2402 18.2949 28.7163 18.2949 28.07C18.2949 27.4236 18.8192 26.8997 19.4659 26.8997Z" fill="#CED1D9"/>
<path d="M25.4307 26.8997C26.0775 26.8997 26.6018 27.4236 26.6018 28.07C26.6018 28.7163 26.0775 29.2402 25.4307 29.2402C24.784 29.2402 24.2597 28.7163 24.2597 28.07C24.2597 27.4236 24.784 26.8997 25.4307 26.8997Z" fill="#CED1D9"/>
<path d="M31.3995 26.8997C32.0462 26.8997 32.5705 27.4236 32.5705 28.07C32.5705 28.7163 32.0462 29.2402 31.3995 29.2402C30.7527 29.2402 30.2285 28.7163 30.2285 28.07C30.2285 27.4236 30.7527 26.8997 31.3995 26.8997Z" fill="#CED1D9"/>
<path d="M37.3643 26.8997C38.0111 26.8997 38.5354 27.4236 38.5354 28.07C38.5354 28.7163 38.0111 29.2402 37.3643 29.2402C36.7176 29.2402 36.1933 28.7163 36.1933 28.07C36.1933 27.4236 36.7176 26.8997 37.3643 26.8997Z" fill="#CED1D9"/>
<path d="M43.3292 26.8997C43.9759 26.8997 44.5002 27.4236 44.5002 28.07C44.5002 28.7163 43.9759 29.2402 43.3292 29.2402C42.6824 29.2402 42.1581 28.7163 42.1581 28.07C42.1581 27.4236 42.6824 26.8997 43.3292 26.8997Z" fill="#CED1D9"/>
<path d="M1.56753 21.5198C2.21427 21.5198 2.73857 22.0437 2.73857 22.6901C2.73857 23.3364 2.21427 23.8604 1.56753 23.8604C0.920777 23.8604 0.396484 23.3364 0.396484 22.6901C0.396484 22.0437 0.920777 21.5198 1.56753 21.5198Z" fill="#CED1D9"/>
<path d="M7.53237 21.5198C8.17912 21.5198 8.70341 22.0437 8.70341 22.6901C8.70341 23.3364 8.17912 23.8604 7.53237 23.8604C6.88562 23.8604 6.36133 23.3364 6.36133 22.6901C6.36133 22.0437 6.88562 21.5198 7.53237 21.5198Z" fill="#CED1D9"/>
<path d="M13.5011 21.5198C14.1479 21.5198 14.6722 22.0437 14.6722 22.6901C14.6722 23.3364 14.1479 23.8604 13.5011 23.8604C12.8544 23.8604 12.3301 23.3364 12.3301 22.6901C12.3301 22.0437 12.8544 21.5198 13.5011 21.5198Z" fill="#CED1D9"/>
<path d="M1.56746 16.1397C2.21421 16.1397 2.7385 16.6636 2.7385 17.3099C2.7385 17.9563 2.21421 18.4802 1.56746 18.4802C0.920716 18.4802 0.396423 17.9563 0.396423 17.3099C0.396423 16.6636 0.920716 16.1397 1.56746 16.1397Z" fill="#CED1D9"/>
<path d="M7.53231 16.1399C8.17906 16.1399 8.70335 16.6639 8.70335 17.3102C8.70335 17.9565 8.17906 18.4805 7.53231 18.4805C6.88556 18.4805 6.36127 17.9565 6.36127 17.3102C6.36127 16.6639 6.88556 16.1399 7.53231 16.1399Z" fill="#CED1D9"/>
<path d="M13.5011 16.1399C14.1478 16.1399 14.6721 16.6639 14.6721 17.3102C14.6721 17.9565 14.1478 18.4805 13.5011 18.4805C12.8543 18.4805 12.33 17.9565 12.33 17.3102C12.33 16.6639 12.8543 16.1399 13.5011 16.1399Z" fill="#CED1D9"/>
<path d="M1.56753 10.76C2.21427 10.76 2.73857 11.284 2.73857 11.9303C2.73857 12.5766 2.21427 13.1006 1.56753 13.1006C0.920777 13.1006 0.396484 12.5766 0.396484 11.9303C0.396484 11.284 0.920777 10.76 1.56753 10.76Z" fill="#CED1D9"/>
<path d="M7.53237 10.76C8.17912 10.76 8.70341 11.284 8.70341 11.9303C8.70341 12.5766 8.17912 13.1006 7.53237 13.1006C6.88562 13.1006 6.36133 12.5766 6.36133 11.9303C6.36133 11.284 6.88562 10.76 7.53237 10.76Z" fill="#CED1D9"/>
<path d="M13.5011 10.76C14.1479 10.76 14.6722 11.284 14.6722 11.9303C14.6722 12.5766 14.1479 13.1006 13.5011 13.1006C12.8544 13.1006 12.3301 12.5766 12.3301 11.9303C12.3301 11.284 12.8544 10.76 13.5011 10.76Z" fill="#CED1D9"/>
<path d="M1.56746 5.37989C2.21421 5.37989 2.7385 5.90384 2.7385 6.55017C2.7385 7.1965 2.21421 7.72046 1.56746 7.72046C0.920716 7.72046 0.396423 7.1965 0.396423 6.55017C0.396423 5.90384 0.920716 5.37989 1.56746 5.37989Z" fill="#CED1D9"/>
<path d="M7.53231 5.37989C8.17906 5.37989 8.70335 5.90384 8.70335 6.55017C8.70335 7.1965 8.17906 7.72046 7.53231 7.72046C6.88556 7.72046 6.36127 7.1965 6.36127 6.55017C6.36127 5.90384 6.88556 5.37989 7.53231 5.37989Z" fill="#CED1D9"/>
<path d="M13.5011 5.37989C14.1478 5.37989 14.6721 5.90384 14.6721 6.55017C14.6721 7.1965 14.1478 7.72046 13.5011 7.72046C12.8543 7.72046 12.33 7.1965 12.33 6.55017C12.33 5.90384 12.8543 5.37989 13.5011 5.37989Z" fill="#CED1D9"/>
<path d="M1.56753 0.000254829C2.21427 0.000254829 2.73857 0.52421 2.73857 1.17054C2.73857 1.81687 2.21427 2.34082 1.56753 2.34082C0.920777 2.34082 0.396484 1.81687 0.396484 1.17054C0.396484 0.52421 0.920777 0.000254829 1.56753 0.000254829Z" fill="#CED1D9"/>
<path d="M7.53237 0.000254829C8.17912 0.000254829 8.70341 0.52421 8.70341 1.17054C8.70341 1.81687 8.17912 2.34082 7.53237 2.34082C6.88562 2.34082 6.36133 1.81687 6.36133 1.17054C6.36133 0.52421 6.88562 0.000254829 7.53237 0.000254829Z" fill="#CED1D9"/>
<path d="M13.5011 0.000254829C14.1479 0.000254829 14.6722 0.52421 14.6722 1.17054C14.6722 1.81687 14.1479 2.34082 13.5011 2.34082C12.8544 2.34082 12.3301 1.81687 12.3301 1.17054C12.3301 0.52421 12.8544 0.000254829 13.5011 0.000254829Z" fill="#CED1D9"/>
</svg>
