<svg width="158" height="80" viewBox="0 0 158 80" fill="none" xmlns="http://www.w3.org/2000/svg">
<path style="mix-blend-mode:multiply" d="M140.205 1.99234C140.205 7.27011 140.205 12.5454 140.205 17.8181C143.091 17.8181 145.431 11.856 146.757 12.2196C144.884 7.78021 142.858 4.79536 141.42 3.03021C140.67 2.32567 140.205 1.99234 140.205 1.99234ZM141.42 3.03021C142.858 4.79536 144.884 7.78021 146.757 12.2196C147.132 12.3257 147.629 11.9545 148.024 12.0529C145.775 7.74233 143.405 4.97718 141.866 3.46203C141.71 3.30547 141.562 3.16152 141.42 3.03021ZM140.205 17.8181C140.205 25.1817 140.205 32.5479 140.205 39.9166C147.851 39.9166 149.512 39.9166 151.7 39.9166C151.7 27.4469 149.381 18.4166 146.757 12.2196C145.431 11.856 143.091 17.8181 140.205 17.8181ZM146.757 12.2196C149.381 18.4166 151.7 27.4469 151.7 39.9166C152.477 39.9166 153.26 39.9166 154.05 39.9166C154.05 27.0908 151.163 18.0681 148.024 12.0529C147.629 11.9545 147.132 12.3257 146.757 12.2196ZM140.205 39.9166C140.205 47.3307 140.205 54.7449 140.205 62.159C143.051 62.159 145.39 68.106 146.707 67.7348C149.35 61.5302 151.7 52.4696 151.7 39.9166C149.512 39.9166 147.851 39.9166 140.205 39.9166ZM151.7 39.9166C151.7 52.4696 149.35 61.5302 146.707 67.7348C147.071 67.6287 147.568 67.9999 147.963 67.9014C151.123 61.8863 154.05 52.8332 154.05 39.9166C153.26 39.9166 152.477 39.9166 151.7 39.9166ZM140.205 62.159C140.205 67.3863 140.205 72.6135 140.205 77.8408C140.205 77.8408 140.67 77.5151 141.42 76.8105C142.838 75.0605 144.843 72.106 146.707 67.7348C145.39 68.106 143.051 62.159 140.205 62.159ZM146.707 67.7348C144.843 72.106 142.838 75.0605 141.42 76.8105C141.562 76.6792 141.71 76.5353 141.866 76.3787C143.385 74.8711 145.735 72.1439 147.963 67.9014C147.568 67.9999 147.071 67.6287 146.707 67.7348Z" fill="url(#paint0_linear_524_14120)"/>
<path d="M146.707 65.7739V14.2186C146.707 13.2335 145.785 10.6392 140.205 10V70C145.785 69.3608 146.707 66.759 146.707 65.7739Z" fill="url(#paint1_linear_524_14120)"/>
<path style="mix-blend-mode:multiply" d="M134.918 15.1211C146.707 15.1211 146.707 9.69688 146.707 9.69688C146.707 12.2726 146.707 13.4014 146.707 15.9772C145.259 15.9772 143.324 19.8863 132.74 19.9014C114.793 19.9317 96.8054 19.9848 78.7265 19.9772C79.7596 17.9166 80.3167 17.1817 81.3295 15.1211C99.1956 15.1211 117.058 15.1211 134.918 15.1211ZM25.7054 15.1211C46.5796 15.1211 60.1919 15.1211 81.3295 15.1211C80.3167 17.1817 79.7596 17.9166 78.7265 19.9772C57.3965 19.962 47.2886 20.9772 26.4042 20.9999C26.0193 20.9999 25.6345 21.0151 25.2395 21.0529C25.7661 20.3863 22.2922 18.8863 24.5508 15.1817C24.9356 15.1413 25.3205 15.1211 25.7054 15.1211ZM24.5508 15.1817C22.2922 18.8863 25.7661 20.3863 25.2395 21.0529C24.0443 21.1438 17.6028 22.159 14.1187 23.4317C15.5772 21.6792 17.0356 19.9241 18.4941 18.1666C19.8513 16.5226 22.0795 15.4393 24.5508 15.1817ZM132.74 19.9014C143.324 19.8863 145.259 15.9772 146.707 15.9772C146.707 22.6514 146.707 30.7726 146.707 37.4469C121.64 37.4469 96.5724 37.4317 71.5051 37.4393C71.2215 36.0757 71.576 34.659 72.2445 33.2726C74.3714 28.8484 76.6908 24.0302 78.7265 19.9772C96.8054 19.9848 114.793 19.9317 132.74 19.9014ZM26.4042 20.9999C47.2886 20.9772 57.3965 19.962 78.7265 19.9772C76.6908 24.0302 74.3714 28.8484 72.2445 33.2726C71.576 34.659 71.2215 36.0757 71.5051 37.4393C49.1319 37.4393 32.8356 37.4469 10.4624 37.4469C10.4624 37.0226 10.827 36.1287 11.9513 35.0454C15.5063 31.6363 22.2111 24.856 25.2395 21.0529C25.6345 21.0151 26.0193 20.9999 26.4042 20.9999ZM25.2395 21.0529C22.2111 24.856 15.5063 31.6363 11.9513 35.0454C10.827 36.1287 10.4624 37.0226 10.4624 37.4469C9.82434 37.4469 8.50766 37.4317 4.12215 37.4317C4.11201 36.1817 4.56779 34.9317 5.46921 33.8408C8.35237 30.3711 11.2355 26.9014 14.1187 23.4317C17.6028 22.159 24.0443 21.1438 25.2395 21.0529ZM146.707 37.4469C146.707 44.9822 146.707 52.5201 146.707 60.0605C146.14 60.0605 144.823 55.6363 133.5 55.6363C115.573 55.6363 97.4434 55.6741 79.5165 55.6741C76.5591 49.6741 72.7711 43.6211 71.5051 37.4393C96.5724 37.4317 121.64 37.4469 146.707 37.4469ZM71.5051 37.4393C72.7711 43.6211 76.5591 49.6741 79.5165 55.6741C58.2675 55.6817 46.8328 55.6817 25.9687 55.6817C25.5838 55.6817 25.1888 55.6741 24.8141 55.6363C21.6034 51.0151 15.2733 43.1438 11.7183 39.5757C10.7764 38.6363 10.4624 37.8484 10.4624 37.4469C32.8356 37.4469 49.1319 37.4393 71.5051 37.4393ZM10.4624 37.4469C10.4624 37.8484 10.7764 38.6363 11.7183 39.5757C15.2733 43.1438 21.6034 51.0151 24.8141 55.6363C24.176 55.5681 19.6487 55.2196 15.6379 53.1893C12.2484 49.1135 8.85878 45.0353 5.46921 40.9545C4.57793 39.8787 4.13228 38.659 4.12215 37.4317C8.50766 37.4317 9.82434 37.4469 10.4624 37.4469ZM133.5 55.6363C144.823 55.6363 146.14 60.0605 146.707 60.0605C146.707 61.7373 146.707 63.4166 146.707 65.0984C146.707 65.0984 146.707 59.6666 134.918 59.6666C117.058 59.6666 99.1956 59.6666 81.3295 59.6666C80.7927 58.3408 80.1749 57.0075 79.5165 55.6741C97.4434 55.6741 115.573 55.6363 133.5 55.6363ZM25.9687 55.6817C46.8328 55.6817 58.2675 55.6817 79.5165 55.6741C80.1749 57.0075 80.7927 58.3408 81.3295 59.6666C60.1919 59.6666 49.1825 59.6666 28.4298 59.6666C28.045 59.6666 27.6601 59.6211 27.2752 59.606C26.151 57.7802 25.2597 56.2802 24.8141 55.6363C25.1888 55.6741 25.5838 55.6817 25.9687 55.6817ZM24.8141 55.6363C25.2597 56.2802 26.151 57.7802 27.2752 59.606C22.9707 59.4393 19.8513 58.2651 18.4941 56.6211C17.542 55.4797 16.59 54.3358 15.6379 53.1893C19.6487 55.2196 24.176 55.5681 24.8141 55.6363Z" fill="url(#paint2_linear_524_14120)"/>
<path d="M22.6416 58.0513L10.0122 43.3448C8.27197 41.3046 8.27197 38.6955 10.0122 36.6628L22.6416 21.9562C24.1681 20.1739 26.8039 19.0968 29.6432 19.0968L135.268 19.0968C146.707 19.0968 146.707 14 146.707 14V66C146.707 66 146.707 60.9107 135.268 60.9107L29.6432 60.9107C26.8039 60.9107 24.1681 59.8337 22.6416 58.0513Z" fill="url(#paint3_linear_524_14120)"/>
<path d="M40.83 46V44.608L45.278 40.384C45.6513 40.032 45.9287 39.7227 46.11 39.456C46.2913 39.1893 46.4087 38.944 46.462 38.72C46.526 38.4853 46.558 38.2667 46.558 38.064C46.558 37.552 46.382 37.1573 46.03 36.88C45.678 36.592 45.1607 36.448 44.478 36.448C43.934 36.448 43.438 36.544 42.99 36.736C42.5527 36.928 42.174 37.2213 41.854 37.616L40.398 36.496C40.8353 35.9093 41.422 35.456 42.158 35.136C42.9047 34.8053 43.7367 34.64 44.654 34.64C45.4647 34.64 46.1687 34.7733 46.766 35.04C47.374 35.296 47.838 35.664 48.158 36.144C48.4887 36.624 48.654 37.1947 48.654 37.856C48.654 38.2187 48.606 38.5813 48.51 38.944C48.414 39.296 48.2327 39.6693 47.966 40.064C47.6993 40.4587 47.31 40.9013 46.798 41.392L42.974 45.024L42.542 44.24H49.086V46H40.83ZM52.2785 46L56.9025 35.632L57.4465 36.56H51.0945L52.0865 35.552V38.464H50.1505V34.8H58.8545V36.192L54.5025 46H52.2785ZM63.6916 46.16C62.9023 46.16 62.129 46.048 61.3716 45.824C60.625 45.5893 59.9956 45.2693 59.4836 44.864L60.3636 43.248C60.769 43.5787 61.2596 43.8453 61.8356 44.048C62.4223 44.2507 63.0303 44.352 63.6596 44.352C64.3956 44.352 64.9716 44.1973 65.3876 43.888C65.8143 43.5787 66.0276 43.1627 66.0276 42.64C66.0276 42.288 65.937 41.9787 65.7556 41.712C65.585 41.4453 65.2756 41.2427 64.8276 41.104C64.3903 40.9653 63.7876 40.896 63.0196 40.896H60.3156L60.8916 34.8H67.4676V36.544H61.6596L62.7476 35.552L62.3156 40.112L61.2276 39.136H63.4836C64.593 39.136 65.4836 39.2853 66.1556 39.584C66.8383 39.872 67.3343 40.2773 67.6436 40.8C67.9636 41.312 68.1236 41.8987 68.1236 42.56C68.1236 43.2107 67.9636 43.808 67.6436 44.352C67.3236 44.896 66.833 45.3333 66.1716 45.664C65.521 45.9947 64.6943 46.16 63.6916 46.16ZM70.8551 46L78.5031 34.8H80.0711L72.4231 46H70.8551ZM71.7831 40.832C71.2605 40.832 70.7965 40.704 70.3911 40.448C69.9858 40.192 69.6711 39.8347 69.4471 39.376C69.2231 38.9173 69.1111 38.3787 69.1111 37.76C69.1111 37.1413 69.2231 36.6027 69.4471 36.144C69.6711 35.6853 69.9858 35.328 70.3911 35.072C70.7965 34.816 71.2605 34.688 71.7831 34.688C72.3271 34.688 72.7965 34.816 73.1911 35.072C73.5965 35.328 73.9111 35.6853 74.1351 36.144C74.3591 36.6027 74.4711 37.1413 74.4711 37.76C74.4711 38.3787 74.3591 38.9173 74.1351 39.376C73.9111 39.8347 73.5965 40.192 73.1911 40.448C72.7965 40.704 72.3271 40.832 71.7831 40.832ZM71.7991 39.712C72.2258 39.712 72.5565 39.5467 72.7911 39.216C73.0365 38.8747 73.1591 38.3893 73.1591 37.76C73.1591 37.1307 73.0365 36.6507 72.7911 36.32C72.5565 35.9787 72.2258 35.808 71.7991 35.808C71.3725 35.808 71.0311 35.9787 70.7751 36.32C70.5298 36.6613 70.4071 37.1413 70.4071 37.76C70.4071 38.3787 70.5298 38.8587 70.7751 39.2C71.0311 39.5413 71.3725 39.712 71.7991 39.712ZM79.1271 46.112C78.6045 46.112 78.1405 45.984 77.7351 45.728C77.3298 45.472 77.0151 45.1147 76.7911 44.656C76.5671 44.1973 76.4551 43.6587 76.4551 43.04C76.4551 42.4213 76.5671 41.8827 76.7911 41.424C77.0151 40.9653 77.3298 40.608 77.7351 40.352C78.1405 40.096 78.6045 39.968 79.1271 39.968C79.6711 39.968 80.1405 40.096 80.5351 40.352C80.9405 40.608 81.2551 40.9653 81.4791 41.424C81.7031 41.8827 81.8151 42.4213 81.8151 43.04C81.8151 43.6587 81.7031 44.1973 81.4791 44.656C81.2551 45.1147 80.9405 45.472 80.5351 45.728C80.1405 45.984 79.6711 46.112 79.1271 46.112ZM79.1271 44.992C79.5538 44.992 79.8898 44.8213 80.1351 44.48C80.3805 44.1387 80.5031 43.6587 80.5031 43.04C80.5031 42.4213 80.3805 41.9413 80.1351 41.6C79.8898 41.2587 79.5538 41.088 79.1271 41.088C78.7111 41.088 78.3751 41.2587 78.1191 41.6C77.8738 41.9307 77.7511 42.4107 77.7511 43.04C77.7511 43.6693 77.8738 44.1547 78.1191 44.496C78.3751 44.8267 78.7111 44.992 79.1271 44.992ZM96.3866 34.8H98.4666V46H96.3866V34.8ZM90.5946 46H88.5146V34.8H90.5946V46ZM96.5466 41.2H90.4186V39.424H96.5466V41.2ZM101.396 46V37.456H103.396V46H101.396ZM102.404 36.048C102.03 36.048 101.721 35.9307 101.476 35.696C101.241 35.4613 101.124 35.1787 101.124 34.848C101.124 34.5067 101.241 34.224 101.476 34C101.721 33.7653 102.03 33.648 102.404 33.648C102.777 33.648 103.081 33.76 103.316 33.984C103.561 34.1973 103.684 34.4693 103.684 34.8C103.684 35.152 103.566 35.4507 103.332 35.696C103.097 35.9307 102.788 36.048 102.404 36.048ZM107.773 44.096L107.821 41.584L112.285 37.456H114.685L110.893 41.264L109.837 42.144L107.773 44.096ZM106.141 46V34.128H108.141V46H106.141ZM112.589 46L109.469 42.144L110.733 40.544L115.021 46H112.589ZM120.105 46.112C119.156 46.112 118.324 45.9253 117.609 45.552C116.905 45.168 116.356 44.6453 115.961 43.984C115.577 43.3227 115.385 42.5707 115.385 41.728C115.385 40.8747 115.572 40.1227 115.945 39.472C116.329 38.8107 116.852 38.2933 117.513 37.92C118.185 37.5467 118.948 37.36 119.801 37.36C120.633 37.36 121.374 37.5413 122.025 37.904C122.676 38.2667 123.188 38.7787 123.561 39.44C123.934 40.1013 124.121 40.88 124.121 41.776C124.121 41.8613 124.116 41.9573 124.105 42.064C124.105 42.1707 124.1 42.272 124.089 42.368H116.969V41.04H123.033L122.249 41.456C122.26 40.9653 122.158 40.5333 121.945 40.16C121.732 39.7867 121.438 39.4933 121.065 39.28C120.702 39.0667 120.281 38.96 119.801 38.96C119.31 38.96 118.878 39.0667 118.505 39.28C118.142 39.4933 117.854 39.792 117.641 40.176C117.438 40.5493 117.337 40.992 117.337 41.504V41.824C117.337 42.336 117.454 42.7893 117.689 43.184C117.924 43.5787 118.254 43.8827 118.681 44.096C119.108 44.3093 119.598 44.416 120.153 44.416C120.633 44.416 121.065 44.3413 121.449 44.192C121.833 44.0427 122.174 43.808 122.473 43.488L123.545 44.72C123.161 45.168 122.676 45.5147 122.089 45.76C121.513 45.9947 120.852 46.112 120.105 46.112Z" fill="white"/>
<defs>
<linearGradient id="paint0_linear_524_14120" x1="57.9045" y1="618.955" x2="57.9045" y2="2781.48" gradientUnits="userSpaceOnUse">
<stop stop-color="white"/>
<stop offset="1" stop-color="#878787"/>
</linearGradient>
<linearGradient id="paint1_linear_524_14120" x1="-489.951" y1="-6816.45" x2="-856.343" y2="-6816.45" gradientUnits="userSpaceOnUse">
<stop stop-color="#810000"/>
<stop offset="0.48" stop-color="#AC0000"/>
<stop offset="1" stop-color="#810000"/>
</linearGradient>
<linearGradient id="paint2_linear_524_14120" x1="-3033.51" y1="710.135" x2="-3033.51" y2="9553.9" gradientUnits="userSpaceOnUse">
<stop stop-color="white"/>
<stop offset="1" stop-color="#878787"/>
</linearGradient>
<linearGradient id="paint3_linear_524_14120" x1="-15033.3" y1="-9417.34" x2="-199674" y2="-9417.34" gradientUnits="userSpaceOnUse">
<stop stop-color="#BA3030"/>
<stop offset="0.23" stop-color="#C33716"/>
<stop offset="0.99" stop-color="#B90000"/>
</linearGradient>
</defs>
</svg>
