<svg width="48" height="48" viewBox="0 0 48 48" fill="none" xmlns="http://www.w3.org/2000/svg">
<path d="M46.5174 15.6675H1.49023C4.8793 6.51937 13.6787 0 24.0043 0C34.3299 0 43.1293 6.51937 46.5174 15.6675Z" fill="#E88032"/>
<path d="M46.5166 32.332H1.48944C-0.49648 26.9548 -0.49648 21.0452 1.48944 15.668H46.5166C46.8507 16.5693 47.1296 17.49 47.3519 18.4252C48.4473 23.042 48.1568 27.8795 46.5166 32.332Z" fill="white"/>
<path d="M24.0043 48.0005C19.1005 48.0006 14.3143 46.4992 10.2894 43.698C6.26439 40.8969 3.19369 36.9304 1.49023 32.332H46.5174C46.1687 33.2762 45.7601 34.1971 45.294 35.0892C43.2656 38.9826 40.2082 42.2451 36.4544 44.5216C32.7007 46.7981 28.3944 48.0014 24.0043 48.0005Z" fill="#00B564"/>
<path d="M27.1449 0.203438C18.203 1.3725 10.8099 7.4625 7.77148 15.6722H1.49023C4.8793 6.51937 13.6787 2.89933e-07 24.0043 2.89933e-07C25.0545 -0.000161983 26.1035 0.0677932 27.1449 0.203438Z" fill="#D8712B"/>
<path d="M6.28475 24.0005C6.28146 26.8439 6.78463 29.6651 7.77069 32.332H1.48944C-0.49648 26.9548 -0.49648 21.0452 1.48944 15.668H7.77069C7.43853 16.5694 7.16145 17.4901 6.941 18.4252C6.50504 20.2515 6.28479 22.1228 6.28475 24.0005Z" fill="#E2E2E2"/>
<path d="M27.1449 47.797C26.1036 47.9327 25.0545 48.0007 24.0043 48.0005C19.1005 48.0006 14.3143 46.4992 10.2894 43.698C6.26439 40.8969 3.19369 36.9304 1.49023 32.332H7.77148C9.28833 36.4287 11.8939 40.034 15.3077 42.7598C18.7215 45.4855 22.8141 47.2284 27.1449 47.8008V47.797Z" fill="#049B53"/>
<path d="M38.2606 10.5681C39.1035 10.5681 39.7869 9.8848 39.7869 9.04187C39.7869 8.19895 39.1035 7.51562 38.2606 7.51562C37.4177 7.51562 36.7344 8.19895 36.7344 9.04187C36.7344 9.8848 37.4177 10.5681 38.2606 10.5681Z" fill="#EF9050"/>
<path d="M36.0126 7.87477C36.6096 7.87477 37.0935 7.39081 37.0935 6.79383C37.0935 6.19684 36.6096 5.71289 36.0126 5.71289C35.4156 5.71289 34.9316 6.19684 34.9316 6.79383C34.9316 7.39081 35.4156 7.87477 36.0126 7.87477Z" fill="#EF9050"/>
<path d="M24.0025 31.4874C28.1374 31.4874 31.4894 28.1354 31.4894 24.0005C31.4894 19.8657 28.1374 16.5137 24.0025 16.5137C19.8676 16.5137 16.5156 19.8657 16.5156 24.0005C16.5156 28.1354 19.8676 31.4874 24.0025 31.4874Z" fill="#3E436D"/>
<path d="M29.8967 23.3904L29.547 23.3126C29.547 23.2845 29.5405 23.2563 29.5367 23.2291L29.8536 23.0623C29.9073 23.0346 29.9499 22.9893 29.9743 22.9341C29.9986 22.8788 30.0034 22.8168 29.9877 22.7585L29.8067 22.0816C29.791 22.0233 29.7559 21.972 29.7072 21.9362C29.6585 21.9004 29.599 21.8823 29.5386 21.8848L29.1814 21.8998C29.1711 21.8735 29.1608 21.8473 29.1495 21.821L29.412 21.5801C29.4567 21.5394 29.4861 21.4847 29.4953 21.425C29.5045 21.3653 29.493 21.3042 29.4627 21.252L29.112 20.6445C29.0819 20.5921 29.0348 20.5517 28.9785 20.5299C28.9222 20.508 28.8602 20.5061 28.8027 20.5245L28.4614 20.6313C28.4445 20.6088 28.4267 20.5873 28.4098 20.5657L28.602 20.2629C28.6345 20.2118 28.6485 20.1512 28.6419 20.091C28.6352 20.0308 28.6083 19.9747 28.5655 19.932L28.0705 19.437C28.0277 19.3942 27.9716 19.3672 27.9114 19.3606C27.8513 19.3539 27.7906 19.368 27.7395 19.4004L27.4367 19.5935L27.3711 19.542L27.478 19.2007C27.4963 19.1432 27.4944 19.0811 27.4726 19.0248C27.4507 18.9686 27.4103 18.9214 27.358 18.8913L26.7505 18.5407C26.6982 18.5104 26.6372 18.4989 26.5775 18.5081C26.5178 18.5173 26.463 18.5467 26.4223 18.5913L26.1814 18.8538L26.1027 18.822L26.1177 18.4648C26.1202 18.4044 26.102 18.3449 26.0662 18.2962C26.0305 18.2474 25.9792 18.2123 25.9208 18.1966L25.2439 18.0157C25.1857 18.0002 25.124 18.0051 25.0689 18.0294C25.0138 18.0538 24.9688 18.0963 24.9411 18.1498L24.7742 18.4685L24.6908 18.4582L24.613 18.1085C24.6001 18.0495 24.5674 17.9966 24.5203 17.9588C24.4733 17.9209 24.4146 17.9003 24.3542 17.9004H23.653C23.5925 17.9003 23.5339 17.9209 23.4868 17.9588C23.4398 17.9966 23.4071 18.0495 23.3942 18.1085L23.3164 18.4582L23.233 18.4685L23.0661 18.1498C23.0384 18.0961 22.9932 18.0535 22.9379 18.0291C22.8826 18.0047 22.8207 18 22.7623 18.0157L22.0855 18.1966C22.0271 18.2123 21.9758 18.2474 21.94 18.2962C21.9042 18.3449 21.8861 18.4044 21.8886 18.4648L21.9036 18.822L21.8248 18.8538L21.5839 18.5913C21.5432 18.5467 21.4885 18.5173 21.4288 18.5081C21.3691 18.4989 21.308 18.5104 21.2558 18.5407L20.6483 18.8913C20.596 18.9214 20.5555 18.9686 20.5337 19.0248C20.5119 19.0811 20.51 19.1432 20.5283 19.2007L20.6352 19.542L20.5695 19.5935L20.2677 19.406C20.2166 19.3736 20.1559 19.3595 20.0958 19.3662C20.0356 19.3728 19.9795 19.3998 19.9367 19.4426L19.4417 19.9376C19.3989 19.9804 19.372 20.0365 19.3653 20.0966C19.3587 20.1568 19.3727 20.2174 19.4052 20.2685L19.5973 20.5713C19.5805 20.5929 19.5627 20.6145 19.5458 20.637L19.2045 20.5301C19.147 20.5118 19.085 20.5137 19.0287 20.5355C18.9724 20.5573 18.9253 20.5978 18.8952 20.6501L18.5445 21.2576C18.5142 21.3098 18.5027 21.3709 18.5119 21.4306C18.5211 21.4903 18.5505 21.545 18.5952 21.5857L18.8577 21.8266C18.8464 21.8529 18.8361 21.8791 18.8258 21.9054L18.4686 21.8904C18.4082 21.8879 18.3487 21.906 18.3 21.9418C18.2513 21.9776 18.2162 22.0289 18.2005 22.0873L18.0195 22.7641C18.0052 22.8217 18.0107 22.8823 18.035 22.9364C18.0593 22.9905 18.1011 23.0348 18.1536 23.0623L18.4705 23.2282C18.4705 23.2554 18.4639 23.2835 18.4602 23.3116L18.1105 23.3895C18.0514 23.4023 17.9986 23.435 17.9607 23.4821C17.9228 23.5292 17.9022 23.5878 17.9023 23.6482V24.3495C17.9022 24.4099 17.9228 24.4685 17.9607 24.5156C17.9986 24.5627 18.0514 24.5953 18.1105 24.6082L18.4602 24.686C18.4602 24.7141 18.4667 24.7423 18.4705 24.7695L18.1536 24.9373C18.0999 24.965 18.0573 25.0102 18.0329 25.0655C18.0085 25.1207 18.0038 25.1827 18.0195 25.241L18.2005 25.9179C18.2162 25.9763 18.2513 26.0276 18.3 26.0634C18.3487 26.0991 18.4082 26.1173 18.4686 26.1148L18.8258 26.0998C18.8361 26.126 18.8464 26.1523 18.8577 26.1785L18.5952 26.4195C18.5505 26.4601 18.5211 26.5149 18.5119 26.5746C18.5027 26.6343 18.5142 26.6953 18.5445 26.7476L18.8952 27.3551C18.9253 27.4074 18.9724 27.4478 19.0287 27.4697C19.085 27.4915 19.147 27.4934 19.2045 27.4751L19.5458 27.3682C19.5627 27.3907 19.5805 27.4123 19.5973 27.4338L19.4098 27.7357C19.3774 27.7868 19.3634 27.8474 19.37 27.9076C19.3767 27.9677 19.4036 28.0238 19.4464 28.0666L19.9414 28.5616C19.9842 28.6044 20.0403 28.6314 20.1005 28.638C20.1606 28.6447 20.2212 28.6306 20.2723 28.5982L20.5752 28.406L20.6408 28.4576L20.5339 28.7988C20.5156 28.8563 20.5175 28.9184 20.5393 28.9747C20.5612 29.031 20.6016 29.0781 20.6539 29.1082L21.2614 29.4588C21.3137 29.4891 21.3747 29.5007 21.4344 29.4914C21.4941 29.4822 21.5489 29.4529 21.5895 29.4082L21.8305 29.1457L21.9092 29.1776L21.8942 29.5348C21.8917 29.5952 21.9099 29.6546 21.9456 29.7034C21.9814 29.7521 22.0327 29.7872 22.0911 29.8029L22.768 29.9838C22.8255 29.9981 22.8862 29.9927 22.9402 29.9684C22.9943 29.9441 23.0386 29.9023 23.0661 29.8498L23.232 29.5329L23.3155 29.5432L23.3933 29.8929C23.4061 29.9519 23.4388 30.0048 23.4859 30.0426C23.533 30.0805 23.5916 30.1011 23.652 30.101H24.3533C24.4137 30.1011 24.4723 30.0805 24.5194 30.0426C24.5665 30.0048 24.5992 29.9519 24.612 29.8929L24.6898 29.5432L24.7733 29.5329L24.9411 29.8498C24.9688 29.9035 25.014 29.946 25.0693 29.9704C25.1246 29.9948 25.1865 29.9995 25.2448 29.9838L25.9217 29.8029C25.9801 29.7872 26.0314 29.7521 26.0672 29.7034C26.103 29.6546 26.1211 29.5952 26.1186 29.5348L26.1036 29.1776L26.1823 29.1457L26.4233 29.4082C26.464 29.4529 26.5187 29.4822 26.5784 29.4914C26.6381 29.5007 26.6992 29.4891 26.7514 29.4588L27.3589 29.1082C27.4112 29.0781 27.4517 29.031 27.4735 28.9747C27.4953 28.9184 27.4972 28.8563 27.4789 28.7988L27.372 28.4576L27.4377 28.406L27.7405 28.5982C27.7916 28.6306 27.8522 28.6447 27.9124 28.638C27.9725 28.6314 28.0286 28.6044 28.0714 28.5616L28.5664 28.0666C28.6092 28.0238 28.6362 27.9677 28.6428 27.9076C28.6494 27.8474 28.6354 27.7868 28.603 27.7357L28.4098 27.4329C28.4267 27.4113 28.4445 27.3898 28.4614 27.3673L28.8027 27.4741C28.8602 27.4925 28.9222 27.4906 28.9785 27.4687C29.0348 27.4469 29.0819 27.4065 29.112 27.3541L29.4627 26.7466C29.493 26.6944 29.5045 26.6333 29.4953 26.5736C29.4861 26.5139 29.4567 26.4592 29.412 26.4185L29.1495 26.1776C29.1608 26.1513 29.1711 26.1251 29.1814 26.0988L29.5386 26.1138C29.599 26.1163 29.6585 26.0982 29.7072 26.0624C29.7559 26.0266 29.791 25.9753 29.8067 25.917L29.9877 25.2401C30.0031 25.1819 29.9983 25.1201 29.9739 25.0651C29.9495 25.01 29.9071 24.9649 29.8536 24.9373L29.5348 24.7704C29.5348 24.7432 29.5414 24.7151 29.5452 24.687L29.8948 24.6091C29.9539 24.5963 30.0067 24.5636 30.0446 24.5165C30.0825 24.4694 30.1031 24.4108 30.103 24.3504V23.6491C30.1032 23.589 30.0828 23.5306 30.0453 23.4835C30.0078 23.4365 29.9554 23.4036 29.8967 23.3904Z" fill="white"/>
<path d="M25.1538 23.9999C25.1557 24.0218 25.1557 24.0437 25.1538 24.0655C25.1521 24.1258 25.1446 24.1858 25.1313 24.2446C25.113 24.3298 25.0847 24.4126 25.0469 24.4912C25.0161 24.557 24.979 24.6198 24.9363 24.6787C24.885 24.7478 24.8259 24.8107 24.7601 24.8662C24.7179 24.9039 24.6724 24.9378 24.6241 24.9674C24.5509 25.0145 24.4722 25.0526 24.3898 25.0809C24.308 25.1114 24.2226 25.1313 24.1357 25.1399C24.0498 25.1512 23.9628 25.1512 23.8769 25.1399C23.8086 25.1331 23.7411 25.1196 23.6754 25.0996C23.592 25.0754 23.512 25.0407 23.4373 24.9965C23.381 24.965 23.3277 24.9286 23.2779 24.8877C23.21 24.833 23.1492 24.7701 23.0969 24.7002C23.0495 24.6425 23.0086 24.5796 22.9751 24.5127C22.9359 24.4348 22.9066 24.3523 22.8879 24.2671C22.8711 24.2015 22.8613 24.1342 22.8588 24.0665C22.857 24.0446 22.857 24.0227 22.8588 24.0009C22.8592 23.9355 22.8648 23.8703 22.8757 23.8059C22.8847 23.7474 22.8995 23.6899 22.9198 23.6343C22.9462 23.5514 22.9834 23.4723 23.0304 23.399C23.0619 23.3447 23.099 23.2938 23.141 23.2471C23.1979 23.181 23.2624 23.1219 23.3332 23.0709C23.4677 22.9732 23.6214 22.9052 23.7841 22.8712C23.8169 22.8655 23.8479 22.8609 23.8779 22.8571C23.9079 22.8534 23.9632 22.8496 24.0073 22.8496C24.0513 22.8496 24.0944 22.8496 24.1366 22.8571C24.1883 22.8618 24.2395 22.8712 24.2894 22.8852C24.3744 22.9058 24.4564 22.9373 24.5332 22.979C24.5961 23.0104 24.6555 23.0485 24.7104 23.0924C24.7807 23.144 24.8438 23.2049 24.8979 23.2734C24.9371 23.3181 24.9717 23.3668 25.001 23.4187C25.0457 23.4932 25.0813 23.5728 25.1069 23.6559C25.1231 23.7051 25.1353 23.7556 25.1435 23.8068C25.1521 23.8708 25.1556 23.9354 25.1538 23.9999Z" fill="#3E436D"/>
<path d="M25.1538 23.9999C25.1557 24.0218 25.1557 24.0437 25.1538 24.0655C25.1521 24.1258 25.1446 24.1858 25.1313 24.2446C25.113 24.3298 25.0847 24.4126 25.0469 24.4912C25.0161 24.557 24.979 24.6198 24.9363 24.6787C24.885 24.7478 24.8259 24.8107 24.7601 24.8662C24.7179 24.9039 24.6724 24.9378 24.6241 24.9674C24.5509 25.0145 24.4722 25.0526 24.3898 25.0809C24.308 25.1114 24.2226 25.1313 24.1357 25.1399C24.0498 25.1512 23.9628 25.1512 23.8769 25.1399C23.8086 25.1331 23.7411 25.1196 23.6754 25.0996C23.592 25.0754 23.512 25.0407 23.4373 24.9965C23.381 24.965 23.3277 24.9286 23.2779 24.8877C23.21 24.833 23.1492 24.7701 23.0969 24.7002C23.0495 24.6425 23.0086 24.5796 22.9751 24.5127C22.9359 24.4348 22.9066 24.3523 22.8879 24.2671C22.8711 24.2015 22.8613 24.1342 22.8588 24.0665C22.857 24.0446 22.857 24.0227 22.8588 24.0009C22.8592 23.9355 22.8648 23.8703 22.8757 23.8059C22.8847 23.7474 22.8995 23.6899 22.9198 23.6343C22.9462 23.5514 22.9834 23.4723 23.0304 23.399C23.0619 23.3447 23.099 23.2938 23.141 23.2471C23.1979 23.181 23.2624 23.1219 23.3332 23.0709C23.4677 22.9732 23.6214 22.9052 23.7841 22.8712C23.8169 22.8655 23.8479 22.8609 23.8779 22.8571C23.9079 22.8534 23.9632 22.8496 24.0073 22.8496C24.0513 22.8496 24.0944 22.8496 24.1366 22.8571C24.1883 22.8618 24.2395 22.8712 24.2894 22.8852C24.3744 22.9058 24.4564 22.9373 24.5332 22.979C24.5961 23.0104 24.6555 23.0485 24.7104 23.0924C24.7807 23.144 24.8438 23.2049 24.8979 23.2734C24.9371 23.3181 24.9717 23.3668 25.001 23.4187C25.0457 23.4932 25.0813 23.5728 25.1069 23.6559C25.1231 23.7051 25.1353 23.7556 25.1435 23.8068C25.1521 23.8708 25.1556 23.9354 25.1538 23.9999Z" fill="#3E436D"/>
<path d="M22.4095 24.0653H19.1948C19.1602 24.0653 19.1271 24.0516 19.1026 24.0271C19.0782 24.0027 19.0645 23.9696 19.0645 23.935C19.0645 23.9004 19.0782 23.8673 19.1026 23.8429C19.1271 23.8184 19.1602 23.8047 19.1948 23.8047H22.417C22.4107 23.8695 22.4082 23.9346 22.4095 23.9997V24.0653Z" fill="#3E436D"/>
<path d="M22.5558 24.6784L19.5905 25.8737C19.5752 25.8797 19.559 25.8828 19.5426 25.883C19.5123 25.8831 19.483 25.8726 19.4596 25.8533C19.4362 25.8341 19.4203 25.8073 19.4145 25.7776C19.4087 25.7478 19.4135 25.717 19.428 25.6904C19.4425 25.6638 19.4658 25.6431 19.4939 25.6318L22.4658 24.4355C22.4893 24.5187 22.5194 24.5999 22.5558 24.6784Z" fill="#3E436D"/>
<path d="M19.4817 22.1085C19.495 22.0767 19.5202 22.0514 19.5519 22.0379C19.5836 22.0244 19.6193 22.0238 19.6514 22.0363L22.6045 23.226C22.5618 23.3018 22.5257 23.3811 22.4967 23.4631L19.5549 22.2781C19.5228 22.2652 19.4971 22.2401 19.4834 22.2084C19.4697 22.1766 19.4691 22.1407 19.4817 22.1085Z" fill="#3E436D"/>
<path d="M22.956 25.208L20.6703 27.4918C20.6581 27.5043 20.6436 27.5142 20.6275 27.521C20.6113 27.5278 20.594 27.5312 20.5766 27.5312C20.5507 27.5312 20.5255 27.5235 20.5039 27.5092C20.4824 27.4949 20.4656 27.4746 20.4556 27.4508C20.4455 27.4269 20.4428 27.4007 20.4476 27.3753C20.4525 27.3499 20.4647 27.3265 20.4828 27.308L22.7694 25.0215C22.8262 25.0888 22.8886 25.1512 22.956 25.208Z" fill="#3E436D"/>
<path d="M20.5348 20.6449C20.522 20.6328 20.5117 20.6183 20.5047 20.6022C20.4977 20.5861 20.4941 20.5687 20.4941 20.5511C20.4941 20.5335 20.4977 20.5161 20.5047 20.5C20.5117 20.4839 20.522 20.4694 20.5348 20.4574C20.5592 20.4334 20.592 20.4199 20.6262 20.4199C20.6604 20.4199 20.6932 20.4334 20.7176 20.4574L23.007 22.7467C22.9398 22.801 22.8772 22.8606 22.8195 22.9249L20.5348 20.6449Z" fill="#3E436D"/>
<path d="M23.2659 25.418C23.3422 25.4592 23.4222 25.4931 23.5049 25.5192L22.3274 28.4423C22.3174 28.4665 22.3005 28.4871 22.2788 28.5016C22.2571 28.5161 22.2317 28.5239 22.2056 28.5239C22.1889 28.5234 22.1724 28.5203 22.1568 28.5145C22.125 28.5011 22.0997 28.4756 22.0864 28.4437C22.0731 28.4119 22.0728 28.376 22.0856 28.3439L23.2659 25.418Z" fill="#3E436D"/>
<path d="M22.1465 19.5193C22.1384 19.5032 22.1338 19.4857 22.133 19.4677C22.1321 19.4497 22.135 19.4318 22.1414 19.415C22.1479 19.3982 22.1578 19.3829 22.1705 19.3702C22.1831 19.3574 22.1984 19.3474 22.2151 19.3409C22.2319 19.3344 22.2498 19.3314 22.2678 19.3322C22.2858 19.3329 22.3034 19.3374 22.3195 19.3454C22.3356 19.3534 22.3499 19.3646 22.3614 19.3784C22.373 19.3922 22.3815 19.4083 22.3865 19.4256L23.6053 22.4528C23.521 22.4739 23.4388 22.5024 23.3596 22.5381L22.1465 19.5193Z" fill="#3E436D"/>
<path d="M24.0024 22.4056C23.9584 22.4056 23.9152 22.4056 23.873 22.4103V19.1909C23.873 19.1566 23.8867 19.1237 23.9109 19.0994C23.9352 19.0752 23.9681 19.0615 24.0024 19.0615C24.0367 19.0615 24.0696 19.0752 24.0939 19.0994C24.1182 19.1237 24.1318 19.1566 24.1318 19.1909V22.4056C24.0896 22.4056 24.0465 22.4056 24.0024 22.4056Z" fill="#3E436D"/>
<path d="M24.0024 25.5984C24.0465 25.5984 24.0896 25.5984 24.1318 25.5938V28.8084C24.1318 28.8428 24.1182 28.8757 24.0939 28.8999C24.0696 28.9242 24.0367 28.9378 24.0024 28.9378C23.9681 28.9378 23.9352 28.9242 23.9109 28.8999C23.8867 28.8757 23.873 28.8428 23.873 28.8084V25.5938C23.9152 25.5938 23.9584 25.5984 24.0024 25.5984Z" fill="#3E436D"/>
<path d="M24.6979 22.5583C24.6196 22.5207 24.5384 22.4893 24.4551 22.4645L25.6804 19.4233C25.6853 19.4058 25.6938 19.3895 25.7054 19.3755C25.7169 19.3615 25.7313 19.35 25.7476 19.3419C25.7638 19.3338 25.7816 19.3291 25.7997 19.3283C25.8179 19.3274 25.836 19.3304 25.853 19.3369C25.8699 19.3435 25.8853 19.3535 25.8981 19.3664C25.911 19.3793 25.921 19.3947 25.9275 19.4116C25.934 19.4286 25.9369 19.4467 25.936 19.4649C25.9351 19.483 25.9304 19.5008 25.9223 19.517L24.6979 22.5583Z" fill="#3E436D"/>
<path d="M25.9806 28.3428C25.9872 28.3587 25.9905 28.3758 25.9904 28.3931C25.9903 28.4103 25.9868 28.4273 25.9801 28.4432C25.9734 28.4591 25.9636 28.4734 25.9513 28.4855C25.939 28.4976 25.9244 28.507 25.9084 28.5134C25.8929 28.5194 25.8764 28.5226 25.8597 28.5228C25.8339 28.5226 25.8087 28.5148 25.7873 28.5003C25.7659 28.4858 25.7494 28.4652 25.7397 28.4413L24.5547 25.4994C24.6361 25.47 24.7149 25.4336 24.79 25.3906L25.9806 28.3428Z" fill="#3E436D"/>
<path d="M25.0254 22.7691L27.2885 20.5059C27.3134 20.4817 27.3469 20.4683 27.3816 20.4688C27.4163 20.4692 27.4494 20.4834 27.4737 20.5083C27.4979 20.5331 27.5113 20.5666 27.5108 20.6013C27.5104 20.6361 27.4962 20.6692 27.4713 20.6934L25.2101 22.9556C25.1539 22.8883 25.0921 22.8259 25.0254 22.7691Z" fill="#3E436D"/>
<path d="M27.5181 27.2623C27.543 27.2871 27.557 27.3209 27.557 27.356C27.557 27.3912 27.543 27.4249 27.5181 27.4498C27.4933 27.4746 27.4595 27.4886 27.4244 27.4886C27.3892 27.4886 27.3555 27.4746 27.3306 27.4498L25.0703 25.1895C25.1346 25.1318 25.1941 25.0691 25.2484 25.002L27.5181 27.2623Z" fill="#3E436D"/>
<path d="M25.4102 23.2483L28.4102 22.038C28.4413 22.0293 28.4747 22.0325 28.5036 22.047C28.5326 22.0615 28.5551 22.0862 28.5668 22.1164C28.5785 22.1466 28.5786 22.1801 28.5669 22.2103C28.5553 22.2405 28.5328 22.2653 28.5039 22.2799L25.5039 23.4874C25.4801 23.405 25.4487 23.325 25.4102 23.2483Z" fill="#3E436D"/>
<path d="M28.6456 25.8024C28.6358 25.8262 28.6191 25.8466 28.5978 25.8611C28.5765 25.8756 28.5514 25.8835 28.5256 25.8839C28.5087 25.8835 28.4919 25.8804 28.4759 25.8746L25.4609 24.6558C25.4962 24.5766 25.5254 24.4948 25.5481 24.4111L28.5744 25.6299C28.5904 25.6365 28.605 25.6461 28.6173 25.6584C28.6296 25.6706 28.6394 25.6852 28.646 25.7013C28.6526 25.7173 28.656 25.7345 28.6559 25.7519C28.6559 25.7692 28.6524 25.7864 28.6456 25.8024Z" fill="#3E436D"/>
<path d="M28.9421 23.9342C28.9421 23.969 28.9283 24.0024 28.9037 24.027C28.8791 24.0516 28.8457 24.0654 28.8109 24.0654H25.5962C25.5962 24.0439 25.5962 24.0214 25.5962 23.9998C25.5959 23.9346 25.5918 23.8695 25.584 23.8048H28.8062C28.8237 23.8041 28.8411 23.8068 28.8576 23.813C28.874 23.8191 28.8889 23.8285 28.9016 23.8406C28.9143 23.8527 28.9245 23.8672 28.9314 23.8833C28.9384 23.8994 28.942 23.9167 28.9421 23.9342Z" fill="#3E436D"/>
</svg>
