<svg width="52" height="52" viewBox="0 0 52 52" fill="none" xmlns="http://www.w3.org/2000/svg">
<path d="M45.4347 22.4683V29.38C45.4347 34.4067 41.3613 38.48 36.3347 38.48H28.6213C27.4297 38.48 26.4547 39.4333 26.4547 40.6467V42.4233C26.4547 43.615 27.4297 44.59 28.6213 44.59H33.518C34.363 44.59 35.0563 45.2617 35.0563 46.1283C35.0563 46.9733 34.363 47.6667 33.518 47.6667H16.3147C15.4697 47.6667 14.7763 46.9733 14.7763 46.1283C14.7763 45.2617 15.4697 44.59 16.3147 44.59H21.2113C22.403 44.59 23.378 43.615 23.378 42.4233V40.6467C23.378 39.4333 22.403 38.48 21.2113 38.48H13.4113C8.40634 38.48 4.33301 34.4067 4.33301 29.38V15.5783C4.33301 10.5733 8.40634 6.5 13.4113 6.5H22.7497C23.9413 6.5 24.9163 7.475 24.9163 8.66667V13.325C24.9163 17.5067 27.7113 20.3017 31.8713 20.3017H43.268C44.4597 20.3017 45.4347 21.2767 45.4347 22.4683Z" fill="#008554"/>
<path d="M47.6453 5.11349L45.197 6.82515V5.91515C45.197 3.85682 43.5287 2.21015 41.492 2.21015H32.2187C29.987 2.18849 28.167 4.00849 28.167 6.24015V13.3468C28.167 15.2102 29.0987 17.0518 31.872 17.0518H41.4703C43.5287 17.0518 45.1753 15.3835 45.1753 13.3468V12.4152L47.6237 14.1268C48.8587 14.9718 49.8337 14.4518 49.8337 12.9785V6.26182C49.8337 4.78849 48.8587 4.29015 47.6453 5.11349Z" fill="#008554"/>
</svg>
