<svg width="41" height="41" viewBox="0 0 41 41" fill="none" xmlns="http://www.w3.org/2000/svg">
<circle cx="20.0967" cy="20.0967" r="20.0967" fill="#008554"/>
<path d="M27.1833 17.0413C26.3083 13.1913 22.95 11.458 20 11.458C20 11.458 20 11.458 19.9917 11.458C17.0501 11.458 13.6834 13.183 12.8084 17.033C11.8334 21.333 14.4667 24.9746 16.8501 27.2662C17.7334 28.1162 18.8667 28.5412 20 28.5412C21.1334 28.5412 22.2667 28.1162 23.1417 27.2662C25.525 24.9746 28.1583 21.3413 27.1833 17.0413ZM20 21.2163C18.55 21.2163 17.3751 20.0413 17.3751 18.5913C17.3751 17.1413 18.55 15.9663 20 15.9663C21.45 15.9663 22.625 17.1413 22.625 18.5913C22.625 20.0413 21.45 21.2163 20 21.2163Z" fill="white"/>
</svg>
