<svg width="64" height="64" viewBox="0 0 64 64" fill="none" xmlns="http://www.w3.org/2000/svg">
<g id="vuesax/bulk/money-tick">
<g id="money-tick">
<path id="Vector" opacity="0.4" d="M58.6671 24.0003V40.0003C58.6671 49.3337 53.3337 53.3337 45.3337 53.3337H22.5338C23.4671 51.7603 24.0004 49.947 24.0004 48.0003C24.0004 42.107 19.2271 37.3337 13.3337 37.3337C10.1337 37.3337 7.28041 38.747 5.33374 40.9603V24.0003C5.33374 14.667 10.6671 10.667 18.6671 10.667H45.3337C53.3337 10.667 58.6671 14.667 58.6671 24.0003Z" fill="#008554"/>
<path id="Vector_2" d="M32.0004 38.6666C35.6823 38.6666 38.6671 35.6818 38.6671 31.9999C38.6671 28.318 35.6823 25.3333 32.0004 25.3333C28.3185 25.3333 25.3337 28.318 25.3337 31.9999C25.3337 35.6818 28.3185 38.6666 32.0004 38.6666Z" fill="#008554"/>
<g id="Group">
<path id="Vector_3" d="M49.3337 39.3332C48.2404 39.3332 47.3337 38.4265 47.3337 37.3332V26.6665C47.3337 25.5732 48.2404 24.6665 49.3337 24.6665C50.4271 24.6665 51.3337 25.5732 51.3337 26.6665V37.3332C51.3337 38.4265 50.4271 39.3332 49.3337 39.3332Z" fill="#008554"/>
</g>
<path id="Vector_4" d="M13.3332 37.3333C7.43984 37.3333 2.6665 42.1066 2.6665 47.9999C2.6665 49.9999 3.22647 51.8932 4.21313 53.4932C6.05313 56.5866 9.43984 58.6666 13.3332 58.6666C17.2265 58.6666 20.6132 56.5866 22.4532 53.4932C23.4399 51.8932 23.9998 49.9999 23.9998 47.9999C23.9998 42.1066 19.2265 37.3333 13.3332 37.3333ZM18.5865 47.1199L12.9065 52.3733C12.5332 52.72 12.0265 52.9067 11.5465 52.9067C11.0398 52.9067 10.5331 52.7199 10.1331 52.3199L7.49316 49.6799C6.71983 48.9066 6.71983 47.6266 7.49316 46.8533C8.2665 46.0799 9.54649 46.0799 10.3198 46.8533L11.5999 48.1332L15.8665 44.1866C16.6665 43.4399 17.9465 43.4932 18.6932 44.2932C19.4399 45.0932 19.3865 46.3732 18.5865 47.1199Z" fill="#008554"/>
</g>
</g>
</svg>
