<svg width="20" height="20" viewBox="0 0 20 20" fill="none" xmlns="http://www.w3.org/2000/svg">
<path d="M4.7868 13.3334C4.87846 12.9251 4.7118 12.3417 4.42013 12.0501L2.39513 10.0251C1.7618 9.39175 1.5118 8.71675 1.69513 8.13341C1.8868 7.55008 2.47846 7.15008 3.3618 7.00008L5.9618 6.56675C6.3368 6.50008 6.79513 6.16675 6.97013 5.82508L8.40346 2.95008C8.82013 2.12508 9.3868 1.66675 10.0035 1.66675C10.6201 1.66675 11.1868 2.12508 11.6035 2.95008L13.0368 5.82508C13.1451 6.04175 13.3701 6.25008 13.6118 6.39175L4.6368 15.3667C4.52013 15.4834 4.32013 15.3751 4.35346 15.2084L4.7868 13.3334Z" fill="#008554"/>
<path d="M15.5867 12.0501C15.2867 12.3501 15.12 12.9251 15.22 13.3334L15.795 15.8417C16.0367 16.8834 15.8867 17.6667 15.37 18.0417C15.1617 18.1917 14.9117 18.2667 14.62 18.2667C14.195 18.2667 13.695 18.1084 13.145 17.7834L10.7033 16.3334C10.32 16.1084 9.68667 16.1084 9.30334 16.3334L6.86167 17.7834C5.93667 18.3251 5.145 18.4167 4.63667 18.0417C4.445 17.9001 4.30334 17.7084 4.21167 17.4584L14.345 7.32508C14.7283 6.94174 15.27 6.76674 15.795 6.85841L16.6367 7.00008C17.52 7.15008 18.1117 7.55008 18.3033 8.13341C18.4867 8.71674 18.2367 9.39174 17.6033 10.0251L15.5867 12.0501Z" fill="#008554"/>
</svg>
