<svg width="24" height="25" viewBox="0 0 24 25" fill="none" xmlns="http://www.w3.org/2000/svg">
<path d="M10.05 3.03001L4.03002 6.96001C2.10002 8.22001 2.10002 11.04 4.03002 12.3L10.05 16.23C11.13 16.94 12.91 16.94 13.99 16.23L19.98 12.3C21.9 11.04 21.9 8.23001 19.98 6.97001L13.99 3.04001C12.91 2.32001 11.13 2.32001 10.05 3.03001Z" stroke="#6A767C" stroke-width="1.5" stroke-linecap="round" stroke-linejoin="round"/>
<path d="M5.63012 13.58L5.62012 18.27C5.62012 19.54 6.60012 20.9 7.80012 21.3L10.9901 22.36C11.5401 22.54 12.4501 22.54 13.0101 22.36L16.2001 21.3C17.4001 20.9 18.3801 19.54 18.3801 18.27V13.63" stroke="#6A767C" stroke-width="1.5" stroke-linecap="round" stroke-linejoin="round"/>
<path d="M21.3999 15.5V9.5" stroke="#6A767C" stroke-width="1.5" stroke-linecap="round" stroke-linejoin="round"/>
</svg>
