<svg width="20" height="16" viewBox="0 0 20 16" fill="none" xmlns="http://www.w3.org/2000/svg">
<path d="M19.7777 1.93666C19.0505 2.25566 18.2756 2.46711 17.4677 2.56978C18.2988 2.07355 18.9332 1.29378 19.2314 0.353886C18.4565 0.815886 17.6009 1.14222 16.6892 1.32433C15.9534 0.540886 14.9047 0.0556641 13.7607 0.0556641C11.5412 0.0556641 9.75428 1.85722 9.75428 4.06578C9.75428 4.38355 9.78117 4.68911 9.84717 4.98C6.51417 4.81744 3.56495 3.22 1.58372 0.786553C1.23783 1.38666 1.03495 2.07355 1.03495 2.813C1.03495 4.20144 1.74995 5.43222 2.81572 6.14478C2.17161 6.13255 1.53972 5.94555 1.00439 5.651C1.00439 5.66322 1.00439 5.67911 1.00439 5.695C1.00439 7.64322 2.39406 9.26144 4.21639 9.63422C3.89006 9.72344 3.53439 9.76622 3.16528 9.76622C2.90861 9.76622 2.6495 9.75155 2.40628 9.69777C2.92572 11.2854 4.39972 12.4527 6.15239 12.4906C4.78839 13.5576 3.0565 14.2004 1.18161 14.2004C0.852835 14.2004 0.537501 14.1858 0.222168 14.1454C1.99806 15.2907 4.10272 15.9446 6.37239 15.9446C13.7497 15.9446 17.7831 9.83344 17.7831 4.53633C17.7831 4.35911 17.7769 4.188 17.7684 4.01811C18.5641 3.45344 19.2326 2.74822 19.7777 1.93666Z" fill="white"/>
</svg>
