<svg width="25" height="24" viewBox="0 0 25 24" fill="none" xmlns="http://www.w3.org/2000/svg">
<path d="M12.6667 12C15.4282 12 17.6667 9.76142 17.6667 7C17.6667 4.23858 15.4282 2 12.6667 2C9.90532 2 7.66675 4.23858 7.66675 7C7.66675 9.76142 9.90532 12 12.6667 12Z" stroke="#697386" stroke-width="1.5" stroke-linecap="round" stroke-linejoin="round"/>
<path d="M4.07666 22C4.07666 18.13 7.92666 15 12.6667 15C13.6267 15 14.5567 15.13 15.4267 15.37" stroke="#697386" stroke-width="1.5" stroke-linecap="round" stroke-linejoin="round"/>
<path d="M22.6667 18C22.6667 18.75 22.4568 19.46 22.0868 20.06C21.8768 20.42 21.6068 20.74 21.2968 21C20.5968 21.63 19.6767 22 18.6667 22C17.2067 22 15.9367 21.22 15.2467 20.06C14.8767 19.46 14.6667 18.75 14.6667 18C14.6667 16.74 15.2467 15.61 16.1667 14.88C16.8567 14.33 17.7267 14 18.6667 14C20.8767 14 22.6667 15.79 22.6667 18Z" stroke="#697386" stroke-width="1.5" stroke-miterlimit="10" stroke-linecap="round" stroke-linejoin="round"/>
<path d="M17.1067 18L18.0967 18.99L20.2267 17.02" stroke="#697386" stroke-width="1.5" stroke-linecap="round" stroke-linejoin="round"/>
</svg>
