<svg width="16" height="16" viewBox="0 0 16 16" fill="none" xmlns="http://www.w3.org/2000/svg">
<path fill-rule="evenodd" clip-rule="evenodd" d="M4.26701 1.45495C4.91008 1.40364 5.52057 1.15076 6.01157 0.732338C7.15734 -0.244113 8.84259 -0.244113 9.98842 0.732338C10.4794 1.15076 11.0899 1.40364 11.733 1.45495C13.2337 1.57471 14.4253 2.76635 14.545 4.26701C14.5963 4.91008 14.8493 5.52057 15.2677 6.01157C16.2441 7.15734 16.2441 8.84259 15.2677 9.98842C14.8493 10.4794 14.5963 11.0899 14.545 11.733C14.4253 13.2337 13.2337 14.4253 11.733 14.545C11.0899 14.5963 10.4794 14.8493 9.98842 15.2677C8.84259 16.2441 7.15734 16.2441 6.01157 15.2677C5.52057 14.8493 4.91008 14.5963 4.26701 14.545C2.76635 14.4253 1.57471 13.2337 1.45495 11.733C1.40364 11.0899 1.15076 10.4794 0.732338 9.98842C-0.244113 8.84259 -0.244113 7.15734 0.732338 6.01157C1.15076 5.52057 1.40364 4.91008 1.45495 4.26701C1.57471 2.76635 2.76635 1.57471 4.26701 1.45495ZM11.7071 6.70709C12.0977 6.31658 12.0977 5.68341 11.7071 5.2929C11.3166 4.90237 10.6834 4.90237 10.2929 5.2929L7 8.58575L5.7071 7.29292C5.31658 6.90234 4.68341 6.90234 4.2929 7.29292C3.90237 7.68342 3.90237 8.31659 4.2929 8.70709L6.2929 10.7071C6.68342 11.0977 7.31659 11.0977 7.70709 10.7071L11.7071 6.70709Z" fill="#008744"/>
</svg>
