<svg width="50" height="82" viewBox="0 0 50 82" fill="none" xmlns="http://www.w3.org/2000/svg">
<path opacity="0.2" d="M31.85 80.4626C31.85 81.2404 28.6455 81.8697 24.6934 81.8697C20.7399 81.8697 17.5367 81.2391 17.5367 80.4626C17.5367 79.6848 20.7413 79.0554 24.6934 79.0554C28.6455 79.0554 31.85 79.6848 31.85 80.4626Z" fill="#212121"/>
<path d="M26.8704 49.2806C39.4862 48.177 49.3835 37.5938 49.3835 24.6917C49.3835 10.5269 37.4562 -0.851215 23.0983 0.050097C10.8689 0.817395 0.897921 10.7266 0.0596745 22.9521C-0.877112 36.6281 9.33163 48.1245 22.5071 49.2793C23.3926 49.3569 24.0693 50.1018 24.0693 50.9913V71.1697C24.0693 71.8358 23.6935 72.4599 23.0825 72.7253C21.4796 73.419 20.4141 75.1126 20.6939 77.0282C20.9515 78.7927 22.4243 80.2209 24.1954 80.4324C26.6497 80.7254 28.7348 78.815 28.7348 76.4199C28.7348 74.7565 27.7271 73.3375 26.291 72.7213C25.6827 72.4599 25.3148 71.8318 25.3148 71.1697V50.9926C25.3148 50.1058 25.9875 49.3582 26.8704 49.2806Z" fill="#8C93A1"/>
<g clip-path="url(#clip0_326_1260)" filter="url(#filter0_d_326_1260)">
<path d="M25 43C34.9411 43 43 34.9411 43 25C43 15.0589 34.9411 7 25 7C15.0589 7 7 15.0589 7 25C7 34.9411 15.0589 43 25 43Z" fill="#27273D"/>
<path d="M41.8848 18.7506H8.11444C10.6562 11.8895 17.2558 7 25 7C32.7442 7 39.3437 11.8895 41.8848 18.7506Z" fill="#E88032"/>
<path d="M41.8848 31.2488H8.11446C6.62502 27.2159 6.62502 22.7836 8.11446 18.7507H41.8848C42.1354 19.4267 42.3446 20.1173 42.5113 20.8186C43.3329 24.2813 43.115 27.9093 41.8848 31.2488Z" fill="white"/>
<path d="M25 43.0001C21.3222 43.0002 17.7325 41.8741 14.7138 39.7733C11.6951 37.6724 9.39203 34.6976 8.11444 31.2488H41.8848C41.6233 31.9569 41.3168 32.6476 40.9673 33.3167C39.446 36.2367 37.1529 38.6836 34.3376 40.391C31.5223 42.0983 28.2926 43.0008 25 43.0001Z" fill="#00B564"/>
<path d="M27.3555 7.15258C20.649 8.02938 15.1042 12.5969 12.8254 18.7541H8.11444C10.6562 11.8895 17.2558 7 25 7C25.7876 6.99988 26.5744 7.05084 27.3555 7.15258Z" fill="#D8712B"/>
<path d="M11.7109 25.0001C11.7085 27.1326 12.0858 29.2486 12.8254 31.2488H8.11446C6.62502 27.2159 6.62502 22.7836 8.11446 18.7507H12.8254C12.5763 19.4268 12.3685 20.1174 12.2031 20.8186C11.8762 22.1884 11.711 23.5918 11.7109 25.0001Z" fill="#E2E2E2"/>
<path d="M27.3555 42.8475C26.5744 42.9493 25.7876 43.0003 25 43.0001C21.3222 43.0002 17.7325 41.8741 14.7138 39.7733C11.6951 37.6724 9.39203 34.6976 8.11444 31.2488H12.8254C13.963 34.3213 15.9172 37.0253 18.4775 39.0696C21.0379 41.1139 24.1074 42.421 27.3555 42.8503V42.8475Z" fill="#049B53"/>
<path d="M35.6924 14.9263C36.3246 14.9263 36.8371 14.4138 36.8371 13.7817C36.8371 13.1495 36.3246 12.637 35.6924 12.637C35.0602 12.637 34.5477 13.1495 34.5477 13.7817C34.5477 14.4138 35.0602 14.9263 35.6924 14.9263Z" fill="#EF9050"/>
<path d="M34.0063 12.9063C34.4541 12.9063 34.817 12.5434 34.817 12.0956C34.817 11.6479 34.4541 11.2849 34.0063 11.2849C33.5586 11.2849 33.1956 11.6479 33.1956 12.0956C33.1956 12.5434 33.5586 12.9063 34.0063 12.9063Z" fill="#EF9050"/>
<path d="M25 30.6151C28.1011 30.6151 30.6151 28.1011 30.6151 24.9999C30.6151 21.8988 28.1011 19.3848 25 19.3848C21.8988 19.3848 19.3848 21.8988 19.3848 24.9999C19.3848 28.1011 21.8988 30.6151 25 30.6151Z" fill="#3E436D"/>
<path d="M29.4199 24.543L29.1576 24.4847C29.1576 24.4636 29.1527 24.4425 29.1499 24.4221L29.3875 24.2969C29.4278 24.2762 29.4597 24.2422 29.478 24.2008C29.4963 24.1593 29.4998 24.1129 29.4881 24.0691L29.3524 23.5615C29.3406 23.5177 29.3143 23.4792 29.2777 23.4524C29.2412 23.4255 29.1966 23.4119 29.1513 23.4138L28.8834 23.4251C28.8756 23.4054 28.8679 23.3857 28.8595 23.366L29.0563 23.1853C29.0898 23.1548 29.1119 23.1137 29.1188 23.069C29.1257 23.0242 29.117 22.9784 29.0943 22.9392L28.8313 22.4836C28.8087 22.4443 28.7734 22.414 28.7312 22.3976C28.689 22.3813 28.6424 22.3798 28.5993 22.3936L28.3434 22.4737C28.3307 22.4569 28.3174 22.4407 28.3047 22.4245L28.4488 22.1974C28.4732 22.1591 28.4837 22.1136 28.4787 22.0685C28.4737 22.0234 28.4535 21.9813 28.4214 21.9492L28.0502 21.578C28.0181 21.5459 27.976 21.5256 27.9309 21.5207C27.8858 21.5157 27.8403 21.5262 27.802 21.5505L27.5749 21.6954L27.5256 21.6567L27.6058 21.4008C27.6195 21.3576 27.6181 21.3111 27.6017 21.2689C27.5854 21.2267 27.555 21.1913 27.5158 21.1687L27.0602 20.9058C27.021 20.883 26.9752 20.8744 26.9304 20.8813C26.8856 20.8882 26.8446 20.9102 26.8141 20.9437L26.6334 21.1406L26.5743 21.1167L26.5856 20.8488C26.5874 20.8035 26.5738 20.7589 26.547 20.7224C26.5202 20.6858 26.4817 20.6595 26.4379 20.6477L25.9302 20.512C25.8866 20.5004 25.8403 20.504 25.799 20.5223C25.7577 20.5406 25.7239 20.5724 25.7031 20.6126L25.578 20.8516L25.5154 20.8439L25.457 20.5816C25.4474 20.5374 25.4229 20.4977 25.3876 20.4693C25.3523 20.4409 25.3083 20.4255 25.263 20.4255H24.737C24.6917 20.4255 24.6478 20.4409 24.6124 20.4693C24.5771 20.4977 24.5526 20.5374 24.543 20.5816L24.4846 20.8439L24.422 20.8516L24.2969 20.6126C24.2761 20.5723 24.2422 20.5404 24.2007 20.5221C24.1593 20.5038 24.1128 20.5002 24.0691 20.512L23.5614 20.6477C23.5176 20.6595 23.4792 20.6858 23.4523 20.7224C23.4255 20.7589 23.4119 20.8035 23.4138 20.8488L23.425 21.1167L23.3659 21.1406L23.1852 20.9437C23.1547 20.9102 23.1137 20.8882 23.0689 20.8813C23.0241 20.8744 22.9783 20.883 22.9392 20.9058L22.4835 21.1687C22.4443 21.1913 22.414 21.2267 22.3976 21.2689C22.3812 21.3111 22.3798 21.3576 22.3935 21.4008L22.4737 21.6567L22.4245 21.6954L22.1981 21.5548C22.1597 21.5304 22.1143 21.5199 22.0691 21.5249C22.024 21.5299 21.9819 21.5501 21.9499 21.5822L21.5786 21.9534C21.5465 21.9855 21.5263 22.0276 21.5213 22.0727C21.5163 22.1178 21.5269 22.1633 21.5512 22.2016L21.6953 22.4287C21.6827 22.4449 21.6693 22.4611 21.6567 22.478L21.4007 22.3978C21.3576 22.3841 21.311 22.3855 21.2688 22.4019C21.2266 22.4182 21.1913 22.4486 21.1687 22.4878L20.9057 22.9434C20.883 22.9826 20.8743 23.0284 20.8812 23.0732C20.8882 23.118 20.9102 23.159 20.9437 23.1895L21.1406 23.3702C21.1321 23.3899 21.1244 23.4096 21.1167 23.4293L20.8488 23.418C20.8035 23.4162 20.7589 23.4298 20.7223 23.4566C20.6858 23.4834 20.6594 23.5219 20.6477 23.5657L20.512 24.0734C20.5012 24.1165 20.5053 24.162 20.5235 24.2025C20.5418 24.2431 20.5731 24.2763 20.6125 24.2969L20.8502 24.4214C20.8502 24.4418 20.8452 24.4629 20.8424 24.484L20.5802 24.5423C20.5359 24.552 20.4963 24.5765 20.4679 24.6118C20.4394 24.6471 20.424 24.6911 20.4241 24.7364V25.2623C20.424 25.3076 20.4394 25.3516 20.4679 25.3869C20.4963 25.4222 20.5359 25.4468 20.5802 25.4564L20.8424 25.5148C20.8424 25.5359 20.8474 25.5569 20.8502 25.5773L20.6125 25.7032C20.5722 25.724 20.5403 25.7579 20.522 25.7993C20.5037 25.8408 20.5002 25.8873 20.512 25.931L20.6477 26.4387C20.6594 26.4824 20.6858 26.5209 20.7223 26.5478C20.7589 26.5746 20.8035 26.5882 20.8488 26.5863L21.1167 26.5751C21.1244 26.5948 21.1321 26.6144 21.1406 26.6341L20.9437 26.8148C20.9102 26.8453 20.8882 26.8864 20.8812 26.9312C20.8743 26.976 20.883 27.0217 20.9057 27.0609L21.1687 27.5166C21.1913 27.5558 21.2266 27.5861 21.2688 27.6025C21.311 27.6189 21.3576 27.6203 21.4007 27.6066L21.6567 27.5264C21.6693 27.5433 21.6827 27.5594 21.6953 27.5756L21.5547 27.802C21.5304 27.8403 21.5198 27.8858 21.5248 27.9309C21.5298 27.9761 21.55 28.0181 21.5821 28.0502L21.9534 28.4215C21.9855 28.4536 22.0275 28.4738 22.0727 28.4788C22.1178 28.4838 22.1632 28.4732 22.2016 28.4489L22.4287 28.3048L22.4779 28.3434L22.3977 28.5994C22.384 28.6425 22.3854 28.689 22.4018 28.7313C22.4182 28.7735 22.4485 28.8088 22.4877 28.8314L22.9434 29.0944C22.9826 29.1171 23.0283 29.1257 23.0731 29.1188C23.1179 29.1119 23.159 29.0899 23.1895 29.0564L23.3702 28.8595L23.4292 28.8834L23.418 29.1513C23.4161 29.1966 23.4297 29.2412 23.4565 29.2778C23.4834 29.3143 23.5218 29.3406 23.5656 29.3524L24.0733 29.4881C24.1164 29.4988 24.1619 29.4948 24.2025 29.4765C24.243 29.4583 24.2763 29.427 24.2969 29.3876L24.4213 29.1499L24.4839 29.1576L24.5423 29.4199C24.5519 29.4642 24.5764 29.5038 24.6117 29.5322C24.6471 29.5606 24.691 29.5761 24.7363 29.576H25.2623C25.3076 29.5761 25.3516 29.5606 25.3869 29.5322C25.4222 29.5038 25.4467 29.4642 25.4563 29.4199L25.5147 29.1576L25.5773 29.1499L25.7031 29.3876C25.7239 29.4278 25.7578 29.4598 25.7993 29.4781C25.8407 29.4964 25.8872 29.4999 25.9309 29.4881L26.4386 29.3524C26.4824 29.3406 26.5209 29.3143 26.5477 29.2778C26.5745 29.2412 26.5881 29.1966 26.5863 29.1513L26.575 28.8834L26.6341 28.8595L26.8148 29.0564C26.8453 29.0899 26.8863 29.1119 26.9311 29.1188C26.9759 29.1257 27.0217 29.1171 27.0609 29.0944L27.5165 28.8314C27.5557 28.8088 27.5861 28.7735 27.6024 28.7313C27.6188 28.689 27.6202 28.6425 27.6065 28.5994L27.5263 28.3434L27.5756 28.3048L27.8027 28.4489C27.841 28.4732 27.8865 28.4838 27.9316 28.4788C27.9767 28.4738 28.0188 28.4536 28.0509 28.4215L28.4221 28.0502C28.4542 28.0181 28.4744 27.9761 28.4794 27.9309C28.4844 27.8858 28.4739 27.8403 28.4495 27.802L28.3047 27.5749C28.3174 27.5587 28.3307 27.5426 28.3434 27.5257L28.5993 27.6058C28.6424 27.6196 28.689 27.6182 28.7312 27.6018C28.7734 27.5854 28.8087 27.5551 28.8313 27.5158L29.0943 27.0602C29.117 27.021 29.1257 26.9752 29.1188 26.9305C29.1119 26.8857 29.0898 26.8446 29.0563 26.8141L28.8595 26.6334C28.8679 26.6137 28.8756 26.5941 28.8834 26.5744L29.1513 26.5856C29.1966 26.5875 29.2412 26.5739 29.2777 26.5471C29.3143 26.5202 29.3406 26.4817 29.3524 26.438L29.4881 25.9303C29.4997 25.8867 29.496 25.8404 29.4777 25.7991C29.4595 25.7578 29.4276 25.7239 29.3875 25.7032L29.1484 25.578C29.1484 25.5576 29.1534 25.5366 29.1562 25.5155L29.4184 25.4571C29.4627 25.4475 29.5024 25.4229 29.5308 25.3876C29.5592 25.3523 29.5746 25.3084 29.5745 25.263V24.7371C29.5747 24.692 29.5594 24.6482 29.5313 24.6129C29.5032 24.5776 29.4639 24.553 29.4199 24.543Z" fill="white"/>
<path d="M25.8635 24.9999C25.8649 25.0163 25.8649 25.0328 25.8635 25.0492C25.8622 25.0944 25.8565 25.1393 25.8466 25.1835C25.8328 25.2474 25.8116 25.3094 25.7833 25.3684C25.7602 25.4178 25.7324 25.4648 25.7003 25.509C25.6619 25.5608 25.6175 25.608 25.5682 25.6496C25.5365 25.6779 25.5024 25.7034 25.4662 25.7256C25.4113 25.7609 25.3522 25.7895 25.2904 25.8106C25.2291 25.8336 25.165 25.8485 25.0999 25.8549C25.0355 25.8634 24.9702 25.8634 24.9058 25.8549C24.8546 25.8498 24.8039 25.8397 24.7546 25.8247C24.6921 25.8065 24.6321 25.7806 24.5761 25.7474C24.5339 25.7238 24.4939 25.6965 24.4565 25.6658C24.4056 25.6248 24.36 25.5775 24.3208 25.5252C24.2852 25.4818 24.2546 25.4347 24.2294 25.3846C24.2 25.3261 24.1781 25.2642 24.164 25.2003C24.1514 25.1511 24.1441 25.1007 24.1422 25.0499C24.1408 25.0335 24.1408 25.017 24.1422 25.0006C24.1425 24.9516 24.1467 24.9027 24.1549 24.8544C24.1617 24.8105 24.1727 24.7674 24.1879 24.7257C24.2078 24.6635 24.2357 24.6042 24.2709 24.5492C24.2945 24.5085 24.3224 24.4703 24.3539 24.4353C24.3966 24.3858 24.4449 24.3414 24.498 24.3031C24.5989 24.2299 24.7142 24.1789 24.8362 24.1534C24.8608 24.1492 24.884 24.1456 24.9065 24.1428C24.929 24.14 24.9705 24.1372 25.0036 24.1372C25.0366 24.1372 25.0689 24.1372 25.1006 24.1428C25.1394 24.1463 25.1777 24.1534 25.2152 24.1639C25.2789 24.1793 25.3404 24.203 25.398 24.2342C25.4452 24.2578 25.4897 24.2863 25.5309 24.3193C25.5837 24.358 25.631 24.4037 25.6715 24.455C25.701 24.4886 25.7269 24.5251 25.7489 24.564C25.7824 24.6199 25.8091 24.6796 25.8283 24.7419C25.8404 24.7788 25.8496 24.8167 25.8557 24.8551C25.8622 24.9031 25.8648 24.9515 25.8635 24.9999Z" fill="#3E436D"/>
<path d="M25.8635 24.9999C25.8649 25.0163 25.8649 25.0328 25.8635 25.0492C25.8622 25.0944 25.8565 25.1393 25.8466 25.1835C25.8328 25.2474 25.8116 25.3094 25.7833 25.3684C25.7602 25.4178 25.7324 25.4648 25.7003 25.509C25.6619 25.5608 25.6175 25.608 25.5682 25.6496C25.5365 25.6779 25.5024 25.7034 25.4662 25.7256C25.4113 25.7609 25.3522 25.7895 25.2904 25.8106C25.2291 25.8336 25.165 25.8485 25.0999 25.8549C25.0355 25.8634 24.9702 25.8634 24.9058 25.8549C24.8546 25.8498 24.8039 25.8397 24.7546 25.8247C24.6921 25.8065 24.6321 25.7806 24.5761 25.7474C24.5339 25.7238 24.4939 25.6965 24.4565 25.6658C24.4056 25.6248 24.36 25.5775 24.3208 25.5252C24.2852 25.4818 24.2546 25.4347 24.2294 25.3846C24.2 25.3261 24.1781 25.2642 24.164 25.2003C24.1514 25.1511 24.1441 25.1007 24.1422 25.0499C24.1408 25.0335 24.1408 25.017 24.1422 25.0006C24.1425 24.9516 24.1467 24.9027 24.1549 24.8544C24.1617 24.8105 24.1727 24.7674 24.1879 24.7257C24.2078 24.6635 24.2357 24.6042 24.2709 24.5492C24.2945 24.5085 24.3224 24.4703 24.3539 24.4353C24.3966 24.3858 24.4449 24.3414 24.498 24.3031C24.5989 24.2299 24.7142 24.1789 24.8362 24.1534C24.8608 24.1492 24.884 24.1456 24.9065 24.1428C24.929 24.14 24.9705 24.1372 25.0036 24.1372C25.0366 24.1372 25.0689 24.1372 25.1006 24.1428C25.1394 24.1463 25.1777 24.1534 25.2152 24.1639C25.2789 24.1793 25.3404 24.203 25.398 24.2342C25.4452 24.2578 25.4897 24.2863 25.5309 24.3193C25.5837 24.358 25.631 24.4037 25.6715 24.455C25.701 24.4886 25.7269 24.5251 25.7489 24.564C25.7824 24.6199 25.8091 24.6796 25.8283 24.7419C25.8404 24.7788 25.8496 24.8167 25.8557 24.8551C25.8622 24.9031 25.8648 24.9515 25.8635 24.9999Z" fill="#3E436D"/>
<path d="M23.8047 25.0492H21.3937C21.3678 25.0492 21.3429 25.0389 21.3246 25.0206C21.3063 25.0023 21.296 24.9774 21.296 24.9515C21.296 24.9256 21.3063 24.9007 21.3246 24.8824C21.3429 24.8641 21.3678 24.8538 21.3937 24.8538H23.8103C23.8056 24.9024 23.8037 24.9512 23.8047 25V25.0492Z" fill="#3E436D"/>
<path d="M23.9144 25.5097L21.6904 26.4062C21.679 26.4107 21.6668 26.4131 21.6545 26.4133C21.6318 26.4133 21.6098 26.4054 21.5923 26.391C21.5747 26.3765 21.5628 26.3564 21.5584 26.3341C21.5541 26.3118 21.5577 26.2887 21.5685 26.2688C21.5794 26.2488 21.5969 26.2333 21.618 26.2248L23.8469 25.3276C23.8645 25.39 23.8871 25.4509 23.9144 25.5097Z" fill="#3E436D"/>
<path d="M21.6089 23.5826C21.6188 23.5587 21.6377 23.5398 21.6615 23.5296C21.6853 23.5195 21.712 23.5191 21.7361 23.5284L23.951 24.4207C23.9189 24.4775 23.8919 24.5371 23.8701 24.5986L21.6637 23.7098C21.6396 23.7001 21.6204 23.6813 21.6101 23.6575C21.5998 23.6337 21.5994 23.6067 21.6089 23.5826Z" fill="#3E436D"/>
<path d="M24.2153 25.9063L22.5011 27.6191C22.492 27.6285 22.481 27.6359 22.4689 27.641C22.4569 27.6461 22.4439 27.6487 22.4308 27.6486C22.4114 27.6486 22.3924 27.6429 22.3763 27.6322C22.3602 27.6214 22.3475 27.6062 22.34 27.5883C22.3325 27.5704 22.3304 27.5508 22.3341 27.5317C22.3377 27.5127 22.3469 27.4951 22.3605 27.4813L24.0754 25.7664C24.118 25.8169 24.1648 25.8637 24.2153 25.9063Z" fill="#3E436D"/>
<path d="M22.3985 22.4834C22.3888 22.4744 22.3812 22.4635 22.3759 22.4514C22.3707 22.4393 22.368 22.4263 22.368 22.4131C22.368 22.3999 22.3707 22.3869 22.3759 22.3748C22.3812 22.3627 22.3888 22.3518 22.3985 22.3428C22.4167 22.3248 22.4414 22.3147 22.467 22.3147C22.4927 22.3147 22.5173 22.3248 22.5356 22.3428L24.2526 24.0598C24.2023 24.1005 24.1552 24.1452 24.112 24.1934L22.3985 22.4834Z" fill="#3E436D"/>
<path d="M24.4467 26.0632C24.5039 26.0941 24.5639 26.1196 24.6259 26.1392L23.7428 28.3315C23.7353 28.3496 23.7226 28.3651 23.7064 28.3759C23.6901 28.3868 23.671 28.3927 23.6514 28.3927C23.6389 28.3923 23.6266 28.39 23.6149 28.3857C23.591 28.3755 23.572 28.3565 23.562 28.3326C23.552 28.3086 23.5518 28.2818 23.5614 28.2577L24.4467 26.0632Z" fill="#3E436D"/>
<path d="M23.6071 21.6405C23.6011 21.6284 23.5976 21.6152 23.597 21.6017C23.5963 21.5883 23.5985 21.5748 23.6033 21.5622C23.6082 21.5496 23.6156 21.5382 23.6251 21.5286C23.6346 21.519 23.646 21.5116 23.6586 21.5067C23.6712 21.5017 23.6846 21.4995 23.6981 21.5001C23.7116 21.5007 23.7248 21.5041 23.7369 21.51C23.749 21.516 23.7597 21.5244 23.7683 21.5348C23.777 21.5452 23.7834 21.5572 23.7871 21.5702L24.7012 23.8405C24.638 23.8564 24.5764 23.8778 24.517 23.9045L23.6071 21.6405Z" fill="#3E436D"/>
<path d="M25 23.8047C24.967 23.8047 24.9347 23.8047 24.903 23.8082V21.3937C24.903 21.3679 24.9132 21.3432 24.9314 21.3251C24.9496 21.3069 24.9743 21.2966 25 21.2966C25.0258 21.2966 25.0505 21.3069 25.0687 21.3251C25.0869 21.3432 25.0971 21.3679 25.0971 21.3937V23.8047C25.0654 23.8047 25.0331 23.8047 25 23.8047Z" fill="#3E436D"/>
<path d="M25 26.1988C25.0331 26.1988 25.0654 26.1988 25.0971 26.1953V28.6063C25.0971 28.6321 25.0869 28.6567 25.0687 28.6749C25.0505 28.6931 25.0258 28.7034 25 28.7034C24.9743 28.7034 24.9496 28.6931 24.9314 28.6749C24.9132 28.6567 24.903 28.6321 24.903 28.6063V26.1953C24.9347 26.1953 24.967 26.1988 25 26.1988Z" fill="#3E436D"/>
<path d="M25.5203 23.9192C25.4616 23.891 25.4007 23.8675 25.3382 23.8489L26.2572 21.568C26.2609 21.5548 26.2672 21.5426 26.2759 21.5321C26.2846 21.5216 26.2954 21.513 26.3076 21.5069C26.3197 21.5008 26.3331 21.4973 26.3467 21.4967C26.3603 21.496 26.3739 21.4983 26.3866 21.5032C26.3993 21.5081 26.4109 21.5156 26.4205 21.5253C26.4301 21.5349 26.4376 21.5465 26.4425 21.5592C26.4474 21.5719 26.4496 21.5855 26.4489 21.5992C26.4482 21.6128 26.4447 21.6261 26.4386 21.6383L25.5203 23.9192Z" fill="#3E436D"/>
<path d="M26.4836 28.2576C26.4886 28.2695 26.4911 28.2824 26.491 28.2953C26.4909 28.3082 26.4883 28.321 26.4833 28.3329C26.4782 28.3448 26.4709 28.3556 26.4617 28.3646C26.4524 28.3737 26.4415 28.3808 26.4295 28.3856C26.4178 28.3901 26.4054 28.3924 26.3929 28.3926C26.3736 28.3925 26.3547 28.3866 26.3386 28.3757C26.3226 28.3648 26.3102 28.3494 26.3029 28.3314L25.4142 26.125C25.4753 26.103 25.5343 26.0757 25.5907 26.0435L26.4836 28.2576Z" fill="#3E436D"/>
<path d="M25.7672 24.0783L27.4645 22.3809C27.4831 22.3627 27.5082 22.3527 27.5343 22.353C27.5603 22.3534 27.5852 22.364 27.6034 22.3827C27.6215 22.4013 27.6316 22.4264 27.6312 22.4525C27.6309 22.4785 27.6203 22.5034 27.6016 22.5215L25.9057 24.2182C25.8635 24.1677 25.8172 24.1209 25.7672 24.0783Z" fill="#3E436D"/>
<path d="M27.6368 27.4469C27.6554 27.4656 27.6659 27.4909 27.6659 27.5173C27.6659 27.5436 27.6554 27.5689 27.6368 27.5876C27.6181 27.6062 27.5928 27.6167 27.5664 27.6167C27.5401 27.6167 27.5148 27.6062 27.4961 27.5876L25.8009 25.8923C25.8491 25.8491 25.8938 25.8021 25.9345 25.7517L27.6368 27.4469Z" fill="#3E436D"/>
<path d="M26.0547 24.4375L28.3047 23.5297C28.3281 23.5232 28.3531 23.5256 28.3748 23.5365C28.3965 23.5473 28.4134 23.5659 28.4222 23.5885C28.431 23.6112 28.431 23.6363 28.4223 23.659C28.4135 23.6816 28.3967 23.7002 28.375 23.7112L26.125 24.6168C26.1072 24.555 26.0836 24.4949 26.0547 24.4375Z" fill="#3E436D"/>
<path d="M28.4812 26.352C28.4738 26.3699 28.4613 26.3852 28.4453 26.3961C28.4293 26.4069 28.4105 26.4129 28.3912 26.4132C28.3784 26.4129 28.3659 26.4105 28.3539 26.4062L26.0927 25.4921C26.1191 25.4327 26.141 25.3714 26.158 25.3086L28.4277 26.2227C28.4398 26.2276 28.4507 26.2349 28.46 26.244C28.4692 26.2532 28.4765 26.2642 28.4815 26.2762C28.4864 26.2882 28.489 26.3011 28.4889 26.3141C28.4889 26.3272 28.4862 26.34 28.4812 26.352Z" fill="#3E436D"/>
<path d="M28.7048 24.9509C28.7048 24.977 28.6944 25.002 28.676 25.0205C28.6575 25.0389 28.6325 25.0493 28.6064 25.0493H26.1954C26.1954 25.0331 26.1954 25.0163 26.1954 25.0001C26.1952 24.9512 26.1921 24.9024 26.1862 24.8539H28.6029C28.616 24.8533 28.6291 24.8554 28.6414 24.86C28.6537 24.8646 28.6649 24.8716 28.6745 24.8807C28.684 24.8898 28.6916 24.9006 28.6968 24.9127C28.702 24.9248 28.7047 24.9377 28.7048 24.9509Z" fill="#3E436D"/>
</g>
<defs>
<filter id="filter0_d_326_1260" x="2.89" y="4.945" width="44.22" height="44.22" filterUnits="userSpaceOnUse" color-interpolation-filters="sRGB">
<feFlood flood-opacity="0" result="BackgroundImageFix"/>
<feColorMatrix in="SourceAlpha" type="matrix" values="0 0 0 0 0 0 0 0 0 0 0 0 0 0 0 0 0 0 127 0" result="hardAlpha"/>
<feOffset dy="2.055"/>
<feGaussianBlur stdDeviation="2.055"/>
<feComposite in2="hardAlpha" operator="out"/>
<feColorMatrix type="matrix" values="0 0 0 0 0.215686 0 0 0 0 0.254902 0 0 0 0 0.317647 0 0 0 0.1 0"/>
<feBlend mode="normal" in2="BackgroundImageFix" result="effect1_dropShadow_326_1260"/>
<feBlend mode="normal" in="SourceGraphic" in2="effect1_dropShadow_326_1260" result="shape"/>
</filter>
<clipPath id="clip0_326_1260">
<rect width="36" height="36" fill="white" transform="translate(7 7)"/>
</clipPath>
</defs>
</svg>
