<svg width="50" height="82" viewBox="0 0 50 82" fill="none" xmlns="http://www.w3.org/2000/svg">
<path opacity="0.2" d="M31.85 80.4626C31.85 81.2404 28.6455 81.8697 24.6934 81.8697C20.7399 81.8697 17.5367 81.2391 17.5367 80.4626C17.5367 79.6848 20.7413 79.0554 24.6934 79.0554C28.6455 79.0554 31.85 79.6848 31.85 80.4626Z" fill="#212121"/>
<path d="M26.8704 49.2806C39.4862 48.177 49.3835 37.5938 49.3835 24.6917C49.3835 10.5269 37.4562 -0.851215 23.0983 0.050097C10.8689 0.817395 0.897921 10.7266 0.0596745 22.9521C-0.877112 36.6281 9.33163 48.1245 22.5071 49.2793C23.3926 49.3569 24.0693 50.1018 24.0693 50.9913V71.1697C24.0693 71.8358 23.6935 72.4599 23.0825 72.7253C21.4796 73.419 20.4141 75.1126 20.6939 77.0282C20.9515 78.7927 22.4243 80.2209 24.1954 80.4324C26.6497 80.7254 28.7348 78.815 28.7348 76.4199C28.7348 74.7565 27.7271 73.3375 26.291 72.7213C25.6827 72.4599 25.3148 71.8318 25.3148 71.1697V50.9926C25.3148 50.1058 25.9875 49.3582 26.8704 49.2806Z" fill="#8C93A1"/>
<g clip-path="url(#clip0_326_2791)" filter="url(#filter0_d_326_2791)">
<path fill-rule="evenodd" clip-rule="evenodd" d="M11.5834 37H38.4166C39.9662 35.2687 41.1856 33.2357 41.9758 31H8.02423C8.81444 33.2357 10.0338 35.2687 11.5834 37ZM8.02423 19H41.9758C41.1856 16.7643 39.9662 14.7313 38.4166 13H11.5834C10.0338 14.7313 8.81444 16.7643 8.02423 19Z" fill="#E5B731"/>
<path fill-rule="evenodd" clip-rule="evenodd" d="M38.4166 37H11.5834C14.8793 40.6825 19.669 43 25 43C30.331 43 35.1207 40.6825 38.4166 37ZM7 25H43C43 22.8962 42.6391 20.8767 41.9758 19H8.02423C7.36093 20.8767 7 22.8962 7 25Z" fill="#CA4638"/>
<path fill-rule="evenodd" clip-rule="evenodd" d="M8.02423 31H41.9758C42.6391 29.1233 43 27.1038 43 25H7C7 27.1038 7.36092 29.1233 8.02423 31ZM11.5834 13H38.4166C35.1207 9.3175 30.331 7 25 7C19.669 7 14.8793 9.3175 11.5834 13Z" fill="#262626"/>
<path d="M25.3 30.3999C28.3376 30.3999 30.8 27.9375 30.8 24.8999C30.8 21.8623 28.3376 19.3999 25.3 19.3999C22.2624 19.3999 19.8 21.8623 19.8 24.8999C19.8 27.9375 22.2624 30.3999 25.3 30.3999Z" fill="white"/>
<path fill-rule="evenodd" clip-rule="evenodd" d="M24.2736 20.7094L23.9147 20.0494C24.0532 19.9111 24.2862 19.8042 24.6577 19.8042C24.6577 19.8294 24.6199 20.5271 24.6199 20.5271L24.2736 20.7094Z" fill="#D90000" stroke="black" stroke-width="0.2"/>
<path fill-rule="evenodd" clip-rule="evenodd" d="M24.6199 20.5335L24.6703 19.8043C24.6703 19.8043 25.4133 19.7603 25.8162 20.2443C25.8225 20.238 25.4196 20.8101 25.4196 20.8101L24.6199 20.5335Z" fill="#FCDC04" stroke="black" stroke-width="0.2"/>
<path fill-rule="evenodd" clip-rule="evenodd" d="M25.4321 20.8035L25.7973 20.2378C26.0428 20.4955 26.1436 20.6778 26.1813 20.9544C26.1876 20.9607 25.6021 21.099 25.6021 21.0927C25.6021 21.0864 25.4384 20.8098 25.4321 20.8035Z" fill="#D90000" stroke="black" stroke-width="0.2"/>
<path fill-rule="evenodd" clip-rule="evenodd" d="M24.4562 30.1452C24.4562 30.1452 25.1425 29.3594 26.4773 29.5292C26.2758 29.2023 25.6273 29.24 25.6273 29.24C25.6273 29.24 25.4258 27.7124 25.5832 27.637C25.7406 27.5615 26.408 27.6432 26.408 27.6432C26.4961 27.6432 26.6473 27.4044 26.5277 27.2535C26.408 27.1026 26.0555 26.5243 26.2003 26.4111C26.3451 26.298 27.1321 26.474 27.1321 26.474L24.9095 23.6326C24.9095 23.6326 24.6829 22.5639 25.1362 22.0484C25.684 21.5958 25.6273 21.1055 25.6084 21.1117C25.5329 20.6151 24.7773 20.2568 24.2673 20.7157C23.9651 21.0803 24.1666 21.3569 24.1666 21.3569C24.1666 21.3569 23.3733 21.5706 23.3418 21.7089C23.3103 21.8473 24.2358 21.6838 24.2358 21.6838L24.1477 22.3187C24.1477 22.3187 22.347 23.9531 23.7258 25.3676C23.7384 25.3613 23.7699 25.3047 23.7699 25.3047C23.7699 25.3047 24.2547 25.9019 24.7647 26.0339C25.2432 26.5243 25.1992 26.4488 25.1992 26.4488C25.1992 26.4488 25.2936 27.2221 25.2055 27.3729C25.0858 27.3352 23.8644 27.2912 23.6818 27.3603C23.5181 27.4107 22.8885 27.3792 23.0459 28.4039C23.1655 28.1273 23.2725 27.8821 23.2725 27.8821C23.2725 27.8821 23.2536 28.253 23.4048 28.385C23.3796 27.9953 23.5496 27.7313 23.5496 27.7313C23.5496 27.7313 23.581 28.1587 23.6755 28.2216C23.7699 28.2844 23.7699 27.5301 24.2925 27.5929C24.8151 27.6558 25.1929 27.637 25.1929 27.637C25.1929 27.637 25.3692 29.1142 25.3125 29.2526C24.9347 29.1645 24.0344 29.2903 23.9777 29.5166C24.5065 29.4852 24.7522 29.548 24.7522 29.548C24.7522 29.548 24.324 29.9252 24.4562 30.1452Z" fill="black" stroke="black" stroke-width="0.2"/>
<path fill-rule="evenodd" clip-rule="evenodd" d="M24.6685 22.0845C24.6685 22.0845 23.3582 23.5264 23.9235 24.6298C23.9536 24.476 23.9404 24.3793 23.9593 24.3856C23.9279 24.3667 24.1218 24.5183 24.1071 24.4888C24.1112 24.409 24.048 24.2381 24.048 24.2381C24.1071 24.2528 24.1662 24.2676 24.2253 24.2823C24.1908 24.2184 24.1563 24.1545 24.1218 24.0906C24.2056 24.1004 24.2893 24.1102 24.373 24.12C24.373 24.12 24.2844 23.884 24.3139 23.884C24.3434 23.884 24.5207 23.8988 24.5207 23.8988C24.1481 23.2311 24.4996 22.6767 24.6685 22.0845Z" fill="#9CA69C" stroke="#9CA69C" stroke-width="0.2"/>
<path fill-rule="evenodd" clip-rule="evenodd" d="M25.1236 20.8477C25.1236 20.8477 25.1929 21.3443 24.9221 21.4889C24.878 21.5203 24.7081 21.5769 24.7332 21.6775C24.7647 21.8158 24.8403 21.7906 24.9473 21.7655C25.2306 21.7152 25.558 21.1117 25.1236 20.8477Z" fill="#9CA69C" stroke="#9CA69C" stroke-width="0.2"/>
<path d="M24.5388 21.3835C24.5977 21.3835 24.6454 21.3358 24.6454 21.2771C24.6454 21.2183 24.5977 21.1707 24.5388 21.1707C24.4799 21.1707 24.4322 21.2183 24.4322 21.2771C24.4322 21.3358 24.4799 21.3835 24.5388 21.3835Z" fill="white"/>
<path fill-rule="evenodd" clip-rule="evenodd" d="M24.217 21.6902C24.1477 21.7468 23.7825 22.124 24.1414 22.2623C24.5129 22.1617 24.4122 22.0925 24.494 22.0108C24.4961 21.8411 24.3093 21.7971 24.217 21.6902Z" fill="#D90000" stroke="black" stroke-width="0.2"/>
<path fill-rule="evenodd" clip-rule="evenodd" d="M25.0102 25.2544C24.9913 25.3361 24.9095 25.6378 25.0228 25.8704C25.3377 25.7384 25.4825 25.7761 25.5895 25.8453C25.3314 25.6378 25.2307 25.5498 25.0102 25.2544Z" fill="#9CA69C" stroke="#9CA69C" stroke-width="0.2"/>
<path fill-rule="evenodd" clip-rule="evenodd" d="M25.5517 26.6812L25.5706 27.3852C25.5706 27.3852 25.8161 27.4292 25.9295 27.3852C26.0428 27.3412 25.9232 26.8949 25.5517 26.6812Z" fill="white" stroke="white" stroke-width="0.2"/>
<path fill-rule="evenodd" clip-rule="evenodd" d="M27.3336 26.7695C27.3336 26.7695 26.8802 25.6757 25.7217 25.3991C24.5632 25.1225 24.7143 23.8904 24.8088 23.8149C24.8592 23.7081 24.8969 23.5446 25.2306 23.7018C25.5643 23.859 27.1006 24.6321 27.321 24.6699C27.5413 24.7076 27.3525 26.7947 27.3336 26.7695Z" fill="#9CA69C" stroke="black" stroke-width="0.2"/>
<path fill-rule="evenodd" clip-rule="evenodd" d="M26.2317 25.3926C26.2128 25.4051 27.7806 26.3166 27.3084 27.1024C27.7555 26.807 27.6106 26.2915 27.6106 26.2915C27.6106 26.2915 27.9758 27.2408 27.088 27.706C27.1825 27.7877 27.2454 27.7688 27.2454 27.7688L27.0943 27.9197C27.0943 27.9197 27.025 28.0328 27.6232 27.7436C27.4595 27.8757 27.4469 27.9699 27.4469 27.9699C27.4469 27.9699 27.491 28.0957 27.8814 27.7562C27.5665 28.0957 27.4973 28.2717 27.4973 28.2654C28.3472 28.19 30.1983 25.4303 26.9117 24.613C27.0881 24.7954 27.0628 24.7702 27.0628 24.7702L26.2317 25.3926Z" fill="#D90000" stroke="black" stroke-width="0.2"/>
<path fill-rule="evenodd" clip-rule="evenodd" d="M26.301 25.1222C26.5151 25.2731 26.5906 25.3234 26.6158 25.3988C26.4206 25.3548 26.2443 25.3674 26.2443 25.3674C26.2443 25.3674 25.8225 24.9651 25.7469 24.9336C25.6902 24.9336 25.3629 24.7262 25.3629 24.7262C25.1992 24.6444 25.0481 24.0787 25.6525 24.2421C26.2758 24.5375 26.3639 24.5627 26.3639 24.5627C26.6116 24.6403 26.8592 24.7178 27.1069 24.7953C27.2496 24.9546 27.3923 25.1139 27.535 25.2731C27.535 25.2731 26.7732 24.8959 26.6788 24.8896C26.8865 25.0593 27.0062 25.2919 27.0062 25.2919C26.7648 25.2228 26.555 25.1599 26.301 25.1222Z" fill="white" stroke="black" stroke-width="0.2"/>
<path fill-rule="evenodd" clip-rule="evenodd" d="M23.3355 21.7466C23.3355 21.7466 24.0659 21.5706 24.154 21.5957L23.3355 21.7466Z" fill="black"/>
<path d="M23.3355 21.7466C23.3355 21.7466 24.0659 21.5706 24.154 21.5957" stroke="white" stroke-width="0.2"/>
<path opacity="0.2" d="M41.4099 32.4079C38.5858 38.6539 32.3005 43.0001 25 43.0001C15.0589 43.0001 7 34.9412 7 25.0001C7 19.6738 9.31336 14.8879 12.9901 11.5923C11.9686 13.8516 11.4 16.3594 11.4 19.0001C11.4 28.9412 19.4589 37.0001 29.4 37.0001C34.0149 37.0001 38.2242 35.2634 41.4099 32.4079Z" fill="black"/>
</g>
<defs>
<filter id="filter0_d_326_2791" x="2.89" y="4.945" width="44.22" height="44.22" filterUnits="userSpaceOnUse" color-interpolation-filters="sRGB">
<feFlood flood-opacity="0" result="BackgroundImageFix"/>
<feColorMatrix in="SourceAlpha" type="matrix" values="0 0 0 0 0 0 0 0 0 0 0 0 0 0 0 0 0 0 127 0" result="hardAlpha"/>
<feOffset dy="2.055"/>
<feGaussianBlur stdDeviation="2.055"/>
<feComposite in2="hardAlpha" operator="out"/>
<feColorMatrix type="matrix" values="0 0 0 0 0.215686 0 0 0 0 0.254902 0 0 0 0 0.317647 0 0 0 0.1 0"/>
<feBlend mode="normal" in2="BackgroundImageFix" result="effect1_dropShadow_326_2791"/>
<feBlend mode="normal" in="SourceGraphic" in2="effect1_dropShadow_326_2791" result="shape"/>
</filter>
<clipPath id="clip0_326_2791">
<rect width="36" height="36" fill="white" transform="translate(7 7)"/>
</clipPath>
</defs>
</svg>
