<svg width="25" height="24" viewBox="0 0 25 24" fill="none" xmlns="http://www.w3.org/2000/svg">
<path d="M12.38 14.99C12.19 14.99 12 14.92 11.85 14.77L9.29001 12.21C9.00001 11.92 9.00001 11.44 9.29001 11.15C9.58001 10.86 10.06 10.86 10.35 11.15L12.38 13.18L14.41 11.15C14.7 10.86 15.18 10.86 15.47 11.15C15.76 11.44 15.76 11.92 15.47 12.21L12.91 14.77C12.76 14.92 12.57 14.99 12.38 14.99Z" fill="#2B3340"/>
<path d="M12.38 14.92C11.97 14.92 11.63 14.58 11.63 14.17V4.00001C11.63 3.59001 11.97 3.25001 12.38 3.25001C12.79 3.25001 13.13 3.59001 13.13 4.00001V14.17C13.13 14.58 12.79 14.92 12.38 14.92Z" fill="#2B3340"/>
<path d="M12.5 20.93C7.35 20.93 3.75 17.33 3.75 12.18C3.75 11.77 4.09 11.43 4.5 11.43C4.91 11.43 5.25 11.77 5.25 12.18C5.25 16.45 8.23 19.43 12.5 19.43C16.77 19.43 19.75 16.45 19.75 12.18C19.75 11.77 20.09 11.43 20.5 11.43C20.91 11.43 21.25 11.77 21.25 12.18C21.25 17.33 17.65 20.93 12.5 20.93Z" fill="#2B3340"/>
</svg>
