<svg width="122" height="179" viewBox="0 0 122 179" fill="none" xmlns="http://www.w3.org/2000/svg">
<g opacity="0.35">
<path fill-rule="evenodd" clip-rule="evenodd" d="M87.7216 98.9329C86.4014 98.9329 85.9951 98.2179 85.5382 97.3498C85.335 96.9923 85.1319 96.6348 84.8273 96.1752C83.7102 94.5921 82.5423 93.0601 81.476 91.5791C80.3589 90.0982 79.2418 88.5661 78.1247 87.0341C76.5506 84.736 74.7226 82.5912 72.9962 80.4974C70.305 77.3312 67.5631 74.0629 65.5827 70.386L65.8366 70.2839C65.7351 70.3179 65.6335 70.3349 65.532 70.3349L65.3796 69.7221C69.7972 68.7008 74.418 68.0369 78.8356 67.373C79.7834 67.2368 80.7313 67.1006 81.6791 66.9645C83.3547 66.7091 85.0812 66.5559 86.7568 66.4027C89.6511 66.1474 92.6977 65.892 95.4397 65.126L95.6428 65.075L95.7951 65.2282C97.3692 67.2709 98.9433 69.4157 100.416 71.5095C102.193 74.0118 104.072 76.5652 106.103 78.9654C106.712 79.7144 107.338 80.4974 107.982 81.3145C110.419 84.2764 112.958 87.3916 115.751 89.7407L116.106 90.0471L115.7 90.2514C113.415 91.5791 110.47 92.4473 107.626 93.3154C106.357 93.6729 105.138 94.0304 104.021 94.4389C100.111 95.7667 96.506 96.788 92.7993 97.5541C92.2407 97.7073 91.5806 97.9115 90.9205 98.1158C89.905 98.4733 88.8895 98.8818 87.9247 98.8818C87.857 98.9159 87.7893 98.9329 87.7216 98.9329ZM66.1921 70.1817C68.1724 73.7565 70.8636 76.9737 73.4532 80.0889C75.2304 82.1827 77.0584 84.3786 78.6325 86.6256C79.7496 88.2087 80.8667 89.7407 81.9838 91.1706C83.0501 92.7026 84.218 94.2347 85.335 95.8178C85.6397 96.2774 85.8936 96.6859 86.0459 97.0434C86.5537 97.9626 86.8076 98.3201 87.8739 98.269C88.7371 98.2179 89.7527 97.8605 90.7174 97.5541C91.4283 97.2987 92.0376 97.0945 92.647 96.9412C96.3537 96.1752 99.9081 95.2049 103.818 93.8261C104.935 93.4176 106.154 93.0601 107.474 92.7026C110.114 91.8855 112.805 91.1195 114.989 89.945C112.298 87.5958 109.86 84.5828 107.474 81.672C106.831 80.8889 106.204 80.1229 105.595 79.3739C103.564 76.9737 101.685 74.3693 99.9081 71.867C98.4356 69.8243 96.963 67.7815 95.3889 65.7899C92.647 66.5559 89.7019 66.8113 86.8076 67.0666C85.1319 67.2198 83.4055 67.373 81.7806 67.5773C80.8328 67.7135 79.885 67.8496 78.9371 67.9858C74.7226 68.5986 70.4066 69.2114 66.1921 70.1817Z" fill="#008554"/>
<path d="M87.113 104.601L87.0114 104.397C86.8083 104.04 86.5544 103.733 86.3005 103.376C86.1313 103.206 85.979 103.018 85.8436 102.814C84.2187 100.516 82.2384 98.32 80.3088 96.1241C77.9731 93.5196 75.5866 90.8131 73.657 87.8511L73.1493 87.0851C71.4736 84.4807 69.8995 82.0805 67.8177 79.8335C65.7358 77.5865 64.9234 74.5224 65.3296 70.437L65.9897 70.4881C65.5835 74.3692 66.3451 77.2801 68.2747 79.3739C70.4073 81.6719 71.9814 84.1232 73.657 86.7276L74.1648 87.4937C76.0943 90.4045 78.4809 93.1111 80.7658 95.7156C82.6954 97.8604 84.6757 100.107 86.3513 102.457C86.4867 102.627 86.6221 102.797 86.7575 102.967C87.0114 103.274 87.2653 103.529 87.4176 103.886C88.484 103.58 89.4995 103.171 90.5151 102.763C91.6322 102.303 92.7492 101.895 93.9171 101.588C95.4404 101.18 96.9638 100.924 98.4363 100.669C99.4518 100.465 100.467 100.312 101.483 100.107C103.463 99.6478 105.799 98.9839 107.982 98.1668C108.744 97.9115 109.658 97.7583 110.623 97.554C111.943 97.2987 113.416 96.9923 114.38 96.4816C113.771 96.1241 113.162 95.7156 113.009 95.5624L113.416 95.1028C113.619 95.256 114.583 95.9198 115.142 96.1241L115.701 96.2773L115.244 96.6348C114.228 97.5029 112.451 97.8604 110.724 98.1668C109.76 98.3711 108.896 98.5243 108.236 98.7796C106.002 99.5967 103.616 100.261 101.635 100.72C100.62 100.924 99.5534 101.129 98.5378 101.282C97.0653 101.537 95.542 101.793 94.0695 102.201C92.9524 102.508 91.8353 102.916 90.7689 103.376C89.6518 103.784 88.484 104.244 87.3669 104.55L87.113 104.601Z" fill="#008554"/>
<path d="M88.08 102.201L87.6738 101.69C88.8417 100.771 90.4666 100.516 92.0407 100.261C92.7008 100.158 93.3609 100.056 93.9194 99.9541C95.1888 99.5967 96.5091 99.2392 97.8293 98.8817C98.6417 98.6434 99.4541 98.4221 100.267 98.2178C101.13 98.0136 102.044 97.8093 102.907 97.605C104.126 97.3497 105.344 97.0433 106.563 96.6858C106.766 96.6177 107.003 96.5496 107.274 96.4815C108.797 95.9709 110.777 95.307 112.352 95.4091C112.25 94.592 112.301 93.775 112.402 92.9579C112.453 92.3451 112.504 91.7322 112.504 91.1194L113.113 91.0684C113.164 91.7322 113.062 92.3961 113.012 93.0089C112.91 93.9792 112.859 94.8474 113.062 95.7155L113.164 96.1751L112.656 96.073C111.234 95.8687 109.051 96.5326 107.477 97.0433C107.206 97.1454 106.952 97.2305 106.715 97.2986C105.547 97.6561 104.278 97.9625 103.059 98.2178C102.196 98.4221 101.282 98.6264 100.419 98.8307C99.6065 99.0349 98.794 99.2562 97.9816 99.4945C96.7122 99.852 95.3412 100.209 94.0718 100.567C93.4624 100.72 92.8023 100.822 92.1422 100.924C90.6189 101.129 89.0956 101.384 88.08 102.201Z" fill="#008554"/>
<path d="M87.7744 104.397C87.4697 103.478 87.4697 102.354 87.4189 101.282C87.4189 100.312 87.3681 99.3924 87.165 98.8817L87.7236 98.6264C88.0283 99.2392 88.0282 100.209 88.079 101.282C88.079 102.303 88.1298 103.376 88.3837 104.193L87.7744 104.397Z" fill="#008554"/>
<path d="M86.9122 103.018C86.8614 102.559 86.6075 102.201 86.3029 101.793C86.049 101.435 85.7443 101.027 85.6428 100.516C85.6089 100.516 85.5581 100.516 85.4904 100.516H85.2365V100.261C85.2027 100.09 85.1519 99.9031 85.0842 99.6988C85.0504 99.4605 85.0165 99.2222 84.9827 98.9839C84.9488 98.9839 84.9149 99.0009 84.8811 99.0349L84.6272 99.2392L84.4241 98.9839C84.3226 98.8477 84.221 98.7115 84.1194 98.5753C83.6624 98.0136 83.1547 97.4518 82.9516 96.6348L82.7992 96.8901L82.4946 96.3794C82.2407 95.9198 81.936 95.307 81.7329 94.6942C81.2759 94.8474 80.9713 94.6942 80.7681 94.541C80.5143 94.3878 80.3619 94.0814 80.3112 93.6728C80.2096 93.7239 80.1588 93.775 80.1081 93.826L79.7018 94.2346L79.5495 93.5707C79.4818 93.4005 79.431 93.2132 79.3972 93.0089C79.3633 93.043 79.3464 93.077 79.3464 93.1111L79.0925 93.775L78.7371 93.1111C78.3816 92.3961 78.2801 91.6301 78.2293 90.8641C78.1616 91.0003 78.0939 91.1194 78.0262 91.2216L77.6707 91.9876L77.4676 91.1705C77.3153 90.5577 77.2137 89.8938 77.163 89.2299C77.0614 89.3321 77.0106 89.4853 76.9599 89.5874L76.7568 89.9449L76.4521 89.6895C75.792 89.1278 75.5381 88.2086 75.335 87.2383C75.1319 87.4426 74.9288 87.6979 74.878 87.8L74.5226 88.566L74.2687 87.8C74.1163 87.2383 74.0656 86.7276 74.0148 86.2169L73.7609 85.7063C73.6086 85.2466 73.4562 84.6338 73.3039 84.0721C73.3039 84.1061 73.287 84.1402 73.2531 84.1742C73.1516 84.3274 72.9992 84.5317 72.9485 84.6338L72.7961 85.0424L72.4407 84.787C71.8822 84.3274 71.8821 83.5103 71.8821 82.8465C71.8821 82.8124 71.8821 82.7784 71.8821 82.7443C71.8483 82.7443 71.8314 82.7443 71.8314 82.7443L71.679 83.1018L71.3744 82.8465C70.7651 82.3358 70.6635 81.5698 70.5619 80.8548C70.5619 80.7527 70.545 80.6335 70.5112 80.4973C70.4773 80.5995 70.4435 80.6846 70.4096 80.7527L70.2573 81.3144L69.8511 80.8548C69.6818 80.6505 69.5295 80.3441 69.3941 79.9356C69.3602 79.9696 69.3433 80.0037 69.3433 80.0377L69.0894 80.7527L68.7847 80.0888C67.9215 78.4546 67.5153 76.5651 67.6677 74.8799L68.3277 74.982C68.1754 76.2587 68.3785 77.6375 68.9371 78.9142C68.9879 78.4546 68.9371 77.9439 68.9371 77.4333V77.3311H69.5972C69.648 78.5057 69.8003 79.3738 70.0542 79.9867C70.1557 79.8335 70.2573 79.6802 70.3081 79.527L70.5619 78.8121L70.8666 79.476C71.0697 79.8845 71.1205 80.3441 71.1713 80.7527C71.2728 81.2634 71.3236 81.723 71.5267 82.0804C71.6283 81.9783 71.679 81.8762 71.7298 81.6719L72.0345 80.8037L72.3391 81.6208C72.4915 81.9783 72.4915 82.4379 72.4915 82.8465C72.4915 83.255 72.4915 83.6635 72.593 83.9699C72.6607 83.9019 72.7115 83.8338 72.7454 83.7657C72.8977 83.5614 73.1008 83.3061 73.1516 83.1529L73.4562 81.9783L73.7609 83.1529C73.7948 83.3912 73.8455 83.6295 73.9132 83.8678C73.9471 84.0721 73.9979 84.2763 74.0656 84.4806L74.6749 84.5828C74.6241 85.3488 74.5733 86.1659 74.7257 86.9319C74.7595 86.8978 74.7934 86.8638 74.8272 86.8297C75.0303 86.6255 75.2334 86.4212 75.2842 86.268L75.7412 85.4509L75.8935 86.4212C75.9951 87.3404 76.1474 88.3107 76.6044 88.9235C76.6383 88.8554 76.6891 88.7873 76.7568 88.7192C76.9091 88.4639 77.1122 88.2086 77.163 88.0554L77.8231 85.502L77.7723 88.1575C77.7723 88.8214 77.7723 89.5363 77.8739 90.1491C78.0262 89.8938 78.1277 89.6385 78.2293 89.4342L78.7371 87.4936L78.8386 89.4853C78.8386 89.6895 78.8386 89.8938 78.8386 90.0981C78.8894 90.813 78.8894 91.528 79.0925 92.1919C79.1941 91.9365 79.2956 91.6812 79.2956 91.528L79.9557 91.6301C79.8542 92.1408 79.9557 92.6004 80.0573 93.06C80.1588 93.0089 80.2604 92.9068 80.3619 92.7025L81.2759 90.813L80.9205 92.9068C80.8697 93.4175 80.9205 93.8771 81.1236 94.0303C81.3267 94.1835 81.5806 94.0814 81.7837 94.0303L82.0884 93.8771L82.1899 94.1835C82.3422 94.6431 82.5961 95.1027 82.7992 95.5623C83.0531 95.1027 83.2055 95.1538 83.307 95.2049L83.6117 95.307L83.5101 95.6134C83.4086 96.7369 83.9671 97.4008 84.6272 98.1668C84.6611 98.2349 84.6949 98.2859 84.7288 98.32C84.7626 98.32 84.7795 98.32 84.7795 98.32C84.8811 98.2689 84.9827 98.1668 85.0842 98.1157L85.7443 97.4518L85.592 98.3711C85.5412 98.7285 85.6428 99.1881 85.7443 99.5456C85.7443 99.6478 85.7612 99.7329 85.7951 99.801L86.2521 99.4946V100.107C86.2521 100.618 86.506 100.976 86.8106 101.435C87.1153 101.844 87.4707 102.303 87.5215 102.967L86.9122 103.018Z" fill="#008554"/>
<path d="M74.1147 77.1778V76.5139C78.38 76.3607 82.6961 75.3393 86.9106 74.2669C91.4298 73.1434 96.152 72.0199 100.773 72.071V72.6838C96.2536 72.6328 91.5313 73.8073 87.0629 74.9308C82.8484 75.9522 78.4816 77.0246 74.1147 77.1778Z" fill="#008554"/>
<path d="M76.247 78.6589C76.0439 78.6589 75.8239 78.6589 75.5869 78.6589V77.995C78.6335 78.0972 81.5278 77.4844 84.3206 76.8716C85.9962 76.5141 87.7734 76.1055 89.4998 75.9013C92.4957 75.4927 95.847 74.931 98.8428 74.4203C99.723 74.2501 100.552 74.0969 101.331 73.9607L101.432 74.6246C100.654 74.7608 99.8245 74.8969 98.9444 75.0331C95.9485 75.5438 92.5972 76.1566 89.6014 76.5141C87.875 76.7184 86.1486 77.1269 84.4729 77.4844C81.8325 78.0461 79.0905 78.6589 76.247 78.6589Z" fill="#008554"/>
<path d="M64.6216 80.9059C62.3874 79.2717 60.7118 75.3395 60.9656 72.3776C61.0164 71.5094 61.7781 64.1556 65.6371 64.0024L65.6879 64.6153C62.946 64.7174 61.8289 69.7731 61.575 72.4286C61.3719 75.1352 62.946 78.9142 65.0278 80.3952L64.6216 80.9059Z" fill="#008554"/>
<path d="M60.1008 78.1993C57.4604 77.8418 57.6127 74.7777 57.7143 72.735C57.7143 72.3946 57.7143 72.0711 57.7143 71.7647H58.3744C58.3744 72.0711 58.3575 72.4116 58.3236 72.7861C58.2221 75.2373 58.2728 77.3311 60.2024 77.5864L60.1008 78.1993Z" fill="#008554"/>
<path d="M118.19 94.0812C118.089 87.0339 115.296 80.1908 110.675 75.799L111.132 75.3394C115.905 79.9355 118.698 86.7275 118.85 94.0812H118.19Z" fill="#008554"/>
<path d="M121.391 88.4638C120.934 87.3403 120.629 86.0636 120.324 84.7358C119.563 81.876 118.852 78.9141 116.618 77.331L117.024 76.8203C119.41 78.5566 120.172 81.6207 120.934 84.5826C121.238 85.9104 121.543 87.136 122 88.2084L121.391 88.4638Z" fill="#008554"/>
<path d="M90.2107 112.466C89.449 112.466 88.3827 112.057 87.0625 111.495C86.5547 111.291 86.1485 111.087 85.8438 111.036C84.9975 110.763 84.1343 110.491 83.2542 110.219C80.3599 109.402 77.3133 108.482 74.3682 107.257C73.4542 106.899 72.5402 106.491 71.6262 106.082C69.6967 105.214 67.8179 104.397 65.7869 103.784C63.6542 103.171 61.3185 102.405 59.9475 101.333L59.6936 101.129L59.8967 100.873C61.5724 98.6773 64.162 96.2772 66.2946 94.3876L66.3454 94.2855C66.7855 93.911 67.2256 93.5365 67.6656 93.162C68.4781 92.4981 69.1889 91.8343 69.8998 91.0682C70.2553 90.7618 70.6107 90.3022 70.9661 89.8426C71.677 88.8723 72.4894 87.851 73.3527 87.3914L73.6573 87.9531C72.8957 88.3616 72.1848 89.3319 71.4231 90.2511C71.0677 90.7108 70.7122 91.1704 70.3568 91.5278C69.6459 92.2939 68.8843 92.9577 68.0718 93.6727C67.6318 94.0131 67.1917 94.3876 66.7516 94.7962L66.7009 94.8472C64.7205 96.6346 62.2325 98.9327 60.6076 101.026C62.0294 101.997 64.5682 102.763 65.9392 103.171C68.0718 103.784 70.0014 104.652 71.8801 105.52C72.7941 105.929 73.7081 106.32 74.6221 106.695C77.5164 107.921 80.5122 108.789 83.4065 109.606C84.2867 109.878 85.1668 110.151 86.0469 110.423C86.3516 110.525 86.8086 110.678 87.3164 110.883C88.3319 111.342 89.906 112.006 90.4646 111.802C91.0739 111.597 92.0386 110.065 92.7495 108.942C93.2573 108.227 93.6635 107.614 93.9682 107.257C94.7806 106.338 95.593 105.418 96.4055 104.499C97.6241 103.12 98.8936 101.69 100.112 100.414L100.569 100.873C99.3505 102.15 98.0811 103.529 96.9133 104.908C96.1008 105.827 95.2376 106.797 94.4252 107.665C94.1713 108.023 93.7143 108.636 93.3081 109.299C92.3941 110.678 91.4801 112.108 90.6677 112.415C90.5323 112.449 90.3799 112.466 90.2107 112.466Z" fill="#008554"/>
<path d="M90.7683 119.002C89.0927 119.002 87.0108 118.083 84.9797 117.215C83.7611 116.653 82.5424 116.143 81.6284 115.887C79.3434 115.326 77.2108 114.355 75.1797 113.436C73.9103 112.874 72.5901 112.313 71.2699 111.802C68.731 110.883 66.1414 110.321 63.6025 109.81C62.4854 109.555 61.2668 109.3 60.0989 108.993L59.8958 108.942V108.738C59.7942 107.308 59.845 105.776 59.8958 104.244C59.9466 103.223 59.9974 102.201 59.9974 101.231H60.6067C60.6067 102.201 60.6067 103.274 60.5559 104.295C60.5051 105.674 60.4543 107.104 60.5051 108.431C61.5714 108.687 62.6885 108.942 63.7549 109.146C66.2937 109.708 68.9341 110.27 71.473 111.189C72.844 111.7 74.1642 112.313 75.4336 112.874C77.4647 113.794 79.5465 114.713 81.7807 115.275C82.7455 115.53 83.9642 116.041 85.2336 116.602C87.1631 117.47 89.2958 118.39 90.8698 118.39C91.53 117.419 95.846 111.547 97.3186 109.606C98.2833 108.38 99.2989 107.155 100.264 106.031C100.873 105.282 101.465 104.55 102.041 103.835C102.345 103.478 102.701 102.916 103.107 102.354C103.869 101.18 104.732 99.9031 105.494 99.5457L105.748 100.107C105.138 100.414 104.326 101.639 103.615 102.712C103.209 103.274 102.853 103.835 102.549 104.244C101.939 104.959 101.347 105.691 100.771 106.44C99.7558 107.563 98.7911 108.789 97.8263 110.015C96.2015 112.108 91.3269 118.798 91.2761 118.849L91.2253 119.002H91.073C90.9714 119.002 90.8699 119.002 90.7683 119.002Z" fill="#008554"/>
<path d="M90.5173 116.755C89.8572 116.755 88.7909 116.143 87.4199 115.274C86.9121 114.968 86.4551 114.662 86.2013 114.559C84.7287 113.947 83.307 113.487 81.936 113.283C78.6862 112.823 75.8427 112.057 72.4914 110.78C71.8482 110.542 71.222 110.287 70.6127 110.014C69.2925 109.453 68.023 108.942 66.6013 108.636C65.7381 108.482 64.8241 108.38 63.8593 108.329C62.5391 108.278 61.1681 108.176 60.0002 107.767L60.1526 107.155C60.2033 107.155 60.2034 107.155 60.3049 107.104C60.3726 107.069 60.4403 107.018 60.508 106.95L60.7111 107.308C61.6759 107.563 62.793 107.665 63.9101 107.716C64.8749 107.767 65.8396 107.818 66.7028 108.023C68.2261 108.329 69.4956 108.891 70.8665 109.453C71.4759 109.691 72.0852 109.929 72.6945 110.168C76.0458 111.444 78.8386 112.159 82.0375 112.67C83.4593 112.874 84.9318 113.334 86.4044 113.998C86.709 114.1 87.2168 114.406 87.7246 114.713C88.6386 115.274 90.1111 116.194 90.6189 116.091C91.1774 115.989 91.8883 114.304 92.2945 113.385C92.4976 112.976 92.65 112.568 92.8023 112.364C93.8178 110.729 95.0365 109.402 96.2043 108.074C99.2002 104.908 101.181 102.303 102.145 100.312L102.755 100.567C101.739 102.61 99.708 105.316 96.7121 108.533C95.4935 109.81 94.3256 111.087 93.3608 112.67C93.2085 112.874 93.0562 113.232 92.9038 113.64C92.1929 115.223 91.5329 116.551 90.7204 116.704C90.6527 116.738 90.585 116.755 90.5173 116.755Z" fill="#008554"/>
<path d="M90.4155 116.704L90.0601 116.602C90.0262 116.568 90.0093 116.5 90.0093 116.398C89.8062 115.53 89.7554 112.67 90.0093 112.006L90.6186 112.261C90.314 112.976 90.5678 115.989 90.6186 116.347L90.314 116.398H90.6186L90.4155 116.704Z" fill="#008554"/>
<path d="M69.6479 107.461C67.8199 105.674 61.5236 104.601 60.2541 104.397L60.0002 104.346V104.091C60.0002 103.92 60.051 103.784 60.1526 103.682C60.288 103.546 60.5249 103.495 60.8635 103.529L60.8127 103.835C62.9961 104.193 68.3277 105.265 70.1049 107.001L69.6479 107.461Z" fill="#008554"/>
<path d="M87.8237 113.947C86.7574 113.896 85.488 113.232 84.2693 112.67C83.5584 112.313 82.8476 111.955 82.2382 111.751C81.5273 111.512 80.8165 111.257 80.1056 110.985C78.9885 110.576 77.8714 110.168 76.7543 109.861C74.774 109.248 72.489 109.044 70.1025 108.789C66.7512 108.431 63.2984 108.125 60.4548 106.695L60.7087 106.133C63.4507 107.461 66.8528 107.819 70.1533 108.176C72.489 108.38 74.8755 108.636 76.9574 109.248C78.0745 109.555 79.2424 109.963 80.3087 110.372C81.0196 110.644 81.7305 110.9 82.4413 111.138C83.1014 111.342 83.8123 111.7 84.574 112.057C85.7419 112.67 86.9605 113.232 87.8745 113.334L87.8237 113.947Z" fill="#008554"/>
</g>
<g opacity="0.35">
<path d="M36.6434 16.1175C36.769 15.7388 36.8945 15.3601 37.0618 15.0235C37.4383 14.1399 37.8149 13.2142 37.6057 12.2044C37.1873 10.1006 34.4679 7.87052 32.2506 6.60824C30.4098 5.51425 27.0628 4.7148 25.5985 6.94485L25.1802 6.69239C26.8536 4.12574 30.4934 4.96726 32.5434 6.1454C33.3383 6.60824 37.5639 9.17489 38.1077 12.0782C38.3588 13.2563 37.9404 14.2661 37.522 15.2339C37.3965 15.5705 37.2292 15.9071 37.1455 16.2858L36.6434 16.1175Z" fill="#008554"/>
<path fill-rule="evenodd" clip-rule="evenodd" d="M11.794 33.4952C9.74401 31.8963 7.69401 30.1711 5.64401 28.3619C5.0583 27.8149 0.49809 23.481 0.121559 22.0504C-0.505992 19.4838 1.4185 17.0854 3.09197 14.9816C3.48245 14.5047 3.84503 14.0419 4.17973 13.5931C4.79333 12.7515 5.39299 11.896 5.9787 11.0264C7.35932 9.00675 8.78177 6.94502 10.3297 5.17781C10.4971 4.96743 10.7481 4.67289 10.9991 4.29421C12.2124 2.73739 14.0114 0.33904 15.8103 0.128658C16.5216 0.0445057 17.1491 0.296961 17.693 0.928105C18.1671 1.37692 18.725 1.85379 19.3665 2.3587C20.6216 3.36853 21.9603 4.25213 23.1318 5.05158C23.8012 5.51442 24.4287 5.93518 24.9726 6.31387L25.0144 6.35595C26.3532 7.3237 27.7338 8.29146 29.0726 9.38544C30.1603 10.227 31.0808 11.0264 31.8757 11.8259C33.2144 13.1302 34.7206 14.3084 36.143 15.4444L37.5236 16.5384C40.2849 18.7264 42.8787 20.9143 44.7195 23.5652C45.9328 25.3324 45.8073 25.711 44.6359 27.352C44.0502 28.1515 43.4226 28.9088 42.8369 29.6241C42.5301 30.0169 42.2372 30.3955 41.9583 30.7602C41.0379 31.8963 40.1175 33.0323 39.1971 34.0842C38.2767 35.1782 37.3563 36.3143 36.4359 37.4503C36.157 37.843 35.8502 38.2638 35.5155 38.7126C34.093 40.6481 32.294 43.0465 30.2859 43.7618C27.6501 44.6875 24.8052 42.7519 22.5461 41.1951C22.1556 40.9427 21.793 40.7042 21.4583 40.4798C18.2787 38.4181 15.0154 36.0618 11.794 33.4952ZM17.0236 0.970184C16.661 0.717726 16.2845 0.61955 15.894 0.675651C14.3042 0.843956 12.5052 3.20023 11.4175 4.63082C11.1665 5.00951 10.9154 5.30404 10.7481 5.51442C9.20014 7.28163 7.77769 9.34337 6.39707 11.321C5.81136 12.1905 5.2117 13.0461 4.59809 13.8876C4.2634 14.3364 3.90082 14.8133 3.51034 15.3182C1.87871 17.3379 0.0797238 19.61 0.665438 21.9242C0.916459 23.0182 4.7236 26.8471 5.9787 27.9411C8.02871 29.7504 10.0787 31.4755 12.0869 33.0744C15.3083 35.641 18.5716 37.9973 21.7512 40.017C22.0859 40.2414 22.4484 40.4938 22.8389 40.7744C25.0144 42.247 27.692 44.0984 30.1185 43.2569C31.9593 42.6257 33.7165 40.2694 35.0971 38.376C35.4318 37.9272 35.7525 37.5205 36.0593 37.1558C36.9379 35.9777 37.9002 34.8416 38.8206 33.7476C39.6991 32.6957 40.6614 31.5596 41.5399 30.4236C41.8189 30.0589 42.1117 29.6943 42.4185 29.3296C43.0461 28.5722 43.6318 27.8149 44.2175 27.0575C45.3053 25.5007 45.3053 25.3744 44.2593 23.8597C42.5022 21.293 39.9083 19.1051 37.1889 16.9592L35.8083 15.8652C34.3859 14.7291 32.8797 13.5089 31.541 12.2046C30.7461 11.4051 29.8257 10.6477 28.7379 9.76413C27.441 8.71222 26.0604 7.74447 24.7216 6.77671L24.6379 6.73463C24.1359 6.35595 23.5083 5.93519 22.8389 5.51442C21.6675 4.71497 20.2869 3.7893 19.0318 2.77947C18.4042 2.27455 17.8185 1.76963 17.3165 1.3068C17.2049 1.16654 17.1073 1.05434 17.0236 0.970184Z" fill="#008554"/>
<path d="M32.5458 32.4012C32.1274 32.0646 31.7509 31.728 31.3326 31.3914C30.8305 30.9285 30.3285 30.4657 29.7428 30.0449C28.5295 29.1613 27.4836 28.3198 26.3958 27.2679C25.6846 26.5526 24.8897 26.0477 24.053 25.4586C23.5091 25.122 22.9234 24.7433 22.3795 24.2805C21.7519 23.7755 21.2081 23.2706 20.6223 22.7657C19.4927 21.7559 18.2376 20.7461 16.9407 19.7783C14.8907 18.2215 12.7989 16.5805 11.0417 14.7291C10.9302 14.6169 10.8325 14.5047 10.7489 14.3925C9.87029 13.5089 8.90805 12.4991 9.03356 11.0685C9.11723 10.0166 9.78662 9.00677 10.3305 8.12317C10.5257 7.84266 10.6931 7.57618 10.8325 7.32372C12.5897 4.29423 14.054 1.98003 15.5183 0.00244141L15.9366 0.339053C14.5142 2.27456 13.0081 4.58876 11.2927 7.57617C11.1254 7.85668 10.958 8.13719 10.7907 8.4177C10.205 9.3013 9.61927 10.1849 9.5356 11.1106C9.45192 12.2887 10.2887 13.1723 11.1254 14.0138C11.237 14.1261 11.3346 14.2383 11.4183 14.3505C13.1336 16.2018 15.2254 17.8007 17.2754 19.3575C18.5723 20.3674 19.8274 21.3772 20.9989 22.387C21.5428 22.8919 22.1285 23.3969 22.7142 23.8597C23.2581 24.2805 23.8019 24.6591 24.3458 25.0378C25.1825 25.5848 26.0193 26.1318 26.7723 26.8892C27.8183 27.9411 28.8642 28.7406 30.0774 29.6242C30.6632 30.0449 31.207 30.5078 31.7091 30.9706C32.2948 31.5176 32.8387 31.9804 33.4662 32.4433C35.5162 33.8739 37.8591 32.0646 39.7417 30.634C40.0485 30.3815 40.3414 30.1571 40.6203 29.9608C41.9591 29.0351 43.507 27.6045 44.804 26.1318L45.1805 26.5105C43.8836 27.9832 42.2938 29.4138 40.9132 30.3815C40.6343 30.5779 40.3414 30.8023 40.0346 31.0547C38.0264 32.5695 35.5162 34.505 33.1734 32.864C32.9502 32.7238 32.7411 32.5695 32.5458 32.4012Z" fill="#008554"/>
<path d="M37.6078 16.9591C37.7193 16.7908 37.8309 16.6225 37.9424 16.4542C38.9465 14.9395 39.8669 13.5089 38.9047 11.7417C37.8169 9.76407 35.5159 8.16517 33.4659 6.77665C33.0475 6.49614 32.6571 6.21563 32.2945 5.93513L31.918 5.68267C30.8302 4.88322 29.3659 3.78923 28.1108 3.99961C27.1904 4.16792 25.5588 5.68267 25.0149 6.52419L24.5547 6.27174C25.0986 5.43021 26.8557 3.70508 28.0271 3.4947C29.4914 3.24224 31.0812 4.42038 32.2108 5.2619L32.5873 5.51436C32.9499 5.79487 33.3404 6.07538 33.7588 6.35589C35.8506 7.78648 38.1935 9.42746 39.3649 11.4892C40.4945 13.5089 39.4067 15.1498 38.4026 16.7067C38.2911 16.903 38.1795 17.0853 38.068 17.2536L37.6078 16.9591Z" fill="#008554"/>
<path d="M36.269 15.9071L35.8925 15.5285C36.018 15.4022 36.1435 15.2339 36.2272 15.0656C37.0639 13.8875 37.315 13.046 36.3946 11.8257C35.6415 10.9001 34.6792 9.72192 33.5078 8.92247L33.0476 8.54379C31.5833 7.49188 29.7425 6.14544 28.1946 6.43997C27.5252 6.5662 26.9395 7.02904 26.4374 7.78641L26.019 7.49188C26.5769 6.6223 27.2741 6.10336 28.1109 5.93506C29.868 5.59845 31.7925 6.98697 33.3405 8.12302L33.8007 8.45964C35.0139 9.34324 36.0599 10.5635 36.8129 11.5312C37.9007 12.9618 37.566 14.0979 36.6456 15.3601C36.5619 15.5285 36.3946 15.7388 36.269 15.9071Z" fill="#008554"/>
<path d="M7.06667 24.1119C6.9551 24.0278 6.85748 23.9296 6.77381 23.8174C6.27177 23.2283 6.10442 22.3447 6.39728 21.6295C6.73197 20.83 7.31769 20.1147 7.9034 19.4415C8.2381 18.9786 8.57279 18.6 8.82381 18.1792C9.01905 17.8706 9.21429 17.5481 9.40953 17.2114C9.99524 16.2437 10.581 15.2759 11.2503 14.5186L11.6269 14.8972C10.9993 15.6125 10.4136 16.5382 9.86973 17.4639C9.67449 17.8005 9.46531 18.1371 9.24218 18.4737C8.99116 18.8945 8.61463 19.3153 8.27993 19.736C7.73605 20.4092 7.19218 21.1245 6.89932 21.8398C6.69014 22.3868 6.77381 23.018 7.19218 23.4808C7.52687 23.9016 8.02891 24.0699 8.57279 23.9436C9.61871 23.7333 10.6228 22.4289 11.3759 21.5032L11.6269 21.1666C11.9616 20.7879 12.2544 20.3251 12.5473 19.8622C13.1748 18.9786 13.7605 18.053 14.5554 17.4218L14.8901 17.8426C14.1789 18.4317 13.5514 19.3153 13.0075 20.1568C12.6728 20.6196 12.3799 21.0825 12.0452 21.5032L11.7942 21.7978C10.9993 22.8076 9.91157 24.1961 8.65646 24.4486C8.11259 24.5748 7.52687 24.4486 7.06667 24.1119Z" fill="#008554"/>
<path d="M24.0099 37.1557C23.7868 36.9874 23.6055 36.763 23.4661 36.4825C22.713 35.136 23.8426 33.7475 24.6793 32.6956C24.763 32.5834 24.8467 32.4852 24.9303 32.4011C25.4324 31.7278 25.9344 31.0686 26.4365 30.4235C26.9385 29.7503 27.4405 29.077 27.9426 28.4038L28.361 28.6983C27.8589 29.3716 27.3569 30.0448 26.8548 30.718C26.3528 31.3912 25.8508 32.0644 25.3487 32.7377C25.265 32.8218 25.1674 32.92 25.0559 33.0322C24.3028 34 23.3405 35.1781 23.9263 36.23C24.1494 36.6788 24.4422 36.9172 24.8048 36.9453C26.1854 37.0715 28.2354 34.3786 29.3232 32.906C29.6997 32.4431 29.9508 32.1065 30.1599 31.8961C30.5365 31.5175 30.7456 31.265 31.164 31.0546L31.415 31.5175C31.0803 31.6858 30.8712 31.8961 30.5365 32.2328C30.3691 32.4431 30.0763 32.8218 29.7416 33.2426C28.4028 34.9677 26.3946 37.6185 24.763 37.4923C24.4841 37.4642 24.2331 37.352 24.0099 37.1557Z" fill="#008554"/>
<path d="M20.9556 20.9143C20.3699 19.8623 19.1985 18.9787 18.0689 18.0951C17.6505 17.7866 17.26 17.464 16.8975 17.1274C16.5209 16.8329 16.2281 16.4963 15.9352 16.1596C15.6842 15.8651 15.3913 15.5706 15.0985 15.276C14.9032 15.1077 14.6941 14.9254 14.4709 14.729C14.0107 14.3504 13.5505 13.9296 13.1322 13.5088C12.0444 12.3307 11.7097 11.1105 12.0444 9.34328C12.2117 8.45967 12.6301 7.7023 13.0066 6.98701C13.2577 6.56624 13.5087 6.10341 13.7179 5.64057L13.7597 5.55641C14.3036 4.12582 14.8475 2.77938 15.8515 1.51709L16.2699 1.8537C15.3077 3.07391 14.8056 4.29412 14.2199 5.76679L14.1781 5.85095C13.9689 6.35586 13.7179 6.8187 13.4668 7.23946C13.0903 7.95476 12.7138 8.62798 12.5464 9.46951C12.2536 11.0684 12.5046 12.0782 13.5087 13.1301C13.9271 13.5509 14.3454 13.9296 14.8056 14.3504C15.0288 14.5187 15.2519 14.701 15.475 14.8974C15.7679 15.1919 16.0607 15.4864 16.3117 15.823C16.6046 16.1596 16.8975 16.4542 17.2322 16.7487C17.5669 17.0432 17.9852 17.3799 18.4036 17.7165C19.575 18.6001 20.7883 19.5257 21.4158 20.6618L20.9556 20.9143Z" fill="#008554"/>
<path d="M7.85948 23.691C7.83159 23.6629 7.81765 23.6489 7.81765 23.6489C7.77581 23.6068 7.69214 23.5647 7.6503 23.4806L7.44112 23.2281L7.77581 23.1019C7.99894 22.9897 8.23602 22.8915 8.48704 22.8073C8.15234 22.7653 7.77581 22.6811 7.44112 22.4707L7.23193 22.3024L7.39928 22.0921C7.6503 21.7975 8.02683 21.6292 8.4452 21.5871C8.22207 21.503 8.02683 21.3768 7.85948 21.2085L7.6503 21.0401L7.81765 20.8718C8.15234 20.4511 8.65439 20.2828 9.19826 20.1565C9.03092 20.0724 8.89146 19.9742 8.7799 19.862L8.57071 19.6096L8.82173 19.4412C9.40745 19.1046 10.1187 19.1046 10.7881 19.1467C11.0112 19.1467 11.2343 19.1467 11.4574 19.1467C11.3459 19.1467 11.2343 19.1327 11.1228 19.1046C10.5789 19.0626 9.99316 19.0205 9.61663 18.6418L9.40745 18.4314L9.65847 18.2631C10.0768 17.9265 10.6207 17.9265 11.1228 17.8844C11.318 17.8844 11.4993 17.8704 11.6666 17.8423C11.6387 17.8423 11.5969 17.8283 11.5411 17.8003C11.0391 17.7161 10.4952 17.5899 10.0768 17.3795L9.61663 17.127L10.1187 16.9167C10.4534 16.7484 10.7881 16.6642 11.1646 16.5801C10.9136 16.4959 10.6207 16.4118 10.3697 16.1593L10.035 15.7806L10.537 15.6965C10.7462 15.6544 10.9972 15.6544 11.2064 15.6544C11.4574 15.6544 11.6666 15.6544 11.8758 15.6123L12.0013 16.1172C11.8898 16.1453 11.7782 16.1733 11.6666 16.2014C11.9177 16.2434 12.1687 16.3697 12.3779 16.5801L12.8799 17.0429H12.2105C11.834 17.0008 11.4156 17.085 11.0391 17.1691C11.2343 17.1972 11.4435 17.2393 11.6666 17.2954C11.9595 17.3795 12.2523 17.4216 12.5452 17.5057L12.9217 17.632L12.6289 17.9265C12.2942 18.3473 11.7085 18.3893 11.1646 18.3893C10.8717 18.4314 10.6207 18.4314 10.4115 18.4735C10.6207 18.5576 10.9136 18.5576 11.1646 18.5997C11.6666 18.6418 12.1687 18.6839 12.587 18.9363L12.9217 19.1467L12.587 19.3571C12.0432 19.7358 11.3738 19.6937 10.7462 19.6516C10.3279 19.6516 9.95133 19.6516 9.57479 19.6937C9.82581 19.7358 10.1187 19.7358 10.4115 19.7358C10.8299 19.7358 11.2901 19.6937 11.6666 19.862L12.4615 20.2407L11.583 20.3669C11.304 20.423 10.9972 20.4511 10.6625 20.4511C9.86765 20.5352 8.98908 20.6194 8.4452 20.9981C8.77989 21.2085 9.28193 21.2084 9.74214 21.2505C10.0768 21.2505 10.4534 21.2926 10.7462 21.3768L11.5411 21.5871L10.7881 21.8817C10.4115 22.0079 9.95132 22.0079 9.44928 22.05C8.94724 22.05 8.4452 22.05 8.11051 22.2183C8.31969 22.2604 8.57071 22.3024 8.82173 22.3445C9.11459 22.3866 9.40745 22.4287 9.7003 22.5128L10.4534 22.8073L9.65847 23.0177C9.15643 23.144 8.48704 23.3543 7.985 23.5647L7.85948 23.691Z" fill="#008554"/>
<path d="M24.8477 36.7348L24.7222 36.2299C24.778 36.2299 24.8338 36.2158 24.8896 36.1878C24.6385 36.1036 24.3875 36.0195 24.2202 35.767L24.011 35.5567L24.262 35.3883C24.513 35.22 24.8059 35.1359 25.1406 35.0938C24.8896 35.0517 24.6804 34.9255 24.4712 34.7993L24.3038 34.631L24.4294 34.4627C24.8059 33.8315 25.6426 33.8736 26.3538 33.8736C26.5491 33.9016 26.7443 33.9157 26.9396 33.9157C26.6885 33.8736 26.4375 33.8315 26.1865 33.8315C25.7681 33.7894 25.3079 33.7894 24.9314 33.6211L24.6385 33.4528L24.8477 33.2004C25.1824 32.8217 25.7681 32.6113 26.3957 32.4851C26.2841 32.429 26.1865 32.3729 26.1028 32.3168L25.81 32.1064L26.1028 31.896C26.563 31.6015 27.1069 31.3911 27.6508 31.3069C27.3161 31.2649 26.9814 31.1386 26.7304 30.9283L26.4794 30.7179L26.7304 30.5496C27.1487 30.1709 27.7345 30.1709 28.2783 30.1709C28.4875 30.1709 28.7385 30.1288 28.9059 30.1288C28.4875 29.9605 27.9855 29.9184 27.6508 29.9184L27.6089 29.4135C28.1947 29.3714 29.2406 29.5818 29.7845 29.9605L30.1191 30.213L29.7426 30.3813C29.3243 30.6758 28.8222 30.6758 28.3202 30.6758C28.0273 30.6758 27.7763 30.7179 27.5253 30.76C27.8181 30.802 28.111 30.802 28.4038 30.8441C28.8222 30.8441 29.2824 30.8441 29.6589 31.0124L30.4957 31.3069L29.6171 31.5173C29.3382 31.5734 29.0314 31.6155 28.6967 31.6436C28.0691 31.7277 27.3998 31.8539 26.8559 32.0643C27.1487 32.1485 27.4834 32.1485 27.8181 32.1485C28.111 32.1905 28.4457 32.1905 28.7385 32.2326L30.2028 32.5692L28.6967 32.7796C28.4875 32.7796 28.2365 32.8217 27.9855 32.8217C27.2743 32.9058 26.2702 32.99 25.6426 33.2425C25.8379 33.2705 26.0331 33.2845 26.2283 33.2845C26.8141 33.3266 27.4416 33.3687 27.9018 33.7894L28.1947 33.9998L27.86 34.2102C27.4834 34.4627 26.8977 34.4206 26.3538 34.4206C25.8518 34.3785 25.3916 34.3785 25.0987 34.5468C25.3498 34.631 25.6845 34.7151 25.9773 34.7572C26.2702 34.7993 26.6049 34.8413 26.8559 34.9676L27.5253 35.178L26.8559 35.4304C26.5212 35.5987 26.1028 35.5987 25.6845 35.5987C25.4334 35.5987 25.1824 35.5987 24.9314 35.6408C25.0151 35.6969 25.1127 35.739 25.2242 35.767C25.4753 35.8091 25.7263 35.8933 25.9773 36.1036L26.312 36.3982L25.8936 36.5665C25.6845 36.6086 25.4334 36.6506 25.2242 36.6927C25.0848 36.6927 24.9593 36.7067 24.8477 36.7348Z" fill="#008554"/>
<path d="M8.40569 28.1515C7.81998 27.6887 7.31793 27.1417 6.81589 26.5947C6.52304 26.2581 6.23018 25.9215 5.89549 25.627C5.67236 25.4025 5.43528 25.1922 5.18426 24.9958C4.76589 24.6171 4.34753 24.2384 3.971 23.8177C2.71589 22.345 2.33936 20.662 2.88324 19.1051C3.38528 17.7587 4.34753 16.5806 5.26793 15.4024C5.49106 15.15 5.70025 14.9115 5.89549 14.6871L9.20059 10.4795L9.61896 10.8161L6.27202 15.0237C6.07678 15.2481 5.88154 15.4866 5.6863 15.739C4.76589 16.8751 3.84548 18.0111 3.38528 19.2734C2.75773 21.0406 3.59446 22.5554 4.38936 23.4811C4.72406 23.9018 5.10059 24.2384 5.51895 24.575C5.76997 24.7995 6.021 25.0239 6.27202 25.2483C6.60671 25.5849 6.89957 25.9215 7.19242 26.2581C7.7363 26.8472 8.28018 27.4362 8.90773 27.8991L8.61487 28.3198C8.5312 28.2637 8.46147 28.2076 8.40569 28.1515Z" fill="#008554"/>
</g>
<g opacity="0.35">
<path fill-rule="evenodd" clip-rule="evenodd" d="M45.4484 153.463C48.6267 160.374 48.5408 170.482 42.0983 175.708C37.9751 179.035 31.8762 179.898 25.3908 178.041C21.0099 176.788 16.543 172.037 14.7391 168.149C14.4242 167.487 14.1951 166.868 14.0519 166.292C14.0519 166.263 14.0519 166.249 14.0519 166.249C11.432 160.59 12.3339 154.456 16.5001 149.834C21.5253 144.348 31.7044 142.404 38.3187 145.73C41.3252 147.199 43.7734 149.877 45.4484 153.463ZM15.2116 167.933C16.9725 171.691 21.3105 176.313 25.5196 177.523C31.8333 179.337 37.7604 178.516 41.7547 175.277C47.9825 170.223 48.0684 160.417 44.933 153.722C43.3439 150.223 40.9816 147.631 38.104 146.206C31.6615 142.966 21.783 144.867 16.8866 150.223C12.8923 154.672 11.9903 160.59 14.5244 166.076C14.6962 166.681 14.9539 167.285 15.2116 167.933Z" fill="#008554"/>
<path fill-rule="evenodd" clip-rule="evenodd" d="M42.6552 153.117C42.7697 153.376 42.8699 153.635 42.9558 153.895L43.1276 154.197C44.9745 158.344 44.9745 163.614 43.1276 168.236C42.3975 170.05 41.109 171.303 39.7346 172.598C39.5055 172.829 39.2908 173.059 39.0903 173.29L38.9185 173.419C38.0595 174.283 37.5012 174.845 36.2986 175.363C35.3107 175.795 34.4088 176.011 33.335 176.27C29.942 177.048 26.2053 176.184 21.9962 173.635C20.5359 172.728 19.2044 171.691 18.1307 170.525C17.5294 169.877 16.8851 169.143 16.4127 168.106C16.155 167.588 15.9832 167.069 15.8543 166.465C15.7684 165.946 15.6396 165.385 15.4678 164.823C15.296 164.132 15.1671 163.484 15.0383 162.836C14.394 158.992 14.8665 156.098 16.4556 154.024C18.5172 151.346 21.1801 149.402 24.5732 148.15C28.2669 146.767 32.1754 146.551 35.2678 147.588C36.814 148.063 38.4031 148.754 39.8634 149.618C41.2378 150.396 42.0109 151.778 42.6122 153.117H42.6552ZM16.9281 167.89C17.4005 168.84 17.9589 169.532 18.5602 170.136C19.6339 171.303 20.8795 172.296 22.2968 173.16C26.42 175.665 29.9849 176.486 33.2491 175.752C34.3229 175.493 35.2248 175.277 36.1268 174.888C37.2435 174.413 37.7589 173.894 38.5749 173.03L38.7467 172.901C38.9758 172.67 39.2049 172.44 39.4339 172.21C40.7224 170.957 41.968 169.704 42.6552 168.02C44.502 163.527 44.502 158.43 42.6552 154.413L42.5263 154.111C42.4118 153.851 42.2973 153.607 42.1827 153.376C41.4955 151.864 40.8083 150.741 39.6487 150.093C38.2313 149.273 36.6851 148.581 35.1389 148.063C32.1324 147.113 28.3528 147.286 24.7879 148.625C21.4378 149.877 18.9467 151.692 16.9281 154.37C15.4248 156.314 14.9953 159.078 15.5966 162.75C15.7255 163.355 15.8973 164.046 16.0261 164.694C16.1979 165.255 16.3268 165.817 16.4127 166.335C16.5559 166.882 16.7277 167.401 16.9281 167.89Z" fill="#008554"/>
<path fill-rule="evenodd" clip-rule="evenodd" d="M30.3281 160.59C30.414 160.762 30.4284 160.95 30.3711 161.151C30.2422 161.713 29.598 162.274 29.1685 162.188C29.054 162.188 28.9681 162.159 28.9108 162.102C28.6101 162.015 28.3524 161.842 28.2665 161.54C28.1377 161.151 28.2665 160.633 28.6101 160.287C28.8678 160.028 29.2544 159.899 29.6409 160.028C29.9845 160.158 30.1993 160.374 30.3281 160.59ZM29.2544 161.67C29.3403 161.67 29.7698 161.41 29.8557 161.065C29.8557 160.978 29.9416 160.719 29.4691 160.546C29.2973 160.489 29.1399 160.532 28.9967 160.676C28.7819 160.849 28.696 161.194 28.7819 161.367C28.7819 161.454 28.8249 161.497 28.9537 161.54H29.2114C29.2114 161.626 29.2544 161.67 29.2544 161.67Z" fill="#008554"/>
<path fill-rule="evenodd" clip-rule="evenodd" d="M35.9142 151.389L36.0001 151.648C36.3437 152.728 35.0552 154.412 34.3251 155.406L34.1103 155.708C33.7381 156.198 33.3659 156.673 32.9936 157.134C32.7073 157.508 32.421 157.882 32.1346 158.257C31.9628 158.473 31.791 158.775 31.5763 159.078C31.1897 159.682 30.8032 160.33 30.3307 160.719L30.116 160.46C30.0587 160.517 30.0014 160.589 29.9442 160.676L29.5576 160.287C30.1589 159.639 30.8461 158.602 31.4904 157.566C31.791 157.047 32.1346 156.529 32.4353 156.097C32.6357 155.809 32.8361 155.521 33.0366 155.233C33.3802 154.772 33.7095 154.312 34.0244 153.851C34.1103 153.678 34.2392 153.419 34.368 153.16C34.6687 152.469 35.0552 151.648 35.6565 151.475L35.9142 151.389ZM32.9077 156.356C33.1654 156.039 33.4231 155.708 33.6808 155.363L33.8956 155.06C34.411 154.369 35.3988 153.073 35.5277 152.166C35.27 152.469 35.0552 152.944 34.8405 153.376C34.7116 153.635 34.5828 153.937 34.4539 154.11C34.1533 154.585 33.8097 155.06 33.4661 155.535C33.2943 155.823 33.1082 156.097 32.9077 156.356Z" fill="#008554"/>
<path d="M28.5703 161.454L28.6992 161.972C28.0549 162.102 27.2818 162.49 26.4658 162.879C26.0792 163.052 25.6927 163.225 25.3491 163.354C25.12 163.47 24.8909 163.57 24.6619 163.657C24.261 163.801 23.8745 163.959 23.5022 164.132C23.4163 164.175 23.2445 164.305 23.0727 164.391C22.5573 164.737 22.0419 165.082 21.5695 164.909L21.3118 164.866L21.3547 164.607C21.6124 163.743 23.0298 163.225 23.8888 162.922L24.1465 162.836C24.5473 162.692 24.9482 162.548 25.3491 162.404C25.664 162.289 25.979 162.174 26.294 162.059C26.5087 161.972 26.7235 161.886 26.9382 161.756C27.4107 161.54 27.9261 161.281 28.3556 161.281L28.3985 161.497C28.4558 161.468 28.5131 161.454 28.5703 161.454Z" fill="#008554"/>
<path d="M35.2268 171.389L36.1717 173.462L35.6993 173.678L34.7544 171.648L35.2268 171.389Z" fill="#008554"/>
<path d="M25.3462 149.92C25.518 150.266 25.6469 150.654 25.8187 151C25.9332 151.374 26.0764 151.734 26.2482 152.08L25.7757 152.339C25.6039 151.965 25.4464 151.59 25.3033 151.216C25.1315 150.827 25.0026 150.439 24.8308 150.093L25.3033 149.877C25.3319 149.877 25.3462 149.891 25.3462 149.92Z" fill="#008554"/>
<path d="M19.2502 157.264L18.8636 157.652C18.6059 157.35 18.1335 157.177 17.704 157.005C17.4033 156.918 17.1456 156.789 16.8879 156.659L17.1456 156.184C17.3604 156.313 17.6181 156.4 17.8758 156.529C18.3912 156.702 18.9066 156.918 19.2502 157.264Z" fill="#008554"/>
<path d="M24.7034 170.482C24.7893 171.13 24.7034 172.426 24.0592 172.987L23.7585 172.555C24.1021 172.253 24.231 171.259 24.188 170.525L24.7034 170.482Z" fill="#008554"/>
<path d="M42.2282 164.261L41.9705 164.736C41.2404 164.391 40.5102 163.959 39.823 163.57L40.0807 163.095C40.7679 163.484 41.4981 163.916 42.2282 164.261Z" fill="#008554"/>
<path d="M35.3104 149.186C35.3104 149.445 35.1816 150.914 34.7521 151.173L34.4514 150.741C34.5803 150.612 34.7521 149.748 34.795 149.143L35.3104 149.186Z" fill="#008554"/>
<path d="M42.3134 155.233C42.3421 155.291 42.3564 155.334 42.3564 155.363C42.3564 155.665 42.0128 155.795 41.6262 156.011L41.4974 156.054C41.2826 156.14 41.0249 156.227 40.8102 156.313C40.5811 156.4 40.3664 156.486 40.1659 156.572L39.9512 156.097C40.1802 155.982 40.4093 155.896 40.6384 155.838C40.8674 155.752 41.0822 155.665 41.2826 155.579L41.4115 155.493C41.5403 155.449 41.798 155.32 41.841 155.233C41.841 155.277 41.798 155.32 41.841 155.406C41.841 155.449 41.8839 155.493 41.9269 155.536L42.1846 155.061C42.2418 155.118 42.2848 155.176 42.3134 155.233Z" fill="#008554"/>
<path d="M20.2806 164.65C19.98 164.996 19.2928 165.255 18.6485 165.471C18.3479 165.601 18.1331 165.687 17.9613 165.773L17.7036 165.255C17.9184 165.169 18.1761 165.082 18.4338 164.996C18.9492 164.78 19.6793 164.521 19.8941 164.261L20.2806 164.65Z" fill="#008554"/>
<path d="M49.7858 162.62C49.8144 162.678 49.8288 162.721 49.8288 162.75C49.9576 163.095 50.0435 163.57 49.8288 163.916C49.5281 164.564 48.7121 164.477 47.939 164.391C47.5954 164.348 47.2088 164.348 46.9511 164.391L46.7793 163.873C47.1229 163.786 47.5524 163.829 48.0248 163.873C48.5832 163.916 49.2275 163.959 49.3563 163.657C49.4422 163.484 49.4422 163.225 49.3563 162.966C49.2704 162.75 49.1845 162.663 49.1416 162.62C48.9698 162.577 48.7121 162.62 48.4114 162.663C48.1108 162.706 47.7672 162.793 47.4665 162.663L47.6383 162.145C47.8101 162.231 48.0678 162.188 48.3255 162.145C48.6691 162.058 49.0127 162.015 49.3563 162.145C49.5711 162.231 49.6999 162.447 49.7858 162.62Z" fill="#008554"/>
<path d="M42.1397 145.298C42.1397 145.356 42.154 145.399 42.1826 145.428C42.3115 145.989 41.7531 146.551 41.2807 147.069C41.1089 147.242 40.98 147.372 40.8941 147.501L40.4646 147.156C40.5505 147.026 40.7223 146.853 40.8941 146.681C41.1948 146.378 41.7102 145.817 41.6672 145.557C41.5813 145.298 40.8512 144.823 40.4217 144.607C40.3644 144.751 40.2928 144.895 40.2069 145.039C39.9063 145.557 39.5627 146.162 39.1761 146.465L38.8325 146.033C39.1332 145.817 39.4338 145.255 39.7345 144.737C39.8633 144.521 39.9922 144.305 40.0781 144.132L40.2069 144.002L40.3787 144.046C40.8082 144.132 41.882 144.737 42.1397 145.298Z" fill="#008554"/>
<path d="M48.5405 162.879C48.3258 163.268 48.0681 163.7 47.9822 164.088L47.4668 164.002C47.5527 163.527 47.8104 163.008 48.0681 162.62L48.5405 162.879Z" fill="#008554"/>
<path d="M49.2285 162.922C48.9708 163.225 48.7131 163.7 48.5843 164.045L48.0688 163.786C48.2836 163.397 48.5413 162.922 48.842 162.577L49.2285 162.922Z" fill="#008554"/>
<path d="M49.7874 162.879C49.7301 162.994 49.6585 163.109 49.5726 163.224C49.4008 163.484 49.272 163.7 49.229 163.916L48.7136 163.872C48.7566 163.484 48.9284 163.224 49.1002 162.965C49.1861 162.85 49.2577 162.735 49.3149 162.62L49.7874 162.879Z" fill="#008554"/>
<path d="M41.1966 146.162L41.2826 146.681C40.6813 146.767 39.6504 146.681 39.2209 146.421L39.4786 145.946C39.7793 146.119 40.6812 146.249 41.1966 146.162Z" fill="#008554"/>
<path d="M41.7994 145.298V145.816C41.1122 145.816 40.425 145.73 39.6948 145.557L39.8237 145.039C40.5109 145.212 41.1122 145.298 41.7994 145.298Z" fill="#008554"/>
<path d="M17.745 145.644C12.8916 149.661 8.59661 154.197 9.67036 160.115L9.15496 160.244C7.99531 154.024 12.4192 149.359 17.4014 145.212L17.745 145.644Z" fill="#008554"/>
<path d="M12.59 146.465C10.9149 147.933 8.76741 150.482 8.38086 152.728L7.82251 152.598C8.25201 150.223 10.3995 147.674 12.2464 146.076L12.59 146.465Z" fill="#008554"/>
<path d="M48.797 170.093C48.6538 170.467 48.525 170.856 48.4105 171.259C47.6374 173.721 46.7783 176.443 44.2872 177.825L44.0295 177.35C46.3488 176.097 47.1219 173.549 47.895 171.13C48.0096 170.698 48.1384 170.295 48.2816 169.92L48.797 170.093Z" fill="#008554"/>
<path d="M49.5709 173.808C49.5279 175.017 48.7548 176.659 47.8529 177.35L47.5093 176.918C48.2824 176.313 48.9696 174.844 49.0555 173.808H49.5709Z" fill="#008554"/>
<path d="M45.0157 155.881C45.2305 156.4 45.2304 156.832 45.2734 157.264C45.2734 157.523 45.2734 157.782 45.3164 158.041C45.4023 158.603 45.4023 158.991 45.4023 159.38C45.4023 159.596 45.4023 159.812 45.4023 160.071C45.4023 160.201 45.4452 160.417 45.4881 160.633C45.617 161.151 45.7888 161.842 45.3164 162.188C45.4882 162.49 45.617 162.922 45.3164 163.268C45.3164 163.297 45.3164 163.311 45.3164 163.311C45.5311 163.743 45.66 164.175 45.4881 164.564C45.4022 164.708 45.2591 164.837 45.0586 164.952C45.2304 165.212 45.3593 165.557 45.4881 165.86L45.617 166.119L45.3164 166.205C45.2305 166.263 45.1732 166.306 45.1446 166.335C45.1446 166.421 45.2734 166.68 45.3593 166.896L45.5741 167.285L45.2305 167.371C45.1446 167.371 45.0587 167.415 44.9727 167.458C44.9155 167.487 44.8725 167.515 44.8439 167.544C44.9584 167.861 44.9728 168.149 44.8869 168.408C44.8296 168.667 44.6864 168.869 44.4573 169.013C44.6292 169.358 44.6292 169.574 44.5862 169.747C44.5003 170.006 44.3285 170.093 44.1567 170.179C43.9849 170.266 43.8561 170.352 43.7272 170.525C43.6842 170.568 43.7272 170.697 43.7272 170.784C43.7702 171 43.8561 171.302 43.6413 171.518C43.5125 171.734 43.2977 171.777 42.9971 171.864C42.9398 171.864 42.8968 171.878 42.8682 171.907C42.9541 172.339 42.9541 172.469 42.8682 172.598C42.7823 172.685 42.6534 172.771 42.4816 172.857C42.4244 172.886 42.3814 172.915 42.3528 172.944C42.2669 173.073 42.138 173.203 42.0092 173.246C42.0092 173.289 42.0951 173.419 42.181 173.635L42.3957 173.98L42.0092 174.024C41.7085 174.067 41.4938 174.153 41.4079 174.283C41.3793 174.34 41.3936 174.441 41.4508 174.585L41.5797 174.844L41.322 174.931C41.0643 175.06 40.7636 175.06 40.5489 175.06C40.5203 175.06 40.4916 175.06 40.463 175.06C40.5059 175.19 40.5059 175.319 40.42 175.449C40.2912 175.708 39.9476 175.665 39.6469 175.665C39.5181 175.622 39.3463 175.622 39.3033 175.665C39.2604 175.665 39.2604 175.708 39.2604 175.751C39.2174 175.838 39.2174 176.097 38.9597 176.183C38.745 176.27 38.5302 176.27 38.3155 176.227C38.1866 176.227 38.0578 176.227 37.9719 176.27C37.8001 176.313 37.7142 176.443 37.5853 176.615C37.4565 176.745 37.3276 176.918 37.1129 177.047C36.6834 177.263 36.2968 177.22 35.9532 177.134C35.7385 177.091 35.5237 177.047 35.3519 177.091C35.2231 177.091 35.0513 177.177 34.9224 177.263C34.7077 177.35 34.4929 177.479 34.2352 177.522C33.9346 177.522 33.6339 177.436 33.3762 177.306C33.2044 177.263 33.0326 177.177 32.9038 177.177C32.4313 177.177 31.9159 177.35 31.4005 177.566C31.1428 177.652 30.8422 177.738 30.5845 177.825C30.1979 177.911 29.8973 177.868 29.5966 177.825C29.4248 177.782 29.2101 177.738 28.9953 177.738C28.9094 177.738 28.7806 177.825 28.6947 177.868C28.4799 177.954 28.2652 178.041 28.0075 177.998C27.7068 177.998 27.4491 177.825 27.1914 177.652C27.0196 177.522 26.8478 177.436 26.676 177.393C26.5472 177.35 26.4613 177.35 26.3324 177.306C26.1177 177.306 25.9029 177.306 25.6452 177.177C24.9151 176.788 24.1849 176.356 23.6695 176.054C23.0682 175.665 22.381 175.233 21.7797 174.801C21.1355 174.369 20.5342 173.937 19.9329 173.548L20.2335 173.116C20.8348 173.505 21.4361 173.937 22.0804 174.326C22.6817 174.758 23.3259 175.233 23.9702 175.622C24.4426 175.924 25.1728 176.313 25.86 176.702C26.0318 176.745 26.2036 176.788 26.3754 176.788C26.5042 176.788 26.676 176.788 26.8478 176.875C27.0626 176.918 27.2773 177.047 27.4491 177.177C27.6639 177.306 27.9216 177.436 28.0934 177.479C28.1793 177.479 28.3081 177.436 28.437 177.393C28.6088 177.306 28.7806 177.22 28.9953 177.22C29.253 177.177 29.5107 177.263 29.6825 177.263C29.9402 177.35 30.1979 177.393 30.4556 177.306C30.6847 177.22 30.9424 177.134 31.2287 177.047C31.7441 176.831 32.3025 176.615 32.9038 176.659C33.1615 176.659 33.3762 176.745 33.591 176.831C33.8057 176.918 34.0205 177.004 34.1923 176.961C34.3641 176.961 34.4929 176.875 34.6647 176.788C34.8365 176.702 35.0513 176.572 35.266 176.572C35.5237 176.529 35.7814 176.572 36.0391 176.615C36.3398 176.659 36.5975 176.702 36.8552 176.572C36.984 176.486 37.0699 176.399 37.1558 176.27C37.2847 176.097 37.4565 175.881 37.8001 175.751C37.9719 175.665 38.1866 175.708 38.3584 175.708C38.4873 175.708 38.6161 175.708 38.702 175.708C38.702 175.679 38.702 175.665 38.702 175.665C38.745 175.535 38.7879 175.276 39.0886 175.147C39.2604 175.06 39.4751 175.103 39.6899 175.103C39.7758 175.103 39.8187 175.103 39.9046 175.103C39.876 175.075 39.8331 175.032 39.7758 174.974L39.561 174.628L39.9476 174.542C40.1623 174.499 40.3771 174.499 40.5489 174.499C40.6634 174.499 40.778 174.499 40.8925 174.499C40.8495 174.283 40.8925 174.153 40.9354 174.024C41.05 173.822 41.2647 173.678 41.5797 173.592C41.4079 173.246 41.4079 172.987 41.7515 172.771C41.8374 172.728 41.8803 172.685 41.9662 172.598C42.0092 172.512 42.0951 172.469 42.2239 172.425C42.2669 172.382 42.3528 172.339 42.3957 172.296C42.3528 172.209 42.3098 171.993 42.3098 171.907L42.2239 171.605L42.3957 171.518C42.5246 171.432 42.6964 171.389 42.8682 171.345C42.997 171.302 43.1688 171.259 43.2547 171.216C43.2547 171.173 43.2548 171 43.2118 170.87C43.1689 170.698 43.1259 170.438 43.2547 170.266C43.4695 169.92 43.7272 169.79 43.899 169.704C43.9849 169.661 44.0708 169.618 44.0708 169.618C44.0708 169.574 44.1138 169.488 43.8561 169.056L43.7272 168.797L43.9849 168.667C44.214 168.581 44.3428 168.451 44.3715 168.279C44.4574 168.019 44.3285 167.717 44.1996 167.501L44.0278 167.112H44.4144C44.5003 167.069 44.6292 167.026 44.7151 166.983C44.7437 166.954 44.7723 166.939 44.801 166.939C44.6721 166.68 44.5433 166.378 44.6721 166.119C44.7007 166.004 44.7723 165.903 44.8869 165.816C44.758 165.514 44.6291 165.212 44.4144 164.952L44.1567 164.607L44.5862 164.52C44.758 164.477 44.9298 164.434 45.0157 164.304C45.1446 164.089 44.8439 163.57 44.758 163.354L44.6721 163.181L44.8439 163.009C45.0157 162.879 44.9728 162.663 44.7151 162.188L44.5432 161.886L44.8869 161.799C45.1016 161.756 45.1446 161.497 44.9727 160.762C44.9298 160.503 44.8868 160.287 44.8439 160.071C44.8439 159.812 44.8439 159.596 44.8439 159.337C44.8439 158.991 44.8869 158.646 44.801 158.171C44.7151 157.825 44.7151 157.523 44.7151 157.264C44.7151 156.788 44.7151 156.443 44.4573 155.968C44.3715 155.838 44.1996 155.579 44.0278 155.363C43.5554 154.672 43.2118 154.197 43.2118 153.808H43.7272C43.7272 154.024 44.1996 154.672 44.4573 155.017C44.6721 155.32 44.801 155.536 44.9298 155.708C44.9584 155.766 44.9871 155.824 45.0157 155.881Z" fill="#008554"/>
</g>
</svg>
