<svg width="133" height="56" viewBox="0 0 133 56" fill="none" xmlns="http://www.w3.org/2000/svg">
<g opacity="0.35">
<path d="M126.507 14.6087C126.507 16.4016 127.961 17.8551 129.754 17.8551C131.547 17.8551 133 16.4016 133 14.6087C133 12.8158 131.547 11.3623 129.754 11.3623C127.961 11.3623 126.507 12.8158 126.507 14.6087Z" fill="white"/>
<circle cx="6.08696" cy="6.08696" r="6.08696" transform="matrix(-1 0 0 1 63.6084 26.7827)" fill="white"/>
<path d="M35.6608 15.0621L35.2757 15.1899L35.6608 15.0621ZM17.1273 4.71529L16.7681 4.52658C16.7738 4.51563 16.7801 4.50495 16.7868 4.49457L17.1273 4.71529ZM74.4386 39.1642L74.7018 39.473L74.7004 39.4742L74.4386 39.1642ZM95.5382 21.1805L95.275 20.8717C95.2788 20.8684 95.2827 20.8652 95.2866 20.8621L95.5382 21.1805ZM118.064 23.8904L118.388 23.646L118.064 23.8904ZM129.351 15.7086C129.38 15.4863 129.584 15.3295 129.806 15.3583C130.028 15.3872 130.185 15.5907 130.156 15.813L129.351 15.7086ZM129.735 18.5588C129.695 18.7794 129.484 18.926 129.264 18.8864C129.043 18.8467 128.896 18.6358 128.936 18.4152L129.735 18.5588ZM127.57 23.6788C127.649 23.469 127.883 23.363 128.093 23.442C128.302 23.521 128.408 23.755 128.329 23.9648L127.57 23.6788ZM124.797 28.4336C124.584 28.505 124.354 28.3907 124.283 28.1783C124.211 27.9659 124.326 27.7357 124.538 27.6643L124.797 28.4336ZM120.147 25.7137C120.304 25.8733 120.302 26.1302 120.143 26.2876C119.983 26.445 119.726 26.4432 119.569 26.2837L120.147 25.7137ZM115.669 21.7868C115.508 21.6316 115.502 21.3747 115.658 21.2131C115.813 21.0514 116.07 21.0462 116.231 21.2014L115.669 21.7868ZM110.71 17.746C110.922 17.8192 111.035 18.0502 110.961 18.262C110.888 18.4739 110.657 18.5863 110.445 18.5131L110.71 17.746ZM104.326 17.9198C104.103 17.9478 103.9 17.7902 103.872 17.5678C103.844 17.3455 104.002 17.1425 104.224 17.1145L104.326 17.9198ZM98.0325 19.0986C98.231 18.9946 98.4763 19.0713 98.5802 19.2698C98.6842 19.4684 98.6076 19.7136 98.409 19.8176L98.0325 19.0986ZM93.164 23.7373C92.9934 23.8827 92.7373 23.8623 92.5919 23.6917C92.4466 23.5211 92.467 23.265 92.6375 23.1196L93.164 23.7373ZM87.3626 27.6155C87.5332 27.4702 87.7893 27.4906 87.9347 27.6611C88.0801 27.8317 88.0597 28.0878 87.8891 28.2332L87.3626 27.6155ZM82.6142 32.7291C82.4436 32.8745 82.1875 32.8541 82.0421 32.6835C81.8967 32.513 81.9171 32.2568 82.0877 32.1115L82.6142 32.7291ZM76.8128 36.6074C76.9834 36.462 77.2395 36.4824 77.3849 36.653C77.5302 36.8236 77.5098 37.0797 77.3393 37.2251L76.8128 36.6074ZM72.3802 41.32C72.2005 41.4539 71.9463 41.4169 71.8123 41.2372C71.6784 41.0575 71.7155 40.8032 71.8952 40.6693L72.3802 41.32ZM66.972 43.7605C67.1722 43.6598 67.4161 43.7405 67.5168 43.9407C67.6176 44.1409 67.5369 44.3848 67.3367 44.4856L66.972 43.7605ZM61.7013 46.4325C61.4806 46.4715 61.2701 46.3242 61.2311 46.1035C61.1922 45.8828 61.3395 45.6722 61.5602 45.6333L61.7013 46.4325ZM55.9197 45.4518C56.1365 45.5084 56.2665 45.73 56.21 45.9469C56.1534 46.1637 55.9318 46.2937 55.7149 46.2371L55.9197 45.4518ZM50.3643 43.534C50.1871 43.3968 50.1546 43.142 50.2918 42.9647C50.4289 42.7875 50.6838 42.755 50.861 42.8922L50.3643 43.534ZM46.8444 38.7754C46.9813 38.9528 46.9485 39.2076 46.771 39.3445C46.5936 39.4814 46.3388 39.4486 46.2019 39.2712L46.8444 38.7754ZM42.9726 34.2979C42.8638 34.102 42.9344 33.8549 43.1303 33.7461C43.3262 33.6373 43.5733 33.7078 43.6821 33.9038L42.9726 34.2979ZM41.1062 28.668C41.1965 28.8731 41.1033 29.1126 40.8982 29.2029C40.6931 29.2931 40.4536 29.2 40.3633 28.9948L41.1062 28.668ZM38.1594 23.5268C38.0812 23.3167 38.1881 23.0831 38.3981 23.0049C38.6081 22.9267 38.8418 23.0335 38.92 23.2435L38.1594 23.5268ZM36.9727 17.7126C37.0443 17.925 36.9301 18.1552 36.7177 18.2267C36.5053 18.2983 36.2752 18.1841 36.2036 17.9717L36.9727 17.7126ZM34.0139 11.8852C33.9254 11.6793 34.0206 11.4406 34.2265 11.3521C34.4324 11.2637 34.671 11.3589 34.7595 11.5648L34.0139 11.8852ZM31.3332 5.20897C31.4598 5.39393 31.4124 5.64647 31.2275 5.77304C31.0425 5.8996 30.79 5.85227 30.6634 5.66731L31.3332 5.20897ZM25.7246 0.912478C25.5214 0.817944 25.4333 0.576581 25.5279 0.373379C25.6224 0.170177 25.8638 0.0820845 26.067 0.176619L25.7246 0.912478ZM19.0876 1.64438C19.2501 1.49005 19.5069 1.49668 19.6613 1.6592C19.8156 1.82171 19.8089 2.07856 19.6464 2.23289L19.0876 1.64438ZM16.0847 7.57281C15.9805 7.77121 15.7351 7.84757 15.5367 7.74335C15.3383 7.63913 15.262 7.3938 15.3662 7.19539L16.0847 7.57281ZM12.5624 12.533C12.6666 12.3346 12.9119 12.2583 13.1104 12.3625C13.3088 12.4667 13.3851 12.712 13.2809 12.9104L12.5624 12.533ZM10.4771 18.2481C10.3729 18.4465 10.1276 18.5228 9.92915 18.4186C9.73074 18.3144 9.65439 18.069 9.75861 17.8706L10.4771 18.2481ZM6.95483 23.2083C7.05905 23.0098 7.30438 22.9335 7.50279 23.0377C7.70119 23.1419 7.77755 23.3873 7.67333 23.5857L6.95483 23.2083ZM4.86954 28.9233C4.76533 29.1217 4.52 29.1981 4.32159 29.0938C4.12318 28.9896 4.04683 28.7443 4.15105 28.5459L4.86954 28.9233ZM1.34726 33.8835C1.45149 33.6851 1.69681 33.6087 1.89523 33.713C2.09363 33.8172 2.16998 34.0625 2.06577 34.2609L1.34726 33.8835ZM130.156 15.813C130.04 16.7095 129.901 17.6352 129.735 18.5588L128.936 18.4152C129.099 17.5066 129.237 16.5942 129.351 15.7086L130.156 15.813ZM128.329 23.9648C127.921 25.0488 127.439 26.0243 126.865 26.7967C126.291 27.5684 125.609 28.1605 124.797 28.4336L124.538 27.6643C125.141 27.4615 125.7 27.0037 126.213 26.3126C126.726 25.6222 127.177 24.7221 127.57 23.6788L128.329 23.9648ZM119.569 26.2837C118.987 25.6935 118.378 24.9807 117.74 24.1348L118.388 23.646C119.009 24.4694 119.595 25.154 120.147 25.7137L119.569 26.2837ZM117.74 24.1348C117.067 23.2428 116.374 22.4639 115.669 21.7868L116.231 21.2014C116.969 21.9101 117.69 22.7216 118.388 23.646L117.74 24.1348ZM110.445 18.5131C108.368 17.7959 106.285 17.6734 104.326 17.9198L104.224 17.1145C106.288 16.855 108.499 16.9824 110.71 17.746L110.445 18.5131ZM98.409 19.8176C97.3855 20.3536 96.4979 20.9393 95.7899 21.4989L95.2866 20.8621C96.0357 20.2701 96.966 19.6572 98.0325 19.0986L98.409 19.8176ZM95.8015 21.4893L93.164 23.7373L92.6375 23.1196L95.275 20.8717L95.8015 21.4893ZM87.8891 28.2332L82.6142 32.7291L82.0877 32.1115L87.3626 27.6155L87.8891 28.2332ZM77.3393 37.2251L74.7018 39.473L74.1753 38.8553L76.8128 36.6074L77.3393 37.2251ZM74.7004 39.4742C73.9121 40.1399 73.1388 40.7545 72.3802 41.32L71.8952 40.6693C72.6398 40.1142 73.4002 39.5099 74.1768 38.8541L74.7004 39.4742ZM67.3367 44.4856C65.3507 45.4847 63.4749 46.1193 61.7013 46.4325L61.5602 45.6333C63.2451 45.3357 65.0458 44.7296 66.972 43.7605L67.3367 44.4856ZM55.7149 46.2371C53.7642 45.7285 51.9867 44.7897 50.3643 43.534L50.861 42.8922C52.4109 44.0917 54.0909 44.975 55.9197 45.4518L55.7149 46.2371ZM46.2019 39.2712C45.0315 37.7546 43.9593 36.074 42.9726 34.2979L43.6821 33.9038C44.6536 35.6526 45.7041 37.2976 46.8444 38.7754L46.2019 39.2712ZM40.3633 28.9948C39.5669 27.1848 38.8357 25.3428 38.1594 23.5268L38.92 23.2435C39.5923 25.0489 40.3176 26.8757 41.1062 28.668L40.3633 28.9948ZM36.2036 17.9717C35.881 17.0142 35.5722 16.0833 35.2757 15.1899L36.0459 14.9342C36.3426 15.828 36.6508 16.7572 36.9727 17.7126L36.2036 17.9717ZM35.2757 15.1899C34.9409 14.1814 34.5165 13.0549 34.0139 11.8852L34.7595 11.5648C35.2711 12.7553 35.7038 13.9033 36.0459 14.9342L35.2757 15.1899ZM30.6634 5.66731C29.1775 3.4959 27.4962 1.73667 25.7246 0.912478L26.067 0.176619C28.0359 1.09261 29.8184 2.99532 31.3332 5.20897L30.6634 5.66731ZM19.6464 2.23289C18.9311 2.91215 18.2028 3.80201 17.4678 4.936L16.7868 4.49457C17.5485 3.31937 18.3162 2.37685 19.0876 1.64438L19.6464 2.23289ZM17.4866 4.904L16.0847 7.57281L15.3662 7.19539L16.7681 4.52658L17.4866 4.904ZM13.2809 12.9104L10.4771 18.2481L9.75861 17.8706L12.5624 12.533L13.2809 12.9104ZM7.67333 23.5857L4.86954 28.9233L4.15105 28.5459L6.95483 23.2083L7.67333 23.5857ZM2.06577 34.2609L0.663864 36.9297L-0.0546265 36.5523L1.34726 33.8835L2.06577 34.2609Z" fill="white"/>
<path opacity="0.3" d="M10.0432 45.8549C10.0432 51.4578 14.5852 55.9998 20.1881 55.9998C25.791 55.9998 30.333 51.4578 30.333 45.8549C30.333 40.252 25.791 35.71 20.1881 35.71C14.5852 35.71 10.0432 40.252 10.0432 45.8549Z" fill="white"/>
</g>
</svg>
