<svg width="190" height="80" viewBox="0 0 190 80" fill="none" xmlns="http://www.w3.org/2000/svg">
<g opacity="0.4">
<path d="M9.27536 20.8696C9.27536 23.4309 7.199 25.5073 4.63768 25.5073C2.07636 25.5073 0 23.4309 0 20.8696C0 18.3083 2.07636 16.2319 4.63768 16.2319C7.199 16.2319 9.27536 18.3083 9.27536 20.8696Z" fill="white"/>
<circle cx="107.827" cy="46.9566" r="8.69565" fill="white"/>
<path d="M139.056 21.5172L139.607 21.6998L139.056 21.5172ZM165.533 6.73612L166.046 6.46654C166.038 6.4509 166.029 6.43565 166.019 6.42082L165.533 6.73612ZM83.6596 55.9488L83.2836 56.39L83.2856 56.3917L83.6596 55.9488ZM53.5172 30.2579L53.8933 29.8167C53.8878 29.812 53.8823 29.8075 53.8767 29.8031L53.5172 30.2579ZM21.3382 34.1291L20.8754 33.78L21.3382 34.1291ZM5.21259 22.4408C5.17141 22.1233 4.88064 21.8993 4.56313 21.9405C4.24563 21.9817 4.02162 22.2724 4.0628 22.59L5.21259 22.4408ZM4.66485 26.5126C4.72151 26.8277 5.02289 27.0372 5.338 26.9805C5.65311 26.9239 5.86263 26.6225 5.80596 26.3074L4.66485 26.5126ZM7.75767 33.8268C7.64486 33.5272 7.31051 33.3758 7.01088 33.4886C6.71125 33.6014 6.5598 33.9357 6.67261 34.2354L7.75767 33.8268ZM11.7193 40.6194C12.0227 40.7215 12.3515 40.5582 12.4535 40.2547C12.5555 39.9512 12.3923 39.6225 12.0888 39.5205L11.7193 40.6194ZM18.362 36.7339C18.1372 36.9619 18.1397 37.3289 18.3677 37.5537C18.5956 37.7786 18.9626 37.776 19.1875 37.5481L18.362 36.7339ZM24.7586 31.1241C24.9896 30.9023 24.9971 30.5354 24.7753 30.3044C24.5536 30.0734 24.1866 30.066 23.9557 30.2877L24.7586 31.1241ZM31.8428 25.3514C31.5402 25.4559 31.3796 25.786 31.4841 26.0886C31.5886 26.3912 31.9186 26.5519 32.2212 26.4474L31.8428 25.3514ZM40.9639 25.5997C41.2816 25.6397 41.5715 25.4145 41.6114 25.0969C41.6514 24.7792 41.4263 24.4893 41.1086 24.4494L40.9639 25.5997ZM49.954 27.2837C49.6704 27.1352 49.32 27.2447 49.1715 27.5283C49.023 27.8119 49.1325 28.1623 49.4161 28.3108L49.954 27.2837ZM56.909 33.9104C57.1526 34.1181 57.5185 34.0889 57.7262 33.8453C57.9339 33.6016 57.9047 33.2357 57.6611 33.028L56.909 33.9104ZM65.1967 39.4508C64.953 39.2431 64.5871 39.2723 64.3794 39.5159C64.1717 39.7596 64.2009 40.1255 64.4446 40.3332L65.1967 39.4508ZM71.9802 46.7559C72.2238 46.9636 72.5897 46.9344 72.7974 46.6908C73.0051 46.4471 72.9759 46.0812 72.7323 45.8735L71.9802 46.7559ZM80.2678 52.2962C80.0242 52.0886 79.6583 52.1177 79.4506 52.3614C79.2429 52.6051 79.2721 52.971 79.5158 53.1786L80.2678 52.2962ZM86.6001 59.0285C86.8568 59.2199 87.22 59.1669 87.4114 58.9102C87.6027 58.6536 87.5497 58.2903 87.2931 58.099L86.6001 59.0285ZM94.3262 62.5151C94.0402 62.3712 93.6917 62.4864 93.5478 62.7724C93.4039 63.0584 93.5191 63.4069 93.8051 63.5508L94.3262 62.5151ZM101.856 66.3321C102.171 66.3878 102.472 66.1774 102.527 65.8621C102.583 65.5468 102.373 65.2461 102.057 65.1904L101.856 66.3321ZM110.115 64.9312C109.805 65.0119 109.62 65.3286 109.7 65.6384C109.781 65.9482 110.098 66.1338 110.408 66.0531L110.115 64.9312ZM118.051 62.1914C118.305 61.9955 118.351 61.6314 118.155 61.3782C117.959 61.125 117.595 61.0786 117.342 61.2745L118.051 62.1914ZM123.08 55.3934C122.884 55.6468 122.931 56.0109 123.185 56.2065C123.438 56.4021 123.802 56.3552 123.998 56.1017L123.08 55.3934ZM128.611 48.997C128.766 48.7171 128.666 48.3642 128.386 48.2087C128.106 48.0532 127.753 48.1541 127.597 48.4339L128.611 48.997ZM131.277 40.9543C131.148 41.2473 131.281 41.5894 131.574 41.7184C131.867 41.8473 132.21 41.7143 132.338 41.4212L131.277 40.9543ZM135.487 33.6097C135.599 33.3096 135.446 32.9758 135.146 32.8641C134.846 32.7524 134.512 32.905 134.4 33.2051L135.487 33.6097ZM137.182 25.3037C137.08 25.6071 137.243 25.9359 137.547 26.0382C137.85 26.1404 138.179 25.9773 138.281 25.6739L137.182 25.3037ZM141.409 16.9788C141.536 16.6847 141.4 16.3437 141.105 16.2173C140.811 16.0909 140.47 16.2269 140.344 16.5211L141.409 16.9788ZM145.239 7.44139C145.058 7.70562 145.126 8.06638 145.39 8.24719C145.654 8.428 146.015 8.36038 146.196 8.09616L145.239 7.44139ZM153.251 1.30354C153.541 1.16849 153.667 0.823686 153.532 0.533397C153.397 0.243109 153.052 0.117263 152.762 0.252312L153.251 1.30354ZM162.732 2.34911C162.5 2.12864 162.133 2.13812 161.913 2.37028C161.692 2.60244 161.702 2.96937 161.934 3.18984L162.732 2.34911ZM167.022 10.8183C167.171 11.1017 167.522 11.2108 167.805 11.0619C168.089 10.913 168.198 10.5626 168.049 10.2791L167.022 10.8183ZM172.054 17.9043C171.905 17.6209 171.555 17.5118 171.271 17.6607C170.988 17.8096 170.879 18.16 171.028 18.4435L172.054 17.9043ZM175.033 26.0686C175.182 26.3521 175.532 26.4612 175.816 26.3123C176.099 26.1634 176.208 25.8129 176.06 25.5295L175.033 26.0686ZM180.065 33.1547C179.916 32.8712 179.566 32.7621 179.282 32.911C178.999 33.0599 178.89 33.4104 179.039 33.6938L180.065 33.1547ZM183.044 41.319C183.193 41.6024 183.543 41.7115 183.827 41.5626C184.11 41.4137 184.219 41.0633 184.07 40.7798L183.044 41.319ZM188.076 48.405C187.927 48.1216 187.576 48.0125 187.293 48.1614C187.01 48.3103 186.9 48.6607 187.049 48.9442L188.076 48.405ZM4.0628 22.59C4.22892 23.8708 4.4276 25.1932 4.66485 26.5126L5.80596 26.3074C5.57258 25.0095 5.37668 23.706 5.21259 22.4408L4.0628 22.59ZM6.67261 34.2354C7.25566 35.784 7.94511 37.1776 8.76503 38.281C9.58426 39.3834 10.5589 40.2292 11.7193 40.6194L12.0888 39.5205C11.227 39.2307 10.4293 38.5766 9.69564 37.5894C8.96272 36.6031 8.31883 35.3173 7.75767 33.8268L6.67261 34.2354ZM19.1875 37.5481C20.0191 36.705 20.8893 35.6867 21.801 34.4782L20.8754 33.78C19.988 34.9563 19.1508 35.9342 18.362 36.7339L19.1875 37.5481ZM21.801 34.4782C22.7623 33.2039 23.7512 32.0912 24.7586 31.1241L23.9557 30.2877C22.9011 31.3001 21.8716 32.4595 20.8754 33.78L21.801 34.4782ZM32.2212 26.4474C35.1886 25.4227 38.1653 25.2477 40.9639 25.5997L41.1086 24.4494C38.1609 24.0786 35.0022 24.2605 31.8428 25.3514L32.2212 26.4474ZM49.4161 28.3108C50.8783 29.0766 52.1463 29.9133 53.1578 30.7127L53.8767 29.8031C52.8066 28.9573 51.4776 28.0817 49.954 27.2837L49.4161 28.3108ZM53.1412 30.6991L56.909 33.9104L57.6611 33.028L53.8933 29.8167L53.1412 30.6991ZM64.4446 40.3332L71.9802 46.7559L72.7323 45.8735L65.1967 39.4508L64.4446 40.3332ZM79.5158 53.1786L83.2836 56.39L84.0356 55.5076L80.2678 52.2962L79.5158 53.1786ZM83.2856 56.3917C84.4117 57.3427 85.5164 58.2207 86.6001 59.0285L87.2931 58.099C86.2293 57.306 85.143 56.4427 84.0336 55.5059L83.2856 56.3917ZM93.8051 63.5508C96.6422 64.9781 99.3219 65.8847 101.856 66.3321L102.057 65.1904C99.6503 64.7653 97.0778 63.8994 94.3262 62.5151L93.8051 63.5508ZM110.408 66.0531C113.194 65.3265 115.734 63.9853 118.051 62.1914L117.342 61.2745C115.128 62.9881 112.728 64.25 110.115 64.9312L110.408 66.0531ZM123.998 56.1017C125.67 53.9351 127.201 51.5343 128.611 48.997L127.597 48.4339C126.209 50.9323 124.709 53.2824 123.08 55.3934L123.998 56.1017ZM132.338 41.4212C133.476 38.8354 134.521 36.204 135.487 33.6097L134.4 33.2051C133.44 35.7841 132.404 38.3938 131.277 40.9543L132.338 41.4212ZM138.281 25.6739C138.742 24.3061 139.183 22.9761 139.607 21.6998L138.506 21.3346C138.082 22.6114 137.642 23.9388 137.182 25.3037L138.281 25.6739ZM139.607 21.6998C140.085 20.2592 140.691 18.6499 141.409 16.9788L140.344 16.5211C139.613 18.2218 138.995 19.8619 138.506 21.3346L139.607 21.6998ZM146.196 8.09616C148.318 4.99414 150.72 2.48096 153.251 1.30354L152.762 0.252312C149.949 1.56087 147.403 4.27903 145.239 7.44139L146.196 8.09616ZM161.934 3.18984C162.956 4.16022 163.996 5.43145 165.046 7.05143L166.019 6.42082C164.931 4.74196 163.834 3.3955 162.732 2.34911L161.934 3.18984ZM165.02 7.00571L167.022 10.8183L168.049 10.2791L166.046 6.46654L165.02 7.00571ZM171.028 18.4435L175.033 26.0686L176.06 25.5295L172.054 17.9043L171.028 18.4435ZM179.039 33.6938L183.044 41.319L184.07 40.7798L180.065 33.1547L179.039 33.6938ZM187.049 48.9442L189.052 52.7568L190.078 52.2176L188.076 48.405L187.049 48.9442Z" fill="white"/>
<path opacity="0.3" d="M175.653 65.5072C175.653 73.5113 169.164 79.9999 161.16 79.9999C153.156 79.9999 146.667 73.5113 146.667 65.5072C146.667 57.503 153.156 51.0144 161.16 51.0144C169.164 51.0144 175.653 57.503 175.653 65.5072Z" fill="white"/>
</g>
</svg>
