<svg width="41" height="41" viewBox="0 0 41 41" fill="none" xmlns="http://www.w3.org/2000/svg">
<circle cx="20.0967" cy="20.0967" r="20.0967" fill="#008554"/>
<path d="M28.3323 14.0417V23.95C28.3323 24.7583 27.674 25.5 26.8657 25.6L26.6073 25.6333C25.2407 25.8167 23.3157 26.3833 21.7657 27.0333C21.224 27.2583 20.624 26.85 20.624 26.2583V14.6667C20.624 14.3584 20.799 14.0751 21.074 13.9251C22.599 13.1001 24.9073 12.3667 26.474 12.2334H26.524C27.524 12.2334 28.3323 13.0417 28.3323 14.0417Z" fill="white"/>
<path d="M18.9241 13.9251C17.3991 13.1001 15.0908 12.3667 13.5241 12.2334H13.4658C12.4658 12.2334 11.6575 13.0417 11.6575 14.0417V23.95C11.6575 24.7583 12.3158 25.5 13.1241 25.6L13.3825 25.6333C14.7491 25.8167 16.6741 26.3833 18.2241 27.0333C18.7658 27.2583 19.3658 26.85 19.3658 26.2583V14.6667C19.3658 14.3501 19.1991 14.0751 18.9241 13.9251ZM14.1658 16.45H16.0408C16.3824 16.45 16.6658 16.7334 16.6658 17.075C16.6658 17.425 16.3824 17.7 16.0408 17.7H14.1658C13.8241 17.7 13.5408 17.425 13.5408 17.075C13.5408 16.7334 13.8241 16.45 14.1658 16.45ZM16.6658 20.2H14.1658C13.8241 20.2 13.5408 19.925 13.5408 19.575C13.5408 19.2334 13.8241 18.95 14.1658 18.95H16.6658C17.0074 18.95 17.2908 19.2334 17.2908 19.575C17.2908 19.925 17.0074 20.2 16.6658 20.2Z" fill="white"/>
</svg>
