<svg width="64" height="64" viewBox="0 0 64 64" fill="none" xmlns="http://www.w3.org/2000/svg">
<path opacity="0.4" d="M46.7468 20.7199C46.5601 20.6933 46.3734 20.6933 46.1868 20.7199C42.0534 20.5866 38.7734 17.1999 38.7734 13.0399C38.7734 8.79992 42.2134 5.33325 46.4801 5.33325C50.7201 5.33325 54.1868 8.77325 54.1868 13.0399C54.1601 17.1999 50.8801 20.5866 46.7468 20.7199Z" fill="#008554"/>
<path opacity="0.4" d="M55.4399 39.2001C52.4533 41.2001 48.2666 41.9467 44.3999 41.4401C45.4133 39.2534 45.9466 36.8268 45.9733 34.2668C45.9733 31.6001 45.3866 29.0668 44.2666 26.8534C48.2133 26.3201 52.3999 27.0667 55.4133 29.0667C59.6266 31.8401 59.6266 36.4001 55.4399 39.2001Z" fill="#008554"/>
<path opacity="0.4" d="M17.1734 20.7199C17.3601 20.6933 17.5467 20.6933 17.7334 20.7199C21.8667 20.5866 25.1467 17.1999 25.1467 13.0399C25.1467 8.79992 21.7067 5.33325 17.4401 5.33325C13.2001 5.33325 9.7334 8.77325 9.7334 13.0399C9.76007 17.1999 13.0401 20.5866 17.1734 20.7199Z" fill="#008554"/>
<path opacity="0.4" d="M17.4667 34.2668C17.4667 36.8535 18.0267 39.3068 19.0401 41.5201C15.2801 41.9201 11.3601 41.1201 8.48007 39.2268C4.26674 36.4268 4.26674 31.8668 8.48007 29.0668C11.3334 27.1468 15.3601 26.3734 19.1467 26.8001C18.0534 29.0401 17.4667 31.5735 17.4667 34.2668Z" fill="#008554"/>
<path d="M32.32 42.32C32.1067 42.2933 31.8667 42.2933 31.6267 42.32C26.7201 42.16 22.8 38.1333 22.8 33.1733C22.8 28.1067 26.8801 24 31.9734 24C37.0401 24 41.1467 28.1067 41.1467 33.1733C41.1467 38.1333 37.2534 42.16 32.32 42.32Z" fill="#008554"/>
<path d="M23.6533 47.84C19.6266 50.5334 19.6266 54.96 23.6533 57.6267C28.24 60.6934 35.76 60.6934 40.3466 57.6267C44.3733 54.9334 44.3733 50.5067 40.3466 47.84C35.7866 44.7734 28.2666 44.7734 23.6533 47.84Z" fill="#008554"/>
</svg>
