<svg width="1441" height="215" viewBox="0 0 1441 215" fill="none" xmlns="http://www.w3.org/2000/svg">
<path opacity="0.18" d="M1 164.276C9.98593 167.437 32.9732 171.863 53.0348 164.276C73.0964 156.688 80.2016 141.146 81.2464 134.324C89.8144 121.345 117.232 110.961 158.358 173.261C169.852 188.403 202.619 215.193 241.739 201.216C280.859 187.238 284.788 176.755 281.863 173.261C296.282 148.634 335.277 103.273 375.901 118.848C416.526 134.423 448.834 98.7144 459.909 78.9131C463.671 69.0955 479.971 53.6537 515.079 70.4267C550.187 87.1998 587.802 58.1128 602.221 41.4727C613.506 25.4987 644.727 10.6231 679.333 78.9131C713.939 147.203 749.34 170.266 762.714 173.261C767.521 194.56 796.694 230.768 874.934 205.209C953.174 179.651 986.318 194.061 992.796 204.71C1004.92 209.536 1033.04 210.402 1051.1 173.261C1069.16 136.12 1087.88 134.49 1094.98 138.317C1116.51 146.472 1171.27 149.455 1165.75 121.5C1164.49 102.333 1180.61 65.5 1255.15 71.5C1329.7 77.5 1363.44 53.6667 1371 41" stroke="#008554" stroke-width="2" stroke-linecap="round" stroke-dasharray="16 16"/>
<g opacity="0.35">
<path d="M1380.33 35.4967L1380.56 35.4343L1380.76 35.5745L1391.76 43.5482L1408.89 1.80521L1363.8 16.301L1371.46 24.7852L1371.57 24.902L1371.59 25.0583L1373.14 37.4424L1380.33 35.4967ZM1401.72 7.36029L1402.31 8.1563L1375.32 33.3935L1374.52 34.1402L1374.48 33.0477L1374.13 23.9245L1374.11 23.626L1374.37 23.4743L1401.72 7.36029Z" fill="#008554" stroke="#008554"/>
</g>
</svg>
