<svg width="50" height="50" viewBox="0 0 50 50" fill="none" xmlns="http://www.w3.org/2000/svg">
<rect x="0.5" y="0.5" width="49.0047" height="49" rx="24.5" stroke="#008554"/>
<path d="M37.8049 4.69223H12.2012C12.6581 4.40345 13.125 4.12999 13.6019 3.87184C16.9798 2.04378 20.7492 1.05857 24.5896 1H25.4165C25.8759 1.00656 26.3316 1.02813 26.7845 1.06094C30.7009 1.34579 34.4863 2.59313 37.8049 4.69223Z" fill="#DB1B1B"/>
<path d="M42.3256 8.38462H7.67969C7.70219 8.36024 7.72563 8.3368 7.74907 8.31242C8.18661 7.86238 8.63822 7.43015 9.10389 7.01573C9.55206 6.62007 10.0149 6.24035 10.4925 5.87656C11.0438 5.45839 11.6176 5.06179 12.2008 4.69238H37.8045C39.4561 5.73461 40.9744 6.97452 42.3256 8.38462Z" fill="white"/>
<path d="M45.2323 12.0758H4.77148C5.11371 11.5423 5.47655 11.021 5.85909 10.5175C6.42377 9.77179 7.03142 9.05958 7.67896 8.38452H42.3248C43.4115 9.51764 44.3853 10.7539 45.2323 12.0758Z" fill="#DB1B1B"/>
<path d="M47.1654 15.7679H2.83984C2.95611 15.4866 3.07799 15.211 3.20644 14.9353C3.6144 14.0528 4.07561 13.1958 4.58751 12.3691C4.64846 12.2754 4.71034 12.1741 4.77503 12.0757H45.233C45.9833 13.2479 46.6298 14.4833 47.1654 15.7679Z" fill="white"/>
<path d="M48.3609 19.4594H1.64258C1.77634 18.8875 1.93261 18.3249 2.11137 17.7717C2.32577 17.0892 2.56954 16.4216 2.8427 15.769H47.1645C47.6633 16.9645 48.0635 18.1987 48.3609 19.4594Z" fill="#DB1B1B"/>
<path d="M48.9344 23.1515H1.07031C1.16428 21.9076 1.35582 20.6731 1.64318 19.4592H48.3615C48.6489 20.6731 48.8404 21.9076 48.9344 23.1515Z" fill="white"/>
<path d="M49.0047 24.9977C49.0047 25.6184 48.9812 26.2338 48.9344 26.8438H1.07032C1.02344 26.2344 1 25.619 1 24.9977V23.8023C1.00009 23.8335 1.00886 23.864 1.02531 23.8904C1.02531 23.8257 1.03094 23.761 1.03469 23.6973C1.04407 23.5145 1.05626 23.3335 1.07032 23.1516H48.9344C48.9812 23.761 49.0047 24.3764 49.0047 24.9977Z" fill="#DB1B1B"/>
<path d="M48.9344 26.8438C48.8405 28.0876 48.6489 29.3222 48.3615 30.536H1.64318C1.35574 29.3222 1.1642 28.0876 1.07031 26.8438H48.9344Z" fill="white"/>
<path d="M48.3609 30.5361C48.0641 31.7973 47.6639 33.0319 47.1645 34.2274H2.83895C2.33953 33.0319 1.93939 31.7973 1.64258 30.5361H48.3609Z" fill="#DB1B1B"/>
<path d="M47.1654 34.2273C46.6304 35.5121 45.9838 36.7476 45.233 37.9195H4.77222C4.02144 36.7476 3.37484 35.5121 2.83984 34.2273H47.1654Z" fill="white"/>
<path d="M45.2333 37.9197C44.3869 39.242 43.4134 40.4786 42.3268 41.6119H7.67997C6.59336 40.4786 5.6199 39.242 4.77344 37.9197H45.2333Z" fill="#DB1B1B"/>
<path d="M42.3256 41.6118C40.9736 43.0211 39.4555 44.2609 37.8045 45.304H12.2008C10.5498 44.2609 9.03162 43.0211 7.67969 41.6118H42.3256Z" fill="white"/>
<path d="M37.8048 45.304C34.1102 47.643 29.8438 48.9215 25.4717 48.9999H24.5341C20.1612 48.9236 15.8934 47.6467 12.1973 45.3086L37.8048 45.304Z" fill="#DB1B1B"/>
<path d="M26.7838 1.06094V26.8447H1.07032C1.02344 26.2346 1 25.6189 1 24.9976V23.8022C1.00009 23.8334 1.00886 23.8639 1.02531 23.8903C1.02531 23.8256 1.03094 23.761 1.03469 23.6972C1.04407 23.5144 1.05626 23.3334 1.07032 23.1515C1.16428 21.9077 1.35583 20.6731 1.64319 19.4593C1.77695 18.8874 1.93322 18.3248 2.11198 17.7716C2.32638 17.0891 2.57015 16.4215 2.8433 15.7689C2.95957 15.4877 3.08145 15.212 3.2099 14.9363C3.61786 14.0538 4.07907 13.1968 4.59098 12.3702C4.65192 12.2764 4.7138 12.1751 4.77849 12.0767C5.12071 11.5432 5.48356 11.0219 5.8661 10.5184C6.42863 9.77253 7.03409 9.06001 7.6794 8.38446C7.7019 8.36009 7.72534 8.33665 7.74878 8.31227C8.18633 7.86223 8.63793 7.43 9.1036 7.01558C9.55177 6.61992 10.0146 6.24019 10.4922 5.87641C11.0435 5.45824 11.6173 5.06164 12.2005 4.69223C12.6574 4.40345 13.1243 4.12999 13.6012 3.87184C16.9791 2.04378 20.7485 1.05857 24.5889 1H25.4158C25.8752 1.00656 26.3309 1.02813 26.7838 1.06094Z" fill="#3E436D"/>
<path d="M24.0092 2.53305L24.3374 3.54283C24.3485 3.57713 24.3701 3.60704 24.3993 3.62826C24.4284 3.64949 24.4635 3.66094 24.4996 3.66097H25.5656C25.601 3.66236 25.6351 3.67474 25.6632 3.69641C25.6913 3.71807 25.7119 3.74794 25.7222 3.78186C25.7325 3.81578 25.732 3.85207 25.7207 3.88568C25.7095 3.9193 25.688 3.94857 25.6594 3.96944L24.7996 4.59387C24.7709 4.61467 24.7495 4.64398 24.7384 4.67764C24.7273 4.7113 24.727 4.7476 24.7377 4.78139L25.0659 5.79211C25.076 5.82616 25.0752 5.86251 25.0636 5.89608C25.0521 5.92966 25.0303 5.9588 25.0014 5.97944C24.9726 6.00008 24.9379 6.01119 24.9024 6.01122C24.8669 6.01126 24.8323 6.00022 24.8033 5.97963L23.9445 5.3552C23.9153 5.33414 23.8802 5.32281 23.8442 5.32281C23.8082 5.32281 23.7731 5.33414 23.7439 5.3552L22.8841 5.97963C22.8552 6.00022 22.8205 6.01126 22.785 6.01122C22.7495 6.01119 22.7149 6.00008 22.686 5.97944C22.6571 5.9588 22.6354 5.92966 22.6238 5.89608C22.6123 5.86251 22.6115 5.82616 22.6216 5.79211L22.9507 4.78139C22.9609 4.74757 22.9605 4.7114 22.9494 4.67784C22.9383 4.64427 22.9172 4.61495 22.8888 4.59387L22.029 3.96944C22 3.94823 21.9783 3.91837 21.9673 3.88414C21.9562 3.84991 21.9562 3.81305 21.9674 3.77884C21.9785 3.74462 22.0001 3.7148 22.0292 3.69363C22.0583 3.67246 22.0934 3.66103 22.1293 3.66097H23.1916C23.2276 3.66079 23.2627 3.64929 23.2918 3.62809C23.3209 3.60688 23.3426 3.57706 23.3538 3.54283L23.682 2.53305C23.6924 2.49777 23.714 2.46681 23.7435 2.4448C23.773 2.42278 23.8088 2.41089 23.8456 2.41089C23.8824 2.41089 23.9182 2.42278 23.9477 2.4448C23.9772 2.46681 23.9988 2.49777 24.0092 2.53305Z" fill="white"/>
<path d="M12.6091 4.69238C12.6006 4.72305 12.6006 4.75548 12.6091 4.78614L12.9382 5.79499C12.9483 5.82904 12.9475 5.86538 12.936 5.89896C12.9244 5.93254 12.9027 5.96168 12.8738 5.98232C12.8449 6.00295 12.8103 6.01407 12.7748 6.0141C12.7393 6.01414 12.7046 6.00309 12.6757 5.98251L11.8159 5.35901C11.7868 5.33803 11.7519 5.32675 11.7161 5.32675C11.6802 5.32675 11.6453 5.33803 11.6162 5.35901L10.7564 5.98251C10.7331 5.99973 10.7058 6.01071 10.6771 6.01438C10.6483 6.01805 10.6191 6.01431 10.5922 6.0035C10.5654 5.99269 10.5417 5.97517 10.5235 5.95263C10.5053 5.93008 10.4932 5.90325 10.4883 5.87469C11.0396 5.45652 11.6134 5.05992 12.1966 4.69051C12.6535 4.40173 13.1204 4.12827 13.5973 3.87012C13.5866 3.9081 13.5631 3.94121 13.5308 3.96388L12.671 4.58831C12.6385 4.61444 12.6166 4.65139 12.6091 4.69238Z" fill="white"/>
<path d="M24.0083 10.3919L24.3365 11.4026C24.3476 11.4368 24.3693 11.4666 24.3985 11.4876C24.4276 11.5087 24.4627 11.52 24.4987 11.5198H25.5648C25.6007 11.5198 25.6358 11.5313 25.6649 11.5524C25.694 11.5736 25.7156 11.6034 25.7267 11.6376C25.7379 11.6719 25.7379 11.7087 25.7268 11.743C25.7157 11.7772 25.6941 11.807 25.6651 11.8283L24.8053 12.4527C24.7766 12.4735 24.7552 12.5028 24.7441 12.5365C24.733 12.5701 24.7327 12.6064 24.7434 12.6402L25.0678 13.6528C25.0779 13.6869 25.0771 13.7232 25.0656 13.7568C25.054 13.7904 25.0323 13.8195 25.0034 13.8401C24.9745 13.8608 24.9399 13.8719 24.9044 13.8719C24.8689 13.8719 24.8342 13.8609 24.8053 13.8403L23.9465 13.2159C23.9173 13.1948 23.8822 13.1835 23.8461 13.1835C23.8101 13.1835 23.775 13.1948 23.7458 13.2159L22.8861 13.8403C22.8571 13.8609 22.8225 13.8719 22.787 13.8719C22.7515 13.8719 22.7169 13.8608 22.688 13.8401C22.6591 13.8195 22.6373 13.7904 22.6258 13.7568C22.6142 13.7232 22.6134 13.6869 22.6235 13.6528L22.9526 12.6421C22.9629 12.6083 22.9624 12.5721 22.9514 12.5385C22.9403 12.505 22.9191 12.4756 22.8907 12.4546L22.031 11.8301C22.0019 11.8089 21.9803 11.7791 21.9692 11.7448C21.9581 11.7106 21.9582 11.6737 21.9693 11.6395C21.9804 11.6053 22.0021 11.5755 22.0312 11.5543C22.0603 11.5332 22.0953 11.5217 22.1313 11.5217H23.1936C23.2295 11.5217 23.2645 11.5104 23.2937 11.4893C23.3228 11.4683 23.3445 11.4386 23.3558 11.4045L23.6839 10.3937C23.6949 10.3595 23.7165 10.3295 23.7455 10.3082C23.7745 10.2869 23.8095 10.2754 23.8455 10.2751C23.8815 10.2749 23.9166 10.2861 23.9458 10.3071C23.9751 10.328 23.997 10.3577 24.0083 10.3919Z" fill="white"/>
<path d="M17.9458 10.3919L18.274 11.4026C18.2851 11.4368 18.3068 11.4666 18.336 11.4877C18.3651 11.5087 18.4002 11.52 18.4362 11.5198H19.4985C19.5345 11.5199 19.5695 11.5313 19.5986 11.5525C19.6277 11.5736 19.6494 11.6035 19.6605 11.6377C19.6716 11.6719 19.6716 11.7087 19.6606 11.743C19.6495 11.7772 19.6279 11.8071 19.5988 11.8283L18.7391 12.4527C18.7105 12.4736 18.6891 12.5029 18.678 12.5365C18.6669 12.5702 18.6666 12.6064 18.6772 12.6402L19.0025 13.6528C19.013 13.6868 19.0125 13.7233 19.0012 13.757C18.9898 13.7907 18.9681 13.82 18.9392 13.8407C18.9103 13.8615 18.8756 13.8726 18.84 13.8725C18.8044 13.8724 18.7698 13.8612 18.7409 13.8403L17.8812 13.2159C17.8519 13.1949 17.8168 13.1835 17.7808 13.1835C17.7448 13.1835 17.7097 13.1949 17.6805 13.2159L16.8236 13.8403C16.7947 13.8612 16.7601 13.8724 16.7245 13.8725C16.6889 13.8726 16.6542 13.8615 16.6253 13.8407C16.5963 13.82 16.5747 13.7907 16.5633 13.757C16.552 13.7233 16.5515 13.6868 16.562 13.6528L16.8901 12.6421C16.9007 12.6083 16.9004 12.572 16.8893 12.5384C16.8782 12.5048 16.8568 12.4755 16.8282 12.4546L15.9685 11.8302C15.9394 11.8089 15.9178 11.7791 15.9067 11.7449C15.8956 11.7106 15.8957 11.6738 15.9068 11.6395C15.9179 11.6053 15.9396 11.5755 15.9687 11.5543C15.9978 11.5332 16.0328 11.5217 16.0688 11.5217H17.1273C17.1633 11.5219 17.1984 11.5106 17.2275 11.4895C17.2567 11.4685 17.2784 11.4387 17.2895 11.4045L17.6177 10.3938C17.6277 10.358 17.649 10.3266 17.6785 10.304C17.708 10.2815 17.744 10.2693 17.7811 10.269C17.8181 10.2688 17.8543 10.2807 17.884 10.3029C17.9138 10.325 17.9355 10.3563 17.9458 10.3919Z" fill="white"/>
<path d="M7.46905 11.8294L7.1287 12.076L6.60928 12.451C6.5808 12.472 6.55955 12.5013 6.54846 12.5349C6.53737 12.5685 6.537 12.6047 6.5474 12.6385L6.87837 13.653C6.88785 13.6869 6.88666 13.723 6.87493 13.7562C6.86321 13.7895 6.84153 13.8183 6.81285 13.8388C6.78416 13.8593 6.74986 13.8704 6.71462 13.8708C6.67937 13.8711 6.64488 13.8605 6.61584 13.8405L5.75701 13.2151C5.72779 13.1941 5.6927 13.1828 5.65668 13.1828C5.62067 13.1828 5.58558 13.1941 5.55636 13.2151L4.69659 13.8405C4.66755 13.8605 4.63307 13.8711 4.59782 13.8708C4.56257 13.8704 4.52827 13.8593 4.49959 13.8388C4.4709 13.8183 4.44922 13.7895 4.4375 13.7562C4.42578 13.723 4.42458 13.6869 4.43407 13.653L4.76316 12.6432C4.77314 12.6094 4.77256 12.5733 4.76151 12.5398C4.75045 12.5063 4.72944 12.4769 4.70128 12.4557L4.58689 12.3722C4.64784 12.2785 4.70972 12.1772 4.77441 12.0788C5.11663 11.5453 5.47948 11.024 5.86202 10.5205L6.14705 11.4028C6.15814 11.4371 6.17981 11.467 6.20895 11.4882C6.23809 11.5094 6.2732 11.5209 6.30925 11.5209H7.37529C7.41043 11.5228 7.44414 11.5355 7.47183 11.5572C7.49953 11.579 7.51987 11.6087 7.53011 11.6423C7.54034 11.676 7.53997 11.712 7.52905 11.7455C7.51813 11.7789 7.49718 11.8082 7.46905 11.8294Z" fill="white"/>
<path d="M24.0085 18.3981L24.3367 19.4088C24.3479 19.443 24.3697 19.4727 24.3988 19.4937C24.4279 19.5147 24.4629 19.5261 24.4989 19.526H25.5649C25.6009 19.5261 25.6359 19.5375 25.665 19.5587C25.6941 19.5799 25.7158 19.6097 25.7269 19.6439C25.738 19.6781 25.738 19.715 25.727 19.7492C25.7159 19.7834 25.6943 19.8133 25.6652 19.8345L24.8055 20.4589C24.7768 20.4797 24.7553 20.509 24.7442 20.5427C24.7331 20.5764 24.7329 20.6127 24.7436 20.6464L25.0717 21.6572C25.0818 21.6912 25.081 21.7276 25.0695 21.7611C25.0579 21.7947 25.0362 21.8239 25.0073 21.8445C24.9784 21.8651 24.9438 21.8762 24.9083 21.8763C24.8728 21.8763 24.8381 21.8653 24.8092 21.8447L23.9504 21.2203C23.9212 21.1992 23.8861 21.1879 23.8501 21.1879C23.814 21.1879 23.7789 21.1992 23.7497 21.2203L22.89 21.8447C22.861 21.8653 22.8264 21.8763 22.7909 21.8763C22.7554 21.8762 22.7208 21.8651 22.6919 21.8445C22.663 21.8239 22.6412 21.7947 22.6297 21.7611C22.6181 21.7276 22.6173 21.6912 22.6274 21.6572L22.9565 20.6464C22.9668 20.6126 22.9663 20.5765 22.9553 20.5429C22.9442 20.5093 22.923 20.48 22.8946 20.4589L22.0349 19.8345C22.0058 19.8133 21.9842 19.7834 21.9731 19.7492C21.9621 19.715 21.9621 19.6781 21.9732 19.6439C21.9843 19.6097 22.006 19.5799 22.0351 19.5587C22.0642 19.5375 22.0992 19.5261 22.1352 19.526H23.1975C23.2334 19.5259 23.2683 19.5145 23.2974 19.4935C23.3265 19.4725 23.3483 19.4429 23.3597 19.4088L23.6878 18.3981C23.6998 18.3652 23.7216 18.3368 23.7503 18.3167C23.779 18.2967 23.8132 18.2859 23.8482 18.2859C23.8832 18.2859 23.9173 18.2967 23.946 18.3167C23.9747 18.3368 23.9965 18.3652 24.0085 18.3981Z" fill="white"/>
<path d="M17.9448 18.398L18.2729 19.4087C18.2842 19.4429 18.3059 19.4726 18.335 19.4936C18.3642 19.5147 18.3992 19.526 18.4351 19.5259H19.4974C19.5334 19.526 19.5684 19.5374 19.5975 19.5586C19.6266 19.5798 19.6483 19.6096 19.6594 19.6438C19.6705 19.678 19.6705 19.7149 19.6595 19.7491C19.6484 19.7833 19.6268 19.8132 19.5977 19.8344L18.738 20.4588C18.7094 20.4797 18.688 20.5091 18.6769 20.5427C18.6658 20.5763 18.6655 20.6126 18.6761 20.6464L19.0014 21.6599C19.0119 21.6939 19.0114 21.7303 19.0001 21.7641C18.9887 21.7978 18.967 21.8271 18.9381 21.8478C18.9092 21.8685 18.8745 21.8797 18.8389 21.8796C18.8033 21.8795 18.7687 21.8683 18.7398 21.8474L17.8801 21.223C17.8508 21.2019 17.8157 21.1906 17.7797 21.1906C17.7437 21.1906 17.7086 21.2019 17.6794 21.223L16.8196 21.8474C16.7908 21.8683 16.7561 21.8795 16.7206 21.8796C16.685 21.8797 16.6503 21.8685 16.6214 21.8478C16.5924 21.8271 16.5708 21.7978 16.5594 21.7641C16.5481 21.7303 16.5476 21.6939 16.5581 21.6599L16.8862 20.6492C16.8968 20.6154 16.8965 20.5791 16.8854 20.5455C16.8743 20.5119 16.8529 20.4826 16.8243 20.4617L15.9646 19.8372C15.9355 19.816 15.9139 19.7862 15.9028 19.7519C15.8917 19.7177 15.8918 19.6808 15.9029 19.6466C15.914 19.6124 15.9357 19.5826 15.9648 19.5614C15.9939 19.5402 16.0289 19.5288 16.0649 19.5288H17.1262C17.1622 19.5288 17.1972 19.5175 17.2263 19.4964C17.2554 19.4754 17.2772 19.4457 17.2884 19.4116L17.6166 18.4008C17.6265 18.3651 17.6477 18.3335 17.6771 18.3109C17.7066 18.2884 17.7425 18.276 17.7796 18.2756C17.8167 18.2753 17.8529 18.2871 17.8827 18.3092C17.9125 18.3313 17.9343 18.3624 17.9448 18.398Z" fill="white"/>
<path d="M11.8827 18.3979L12.2108 19.4087C12.2222 19.4427 12.244 19.4723 12.2731 19.4934C12.3022 19.5144 12.3371 19.5258 12.373 19.5259H13.4353C13.4713 19.5259 13.5063 19.5374 13.5354 19.5585C13.5645 19.5797 13.5862 19.6095 13.5973 19.6437C13.6084 19.6779 13.6085 19.7148 13.5974 19.749C13.5863 19.7833 13.5647 19.8131 13.5356 19.8343L12.6759 20.4588C12.6475 20.4798 12.6263 20.5092 12.6153 20.5427C12.6042 20.5763 12.6037 20.6125 12.614 20.6463L12.9431 21.657C12.9532 21.6911 12.9524 21.7274 12.9408 21.761C12.9293 21.7946 12.9075 21.8237 12.8787 21.8443C12.8498 21.865 12.8151 21.8761 12.7796 21.8761C12.7441 21.8762 12.7095 21.8651 12.6806 21.8445L11.8208 21.2201C11.7917 21.1991 11.7568 21.1878 11.7209 21.1878C11.6851 21.1878 11.6501 21.1991 11.6211 21.2201L10.7613 21.8445C10.7324 21.8651 10.6977 21.8762 10.6622 21.8761C10.6267 21.8761 10.5921 21.865 10.5632 21.8443C10.5343 21.8237 10.5126 21.7946 10.501 21.761C10.4895 21.7274 10.4887 21.6911 10.4988 21.657L10.8269 20.6463C10.8376 20.6125 10.8374 20.5762 10.8263 20.5425C10.8152 20.5089 10.7938 20.4796 10.7651 20.4588L9.9081 19.8343C9.87944 19.8135 9.85799 19.7842 9.84673 19.7506C9.83547 19.717 9.83496 19.6807 9.84527 19.6467C9.85558 19.6128 9.87619 19.583 9.90426 19.5613C9.93232 19.5396 9.96643 19.5272 10.0019 19.5259H11.0642C11.1001 19.5259 11.1351 19.5146 11.1642 19.4935C11.1934 19.4725 11.2151 19.4428 11.2264 19.4087L11.5545 18.3979C11.5647 18.3623 11.5862 18.3309 11.6158 18.3086C11.6454 18.2863 11.6815 18.2742 11.7186 18.2742C11.7557 18.2742 11.7917 18.2863 11.8214 18.3086C11.851 18.3309 11.8725 18.3623 11.8827 18.3979Z" fill="white"/>
<path d="M5.81976 18.3979L6.14791 19.4086C6.15917 19.4428 6.18091 19.4725 6.21003 19.4935C6.23916 19.5146 6.27418 19.5259 6.31012 19.5258H7.37616C7.41158 19.5272 7.4457 19.5396 7.47376 19.5613C7.50182 19.5829 7.52244 19.6128 7.53275 19.6467C7.54306 19.6806 7.54255 19.7169 7.53129 19.7506C7.52003 19.7842 7.49858 19.8134 7.46992 19.8343L6.61015 20.4587C6.58145 20.4795 6.56002 20.5088 6.54892 20.5425C6.53781 20.5762 6.53758 20.6125 6.54826 20.6463L6.87642 21.657C6.88651 21.691 6.88572 21.7274 6.87417 21.761C6.86262 21.7945 6.84089 21.8237 6.81199 21.8443C6.7831 21.8649 6.74848 21.8761 6.71297 21.8761C6.67747 21.8761 6.64283 21.8651 6.6139 21.8445L5.75506 21.2201C5.72585 21.199 5.69075 21.1877 5.65474 21.1877C5.61873 21.1877 5.58363 21.199 5.55442 21.2201L4.69465 21.8445C4.66571 21.8651 4.63108 21.8761 4.59557 21.8761C4.56006 21.8761 4.52544 21.8649 4.49655 21.8443C4.46766 21.8237 4.44592 21.7945 4.43437 21.761C4.42282 21.7274 4.42203 21.691 4.43212 21.657L4.76121 20.6463C4.77147 20.6124 4.77103 20.5763 4.75995 20.5427C4.74888 20.5091 4.72771 20.4798 4.69933 20.4587L3.83956 19.8343C3.8105 19.8131 3.78889 19.7832 3.77782 19.749C3.76674 19.7148 3.76677 19.6779 3.7779 19.6437C3.78903 19.6095 3.81068 19.5797 3.83977 19.5585C3.86887 19.5373 3.90391 19.5259 3.93988 19.5258H5.00499C5.04089 19.5257 5.07585 19.5144 5.10495 19.4933C5.13404 19.4723 5.15581 19.4427 5.16719 19.4086L5.49535 18.3979C5.50653 18.3637 5.52823 18.3339 5.55736 18.3128C5.5865 18.2917 5.62156 18.2803 5.65755 18.2803C5.69354 18.2803 5.72861 18.2917 5.75774 18.3128C5.78687 18.3339 5.80858 18.3637 5.81976 18.3979Z" fill="white"/>
<path d="M20.9764 6.23754L21.3046 7.24826C21.3158 7.28239 21.3376 7.31209 21.3667 7.33314C21.3958 7.35418 21.4308 7.36549 21.4668 7.36546H22.5291C22.565 7.36552 22.6001 7.37695 22.6292 7.39812C22.6583 7.41929 22.6799 7.44911 22.6911 7.48333C22.7022 7.51754 22.7022 7.5544 22.6911 7.58863C22.6801 7.62286 22.6585 7.65272 22.6294 7.67393L21.7696 8.29837C21.7412 8.31944 21.7201 8.34877 21.709 8.38233C21.6979 8.41589 21.6975 8.45206 21.7077 8.48588L22.0368 9.49661C22.0469 9.53065 22.0461 9.567 22.0346 9.60058C22.023 9.63415 22.0013 9.66329 21.9724 9.68393C21.9435 9.70457 21.9089 9.71568 21.8734 9.71572C21.8379 9.71575 21.8032 9.70471 21.7743 9.68412L20.9145 9.05969C20.8855 9.03871 20.8505 9.02742 20.8147 9.02742C20.7788 9.02742 20.7439 9.03871 20.7148 9.05969L19.8551 9.68412C19.8261 9.70471 19.7915 9.71575 19.756 9.71572C19.7205 9.71568 19.6859 9.70457 19.657 9.68393C19.6281 9.66329 19.6063 9.63415 19.5948 9.60058C19.5832 9.567 19.5824 9.53065 19.5925 9.49661L19.9207 8.48588C19.9314 8.45209 19.9311 8.41579 19.92 8.38213C19.9089 8.34847 19.8875 8.31916 19.8588 8.29837L19.0019 7.67393C18.9732 7.65306 18.9517 7.62379 18.9405 7.59017C18.9292 7.55656 18.9287 7.52027 18.939 7.48635C18.9493 7.45243 18.9699 7.42256 18.998 7.4009C19.0261 7.37923 19.0602 7.36685 19.0956 7.36546H20.1579C20.1939 7.36564 20.229 7.35438 20.2581 7.33332C20.2873 7.31225 20.309 7.28247 20.3201 7.24826L20.6483 6.23754C20.6584 6.20188 20.68 6.17051 20.7096 6.14818C20.7392 6.12585 20.7753 6.11377 20.8123 6.11377C20.8494 6.11377 20.8855 6.12585 20.9151 6.14818C20.9447 6.17051 20.9662 6.20188 20.9764 6.23754Z" fill="white"/>
<path d="M9.58183 8.3846C9.57104 8.41877 9.57104 8.45543 9.58183 8.48961L9.90718 9.49939C9.91704 9.5333 9.91613 9.56943 9.90459 9.6028C9.89305 9.63617 9.87144 9.66514 9.84274 9.68571C9.81404 9.70629 9.77966 9.71745 9.74435 9.71766C9.70904 9.71788 9.67454 9.70713 9.64559 9.68691L8.78582 9.06154C8.75661 9.04048 8.72151 9.02915 8.6855 9.02915C8.64949 9.02915 8.61439 9.04048 8.58517 9.06154L7.7254 9.68691C7.69646 9.70713 7.66195 9.71788 7.62664 9.71766C7.59133 9.71745 7.55695 9.70629 7.52825 9.68571C7.49956 9.66514 7.47795 9.63617 7.4664 9.6028C7.45486 9.56943 7.45396 9.5333 7.46381 9.49939L7.79197 8.48961C7.80276 8.45543 7.80276 8.41877 7.79197 8.3846C7.78571 8.35588 7.7714 8.32953 7.75072 8.30865C8.18826 7.85861 8.63987 7.42638 9.10554 7.01196L9.18054 7.24355C9.19107 7.27885 9.21274 7.30981 9.24232 7.33178C9.27189 7.35375 9.30778 7.36555 9.34462 7.36544H10.4069C10.4428 7.36582 10.4778 7.37748 10.5067 7.39877C10.5357 7.42006 10.5572 7.4499 10.5683 7.48408C10.5794 7.51827 10.5794 7.55507 10.5685 7.58929C10.5575 7.62352 10.5361 7.65344 10.5072 7.67484L9.64747 8.29834C9.6167 8.31909 9.59363 8.34941 9.58183 8.3846Z" fill="white"/>
<path d="M4.76924 15.7681C4.76687 15.7915 4.75943 15.8141 4.74745 15.8344C4.73547 15.8546 4.71923 15.872 4.69986 15.8853L3.84009 16.5107C3.81172 16.5318 3.79055 16.5611 3.77947 16.5947C3.7684 16.6282 3.76795 16.6644 3.77821 16.6982L4.10637 17.709C4.11685 17.743 4.11637 17.7794 4.10501 17.8131C4.09365 17.8468 4.07198 17.8761 4.04306 17.8969C4.01414 17.9176 3.97944 17.9287 3.94386 17.9286C3.90828 17.9286 3.87362 17.9173 3.84478 17.8965L2.98501 17.273C2.95615 17.2511 2.92091 17.2392 2.88469 17.2392C2.84846 17.2392 2.81322 17.2511 2.78436 17.273L2.10742 17.7652C2.32182 17.0826 2.56559 16.4151 2.83874 15.7625C2.955 15.4812 3.07689 15.2056 3.20534 14.9299L3.37505 15.454C3.3861 15.4884 3.40773 15.5185 3.43686 15.5399C3.46599 15.5612 3.50112 15.5729 3.53725 15.5731H4.59954C4.62408 15.573 4.64835 15.5782 4.67071 15.5883C4.69306 15.5984 4.71297 15.6132 4.72908 15.6317C4.74519 15.6503 4.75711 15.672 4.76405 15.6956C4.77098 15.7191 4.77275 15.7439 4.76924 15.7681Z" fill="white"/>
<path d="M20.9762 14.4499L21.3044 15.4607C21.3158 15.4947 21.3375 15.5243 21.3666 15.5454C21.3957 15.5664 21.4307 15.5778 21.4666 15.5779H22.5289C22.5649 15.5779 22.5999 15.5894 22.629 15.6105C22.6581 15.6317 22.6797 15.6615 22.6909 15.6957C22.702 15.7299 22.702 15.7668 22.691 15.801C22.6799 15.8353 22.6583 15.8651 22.6292 15.8863L21.7694 16.5108C21.7411 16.5318 21.7199 16.5612 21.7088 16.5947C21.6977 16.6283 21.6973 16.6645 21.7076 16.6983L22.0367 17.709C22.0467 17.7431 22.046 17.7794 22.0344 17.813C22.0229 17.8466 22.0011 17.8757 21.9722 17.8963C21.9433 17.917 21.9087 17.9281 21.8732 17.9281C21.8377 17.9282 21.8031 17.9171 21.7741 17.8965L20.9144 17.2721C20.8853 17.2511 20.8504 17.2398 20.8145 17.2398C20.7787 17.2398 20.7437 17.2511 20.7147 17.2721L19.8549 17.8965C19.8259 17.9171 19.7913 17.9282 19.7558 17.9281C19.7203 17.9281 19.6857 17.917 19.6568 17.8963C19.6279 17.8757 19.6062 17.8466 19.5946 17.813C19.5831 17.7794 19.5823 17.7431 19.5924 17.709L19.9205 16.6983C19.9312 16.6645 19.931 16.6282 19.9199 16.5945C19.9088 16.5609 19.8873 16.5316 19.8586 16.5108L19.0017 15.8863C18.9726 15.8651 18.951 15.8353 18.9399 15.801C18.9289 15.7668 18.9289 15.7299 18.94 15.6957C18.9511 15.6615 18.9728 15.6317 19.0019 15.6105C19.031 15.5894 19.066 15.5779 19.102 15.5779H20.1643C20.2002 15.5779 20.2352 15.5666 20.2644 15.5455C20.2935 15.5245 20.3152 15.4948 20.3265 15.4607L20.6546 14.4499C20.6664 14.4167 20.6882 14.388 20.717 14.3677C20.7458 14.3473 20.7802 14.3364 20.8154 14.3364C20.8507 14.3364 20.8851 14.3473 20.9139 14.3677C20.9426 14.388 20.9644 14.4167 20.9762 14.4499Z" fill="white"/>
<path d="M14.9148 14.4499L15.2429 15.4606C15.2542 15.4947 15.2759 15.5244 15.305 15.5455C15.3342 15.5665 15.3692 15.5778 15.4051 15.5778H16.4712C16.5071 15.5778 16.5422 15.5893 16.5713 15.6104C16.6004 15.6316 16.622 15.6614 16.6331 15.6957C16.6443 15.7299 16.6443 15.7667 16.6332 15.801C16.6222 15.8352 16.6005 15.865 16.5715 15.8863L15.7117 16.5107C15.683 16.5315 15.6616 16.5608 15.6505 16.5945C15.6394 16.6281 15.6391 16.6644 15.6498 16.6982L15.978 17.7089C15.9881 17.743 15.9873 17.7793 15.9757 17.8129C15.9642 17.8465 15.9424 17.8756 15.9136 17.8963C15.8847 17.9169 15.85 17.928 15.8145 17.928C15.779 17.9281 15.7444 17.917 15.7155 17.8964L14.8566 17.272C14.8274 17.251 14.7923 17.2396 14.7563 17.2396C14.7203 17.2396 14.6852 17.251 14.656 17.272L13.7962 17.8964C13.7673 17.917 13.7326 17.9281 13.6971 17.928C13.6616 17.928 13.627 17.9169 13.5981 17.8963C13.5692 17.8756 13.5475 17.8465 13.5359 17.8129C13.5244 17.7793 13.5236 17.743 13.5337 17.7089L13.8628 16.6982C13.873 16.6644 13.8726 16.6282 13.8615 16.5947C13.8504 16.5611 13.8293 16.5318 13.8009 16.5107L12.9411 15.8863C12.9121 15.865 12.8905 15.8352 12.8794 15.801C12.8683 15.7667 12.8683 15.7299 12.8795 15.6957C12.8906 15.6614 12.9122 15.6316 12.9413 15.6104C12.9704 15.5893 13.0055 15.5778 13.0414 15.5778H14.1037C14.1396 15.5777 14.1746 15.5663 14.2037 15.5453C14.2328 15.5243 14.2546 15.4946 14.2659 15.4606L14.5941 14.4499C14.6061 14.417 14.6279 14.3886 14.6566 14.3685C14.6853 14.3484 14.7194 14.3376 14.7544 14.3376C14.7894 14.3376 14.8236 14.3484 14.8523 14.3685C14.881 14.3886 14.9028 14.417 14.9148 14.4499Z" fill="white"/>
<path d="M3.84098 24.5637C3.81239 24.5846 3.79105 24.6139 3.77996 24.6475C3.76886 24.6811 3.76856 24.7174 3.7791 24.7512L4.10725 25.7629C4.11773 25.7969 4.11726 25.8333 4.1059 25.867C4.09454 25.9007 4.07287 25.93 4.04395 25.9508C4.01503 25.9715 3.98033 25.9826 3.94474 25.9825C3.90916 25.9825 3.8745 25.9712 3.84567 25.9504L2.98589 25.3269C2.95685 25.3054 2.92169 25.2938 2.88557 25.2938C2.84946 25.2938 2.81429 25.3054 2.78525 25.3269L1.92642 25.9541C1.8976 25.9754 1.86281 25.9869 1.82702 25.9872C1.79123 25.9874 1.75628 25.9764 1.72715 25.9556C1.69803 25.9348 1.67623 25.9053 1.66487 25.8714C1.65351 25.8374 1.65316 25.8008 1.66389 25.7666L1.99205 24.755C2.00288 24.7212 2.00272 24.6848 1.9916 24.6511C1.98049 24.6174 1.95898 24.5881 1.93017 24.5674L1.0704 23.9383C1.05237 23.9255 1.03708 23.9093 1.02539 23.8905C1.02539 23.8258 1.03102 23.7611 1.03477 23.6974C1.05036 23.6761 1.07088 23.6589 1.09455 23.6473C1.11823 23.6358 1.14436 23.6301 1.17072 23.6308H2.23301C2.26914 23.6305 2.30427 23.6189 2.3334 23.5975C2.36252 23.5761 2.38416 23.5461 2.39521 23.5117L2.51241 23.1517L2.72337 22.5019C2.73455 22.4677 2.75625 22.4379 2.78538 22.4168C2.81452 22.3957 2.84958 22.3843 2.88557 22.3843C2.92156 22.3843 2.95663 22.3957 2.98576 22.4168C3.01489 22.4379 3.0366 22.4677 3.04778 22.5019L3.25873 23.1517L3.37593 23.5117C3.38699 23.5461 3.40862 23.5761 3.43775 23.5975C3.46687 23.6189 3.50201 23.6305 3.53814 23.6308H4.60043C4.63646 23.6305 4.67164 23.6417 4.70088 23.6627C4.73012 23.6838 4.75191 23.7136 4.76308 23.7478C4.77425 23.7821 4.77424 23.819 4.76303 23.8533C4.75182 23.8875 4.73001 23.9173 4.70075 23.9383L3.84098 24.5637Z" fill="white"/>
<path d="M20.9762 22.5019L21.3044 23.5127C21.3156 23.5468 21.3374 23.5765 21.3665 23.5975C21.3956 23.6186 21.4307 23.6299 21.4666 23.6299H22.5289C22.5649 23.6299 22.5999 23.6414 22.629 23.6625C22.6581 23.6837 22.6797 23.7135 22.6909 23.7477C22.702 23.7819 22.702 23.8188 22.691 23.853C22.6799 23.8873 22.6583 23.9171 22.6292 23.9383L21.7694 24.5628C21.7413 24.584 21.7203 24.6134 21.7092 24.6469C21.6982 24.6804 21.6976 24.7165 21.7076 24.7503L22.0367 25.7601C22.0467 25.7941 22.046 25.8305 22.0344 25.864C22.0229 25.8976 22.0011 25.9268 21.9722 25.9474C21.9433 25.968 21.9087 25.9792 21.8732 25.9792C21.8377 25.9792 21.8031 25.9682 21.7741 25.9476L20.9144 25.3232C20.8853 25.3022 20.8504 25.2909 20.8145 25.2909C20.7787 25.2909 20.7437 25.3022 20.7147 25.3232L19.8549 25.9476C19.8259 25.9682 19.7913 25.9792 19.7558 25.9792C19.7203 25.9792 19.6857 25.968 19.6568 25.9474C19.6279 25.9268 19.6062 25.8976 19.5946 25.864C19.5831 25.8305 19.5823 25.7941 19.5924 25.7601L19.9205 24.7503C19.9309 24.7165 19.9305 24.6803 19.9194 24.6467C19.9084 24.6131 19.8871 24.5838 19.8586 24.5628L19.0017 23.9383C18.9726 23.9171 18.951 23.8873 18.9399 23.853C18.9289 23.8188 18.9289 23.7819 18.94 23.7477C18.9511 23.7135 18.9728 23.6837 19.0019 23.6625C19.031 23.6414 19.066 23.6299 19.102 23.6299H20.1643C20.2003 23.63 20.2353 23.6188 20.2645 23.5977C20.2937 23.5767 20.3154 23.5469 20.3265 23.5127L20.6546 22.5019C20.6664 22.4687 20.6882 22.44 20.717 22.4197C20.7458 22.3993 20.7802 22.3884 20.8154 22.3884C20.8507 22.3884 20.8851 22.3993 20.9139 22.4197C20.9426 22.44 20.9644 22.4687 20.9762 22.5019Z" fill="white"/>
<path d="M14.9135 22.5018L15.2417 23.5125C15.2528 23.5467 15.2745 23.5765 15.3037 23.5976C15.3328 23.6186 15.3679 23.6299 15.4039 23.6297H16.4699C16.5053 23.6311 16.5394 23.6435 16.5675 23.6652C16.5956 23.6868 16.6162 23.7167 16.6265 23.7506C16.6368 23.7845 16.6363 23.8208 16.625 23.8544C16.6138 23.888 16.5923 23.9173 16.5637 23.9382L15.7039 24.5626C15.6754 24.5836 15.6542 24.6129 15.6431 24.6465C15.632 24.6801 15.6316 24.7163 15.642 24.7501L15.9702 25.7599C15.9803 25.794 15.9795 25.8303 15.9679 25.8639C15.9564 25.8975 15.9346 25.9266 15.9057 25.9473C15.8768 25.9679 15.8422 25.979 15.8067 25.979C15.7712 25.9791 15.7366 25.968 15.7076 25.9474L14.8488 25.323C14.8196 25.302 14.7845 25.2906 14.7485 25.2906C14.7125 25.2906 14.6774 25.302 14.6482 25.323L13.7884 25.9474C13.7595 25.968 13.7248 25.9791 13.6893 25.979C13.6538 25.979 13.6192 25.9679 13.5903 25.9473C13.5614 25.9266 13.5397 25.8975 13.5281 25.8639C13.5166 25.8303 13.5158 25.794 13.5259 25.7599L13.855 24.7501C13.8649 24.7163 13.8644 24.6802 13.8533 24.6467C13.8423 24.6132 13.8212 24.5839 13.7931 24.5626L12.9333 23.9382C12.9043 23.917 12.8826 23.8871 12.8716 23.8529C12.8605 23.8187 12.8605 23.7818 12.8716 23.7476C12.8828 23.7134 12.9044 23.6835 12.9335 23.6624C12.9626 23.6412 12.9977 23.6298 13.0336 23.6297H14.0959C14.1319 23.6298 14.1669 23.6184 14.196 23.5974C14.2251 23.5763 14.2469 23.5466 14.2581 23.5125L14.5863 22.5018C14.5967 22.4665 14.6183 22.4356 14.6478 22.4135C14.6773 22.3915 14.7131 22.3796 14.7499 22.3796C14.7867 22.3796 14.8225 22.3915 14.852 22.4135C14.8815 22.4356 14.9031 22.4665 14.9135 22.5018Z" fill="white"/>
<path d="M8.85101 22.5018L9.17916 23.5125C9.19048 23.5474 9.21275 23.5776 9.24266 23.5987C9.27257 23.6198 9.30851 23.6307 9.34512 23.6297H10.4074C10.4434 23.6298 10.4784 23.6412 10.5075 23.6624C10.5366 23.6836 10.5583 23.7134 10.5694 23.7476C10.5805 23.7818 10.5806 23.8187 10.5695 23.8529C10.5584 23.8871 10.5368 23.917 10.5077 23.9382L9.64796 24.5626C9.61959 24.5837 9.59841 24.613 9.58734 24.6466C9.57626 24.6802 9.57582 24.7163 9.58608 24.7502L9.90767 25.7637C9.91815 25.7977 9.91768 25.8341 9.90632 25.8679C9.89496 25.9016 9.87328 25.9309 9.84437 25.9516C9.81545 25.9723 9.78074 25.9835 9.74516 25.9834C9.70958 25.9833 9.67492 25.9721 9.64608 25.9512L8.78631 25.3268C8.7571 25.3057 8.722 25.2944 8.68599 25.2944C8.64998 25.2944 8.61488 25.3057 8.58567 25.3268L7.7259 25.9512C7.69706 25.9721 7.6624 25.9833 7.62682 25.9834C7.59124 25.9835 7.55653 25.9723 7.52761 25.9516C7.49869 25.9309 7.47702 25.9016 7.46566 25.8679C7.4543 25.8341 7.45383 25.7977 7.46431 25.7637L7.79247 24.7539C7.80272 24.7201 7.80228 24.6839 7.7912 24.6504C7.78013 24.6168 7.75896 24.5875 7.73058 24.5664L6.87081 23.942C6.84175 23.9207 6.82014 23.8909 6.80907 23.8567C6.79799 23.8224 6.79802 23.7856 6.80915 23.7514C6.82028 23.7171 6.84193 23.6873 6.87102 23.6662C6.90012 23.645 6.93516 23.6336 6.97113 23.6335H8.03249C8.06846 23.6337 8.10355 23.6224 8.1327 23.6013C8.16186 23.5803 8.18356 23.5505 8.19469 23.5163L8.52285 22.5056C8.53262 22.4698 8.55378 22.4382 8.58313 22.4155C8.61248 22.3928 8.64842 22.3803 8.68551 22.3799C8.7226 22.3795 8.75882 22.3911 8.78868 22.4131C8.81854 22.4351 8.84042 22.4663 8.85101 22.5018Z" fill="white"/>
<path d="M27.9096 1.1697C27.5345 1.21377 27.1595 1.26909 26.7845 1.33097C24.2914 1.75092 21.8813 2.56559 19.6447 3.74433C19.5641 3.78558 19.4844 3.82965 19.4047 3.87184C18.9271 4.12999 18.4602 4.40345 18.0039 4.69223H12.2012C12.6581 4.40345 13.125 4.12999 13.6019 3.87184C16.9798 2.04378 20.7492 1.05857 24.5896 1H25.4165C25.8759 1.00656 26.3316 1.02813 26.7845 1.06094C27.1595 1.08845 27.5345 1.1247 27.9096 1.1697Z" fill="#DB1B1B"/>
<path d="M18.0035 4.69223C17.5272 4.99101 17.0631 5.30729 16.6112 5.64107C16.5052 5.71795 16.4002 5.79671 16.2952 5.8764C15.8892 6.18581 15.4945 6.50553 15.1101 6.83931C15.0417 6.8965 14.9742 6.95557 14.9066 7.01558C14.4772 7.3953 14.0628 7.7919 13.6615 8.20069L13.7965 8.29445C13.8259 8.3158 13.8476 8.34605 13.8584 8.38071H7.67969C7.70219 8.35633 7.72563 8.33289 7.74907 8.30851C8.18661 7.85847 8.63822 7.42624 9.10389 7.01183C9.55206 6.61616 10.0149 6.23644 10.4925 5.87265C11.0438 5.45449 11.6176 5.05789 12.2008 4.68848L18.0035 4.69223Z" fill="white"/>
<path d="M13.4817 8.38452C12.8952 8.99601 12.3413 9.63789 11.8222 10.3075L11.6618 10.5175C11.5746 10.6329 11.4884 10.7482 11.4031 10.8654L11.2287 11.4026C11.2176 11.4369 11.1959 11.4668 11.1668 11.4881C11.1376 11.5093 11.1025 11.5207 11.0665 11.5208H10.938C10.8124 11.7083 10.6905 11.8902 10.5705 12.0768H4.77148C5.11371 11.5433 5.47655 11.022 5.85909 10.5185C6.42374 9.77241 7.03139 9.05988 7.67896 8.38452H13.4817Z" fill="#DB1B1B"/>
<path d="M10.575 12.0759L10.4718 12.24L10.3903 12.3694C9.87836 13.196 9.41715 14.053 9.0092 14.9355C8.88075 15.2103 8.75886 15.4859 8.6426 15.7672H2.83984C2.95611 15.4859 3.07799 15.2103 3.20644 14.9346C3.6144 14.052 4.07561 13.1951 4.58751 12.3684C4.64846 12.2747 4.71034 12.1734 4.77503 12.075L10.575 12.0759Z" fill="white"/>
<path d="M8.6417 15.768C8.36855 16.4206 8.12477 17.0875 7.91038 17.7688C7.73536 18.3232 7.5791 18.8858 7.44158 19.4565H1.64258C1.77634 18.8845 1.93261 18.322 2.11137 17.7688C2.32577 17.0862 2.56954 16.4187 2.8427 15.7661L8.6417 15.768Z" fill="#DB1B1B"/>
<path d="M7.46937 19.8344L7.33717 19.9282C7.10757 20.9901 6.95094 22.0665 6.86838 23.1498H1.07031C1.16428 21.9059 1.35582 20.6714 1.64318 19.4575H7.44593C7.44031 19.4828 7.43375 19.5091 7.42812 19.5335C7.45777 19.5439 7.48397 19.5622 7.50385 19.5865C7.52372 19.6109 7.5365 19.6402 7.54076 19.6713C7.54503 19.7025 7.54062 19.7342 7.52802 19.7629C7.51543 19.7917 7.49513 19.8164 7.46937 19.8344Z" fill="white"/>
<path d="M6.80275 24.9977C6.80275 25.6184 6.82619 26.2338 6.87307 26.8438H1.07032C1.02344 26.2344 1 25.619 1 24.9977V23.8023C1.00009 23.8335 1.00886 23.864 1.02531 23.8904C1.02531 23.8257 1.03094 23.761 1.03469 23.6973C1.04407 23.5145 1.05626 23.3335 1.07032 23.1516H6.87307C6.85901 23.3335 6.84682 23.5145 6.83744 23.6973C6.83744 23.761 6.83088 23.8257 6.82807 23.8904C6.81955 23.8775 6.81322 23.8632 6.80932 23.8482C6.80932 23.8398 6.80932 23.8323 6.80463 23.8248C6.80413 23.8173 6.80413 23.8098 6.80463 23.8023L6.80275 24.9977Z" fill="#DB1B1B"/>
<path d="M7.44593 30.536H1.64318C1.35574 29.3222 1.1642 28.0876 1.07031 26.8438H6.87307C6.96695 28.0876 7.1585 29.3222 7.44593 30.536Z" fill="#DBDBDB"/>
<path d="M8.6417 34.2274H2.83895C2.33953 33.0319 1.93939 31.7973 1.64258 30.5361H7.44533C7.74214 31.7973 8.14228 33.0319 8.6417 34.2274Z" fill="#C11A1A"/>
<path d="M10.575 37.9195H4.77222C4.02144 36.7476 3.37484 35.5121 2.83984 34.2273H8.6426C9.1776 35.5121 9.8242 36.7476 10.575 37.9195Z" fill="#DBDBDB"/>
<path d="M13.4827 41.6119H7.67997C6.59336 40.4786 5.6199 39.242 4.77344 37.9197H10.5762C11.4227 39.242 12.3961 40.4786 13.4827 41.6119Z" fill="#C11A1A"/>
<path d="M18.0035 45.304H12.2008C10.5498 44.2609 9.03162 43.0211 7.67969 41.6118H13.4824C14.8344 43.0211 16.3525 44.2609 18.0035 45.304Z" fill="#DBDBDB"/>
<path d="M27.9094 48.8257C27.1004 48.9257 26.2867 48.9839 25.4717 49.0001H24.5341C20.1612 48.9238 15.8934 47.6469 12.1973 45.3088H18C21 47.2045 24.3856 48.406 27.9094 48.8257Z" fill="#C11A1A"/>
<path d="M26.7838 1.06094V1.33097C24.2907 1.75092 21.8806 2.56559 19.644 3.74433C19.5634 3.78558 19.4837 3.82965 19.404 3.87184C18.9264 4.12999 18.4595 4.40345 18.0032 4.69223C17.5269 4.99101 17.0628 5.30729 16.6109 5.64107C16.505 5.71796 16.3999 5.79671 16.2949 5.87641C15.889 6.18581 15.4942 6.50553 15.1098 6.83932C15.0414 6.89651 14.9739 6.95558 14.9064 7.01558C14.4769 7.39531 14.0625 7.79191 13.6612 8.2007L13.7962 8.29446C13.8256 8.3158 13.8473 8.34605 13.8581 8.38071H13.4831C12.8966 8.9922 12.3427 9.63409 11.8236 10.3037L11.6632 10.5137C11.576 10.6291 11.4898 10.7444 11.4045 10.8616L11.2291 11.4026C11.218 11.4369 11.1964 11.4668 11.1672 11.488C11.1381 11.5092 11.103 11.5207 11.0669 11.5207H10.9385C10.8128 11.7082 10.6909 11.8901 10.5709 12.0767L10.4678 12.2408L10.3862 12.3702C9.87432 13.1968 9.41311 14.0538 9.00516 14.9363C8.87671 15.2111 8.75482 15.4867 8.63856 15.768C8.36791 16.4206 8.12538 17.0875 7.91099 17.7688C7.73597 18.3232 7.57971 18.8858 7.44219 19.4565C7.43657 19.4818 7.43 19.508 7.42438 19.5324C7.45378 19.5427 7.4798 19.5608 7.49964 19.5848C7.51947 19.6088 7.53236 19.6378 7.5369 19.6686C7.54144 19.6994 7.53746 19.7309 7.52539 19.7596C7.51333 19.7883 7.49363 19.8132 7.46844 19.8315L7.33624 19.9253C7.10664 20.9872 6.95001 22.0635 6.86745 23.1468C6.85338 23.3287 6.8412 23.5097 6.83182 23.6925C6.83182 23.7563 6.82526 23.821 6.82244 23.8857C6.81393 23.8727 6.80759 23.8585 6.80369 23.8435C6.80369 23.835 6.80369 23.8275 6.799 23.82C6.7985 23.8125 6.7985 23.805 6.799 23.7975V24.9976C6.799 25.6183 6.82244 26.2337 6.86932 26.8438H1.07032C1.02344 26.2343 1 25.6189 1 24.9976V23.8022C1.00009 23.8334 1.00886 23.8639 1.02531 23.8903C1.02531 23.8256 1.03094 23.761 1.03469 23.6972C1.04407 23.5144 1.05626 23.3334 1.07032 23.1515C1.16428 21.9077 1.35583 20.6731 1.64319 19.4593C1.77695 18.8874 1.93322 18.3248 2.11198 17.7716C2.32638 17.0891 2.57015 16.4215 2.8433 15.7689C2.95957 15.4877 3.08145 15.212 3.2099 14.9363C3.61786 14.0538 4.07907 13.1968 4.59098 12.3702C4.65192 12.2764 4.7138 12.1751 4.77849 12.0767C5.12071 11.5432 5.48356 11.0219 5.8661 10.5184C6.42863 9.77253 7.03409 9.06001 7.6794 8.38446C7.7019 8.36009 7.72534 8.33665 7.74878 8.31227C8.18633 7.86223 8.63793 7.43 9.1036 7.01558C9.55177 6.61992 10.0146 6.2402 10.4922 5.87641C11.0435 5.45824 11.6173 5.06164 12.2005 4.69223C12.6574 4.40345 13.1243 4.12999 13.6012 3.87184C16.9791 2.04378 20.7485 1.05857 24.5889 1H25.4158C25.8752 1.00656 26.3309 1.02813 26.7838 1.06094Z" fill="#32314B"/>
<path d="M12.6091 4.69238C12.6006 4.72305 12.6006 4.75548 12.6091 4.78614L12.9382 5.79499C12.9483 5.82904 12.9475 5.86538 12.936 5.89896C12.9244 5.93254 12.9027 5.96168 12.8738 5.98232C12.8449 6.00295 12.8103 6.01407 12.7748 6.0141C12.7393 6.01414 12.7046 6.00309 12.6757 5.98251L11.8159 5.35901C11.7868 5.33803 11.7519 5.32675 11.7161 5.32675C11.6802 5.32675 11.6453 5.33803 11.6162 5.35901L10.7564 5.98251C10.7331 5.99973 10.7058 6.01071 10.6771 6.01438C10.6483 6.01805 10.6191 6.01431 10.5922 6.0035C10.5654 5.99269 10.5417 5.97517 10.5235 5.95263C10.5053 5.93008 10.4932 5.90325 10.4883 5.87469C11.0396 5.45652 11.6134 5.05992 12.1966 4.69051C12.6535 4.40173 13.1204 4.12827 13.5973 3.87012C13.5866 3.9081 13.5631 3.94121 13.5308 3.96388L12.671 4.58831C12.6385 4.61444 12.6166 4.65139 12.6091 4.69238Z" fill="#DBDBDB"/>
<path d="M11.8234 10.3075L11.6631 10.5175C11.5759 10.6328 11.4896 10.7481 11.4043 10.8653L11.5581 10.3965C11.5658 10.3702 11.5798 10.3461 11.5988 10.3263C11.6179 10.3065 11.6414 10.2915 11.6675 10.2828C11.6936 10.2741 11.7213 10.2717 11.7485 10.276C11.7756 10.2803 11.8013 10.2911 11.8234 10.3075Z" fill="#DBDBDB"/>
<path d="M7.46905 11.8291L7.1287 12.0757L6.60928 12.4508C6.5808 12.4717 6.55955 12.5011 6.54846 12.5347C6.53737 12.5683 6.537 12.6045 6.5474 12.6383L6.87837 13.6528C6.88785 13.6867 6.88666 13.7228 6.87493 13.756C6.86321 13.7892 6.84153 13.8181 6.81285 13.8386C6.78416 13.859 6.74986 13.8702 6.71462 13.8705C6.67937 13.8708 6.64488 13.8603 6.61584 13.8403L5.75701 13.2149C5.72779 13.1938 5.6927 13.1825 5.65668 13.1825C5.62067 13.1825 5.58558 13.1938 5.55636 13.2149L4.69659 13.8403C4.66755 13.8603 4.63307 13.8708 4.59782 13.8705C4.56257 13.8702 4.52827 13.859 4.49959 13.8386C4.4709 13.8181 4.44922 13.7892 4.4375 13.756C4.42578 13.7228 4.42458 13.6867 4.43407 13.6528L4.76316 12.643C4.77314 12.6091 4.77256 12.573 4.76151 12.5395C4.75045 12.506 4.72944 12.4767 4.70128 12.4555L4.58689 12.372C4.64784 12.2782 4.70972 12.177 4.77441 12.0785C5.11663 11.5451 5.47948 11.0237 5.86202 10.5203L6.14705 11.4025C6.15814 11.4368 6.17981 11.4667 6.20895 11.488C6.23809 11.5092 6.2732 11.5206 6.30925 11.5207H7.37529C7.41043 11.5226 7.44414 11.5353 7.47183 11.557C7.49953 11.5787 7.51987 11.6084 7.53011 11.6421C7.54034 11.6758 7.53997 11.7118 7.52905 11.7452C7.51813 11.7787 7.49718 11.808 7.46905 11.8291Z" fill="#DBDBDB"/>
<path d="M7.46992 19.8345L7.33772 19.9282L6.61015 20.458C6.58122 20.4786 6.55962 20.5079 6.5485 20.5416C6.53737 20.5753 6.53729 20.6117 6.54826 20.6455L6.87642 21.6553C6.88651 21.6893 6.88572 21.7257 6.87417 21.7592C6.86262 21.7928 6.84089 21.822 6.81199 21.8426C6.7831 21.8632 6.74848 21.8743 6.71297 21.8744C6.67747 21.8744 6.64283 21.8634 6.6139 21.8428L5.75506 21.2184C5.72585 21.1973 5.69075 21.186 5.65474 21.186C5.61873 21.186 5.58363 21.1973 5.55442 21.2184L4.69465 21.8428C4.66571 21.8634 4.63108 21.8744 4.59557 21.8744C4.56006 21.8743 4.52544 21.8632 4.49655 21.8426C4.46766 21.822 4.44592 21.7928 4.43437 21.7592C4.42282 21.7257 4.42203 21.6893 4.43212 21.6553L4.76121 20.6455C4.77175 20.6117 4.77145 20.5754 4.76036 20.5418C4.74926 20.5082 4.72792 20.4789 4.69933 20.458L3.83956 19.8326C3.8105 19.8114 3.78889 19.7815 3.77782 19.7473C3.76674 19.7131 3.76677 19.6762 3.7779 19.642C3.78903 19.6078 3.81068 19.578 3.83977 19.5568C3.86887 19.5356 3.90391 19.5242 3.93988 19.5241H5.00499C5.03108 19.5241 5.05683 19.5181 5.08023 19.5065C5.10364 19.495 5.12409 19.4782 5.14 19.4576C5.15162 19.4418 5.16079 19.4245 5.16719 19.406L5.49535 18.3962C5.50653 18.362 5.52823 18.3322 5.55736 18.3111C5.5865 18.2899 5.62156 18.2786 5.65755 18.2786C5.69354 18.2786 5.72861 18.2899 5.75774 18.3111C5.78687 18.3322 5.80858 18.362 5.81976 18.3962L6.14791 19.406C6.15431 19.4245 6.16348 19.4418 6.1751 19.4576C6.19102 19.4782 6.21147 19.495 6.23487 19.5065C6.25828 19.5181 6.28402 19.5241 6.31012 19.5241H7.37616C7.39529 19.5242 7.41429 19.5274 7.43241 19.5335C7.46181 19.5443 7.48767 19.563 7.50715 19.5875C7.52663 19.6121 7.53898 19.6415 7.54286 19.6726C7.54673 19.7036 7.54197 19.7352 7.52911 19.7638C7.51624 19.7923 7.49576 19.8168 7.46992 19.8345Z" fill="#DBDBDB"/>
<path d="M9.58183 8.3846C9.57104 8.41877 9.57104 8.45543 9.58183 8.48961L9.90718 9.49939C9.91704 9.5333 9.91613 9.56943 9.90459 9.6028C9.89305 9.63617 9.87144 9.66514 9.84274 9.68571C9.81404 9.70629 9.77966 9.71745 9.74435 9.71766C9.70904 9.71788 9.67454 9.70713 9.64559 9.68691L8.78582 9.06154C8.75661 9.04048 8.72151 9.02915 8.6855 9.02915C8.64949 9.02915 8.61439 9.04048 8.58517 9.06154L7.7254 9.68691C7.69646 9.70713 7.66195 9.71788 7.62664 9.71766C7.59133 9.71745 7.55695 9.70629 7.52825 9.68571C7.49956 9.66514 7.47795 9.63617 7.4664 9.6028C7.45486 9.56943 7.45396 9.5333 7.46381 9.49939L7.79197 8.48961C7.80276 8.45543 7.80276 8.41877 7.79197 8.3846C7.78571 8.35588 7.7714 8.32953 7.75072 8.30865C8.18826 7.85861 8.63987 7.42638 9.10554 7.01196L9.18054 7.24355C9.19107 7.27885 9.21274 7.30981 9.24232 7.33178C9.27189 7.35375 9.30778 7.36555 9.34462 7.36544H10.4069C10.4428 7.36582 10.4778 7.37748 10.5067 7.39877C10.5357 7.42006 10.5572 7.4499 10.5683 7.48408C10.5794 7.51827 10.5794 7.55507 10.5685 7.58929C10.5575 7.62352 10.5361 7.65344 10.5072 7.67484L9.64747 8.29834C9.6167 8.31909 9.59363 8.34941 9.58183 8.3846Z" fill="#DBDBDB"/>
<path d="M4.76924 15.7681C4.76687 15.7915 4.75943 15.8141 4.74745 15.8344C4.73547 15.8546 4.71923 15.872 4.69986 15.8853L3.84009 16.5107C3.81172 16.5318 3.79055 16.5611 3.77947 16.5947C3.7684 16.6282 3.76795 16.6644 3.77821 16.6982L4.10637 17.709C4.11685 17.743 4.11637 17.7794 4.10501 17.8131C4.09365 17.8468 4.07198 17.8761 4.04306 17.8969C4.01414 17.9176 3.97944 17.9287 3.94386 17.9286C3.90828 17.9286 3.87362 17.9173 3.84478 17.8965L2.98501 17.273C2.95615 17.2511 2.92091 17.2392 2.88469 17.2392C2.84846 17.2392 2.81322 17.2511 2.78436 17.273L2.10742 17.7652C2.32182 17.0826 2.56559 16.4151 2.83874 15.7625C2.955 15.4812 3.07689 15.2056 3.20534 14.9299L3.37505 15.454C3.3861 15.4884 3.40773 15.5185 3.43686 15.5399C3.46599 15.5612 3.50112 15.5729 3.53725 15.5731H4.59954C4.62408 15.573 4.64835 15.5782 4.67071 15.5883C4.69306 15.5984 4.71297 15.6132 4.72908 15.6317C4.74519 15.6503 4.75711 15.672 4.76405 15.6956C4.77098 15.7191 4.77275 15.7439 4.76924 15.7681Z" fill="#DBDBDB"/>
<path d="M3.84098 24.5637C3.81239 24.5846 3.79105 24.6139 3.77996 24.6475C3.76886 24.6811 3.76856 24.7174 3.7791 24.7512L4.10725 25.7629C4.11773 25.7969 4.11726 25.8333 4.1059 25.867C4.09454 25.9007 4.07287 25.93 4.04395 25.9508C4.01503 25.9715 3.98033 25.9826 3.94474 25.9825C3.90916 25.9825 3.8745 25.9712 3.84567 25.9504L2.98589 25.3269C2.95685 25.3054 2.92169 25.2938 2.88557 25.2938C2.84946 25.2938 2.81429 25.3054 2.78525 25.3269L1.92642 25.9541C1.8976 25.9754 1.86281 25.9869 1.82702 25.9872C1.79123 25.9874 1.75628 25.9764 1.72715 25.9556C1.69803 25.9348 1.67623 25.9053 1.66487 25.8714C1.65351 25.8374 1.65316 25.8008 1.66389 25.7666L1.99205 24.755C2.00288 24.7212 2.00272 24.6848 1.9916 24.6511C1.98049 24.6174 1.95898 24.5881 1.93017 24.5674L1.0704 23.9383C1.05237 23.9255 1.03708 23.9093 1.02539 23.8905C1.02539 23.8258 1.03102 23.7611 1.03477 23.6974C1.05036 23.6761 1.07088 23.6589 1.09455 23.6473C1.11823 23.6358 1.14436 23.6301 1.17072 23.6308H2.23301C2.26914 23.6305 2.30427 23.6189 2.3334 23.5975C2.36252 23.5761 2.38416 23.5461 2.39521 23.5117L2.51241 23.1517L2.72337 22.5019C2.73455 22.4677 2.75625 22.4379 2.78538 22.4168C2.81452 22.3957 2.84958 22.3843 2.88557 22.3843C2.92156 22.3843 2.95663 22.3957 2.98576 22.4168C3.01489 22.4379 3.0366 22.4677 3.04778 22.5019L3.25873 23.1517L3.37593 23.5117C3.38699 23.5461 3.40862 23.5761 3.43775 23.5975C3.46687 23.6189 3.50201 23.6305 3.53814 23.6308H4.60043C4.63646 23.6305 4.67164 23.6417 4.70088 23.6627C4.73012 23.6838 4.75191 23.7136 4.76308 23.7478C4.77425 23.7821 4.77424 23.819 4.76303 23.8533C4.75182 23.8875 4.73001 23.9173 4.70075 23.9383L3.84098 24.5637Z" fill="#DBDBDB"/>
<path d="M6.80273 23.8023C6.80286 23.7645 6.81501 23.7277 6.83743 23.6973C6.83743 23.761 6.83086 23.8257 6.82805 23.8904C6.81953 23.8775 6.8132 23.8632 6.8093 23.8482C6.8093 23.8398 6.8093 23.8323 6.80461 23.8248C6.80348 23.8173 6.80285 23.8098 6.80273 23.8023Z" fill="white"/>
<path d="M8.85101 14.4498L9.17916 15.4605C9.19061 15.4952 9.21292 15.5254 9.2428 15.5465C9.27268 15.5676 9.30855 15.5785 9.34512 15.5777H10.4074C10.4434 15.5778 10.4784 15.5892 10.5075 15.6104C10.5366 15.6315 10.5583 15.6614 10.5694 15.6956C10.5805 15.7298 10.5806 15.7666 10.5695 15.8009C10.5584 15.8351 10.5368 15.865 10.5077 15.8862L9.64796 16.5106C9.61937 16.5315 9.59803 16.5608 9.58694 16.5944C9.57584 16.6281 9.57554 16.6643 9.58608 16.6981L9.90767 17.7117C9.91815 17.7457 9.91768 17.7821 9.90632 17.8158C9.89496 17.8495 9.87328 17.8788 9.84437 17.8996C9.81545 17.9203 9.78074 17.9314 9.74516 17.9313C9.70958 17.9313 9.67492 17.92 9.64608 17.8992L8.78631 17.2747C8.7571 17.2537 8.722 17.2424 8.68599 17.2424C8.64998 17.2424 8.61488 17.2537 8.58567 17.2747L7.7259 17.8992C7.69706 17.92 7.6624 17.9313 7.62682 17.9313C7.59124 17.9314 7.55653 17.9203 7.52761 17.8996C7.49869 17.8788 7.47702 17.8495 7.46566 17.8158C7.4543 17.7821 7.45383 17.7457 7.46431 17.7117L7.79247 16.7009C7.803 16.6671 7.8027 16.6309 7.79161 16.5973C7.78051 16.5636 7.75917 16.5343 7.73058 16.5134L6.87081 15.889C6.84175 15.8678 6.82014 15.8379 6.80907 15.8037C6.79799 15.7695 6.79802 15.7326 6.80915 15.6984C6.82028 15.6642 6.84193 15.6343 6.87102 15.6132C6.90012 15.592 6.93516 15.5806 6.97113 15.5805H8.03249C8.06842 15.5805 8.10345 15.5692 8.13257 15.5482C8.1617 15.5271 8.18344 15.4974 8.19469 15.4633L8.52285 14.4526C8.53273 14.4168 8.55398 14.3853 8.58339 14.3627C8.61281 14.3401 8.64878 14.3277 8.68587 14.3274C8.72295 14.3271 8.75913 14.3389 8.78893 14.3609C8.81873 14.383 8.84052 14.4142 8.85101 14.4498Z" fill="white"/>
<path d="M9.00879 14.9355C8.88034 15.2103 8.75845 15.4859 8.64219 15.7672C8.36904 16.4204 8.12526 17.0876 7.91087 17.7689L7.72804 17.9002C7.6992 17.921 7.66454 17.9323 7.62896 17.9324C7.59338 17.9324 7.55867 17.9213 7.52975 17.9006C7.50083 17.8799 7.47916 17.8506 7.4678 17.8168C7.45644 17.7831 7.45597 17.7467 7.46645 17.7127L7.79461 16.702C7.80514 16.6682 7.80484 16.6319 7.79375 16.5983C7.78265 16.5647 7.76131 16.5353 7.73272 16.5144L6.87295 15.8891C6.85358 15.8757 6.83735 15.8583 6.82536 15.8381C6.81338 15.8179 6.80595 15.7953 6.80357 15.7719C6.80121 15.7482 6.80385 15.7242 6.8113 15.7016C6.81876 15.679 6.83087 15.6582 6.84685 15.6405C6.86284 15.6228 6.88235 15.6087 6.90412 15.599C6.92589 15.5894 6.94945 15.5844 6.97327 15.5844H8.03182C8.06795 15.5841 8.10308 15.5725 8.1322 15.5511C8.16133 15.5297 8.18296 15.4997 8.19402 15.4653L8.52218 14.4546C8.53335 14.4204 8.55506 14.3906 8.58419 14.3694C8.61332 14.3483 8.64839 14.3369 8.68438 14.3369C8.72037 14.3369 8.75543 14.3483 8.78457 14.3694C8.8137 14.3906 8.83541 14.4204 8.84658 14.4546L9.00879 14.9355Z" fill="#DBDBDB"/>
<path d="M11.8827 10.3918L12.2108 11.4025C12.2221 11.4367 12.2438 11.4664 12.2729 11.4874C12.3021 11.5085 12.3371 11.5198 12.373 11.5197H13.4353C13.4713 11.5198 13.5063 11.5312 13.5354 11.5524C13.5645 11.5736 13.5862 11.6034 13.5973 11.6376C13.6084 11.6718 13.6085 11.7087 13.5974 11.7429C13.5863 11.7771 13.5647 11.807 13.5356 11.8282L12.6759 12.4526C12.6475 12.4737 12.6263 12.503 12.6153 12.5366C12.6042 12.5702 12.6037 12.6063 12.614 12.6402L12.9431 13.6528C12.9532 13.6868 12.9524 13.7231 12.9408 13.7567C12.9293 13.7903 12.9075 13.8194 12.8787 13.8401C12.8498 13.8607 12.8151 13.8718 12.7796 13.8719C12.7441 13.8719 12.7095 13.8609 12.6806 13.8403L11.8208 13.2158C11.7917 13.1949 11.7568 13.1836 11.7209 13.1836C11.6851 13.1836 11.6501 13.1949 11.6211 13.2158L10.7613 13.8403C10.7324 13.8609 10.6977 13.8719 10.6622 13.8719C10.6267 13.8718 10.5921 13.8607 10.5632 13.8401C10.5343 13.8194 10.5126 13.7903 10.501 13.7567C10.4895 13.7231 10.4887 13.6868 10.4988 13.6528L10.8269 12.642C10.8376 12.6082 10.8374 12.5719 10.8263 12.5383C10.8152 12.5046 10.7938 12.4753 10.7651 12.4545L9.9081 11.8282C9.87944 11.8073 9.85799 11.7781 9.84673 11.7444C9.83547 11.7108 9.83496 11.6745 9.84527 11.6406C9.85558 11.6067 9.87619 11.5768 9.90426 11.5552C9.93232 11.5335 9.96643 11.5211 10.0019 11.5197H11.0642C11.1008 11.5207 11.1367 11.5098 11.1666 11.4887C11.1965 11.4676 11.2188 11.4374 11.2301 11.4025L11.5583 10.3918C11.5694 10.3576 11.5911 10.3278 11.6203 10.3067C11.6494 10.2855 11.6845 10.2742 11.7205 10.2742C11.7565 10.2742 11.7915 10.2855 11.8207 10.3067C11.8498 10.3278 11.8715 10.3576 11.8827 10.3918Z" fill="white"/>
<path d="M10.0013 11.5198H10.9389C10.8133 11.7073 10.6914 11.8892 10.5714 12.0758L10.4682 12.2398L10.2413 12.0758L9.90754 11.8292C9.87905 11.8081 9.85776 11.7788 9.84661 11.7452C9.83546 11.7115 9.83499 11.6753 9.84526 11.6414C9.85554 11.6075 9.87605 11.5776 9.90399 11.5558C9.93192 11.5341 9.96592 11.5215 10.0013 11.5198Z" fill="#DBDBDB"/>
<path d="M14.9135 6.23739L15.2417 7.24812C15.2528 7.28232 15.2745 7.3121 15.3037 7.33317C15.3328 7.35423 15.3679 7.36549 15.4039 7.36532H16.4699C16.5053 7.3667 16.5394 7.37909 16.5675 7.40075C16.5956 7.42242 16.6162 7.45228 16.6265 7.4862C16.6368 7.52012 16.6363 7.55641 16.625 7.59003C16.6138 7.62364 16.5923 7.65292 16.5637 7.67378L15.7039 8.29822C15.6752 8.31902 15.6538 8.34833 15.6427 8.38198C15.6316 8.41564 15.6313 8.45194 15.642 8.48574L15.9702 9.49646C15.9803 9.53051 15.9795 9.56685 15.9679 9.60043C15.9564 9.63401 15.9346 9.66315 15.9057 9.68379C15.8768 9.70442 15.8422 9.71554 15.8067 9.71557C15.7712 9.7156 15.7366 9.70456 15.7076 9.68398L14.8488 9.05954C14.8196 9.03849 14.7845 9.02716 14.7485 9.02716C14.7125 9.02716 14.6774 9.03849 14.6482 9.05954L13.7884 9.68398C13.7595 9.70456 13.7248 9.7156 13.6893 9.71557C13.6538 9.71554 13.6192 9.70442 13.5903 9.68379C13.5614 9.66315 13.5397 9.63401 13.5281 9.60043C13.5166 9.56685 13.5158 9.53051 13.5259 9.49646L13.855 8.48574C13.8652 8.45191 13.8648 8.41575 13.8537 8.38218C13.8426 8.34862 13.8215 8.3193 13.7931 8.29822L12.9333 7.67378C12.9043 7.65257 12.8826 7.62272 12.8716 7.58848C12.8605 7.55425 12.8605 7.5174 12.8716 7.48318C12.8828 7.44897 12.9044 7.41915 12.9335 7.39798C12.9626 7.37681 12.9977 7.36538 13.0336 7.36532H14.0959C14.1319 7.36535 14.1669 7.35403 14.196 7.33299C14.2251 7.31195 14.2469 7.28224 14.2581 7.24812L14.5863 6.23739C14.5967 6.20211 14.6183 6.17116 14.6478 6.14914C14.6773 6.12713 14.7131 6.11523 14.7499 6.11523C14.7867 6.11523 14.8225 6.12713 14.852 6.14914C14.8815 6.17116 14.9031 6.20211 14.9135 6.23739Z" fill="white"/>
<path d="M15.1099 6.83949C15.0415 6.89668 14.974 6.95575 14.9064 7.01576C14.477 7.39548 14.0626 7.79208 13.6613 8.20087L12.9366 7.67488C12.9071 7.6538 12.8851 7.62389 12.8738 7.58948C12.8625 7.55507 12.8624 7.51795 12.8736 7.48349C12.8847 7.44902 12.9066 7.41901 12.9359 7.3978C12.9653 7.37658 13.0007 7.36526 13.0369 7.36548H14.0992C14.1352 7.3653 14.1702 7.3538 14.1994 7.33259C14.2285 7.31139 14.2502 7.28157 14.2614 7.24734L14.5895 6.23849C14.6007 6.20429 14.6224 6.17449 14.6516 6.15336C14.6807 6.13223 14.7158 6.12085 14.7517 6.12085C14.7877 6.12085 14.8228 6.13223 14.8519 6.15336C14.8811 6.17449 14.9028 6.20429 14.9139 6.23849L15.1099 6.83949Z" fill="#DBDBDB"/>
<path d="M17.9448 2.53303L18.2729 3.54282C18.2842 3.57773 18.3064 3.60809 18.3363 3.62937C18.3662 3.65065 18.4022 3.66172 18.4389 3.66095H19.5012C19.5371 3.66101 19.5722 3.67245 19.6013 3.69361C19.6304 3.71478 19.652 3.7446 19.6631 3.77882C19.6743 3.81303 19.6743 3.84989 19.6632 3.88412C19.6522 3.91835 19.6305 3.94821 19.6015 3.96942L18.7417 4.59386C18.7131 4.61475 18.6918 4.64406 18.6807 4.67769C18.6696 4.71132 18.6693 4.74757 18.6798 4.78138L19.0014 5.79491C19.0119 5.82891 19.0114 5.86535 19.0001 5.89907C18.9887 5.93279 18.967 5.96209 18.9381 5.98282C18.9092 6.00355 18.8745 6.01466 18.8389 6.01459C18.8033 6.01452 18.7687 6.00327 18.7398 5.98243L17.8801 5.35799C17.8508 5.33694 17.8157 5.32561 17.7797 5.32561C17.7437 5.32561 17.7086 5.33694 17.6794 5.35799L16.8196 5.98243C16.7908 6.00327 16.7561 6.01452 16.7206 6.01459C16.685 6.01466 16.6503 6.00355 16.6214 5.98282C16.5924 5.96209 16.5708 5.93279 16.5594 5.89907C16.5481 5.86535 16.5476 5.82891 16.5581 5.79491L16.8862 4.78419C16.8968 4.75038 16.8965 4.71413 16.8854 4.6805C16.8743 4.64688 16.8529 4.61756 16.8243 4.59667L15.9646 3.97223C15.9355 3.95102 15.9139 3.92117 15.9028 3.88693C15.8917 3.8527 15.8918 3.81585 15.9029 3.78163C15.914 3.74742 15.9357 3.7176 15.9648 3.69643C15.9939 3.67526 16.0289 3.66383 16.0649 3.66377H17.1262C17.1623 3.66373 17.1974 3.65228 17.2265 3.63106C17.2557 3.60984 17.2773 3.57993 17.2884 3.54563L17.6166 2.53585C17.6265 2.5001 17.6477 2.46854 17.6771 2.44595C17.7066 2.42336 17.7425 2.41097 17.7796 2.41065C17.8167 2.41033 17.8529 2.42211 17.8827 2.44419C17.9125 2.46627 17.9343 2.49746 17.9448 2.53303Z" fill="white"/>
<path d="M19.6444 3.74446C19.5638 3.78572 19.4841 3.82978 19.4044 3.87197C18.9268 4.13012 18.4599 4.40359 18.0036 4.69237C17.5273 4.99114 17.0632 5.30743 16.6113 5.64121L16.8926 4.78519C16.9011 4.75452 16.9011 4.7221 16.8926 4.69143C16.8834 4.65149 16.8601 4.61621 16.827 4.59204L15.9672 3.96761C15.9379 3.94659 15.9161 3.9168 15.9049 3.88256C15.8937 3.84832 15.8937 3.8114 15.9049 3.77715C15.916 3.74289 15.9378 3.71309 15.9671 3.69204C15.9963 3.67099 16.0315 3.6598 16.0675 3.66008H17.127C17.163 3.66025 17.198 3.649 17.2272 3.62793C17.2564 3.60687 17.2781 3.57708 17.2892 3.54288L17.6173 2.53122C17.6285 2.49701 17.6502 2.46721 17.6794 2.44608C17.7085 2.42495 17.7436 2.41357 17.7795 2.41357C17.8155 2.41357 17.8506 2.42495 17.8797 2.44608C17.9089 2.46721 17.9306 2.49701 17.9418 2.53122L18.2699 3.54288C18.2812 3.57852 18.304 3.60942 18.3347 3.63078C18.3654 3.65214 18.4023 3.66277 18.4396 3.66102H19.5019C19.5309 3.66127 19.5593 3.66911 19.5843 3.68375C19.6093 3.69839 19.63 3.71932 19.6444 3.74446Z" fill="#DBDBDB"/>
<path d="M46.128 26.5157C46.971 26.5157 47.6544 25.8323 47.6544 24.9893C47.6544 24.1463 46.971 23.4629 46.128 23.4629C45.285 23.4629 44.6016 24.1463 44.6016 24.9893C44.6016 25.8323 45.285 26.5157 46.128 26.5157Z" fill="#E54141"/>
<path d="M42.9482 26.0703C43.5453 26.0703 44.0293 25.5863 44.0293 24.9892C44.0293 24.3922 43.5453 23.9082 42.9482 23.9082C42.3512 23.9082 41.8672 24.3922 41.8672 24.9892C41.8672 25.5863 42.3512 26.0703 42.9482 26.0703Z" fill="#E54141"/>
</svg>
